<svg xmlns="http://www.w3.org/2000/svg" viewBox="0 0 564.94389 319.27196"><defs><style>.cls-1,.cls-4{fill:none;}.cls-1{stroke:#cbd4ff;stroke-linecap:round;stroke-linejoin:round;stroke-width:2.84193px;}.cls-2{opacity:0.6;}.cls-3{fill:#cbd4ff;}.cls-4,.cls-5{stroke:#be975f;stroke-miterlimit:10;}.cls-4{stroke-width:3.78925px;}.cls-5{fill:#be975f;stroke-width:0.94731px;}</style></defs><title>18Asset 461</title><g id="Layer_2" data-name="Layer 2"><g id="Layer_1-2" data-name="Layer 1"><line class="cls-1" x1="50.63982" y1="1.42097" x2="50.63982" y2="294.04787"/><line class="cls-1" x1="563.52292" y1="294.04787" x2="9.8414" y2="294.04787"/><g class="cls-2"><path class="cls-3" d="M7.93848,242.11668v.95215H6.42578v2.16992H5.27832v-2.16992H.68555v-.86816L5.48828,235.271h.9375v6.8457Zm-6.0625,0H5.27832v-4.8999Z" transform="translate(-0.62988)"/><path class="cls-3" d="M10.002,244.05565a8.57322,8.57322,0,0,1,0-7.60205,2.95351,2.95351,0,0,1,2.59766-1.29492,2.95179,2.95179,0,0,1,2.59668,1.29492,8.55854,8.55854,0,0,1,0,7.59521,2.94509,2.94509,0,0,1-2.59668,1.30176A2.9524,2.9524,0,0,1,10.002,244.05565Zm4.3545-.67871a8.92382,8.92382,0,0,0,.00683-6.24414,1.88072,1.88072,0,0,0-1.76367-.99414,1.88418,1.88418,0,0,0-1.75684.99414,6.51181,6.51181,0,0,0-.56738,3.10791,6.644,6.644,0,0,0,.56738,3.1289,1.87694,1.87694,0,0,0,1.75684,1.01514A1.88025,1.88025,0,0,0,14.35645,243.37694Z" transform="translate(-0.62988)"/><path class="cls-3" d="M18.21387,240.479a4.42379,4.42379,0,0,1,0-4.55029,2.15184,2.15184,0,0,1,1.76367-.77,2.174,2.174,0,0,1,1.77148.77,4.38313,4.38313,0,0,1,0,4.55029,2.17373,2.17373,0,0,1-1.77148.76953A2.15152,2.15152,0,0,1,18.21387,240.479Zm2.793-.58106a3.37968,3.37968,0,0,0,.3291-1.70117,3.344,3.344,0,0,0-.3291-1.687,1.24477,1.24477,0,0,0-2.05079,0,3.2733,3.2733,0,0,0-.33593,1.687,3.30812,3.30812,0,0,0,.33593,1.70117,1.24476,1.24476,0,0,0,2.05079,0Zm.03515,5.34082H19.93555L25.7041,235.271h1.10547Zm3.96192-.67187a4.43618,4.43618,0,0,1,0-4.55713,2.15983,2.15983,0,0,1,1.76367-.76318,2.18221,2.18221,0,0,1,1.77148.76318,4.39539,4.39539,0,0,1,0,4.55713,2.17408,2.17408,0,0,1-1.77148.77A2.15186,2.15186,0,0,1,25.00391,244.56688Zm2.80664-.57422a3.36259,3.36259,0,0,0,.3291-1.708,3.28326,3.28326,0,0,0-.33594-1.687,1.13578,1.13578,0,0,0-1.03613-.53906,1.11782,1.11782,0,0,0-1.02832.53906,3.33354,3.33354,0,0,0-.3291,1.687,3.36908,3.36908,0,0,0,.3291,1.70117,1.11688,1.11688,0,0,0,1.02832.53907A1.13409,1.13409,0,0,0,27.81055,243.99266Z" transform="translate(-0.62988)"/></g><path class="cls-3" d="M67.67773,318.208H69.875v.96582H64.31738V318.208h2.19825v-7.57422L64.47168,311.936v-1.10645l2.54785-1.62353h.6582Z" transform="translate(-0.62988)"/><path class="cls-3" d="M77.18945,313.31493a2.7063,2.7063,0,0,1,1.085,1.11279,3.47985,3.47985,0,0,1,.37793,1.65185,3.32426,3.32426,0,0,1-.41211,1.666,2.82526,2.82526,0,0,1-1.17675,1.12744,3.80427,3.80427,0,0,1-1.78516.39893,5.09784,5.09784,0,0,1-1.792-.3291,4.2867,4.2867,0,0,1-1.4834-.90284l.43359-.88232a4.42647,4.42647,0,0,0,2.8418,1.148,2.22435,2.22435,0,0,0,1.64551-.59473,2.18521,2.18521,0,0,0,.59472-1.61719,2.2086,2.2086,0,0,0-.58789-1.603,2.07932,2.07932,0,0,0-1.56738-.60889,2.69184,2.69184,0,0,0-2.28223,1.16211H72.2832V309.206h5.97754v.95166H73.43066v3.55615a2.91571,2.91571,0,0,1,2.11426-.79785A3.28643,3.28643,0,0,1,77.18945,313.31493Z" transform="translate(-0.62988)"/><path class="cls-3" d="M125.54,318.208v.96582h-6.41211v-.86816l3.48633-3.86377a7.03137,7.03137,0,0,0,1.02148-1.41406,2.7444,2.7444,0,0,0,.32227-1.25977,1.6419,1.6419,0,0,0-.47656-1.26709A1.92468,1.92468,0,0,0,122.124,310.06a4.45373,4.45373,0,0,0-2.82812,1.14795l-.4336-.88232a4.31419,4.31419,0,0,1,1.4834-.896,5.11791,5.11791,0,0,1,1.80567-.33594,3.1583,3.1583,0,0,1,2.1709.707,2.42722,2.42722,0,0,1,.79785,1.91113,3.71377,3.71377,0,0,1-.38574,1.645,7.85014,7.85014,0,0,1-1.28028,1.771l-2.8418,3.08008Z" transform="translate(-0.62988)"/><path class="cls-3" d="M132.62988,313.31493a2.7063,2.7063,0,0,1,1.085,1.11279,3.47985,3.47985,0,0,1,.37793,1.65185,3.32426,3.32426,0,0,1-.41211,1.666,2.82526,2.82526,0,0,1-1.17675,1.12744,3.80427,3.80427,0,0,1-1.78516.39893,5.0978,5.0978,0,0,1-1.792-.3291,4.2867,4.2867,0,0,1-1.4834-.90284l.43359-.88232a4.42647,4.42647,0,0,0,2.8418,1.148,2.22435,2.22435,0,0,0,1.64551-.59473,2.18521,2.18521,0,0,0,.59472-1.61719,2.2086,2.2086,0,0,0-.58789-1.603,2.07933,2.07933,0,0,0-1.56738-.60889,2.69184,2.69184,0,0,0-2.28223,1.16211h-.79785V309.206h5.97754v.95166h-4.83008v3.55615a2.91571,2.91571,0,0,1,2.11426-.79785A3.28643,3.28643,0,0,1,132.62988,313.31493Z" transform="translate(-0.62988)"/><path class="cls-3" d="M180.335,314.918a2.52027,2.52027,0,0,1,.46192,1.55371,2.54927,2.54927,0,0,1-.88184,2.05127,3.57755,3.57755,0,0,1-2.39453.749,5.40024,5.40024,0,0,1-1.85449-.32227,4.23012,4.23012,0,0,1-1.50489-.90967l.44825-.88232a4.47241,4.47241,0,0,0,2.88378,1.148,2.41358,2.41358,0,0,0,1.61719-.47608,1.74632,1.74632,0,0,0,.55274-1.3999q0-1.834-2.2959-1.834h-1.14844v-.96582h.92383a2.57917,2.57917,0,0,0,1.69433-.49024,1.71974,1.71974,0,0,0,.58789-1.3999,1.59153,1.59153,0,0,0-.48242-1.24609,1.97493,1.97493,0,0,0-1.36523-.4336A4.45375,4.45375,0,0,0,174.749,311.208l-.43359-.88232a4.29934,4.29934,0,0,1,1.47656-.90283,5.14974,5.14974,0,0,1,1.82715-.32911,3.20154,3.20154,0,0,1,2.14844.686,2.3027,2.3027,0,0,1,.80566,1.84814,2.68561,2.68561,0,0,1-.41992,1.49805,2.3345,2.3345,0,0,1-1.16211.92383A2.4583,2.4583,0,0,1,180.335,314.918Z" transform="translate(-0.62988)"/><path class="cls-3" d="M188.083,313.31493a2.7063,2.7063,0,0,1,1.085,1.11279,3.48,3.48,0,0,1,.37793,1.65185,3.32436,3.32436,0,0,1-.41211,1.666A2.82529,2.82529,0,0,1,187.957,318.873a3.80423,3.80423,0,0,1-1.78515.39893,5.09786,5.09786,0,0,1-1.792-.3291,4.2867,4.2867,0,0,1-1.4834-.90284l.4336-.88232a4.42645,4.42645,0,0,0,2.8418,1.148,2.22433,2.22433,0,0,0,1.6455-.59473,2.18517,2.18517,0,0,0,.59473-1.61719,2.2086,2.2086,0,0,0-.58789-1.603,2.07933,2.07933,0,0,0-1.56738-.60889,2.69184,2.69184,0,0,0-2.28223,1.16211h-.79785V309.206h5.97754v.95166h-4.83008v3.55615a2.91568,2.91568,0,0,1,2.11426-.79785A3.28646,3.28646,0,0,1,188.083,313.31493Z" transform="translate(-0.62988)"/><path class="cls-3" d="M236.8042,316.05174v.95215h-1.5127v2.16992H234.144v-2.16992h-4.59277v-.86816L234.354,309.206h.9375v6.8457Zm-6.0625,0H234.144v-4.8999Z" transform="translate(-0.62988)"/><path class="cls-3" d="M243.52979,313.31493a2.70642,2.70642,0,0,1,1.085,1.11279,3.48,3.48,0,0,1,.37793,1.65185,3.32436,3.32436,0,0,1-.41211,1.666,2.82529,2.82529,0,0,1-1.17676,1.12744,3.80427,3.80427,0,0,1-1.78516.39893,5.09784,5.09784,0,0,1-1.792-.3291,4.2867,4.2867,0,0,1-1.4834-.90284l.4336-.88232a4.42643,4.42643,0,0,0,2.84179,1.148,2.22433,2.22433,0,0,0,1.64551-.59473,2.18521,2.18521,0,0,0,.59473-1.61719,2.20864,2.20864,0,0,0-.58789-1.603,2.07936,2.07936,0,0,0-1.56739-.60889,2.69181,2.69181,0,0,0-2.28222,1.16211h-.79785V309.206h5.97753v.95166H239.771v3.55615a2.91567,2.91567,0,0,1,2.11425-.79785A3.2865,3.2865,0,0,1,243.52979,313.31493Z" transform="translate(-0.62988)"/><path class="cls-3" d="M290.57715,313.31493a2.7063,2.7063,0,0,1,1.085,1.11279,3.48,3.48,0,0,1,.37793,1.65185,3.32436,3.32436,0,0,1-.41211,1.666,2.82529,2.82529,0,0,1-1.17676,1.12744,3.80423,3.80423,0,0,1-1.78515.39893,5.09786,5.09786,0,0,1-1.792-.3291,4.28656,4.28656,0,0,1-1.48339-.90284l.43359-.88232a4.42645,4.42645,0,0,0,2.8418,1.148,2.22433,2.22433,0,0,0,1.6455-.59473,2.18517,2.18517,0,0,0,.59473-1.61719,2.2086,2.2086,0,0,0-.58789-1.603,2.07933,2.07933,0,0,0-1.56738-.60889,2.69184,2.69184,0,0,0-2.28223,1.16211h-.79785V309.206h5.97754v.95166h-4.83008v3.55615a2.91568,2.91568,0,0,1,2.11426-.79785A3.28643,3.28643,0,0,1,290.57715,313.31493Z" transform="translate(-0.62988)"/><path class="cls-3" d="M298.97656,313.31493a2.7063,2.7063,0,0,1,1.085,1.11279,3.47985,3.47985,0,0,1,.37793,1.65185,3.32426,3.32426,0,0,1-.41211,1.666,2.82526,2.82526,0,0,1-1.17675,1.12744,3.80427,3.80427,0,0,1-1.78516.39893,5.09776,5.09776,0,0,1-1.792-.3291A4.2867,4.2867,0,0,1,293.79,318.04l.43359-.88232a4.42647,4.42647,0,0,0,2.8418,1.148,2.22435,2.22435,0,0,0,1.64551-.59473,2.18521,2.18521,0,0,0,.59472-1.61719,2.2086,2.2086,0,0,0-.58789-1.603,2.07933,2.07933,0,0,0-1.56738-.60889,2.69184,2.69184,0,0,0-2.28223,1.16211h-.79785V309.206h5.97754v.95166h-4.83008v3.55615a2.91569,2.91569,0,0,1,2.11426-.79785A3.28643,3.28643,0,0,1,298.97656,313.31493Z" transform="translate(-0.62988)"/><path class="cls-3" d="M345.99658,312.68358a2.7945,2.7945,0,0,1,1.09863,1.12012,3.382,3.382,0,0,1,.39161,1.64453,3.2984,3.2984,0,0,1-.41211,1.65234,2.98049,2.98049,0,0,1-1.1416,1.14111,3.28752,3.28752,0,0,1-1.65137.4126,3.32306,3.32306,0,0,1-2.78613-1.25976,5.7267,5.7267,0,0,1-.98047-3.584,8.16267,8.16267,0,0,1,.45507-2.88428,3.91347,3.91347,0,0,1,1.31641-1.834,3.39812,3.39812,0,0,1,2.06445-.62988,4.56911,4.56911,0,0,1,1.6875.32226,4.3767,4.3767,0,0,1,1.43457.90967l-.43359.88232a5.61642,5.61642,0,0,0-1.34473-.86816,3.2671,3.2671,0,0,0-1.31543-.27978,2.2369,2.2369,0,0,0-2.002,1.14794,6.09451,6.09451,0,0,0-.71387,3.21973v.21a2.61441,2.61441,0,0,1,1.04981-1.25976,3.03991,3.03991,0,0,1,1.666-.46192A3.23366,3.23366,0,0,1,345.99658,312.68358Zm-.23144,4.396a2.22815,2.22815,0,0,0,.58789-1.61718,2.19677,2.19677,0,0,0-.59473-1.603,2.06692,2.06692,0,0,0-1.54687-.60889,2.22,2.22,0,1,0,.01367,4.438A2.04389,2.04389,0,0,0,345.76514,317.07957Z" transform="translate(-0.62988)"/><path class="cls-3" d="M354.42334,312.68358a2.70636,2.70636,0,0,1,1.085,1.11279,3.48,3.48,0,0,1,.37793,1.65186,3.32422,3.32422,0,0,1-.41211,1.666,2.82529,2.82529,0,0,1-1.17676,1.12744,3.80423,3.80423,0,0,1-1.78515.39893,5.09763,5.09763,0,0,1-1.792-.3291,4.28669,4.28669,0,0,1-1.48339-.90283l.43359-.88233a4.4264,4.4264,0,0,0,2.8418,1.148,2.22433,2.22433,0,0,0,1.6455-.59473,2.18516,2.18516,0,0,0,.59473-1.61718,2.20861,2.20861,0,0,0-.58789-1.603,2.07933,2.07933,0,0,0-1.56738-.60889,2.69184,2.69184,0,0,0-2.28223,1.16211h-.79785v-5.83789h5.97754v.95166h-4.83008v3.55615a2.91568,2.91568,0,0,1,2.11426-.79785A3.28654,3.28654,0,0,1,354.42334,312.68358Z" transform="translate(-0.62988)"/><path class="cls-3" d="M396.11621,308.57469h6.58008v.854l-4.67578,9.11377h-1.23242l4.64843-9.002h-5.32031Z" transform="translate(-0.62988)"/><path class="cls-3" d="M409.87012,312.68358a2.70636,2.70636,0,0,1,1.085,1.11279,3.48,3.48,0,0,1,.37793,1.65186,3.32432,3.32432,0,0,1-.41211,1.666,2.82529,2.82529,0,0,1-1.17676,1.12744,3.80424,3.80424,0,0,1-1.78516.39893,5.09762,5.09762,0,0,1-1.792-.3291,4.28683,4.28683,0,0,1-1.4834-.90283l.4336-.88233a4.42639,4.42639,0,0,0,2.84179,1.148,2.22433,2.22433,0,0,0,1.64551-.59473,2.18516,2.18516,0,0,0,.59473-1.61718,2.20861,2.20861,0,0,0-.58789-1.603,2.07933,2.07933,0,0,0-1.56738-.60889,2.69183,2.69183,0,0,0-2.28223,1.16211h-.79785v-5.83789h5.97754v.95166h-4.83008v3.55615a2.91568,2.91568,0,0,1,2.11426-.79785A3.28656,3.28656,0,0,1,409.87012,312.68358Z" transform="translate(-0.62988)"/><path class="cls-3" d="M457.88428,314.33543a2.55587,2.55587,0,0,1-.42774,3.56983,4.97828,4.97828,0,0,1-5.208,0,2.38775,2.38775,0,0,1-.96583-2.00879,2.36061,2.36061,0,0,1,.55274-1.56787,2.8619,2.8619,0,0,1,1.51953-.91016,2.62546,2.62546,0,0,1-1.37207-.875,2.26134,2.26134,0,0,1-.47656-1.43506,2.35361,2.35361,0,0,1,.4209-1.39306,2.72116,2.72116,0,0,1,1.18261-.92383,4.78112,4.78112,0,0,1,3.48633,0,2.73262,2.73262,0,0,1,1.18262.92383,2.353,2.353,0,0,1,.41992,1.39306,2.24344,2.24344,0,0,1-.48242,1.43506,2.66194,2.66194,0,0,1-1.35156.875A2.88714,2.88714,0,0,1,457.88428,314.33543Zm-1.22559,2.877a1.62973,1.62973,0,0,0,.62988-1.38575,1.5709,1.5709,0,0,0-.665-1.32324,2.88,2.88,0,0,0-3.542,0,1.57089,1.57089,0,0,0-.665,1.32324,1.62971,1.62971,0,0,0,.62989,1.38575,3.66419,3.66419,0,0,0,3.6123,0Zm-3.40918-4.7251a2.41318,2.41318,0,0,0,3.20606,0,1.7267,1.7267,0,0,0,.01464-2.59668,2.98478,2.98478,0,0,0-3.23437,0,1.72765,1.72765,0,0,0,.01367,2.59668Z" transform="translate(-0.62988)"/><path class="cls-3" d="M465.31689,312.68358a2.70644,2.70644,0,0,1,1.085,1.11279,3.48,3.48,0,0,1,.37793,1.65186,3.32432,3.32432,0,0,1-.41211,1.666,2.82529,2.82529,0,0,1-1.17676,1.12744,3.80427,3.80427,0,0,1-1.78516.39893,5.09762,5.09762,0,0,1-1.792-.3291,4.28683,4.28683,0,0,1-1.4834-.90283l.43359-.88233a4.42642,4.42642,0,0,0,2.8418,1.148,2.22433,2.22433,0,0,0,1.64551-.59473,2.1852,2.1852,0,0,0,.59473-1.61718,2.20865,2.20865,0,0,0-.58789-1.603,2.07936,2.07936,0,0,0-1.56739-.60889,2.69181,2.69181,0,0,0-2.28222,1.16211h-.79786v-5.83789h5.97754v.95166h-4.83007v3.55615a2.91567,2.91567,0,0,1,2.11425-.79785A3.28654,3.28654,0,0,1,465.31689,312.68358Z" transform="translate(-0.62988)"/><path class="cls-3" d="M512.77734,309.72264a5.72668,5.72668,0,0,1,.98047,3.584,6.64173,6.64173,0,0,1-1.01562,3.94091,3.296,3.296,0,0,1-2.835,1.40674,4.63191,4.63191,0,0,1-3.12207-1.23193l.44824-.88184a5.47652,5.47652,0,0,0,1.3584.875,3.30437,3.30437,0,0,0,1.30175.273,2.22316,2.22316,0,0,0,1.99512-1.148,6.15563,6.15563,0,0,0,.707-3.22021v-.18164a2.59,2.59,0,0,1-1.0498,1.23877,3.07933,3.07933,0,0,1-1.666.45507,3.19224,3.19224,0,0,1-1.61035-.39892,2.797,2.797,0,0,1-1.0918-1.12012,3.38316,3.38316,0,0,1-.39257-1.645,3.287,3.287,0,0,1,.41308-1.65185,2.98045,2.98045,0,0,1,1.1416-1.14112,3.2878,3.2878,0,0,1,1.65137-.41308A3.3221,3.3221,0,0,1,512.77734,309.72264Zm-1.12011,3.52783a2.22,2.22,0,0,0-1.60938-3.82177,2.04211,2.04211,0,0,0-1.54.60888,2.49812,2.49812,0,0,0,0,3.21973,2.06005,2.06005,0,0,0,1.55371.60937A2.15818,2.15818,0,0,0,511.65723,313.25047Z" transform="translate(-0.62988)"/><path class="cls-3" d="M520.76367,312.68358a2.70636,2.70636,0,0,1,1.085,1.11279,3.47992,3.47992,0,0,1,.37793,1.65186,3.32422,3.32422,0,0,1-.41211,1.666,2.82532,2.82532,0,0,1-1.17675,1.12744,3.80427,3.80427,0,0,1-1.78516.39893,5.09754,5.09754,0,0,1-1.792-.3291,4.28683,4.28683,0,0,1-1.4834-.90283l.43359-.88233a4.42642,4.42642,0,0,0,2.8418,1.148,2.22437,2.22437,0,0,0,1.64551-.59473,2.1852,2.1852,0,0,0,.59472-1.61718,2.20861,2.20861,0,0,0-.58789-1.603,2.07933,2.07933,0,0,0-1.56738-.60889,2.69184,2.69184,0,0,0-2.28223,1.16211h-.79785v-5.83789H521.835v.95166h-4.83008v3.55615a2.91569,2.91569,0,0,1,2.11426-.79785A3.28654,3.28654,0,0,1,520.76367,312.68358Z" transform="translate(-0.62988)"/><g class="cls-2"><path class="cls-3" d="M6.26465,204.13036a2.7063,2.7063,0,0,1,1.085,1.11279,3.48,3.48,0,0,1,.37793,1.65185,3.32436,3.32436,0,0,1-.41211,1.666,2.82529,2.82529,0,0,1-1.17676,1.12744,3.80423,3.80423,0,0,1-1.78515.39893,5.09786,5.09786,0,0,1-1.792-.3291,4.28656,4.28656,0,0,1-1.48339-.90284l.43359-.88232a4.42645,4.42645,0,0,0,2.8418,1.148,2.22433,2.22433,0,0,0,1.6455-.59473,2.18517,2.18517,0,0,0,.59473-1.61719,2.2086,2.2086,0,0,0-.58789-1.603,2.07933,2.07933,0,0,0-1.56738-.60889,2.69184,2.69184,0,0,0-2.28223,1.16211H1.3584v-5.83789H7.33594v.95166H2.50586v3.55615a2.91568,2.91568,0,0,1,2.11426-.79785A3.28643,3.28643,0,0,1,6.26465,204.13036Z" transform="translate(-0.62988)"/><path class="cls-3" d="M10.002,208.80614a8.57322,8.57322,0,0,1,0-7.602,2.95349,2.95349,0,0,1,2.59766-1.29493,2.95178,2.95178,0,0,1,2.59668,1.29493,8.55854,8.55854,0,0,1,0,7.59521,2.94509,2.94509,0,0,1-2.59668,1.30176A2.9524,2.9524,0,0,1,10.002,208.80614Zm4.3545-.67871a8.92382,8.92382,0,0,0,.00683-6.24414,1.88072,1.88072,0,0,0-1.76367-.99415,1.88419,1.88419,0,0,0-1.75684.99415,6.51181,6.51181,0,0,0-.56738,3.10791,6.644,6.644,0,0,0,.56738,3.1289,1.87694,1.87694,0,0,0,1.75684,1.01514A1.88025,1.88025,0,0,0,14.35645,208.12743Z" transform="translate(-0.62988)"/><path class="cls-3" d="M18.21387,205.22948a4.42381,4.42381,0,0,1,0-4.5503,2.15186,2.15186,0,0,1,1.76367-.77,2.17408,2.17408,0,0,1,1.77148.77,4.38315,4.38315,0,0,1,0,4.5503,2.17373,2.17373,0,0,1-1.77148.76953A2.15152,2.15152,0,0,1,18.21387,205.22948Zm2.793-.58106a3.37968,3.37968,0,0,0,.3291-1.70117,3.344,3.344,0,0,0-.3291-1.687,1.24477,1.24477,0,0,0-2.05079,0,3.27325,3.27325,0,0,0-.33593,1.687,3.30812,3.30812,0,0,0,.33593,1.70117,1.24477,1.24477,0,0,0,2.05079,0Zm.03515,5.34082H19.93555l5.76855-9.96777h1.10547Zm3.96192-.67187a4.43618,4.43618,0,0,1,0-4.55713,2.15983,2.15983,0,0,1,1.76367-.76318,2.18221,2.18221,0,0,1,1.77148.76318,4.39539,4.39539,0,0,1,0,4.55713,2.17408,2.17408,0,0,1-1.77148.77A2.15186,2.15186,0,0,1,25.00391,209.31737Zm2.80664-.57422a3.36259,3.36259,0,0,0,.3291-1.708,3.28321,3.28321,0,0,0-.33594-1.687,1.13578,1.13578,0,0,0-1.03613-.53906,1.11782,1.11782,0,0,0-1.02832.53906,3.33349,3.33349,0,0,0-.3291,1.687,3.3691,3.3691,0,0,0,.3291,1.70117,1.11688,1.11688,0,0,0,1.02832.53907A1.13409,1.13409,0,0,0,27.81055,208.74315Z" transform="translate(-0.62988)"/></g><g class="cls-2"><path class="cls-3" d="M6.2373,168.88084A2.79465,2.79465,0,0,1,7.33594,170.001a3.382,3.382,0,0,1,.3916,1.64453,3.29847,3.29847,0,0,1-.41211,1.65235,2.98049,2.98049,0,0,1-1.1416,1.14111,3.28747,3.28747,0,0,1-1.65137.4126,3.323,3.323,0,0,1-2.78613-1.25977,5.72667,5.72667,0,0,1-.98047-3.584,8.16262,8.16262,0,0,1,.45508-2.88428,3.9134,3.9134,0,0,1,1.3164-1.834,3.39809,3.39809,0,0,1,2.06446-.62989,4.569,4.569,0,0,1,1.6875.32227,4.37664,4.37664,0,0,1,1.43457.90967l-.4336.88232a5.61607,5.61607,0,0,0-1.34472-.86816,3.267,3.267,0,0,0-1.31543-.27979,2.23689,2.23689,0,0,0-2.002,1.148,6.09452,6.09452,0,0,0-.71386,3.21973v.21a2.61441,2.61441,0,0,1,1.0498-1.25977,3.04,3.04,0,0,1,1.666-.46191A3.23361,3.23361,0,0,1,6.2373,168.88084Zm-.23144,4.396a2.22812,2.22812,0,0,0,.58789-1.61719,2.19676,2.19676,0,0,0-.59473-1.603,2.06688,2.06688,0,0,0-1.54687-.60889,2.11231,2.11231,0,0,0-2.21192,2.21191,2.11447,2.11447,0,0,0,2.22559,2.22608A2.04391,2.04391,0,0,0,6.00586,173.27684Z" transform="translate(-0.62988)"/><path class="cls-3" d="M10.002,173.55663a8.57324,8.57324,0,0,1,0-7.60206,2.95351,2.95351,0,0,1,2.59766-1.29492,2.95179,2.95179,0,0,1,2.59668,1.29492,8.55856,8.55856,0,0,1,0,7.59522,2.94511,2.94511,0,0,1-2.59668,1.30176A2.9524,2.9524,0,0,1,10.002,173.55663Zm4.3545-.67872a8.92382,8.92382,0,0,0,.00683-6.24414,1.88073,1.88073,0,0,0-1.76367-.99414,1.8842,1.8842,0,0,0-1.75684.99414,6.51183,6.51183,0,0,0-.56738,3.10791,6.644,6.644,0,0,0,.56738,3.12891,1.87694,1.87694,0,0,0,1.75684,1.01514A1.88024,1.88024,0,0,0,14.35645,172.87791Z" transform="translate(-0.62988)"/><path class="cls-3" d="M18.21387,169.98a4.42381,4.42381,0,0,1,0-4.5503,2.15186,2.15186,0,0,1,1.76367-.77,2.17408,2.17408,0,0,1,1.77148.77,4.38315,4.38315,0,0,1,0,4.5503,2.17373,2.17373,0,0,1-1.77148.76953A2.15152,2.15152,0,0,1,18.21387,169.98Zm2.793-.58106a3.37968,3.37968,0,0,0,.3291-1.70117,3.344,3.344,0,0,0-.3291-1.687,1.24476,1.24476,0,0,0-2.05079,0,3.27325,3.27325,0,0,0-.33593,1.687,3.30812,3.30812,0,0,0,.33593,1.70117,1.24477,1.24477,0,0,0,2.05079,0Zm.03515,5.34082H19.93555L25.7041,164.772h1.10547Zm3.96192-.67187a4.43618,4.43618,0,0,1,0-4.55713,2.15984,2.15984,0,0,1,1.76367-.76319,2.18222,2.18222,0,0,1,1.77148.76319,4.39539,4.39539,0,0,1,0,4.55713,2.17408,2.17408,0,0,1-1.77148.77A2.15186,2.15186,0,0,1,25.00391,174.06786Zm2.80664-.57422a3.36261,3.36261,0,0,0,.3291-1.708,3.28321,3.28321,0,0,0-.33594-1.687,1.13578,1.13578,0,0,0-1.03613-.53906,1.11782,1.11782,0,0,0-1.02832.53906,3.33349,3.33349,0,0,0-.3291,1.687,3.3691,3.3691,0,0,0,.3291,1.70117,1.11687,1.11687,0,0,0,1.02832.53906A1.13408,1.13408,0,0,0,27.81055,173.49364Z" transform="translate(-0.62988)"/></g><g class="cls-2"><path class="cls-3" d="M.91016,129.52245H7.49023v.854l-4.67578,9.11377H1.582l4.64844-9.00195H.91016Z" transform="translate(-0.62988)"/><path class="cls-3" d="M10.002,138.30711a8.57322,8.57322,0,0,1,0-7.602,2.95351,2.95351,0,0,1,2.59766-1.29492,2.95179,2.95179,0,0,1,2.59668,1.29492,8.55856,8.55856,0,0,1,0,7.59522,2.94511,2.94511,0,0,1-2.59668,1.30176A2.95241,2.95241,0,0,1,10.002,138.30711Zm4.3545-.67871a8.92382,8.92382,0,0,0,.00683-6.24414,1.88072,1.88072,0,0,0-1.76367-.99414,1.88418,1.88418,0,0,0-1.75684.99414,6.51183,6.51183,0,0,0-.56738,3.10791,6.644,6.644,0,0,0,.56738,3.12891,1.87694,1.87694,0,0,0,1.75684,1.01514A1.88024,1.88024,0,0,0,14.35645,137.6284Z" transform="translate(-0.62988)"/><path class="cls-3" d="M18.21387,134.73045a4.42379,4.42379,0,0,1,0-4.55029,2.15186,2.15186,0,0,1,1.76367-.77,2.17408,2.17408,0,0,1,1.77148.77,4.38313,4.38313,0,0,1,0,4.55029,2.1737,2.1737,0,0,1-1.77148.76953A2.15149,2.15149,0,0,1,18.21387,134.73045Zm2.793-.581a3.3797,3.3797,0,0,0,.3291-1.70117,3.344,3.344,0,0,0-.3291-1.687,1.24476,1.24476,0,0,0-2.05079,0,3.27325,3.27325,0,0,0-.33593,1.687,3.30814,3.30814,0,0,0,.33593,1.70117,1.24477,1.24477,0,0,0,2.05079,0Zm.03515,5.34082H19.93555l5.76855-9.96777h1.10547Zm3.96192-.67188a4.43616,4.43616,0,0,1,0-4.55712,2.15984,2.15984,0,0,1,1.76367-.76319,2.18222,2.18222,0,0,1,1.77148.76319,4.39537,4.39537,0,0,1,0,4.55712,2.174,2.174,0,0,1-1.77148.77A2.15184,2.15184,0,0,1,25.00391,138.81834Zm2.80664-.57421a3.36261,3.36261,0,0,0,.3291-1.708,3.28321,3.28321,0,0,0-.33594-1.687,1.13579,1.13579,0,0,0-1.03613-.53907,1.11783,1.11783,0,0,0-1.02832.53907,3.33349,3.33349,0,0,0-.3291,1.687,3.36913,3.36913,0,0,0,.3291,1.70117,1.11689,1.11689,0,0,0,1.02832.53906A1.13408,1.13408,0,0,0,27.81055,138.24413Z" transform="translate(-0.62988)"/></g><g class="cls-2"><path class="cls-3" d="M7.23145,100.03368a2.55585,2.55585,0,0,1-.42774,3.56982,4.1946,4.1946,0,0,1-2.60351.73535,4.19962,4.19962,0,0,1-2.6045-.73535,2.38776,2.38776,0,0,1-.96582-2.00879,2.36059,2.36059,0,0,1,.55274-1.56787,2.862,2.862,0,0,1,1.51953-.91016,2.62546,2.62546,0,0,1-1.37207-.875,2.26132,2.26132,0,0,1-.47656-1.43505,2.35371,2.35371,0,0,1,.42089-1.39307A2.72125,2.72125,0,0,1,2.457,94.48973a4.36786,4.36786,0,0,1,1.74317-.3291,4.36781,4.36781,0,0,1,1.74316.3291,2.73267,2.73267,0,0,1,1.18262.92383,2.353,2.353,0,0,1,.41992,1.39307,2.24341,2.24341,0,0,1-.48242,1.43505,2.66193,2.66193,0,0,1-1.35157.875A2.88711,2.88711,0,0,1,7.23145,100.03368Zm-1.22559,2.87695a1.62972,1.62972,0,0,0,.62988-1.38574,1.5709,1.5709,0,0,0-.665-1.32325,3.50016,3.50016,0,0,0-1.7705-.60888,3.5039,3.5039,0,0,0-1.77149.60888,1.5709,1.5709,0,0,0-.665,1.32325,1.62972,1.62972,0,0,0,.62988,1.38574,2.955,2.955,0,0,0,1.80665.47607A2.94982,2.94982,0,0,0,6.00586,102.91063Zm-3.40918-4.7251a2.95144,2.95144,0,0,0,1.60352.60938,2.94807,2.94807,0,0,0,1.60253-.60938,1.72669,1.72669,0,0,0,.01465-2.59668,2.48414,2.48414,0,0,0-1.61718-.47607,2.48053,2.48053,0,0,0-1.61719.47607,1.72763,1.72763,0,0,0,.01367,2.59668Z" transform="translate(-0.62988)"/><path class="cls-3" d="M10.002,103.0576a8.57322,8.57322,0,0,1,0-7.602,2.95351,2.95351,0,0,1,2.59766-1.29492,2.95179,2.95179,0,0,1,2.59668,1.29492,8.55856,8.55856,0,0,1,0,7.59522,2.9451,2.9451,0,0,1-2.59668,1.30175A2.9524,2.9524,0,0,1,10.002,103.0576Zm4.3545-.67871a8.92382,8.92382,0,0,0,.00683-6.24414,1.88072,1.88072,0,0,0-1.76367-.99414,1.88418,1.88418,0,0,0-1.75684.99414,6.51183,6.51183,0,0,0-.56738,3.10791,6.644,6.644,0,0,0,.56738,3.12891,1.877,1.877,0,0,0,1.75684,1.01513A1.88024,1.88024,0,0,0,14.35645,102.37889Z" transform="translate(-0.62988)"/><path class="cls-3" d="M18.21387,99.48094a4.42379,4.42379,0,0,1,0-4.55029,2.15186,2.15186,0,0,1,1.76367-.77,2.17408,2.17408,0,0,1,1.77148.77,4.38313,4.38313,0,0,1,0,4.55029,2.1737,2.1737,0,0,1-1.77148.76953A2.15149,2.15149,0,0,1,18.21387,99.48094Zm2.793-.58105a3.3797,3.3797,0,0,0,.3291-1.70117,3.34406,3.34406,0,0,0-.3291-1.687,1.24477,1.24477,0,0,0-2.05079,0,3.27332,3.27332,0,0,0-.33593,1.687,3.30814,3.30814,0,0,0,.33593,1.70117,1.24477,1.24477,0,0,0,2.05079,0Zm.03515,5.34082H19.93555l5.76855-9.96778h1.10547Zm3.96192-.67188a4.43618,4.43618,0,0,1,0-4.55713,2.15983,2.15983,0,0,1,1.76367-.76318,2.18221,2.18221,0,0,1,1.77148.76318,4.39539,4.39539,0,0,1,0,4.55713,2.174,2.174,0,0,1-1.77148.77A2.15184,2.15184,0,0,1,25.00391,103.56883Zm2.80664-.57422a3.36254,3.36254,0,0,0,.3291-1.708,3.28328,3.28328,0,0,0-.33594-1.687,1.1358,1.1358,0,0,0-1.03613-.53906,1.11784,1.11784,0,0,0-1.02832.53906,3.33355,3.33355,0,0,0-.3291,1.687,3.36913,3.36913,0,0,0,.3291,1.70117,1.11689,1.11689,0,0,0,1.02832.53906A1.13409,1.13409,0,0,0,27.81055,102.99461Z" transform="translate(-0.62988)"/></g><g class="cls-2"><path class="cls-3" d="M6.67773,60.17137a5.7267,5.7267,0,0,1,.98047,3.584,6.64173,6.64173,0,0,1-1.01562,3.94091,3.296,3.296,0,0,1-2.835,1.40674A4.63191,4.63191,0,0,1,.68555,67.87108l.44824-.88184a5.47652,5.47652,0,0,0,1.3584.875,3.30438,3.30438,0,0,0,1.30176.273,2.22316,2.22316,0,0,0,1.99511-1.148,6.1556,6.1556,0,0,0,.707-3.22021v-.18164a2.59,2.59,0,0,1-1.0498,1.23877,3.07933,3.07933,0,0,1-1.666.45507,3.19224,3.19224,0,0,1-1.61035-.39892,2.79694,2.79694,0,0,1-1.09179-1.12012,3.38306,3.38306,0,0,1-.39258-1.645,3.287,3.287,0,0,1,.41308-1.65185,2.98052,2.98052,0,0,1,1.1416-1.14112,3.2878,3.2878,0,0,1,1.65137-.41308A3.3221,3.3221,0,0,1,6.67773,60.17137ZM5.55762,63.6992a2.22,2.22,0,0,0-1.60938-3.82177,2.04211,2.04211,0,0,0-1.54.60888,2.49812,2.49812,0,0,0,0,3.21973,2.06005,2.06005,0,0,0,1.55371.60937A2.15818,2.15818,0,0,0,5.55762,63.6992Z" transform="translate(-0.62988)"/><path class="cls-3" d="M10.002,67.80809a6.71546,6.71546,0,0,1-.88867-3.80078A6.71833,6.71833,0,0,1,10.002,60.206a2.95351,2.95351,0,0,1,2.59766-1.29492A2.95179,2.95179,0,0,1,15.19629,60.206a6.68861,6.68861,0,0,1,.88867,3.78711,6.753,6.753,0,0,1-.88867,3.8081A2.94509,2.94509,0,0,1,12.59961,69.103,2.9524,2.9524,0,0,1,10.002,67.80809Zm4.3545-.67871a6.64144,6.64144,0,0,0,.56738-3.13623,6.58438,6.58438,0,0,0-.56055-3.10791,1.88072,1.88072,0,0,0-1.76367-.99414,1.88418,1.88418,0,0,0-1.75684.99414,6.51183,6.51183,0,0,0-.56738,3.10791,6.644,6.644,0,0,0,.56738,3.12891,1.877,1.877,0,0,0,1.75684,1.01513A1.88025,1.88025,0,0,0,14.35645,67.12938Z" transform="translate(-0.62988)"/><path class="cls-3" d="M18.21387,64.23143a4.42379,4.42379,0,0,1,0-4.55029,2.15184,2.15184,0,0,1,1.76367-.77,2.174,2.174,0,0,1,1.77148.77,4.38313,4.38313,0,0,1,0,4.55029,2.17373,2.17373,0,0,1-1.77148.76953A2.15152,2.15152,0,0,1,18.21387,64.23143Zm2.793-.58105a3.37972,3.37972,0,0,0,.3291-1.70118,3.344,3.344,0,0,0-.3291-1.687,1.24477,1.24477,0,0,0-2.05079,0,3.2733,3.2733,0,0,0-.33593,1.687,3.30816,3.30816,0,0,0,.33593,1.70118,1.24477,1.24477,0,0,0,2.05079,0ZM21.042,68.9912H19.93555l5.76855-9.96778h1.10547Zm3.96192-.67188a4.43618,4.43618,0,0,1,0-4.55713,2.15983,2.15983,0,0,1,1.76367-.76318,2.18221,2.18221,0,0,1,1.77148.76318,4.39539,4.39539,0,0,1,0,4.55713,2.17408,2.17408,0,0,1-1.77148.77A2.15186,2.15186,0,0,1,25.00391,68.31932Zm2.80664-.57422a3.36259,3.36259,0,0,0,.3291-1.708,3.28326,3.28326,0,0,0-.33594-1.687,1.1358,1.1358,0,0,0-1.03613-.53906,1.11784,1.11784,0,0,0-1.02832.53906,3.33354,3.33354,0,0,0-.3291,1.687,3.36915,3.36915,0,0,0,.3291,1.70118,1.11689,1.11689,0,0,0,1.02832.53906A1.13409,1.13409,0,0,0,27.81055,67.7451Z" transform="translate(-0.62988)"/></g><g class="cls-2"><path class="cls-3" d="M5.15234,32.77635H7.34961v.96582H1.792v-.96582H3.99023V25.20213L1.94629,26.50438V25.39793L4.49414,23.7744h.6582Z" transform="translate(-0.62988)"/><path class="cls-3" d="M10.002,32.55907a6.71548,6.71548,0,0,1-.88867-3.80078A6.71833,6.71833,0,0,1,10.002,24.957a2.95349,2.95349,0,0,1,2.59766-1.29493A2.95178,2.95178,0,0,1,15.19629,24.957a6.68858,6.68858,0,0,1,.88867,3.78711,6.753,6.753,0,0,1-.88867,3.8081A2.94511,2.94511,0,0,1,12.59961,33.854,2.9524,2.9524,0,0,1,10.002,32.55907Zm4.3545-.67871a6.64147,6.64147,0,0,0,.56738-3.13623,6.58435,6.58435,0,0,0-.56055-3.10791,1.88072,1.88072,0,0,0-1.76367-.99415,1.88419,1.88419,0,0,0-1.75684.99415,6.51181,6.51181,0,0,0-.56738,3.10791,6.644,6.644,0,0,0,.56738,3.1289,1.87694,1.87694,0,0,0,1.75684,1.01514A1.88025,1.88025,0,0,0,14.35645,31.88036Z" transform="translate(-0.62988)"/><path class="cls-3" d="M18.40234,32.55907a6.71548,6.71548,0,0,1-.88867-3.80078,6.71833,6.71833,0,0,1,.88867-3.80127A2.95349,2.95349,0,0,1,21,23.66209,2.95178,2.95178,0,0,1,23.59668,24.957a6.68858,6.68858,0,0,1,.88867,3.78711,6.753,6.753,0,0,1-.88867,3.8081A2.94511,2.94511,0,0,1,21,33.854,2.9524,2.9524,0,0,1,18.40234,32.55907Zm4.3545-.67871a6.64147,6.64147,0,0,0,.56738-3.13623,6.58435,6.58435,0,0,0-.56055-3.10791,2.05544,2.05544,0,0,0-3.52051,0,6.51181,6.51181,0,0,0-.56738,3.10791,6.644,6.644,0,0,0,.56738,3.1289,2.03148,2.03148,0,0,0,3.51368.00733Z" transform="translate(-0.62988)"/><path class="cls-3" d="M26.61328,28.98241a3.54007,3.54007,0,0,1-.62988-2.28223,3.515,3.515,0,0,1,.62988-2.26807,2.15186,2.15186,0,0,1,1.76367-.77,2.17411,2.17411,0,0,1,1.77149.77,3.48614,3.48614,0,0,1,.63672,2.26807,3.51093,3.51093,0,0,1-.63672,2.28223,2.17376,2.17376,0,0,1-1.77149.76953A2.15152,2.15152,0,0,1,26.61328,28.98241Zm2.793-.58106a3.37968,3.37968,0,0,0,.3291-1.70117,3.344,3.344,0,0,0-.3291-1.687,1.24476,1.24476,0,0,0-2.05078,0,3.27314,3.27314,0,0,0-.33594,1.687,3.308,3.308,0,0,0,.33594,1.70117,1.24476,1.24476,0,0,0,2.05078,0Zm.03516,5.34082H28.335l5.76856-9.96777H35.209Zm3.96191-.67187a3.53915,3.53915,0,0,1-.62988-2.28223,3.50932,3.50932,0,0,1,.62988-2.2749A2.15984,2.15984,0,0,1,35.167,27.75a2.18226,2.18226,0,0,1,1.77149.76319,3.48052,3.48052,0,0,1,.63672,2.2749,3.51,3.51,0,0,1-.63672,2.28223,2.17411,2.17411,0,0,1-1.77149.77A2.15186,2.15186,0,0,1,33.40332,33.0703ZM36.21,32.49608a3.36248,3.36248,0,0,0,.3291-1.708,3.28323,3.28323,0,0,0-.33593-1.687A1.13581,1.13581,0,0,0,35.167,28.562a1.11783,1.11783,0,0,0-1.02832.53906,3.33359,3.33359,0,0,0-.3291,1.687,3.36921,3.36921,0,0,0,.3291,1.70117,1.11689,1.11689,0,0,0,1.02832.53907A1.13409,1.13409,0,0,0,36.21,32.49608Z" transform="translate(-0.62988)"/></g><path class="cls-4" d="M86.36557,26.96484S223.4891,217.73579,506.1002,243.76308" transform="translate(-0.62988)"/><circle class="cls-5" cx="85.73569" cy="26.96484" r="7.57849"/><circle class="cls-5" cx="505.47031" cy="243.76308" r="7.57849"/></g></g></svg>