<svg xmlns="http://www.w3.org/2000/svg" viewBox="0 0 137.02 141.24"><defs><style>.cls-1{opacity:0.33;}.cls-2{fill:#c6b198;}.cls-3{fill:#fff;}.cls-4{fill:#ab844f;}</style></defs><title>Asset 5</title><g id="Layer_2" data-name="Layer 2"><g id="Layer_1-2" data-name="Layer 1"><g class="cls-1"><path class="cls-2" d="M61.14,59.18,50.53,32.73S50.35-6.65,83.89,2.66,97.13,45,97.13,45L75,63Z"/><path class="cls-3" d="M75.32,64.4l-15.1-4.19L49.3,33v-.24c0-.8,0-19.65,11.53-28.43C66.77-.24,74.64-1.19,84.22,1.47S100.17,9,102.91,16c5.21,13.24-4.32,29-4.72,29.67l-.11.18-.17.13ZM62.06,58.15l12.69,3.53L96.18,44.2c1-1.72,8.91-15.91,4.43-27.3-2.44-6.19-8.18-10.58-17-13S67.62,2.22,62.33,6.27c-9.88,7.55-10.52,24.09-10.56,26.22Z"/><path class="cls-2" d="M75,63l22.1-18s37.53-11.91,38.63,22.88S99.27,93.18,99.27,93.18L75.49,77.45Z"/><path class="cls-3" d="M98.77,94.32,74.27,78.13l-.49-15.66L96.53,43.92l.22-.07c.76-.24,18.78-5.81,30.58,2.54,6.1,4.32,9.36,11.55,9.67,21.48S134.52,85.36,128.69,90C117.61,99,99.72,94.57,99,94.37ZM76.71,76.77,99.77,92c1.94.45,17.85,3.77,27.38-3.91,5.19-4.17,7.67-11,7.38-20.16s-3.19-15.7-8.63-19.54c-10.16-7.19-26.14-2.86-28.18-2.27L76.29,63.61Z"/><path class="cls-2" d="M61.14,59.18,51.5,32.36S25.47,2.81,6.59,32,24.83,72.51,24.83,72.51l28.49-1.22Z"/><path class="cls-3" d="M24.68,73.75l-.2-.06c-.75-.23-18.34-5.68-23.24-19-2.58-7-1.13-14.85,4.31-23.28S17.46,18.51,24.92,18c14.42-1.07,27,13,27.5,13.59l.16.18,9.93,27.62L54,72.5Zm7.56-52.56a20.92,20.92,0,0,0-7.15-.77c-6.64.5-12.51,4.63-17.46,12.29S1.26,47.55,3.56,53.8C7.78,65.31,23.11,70.64,25,71.26l27.63-1.18,7.14-11L50.42,33C49.25,31.75,41.61,23.8,32.24,21.19Z"/><path class="cls-2" d="M53.32,71.29,24.84,72.51s-36,16-13.68,42.77,44.06-5.36,44.06-5.36l7.33-27.55Z"/><path class="cls-3" d="M24.74,126.41c-5.11-1.42-10-4.88-14.53-10.34-6.36-7.64-8.73-15.2-7-22.49C6.44,79.5,23.61,71.7,24.34,71.38l.22-.1L53.88,70l10,12-7.55,28.37-.12.18c-.43.64-10.88,15.8-25.09,16.51A20.42,20.42,0,0,1,24.74,126.41Zm.4-52.68c-1.93.92-16.76,8.32-19.56,20.42-1.51,6.49.69,13.33,6.53,20.34S24.38,125,31,124.66c12.24-.61,21.9-13.64,23-15.27l7.11-26.72L52.76,72.55Z"/><path class="cls-2" d="M62.55,82.37l12.94-4.92L99.27,93.18s21.57,27.73-4.86,42.67-42.33-14.11-39.19-25.93Z"/><path class="cls-3" d="M73.88,140.4a23.91,23.91,0,0,1-8.33-4.23c-9.09-7-13.36-19.64-11.52-26.57l7.49-28.16,14.12-5.37,24.48,16.19.13.16c.44.57,10.83,14.12,8.1,27.77-1.38,6.89-5.87,12.52-13.33,16.74S80.43,142.22,73.88,140.4ZM63.58,83.3l-7.16,26.94c-1.64,6.17,2.56,17.73,10.64,24,5.34,4.14,14.32,7.59,26.74.57,6.81-3.85,10.89-8.92,12.12-15.07,2.37-11.79-6.39-24.1-7.51-25.62L75.34,78.83Z"/><path class="cls-4" d="M77.16,73.84a12.24,12.24,0,1,1-8.52-15.07A12.24,12.24,0,0,1,77.16,73.84Z"/><path class="cls-4" d="M68.14,60.56a1.86,1.86,0,0,1-1.29-2.28l3.77-13.56a1.85,1.85,0,1,1,3.57,1L70.43,59.27A1.86,1.86,0,0,1,68.14,60.56Z"/><path class="cls-4" d="M76.91,74.33a1.85,1.85,0,0,1,.32-3.63l14-1.36a1.86,1.86,0,0,1,.35,3.7l-14,1.35A1.92,1.92,0,0,1,76.91,74.33Z"/><path class="cls-4" d="M74.18,96.53A1.85,1.85,0,0,1,73,95.41L67.89,82.28A1.85,1.85,0,1,1,71.34,81l5.07,13.13a1.86,1.86,0,0,1-1.07,2.4A1.92,1.92,0,0,1,74.18,96.53Z"/><path class="cls-4" d="M55,68.24a1.93,1.93,0,0,1-.61-.3l-11.3-8.38a1.85,1.85,0,1,1,2.2-3L56.59,65A1.85,1.85,0,0,1,55,68.24Z"/><path class="cls-4" d="M44.58,88.31a1.77,1.77,0,0,1-1-.65,1.86,1.86,0,0,1,.32-2.6L55,76.42a1.86,1.86,0,0,1,2.28,2.93L46.21,88A1.86,1.86,0,0,1,44.58,88.31Z"/></g></g></g></svg>