<svg xmlns="http://www.w3.org/2000/svg" viewBox="0 0 68.86 68.86"><defs><style>.cls-1{fill:#8b5e3c;}.cls-2{fill:none;stroke:#8b5e3c;stroke-miterlimit:10;}</style></defs><title>24Asset 5</title><g id="Layer_2" data-name="Layer 2"><g id="Layer_1-2" data-name="Layer 1"><path class="cls-1" d="M36,44.27l-.22,0a.7.7,0,0,1-.4-.39A25.79,25.79,0,0,0,31.07,37a26.49,26.49,0,0,0-5.34-4.81.68.68,0,0,1-.23-.87,36.16,36.16,0,0,1,4.86-7.22,32,32,0,0,1,10.86-8.55c3.85-1.7,7.09-1.67,9.14.07s2.57,4.94,1.5,9a32,32,0,0,1-6.74,12.07,34.44,34.44,0,0,1-8.81,7.51A.77.77,0,0,1,36,44.27ZM27,31.39a28.18,28.18,0,0,1,5.12,4.72,27.21,27.21,0,0,1,4.2,6.52A33.7,33.7,0,0,0,44.1,35.8a30.81,30.81,0,0,0,6.46-11.53c.93-3.54.55-6.26-1.08-7.64s-4.37-1.35-7.71.13A30.79,30.79,0,0,0,31.38,25,35.46,35.46,0,0,0,27,31.39Z"/><path class="cls-1" d="M35.14,42.47a.63.63,0,0,1-.19,0,.66.66,0,0,1-.41-.34,27.83,27.83,0,0,0-8.71-9.87.69.69,0,0,1-.24-.84,32.58,32.58,0,0,1,4.77-7.31,28.85,28.85,0,0,1,9.76-7.69c3.48-1.53,6.41-1.5,8.27.08s2.33,4.48,1.37,8.15A29,29,0,0,1,43.7,35.47a30.59,30.59,0,0,1-8.23,6.92A.73.73,0,0,1,35.14,42.47Zm-8.08-11a28.06,28.06,0,0,1,5,4.66,28.78,28.78,0,0,1,3.32,4.76,29.56,29.56,0,0,0,7.26-6.28,27.23,27.23,0,0,0,5.78-10.32c.83-3.14.5-5.55-.94-6.78s-3.87-1.18-6.84.14A27.44,27.44,0,0,0,31.38,25,31.64,31.64,0,0,0,27.06,31.45Z"/><path class="cls-1" d="M33.15,39.23A.7.7,0,0,1,32.6,39c-.47-.67-1-1.33-1.53-2a28.68,28.68,0,0,0-3.57-3.5.68.68,0,0,1-.2-.78,27.78,27.78,0,0,1,4.6-7.31,26.22,26.22,0,0,1,7.31-6.15c2.59-1.36,4.72-1.51,6-.43s1.46,3.22.52,6A26.45,26.45,0,0,1,40.8,33a26.13,26.13,0,0,1-7.33,6.16A.72.72,0,0,1,33.15,39.23Zm-4.41-6.48a30.38,30.38,0,0,1,3.35,3.36c.44.51.86,1,1.26,1.57a25.74,25.74,0,0,0,6.42-5.56,24.92,24.92,0,0,0,4.68-7.74c.74-2.19.7-3.84-.11-4.54-1.63-1.38-6.71.92-11.42,6.43A27,27,0,0,0,28.74,32.75Z"/><path class="cls-1" d="M33,53.6a10.27,10.27,0,0,1-4.05-1A24.77,24.77,0,0,1,20.5,46c-5.5-6.44-7.26-13.65-4-16.43s10.1.1,15.6,6.54a24.66,24.66,0,0,1,5.21,9.34c.85,3.19.42,5.71-1.2,7.09A4.75,4.75,0,0,1,33,53.6Zm-15.6-23c-2.58,2.21-.68,8.86,4.16,14.53a23.59,23.59,0,0,0,7.93,6.26c2.48,1.09,4.59,1.14,5.77.13s1.47-3.1.78-5.72A23.38,23.38,0,0,0,31.06,37C26.22,31.31,20,28.39,17.36,30.6Z"/><path class="cls-1" d="M32.65,49.46a7.15,7.15,0,0,1-3.2-1,21.49,21.49,0,0,1-6-5,21.56,21.56,0,0,1-4-6.7c-.78-2.32-.62-4.1.46-5s2.86-.8,5,.33a21.49,21.49,0,0,1,6,5,21.56,21.56,0,0,1,4,6.7c.78,2.32.62,4.1-.46,5A2.74,2.74,0,0,1,32.65,49.46Zm-10.92-17a1.44,1.44,0,0,0-1,.3c-.61.52-.63,1.85-.05,3.56a20.17,20.17,0,0,0,3.78,6.26,20.16,20.16,0,0,0,5.59,4.72c1.59.84,2.91,1,3.53.5s.63-1.86,0-3.56A20,20,0,0,0,29.88,38a20,20,0,0,0-5.59-4.72A5.86,5.86,0,0,0,21.73,32.48Zm-1.4-.22Z"/><path class="cls-1" d="M26.31,56.15h-.72a.68.68,0,0,1-.64-.71.66.66,0,0,1,.7-.64,13.67,13.67,0,0,0,6.42-1.25C28.63,53.13,24.25,50.4,20.5,46a24.58,24.58,0,0,1-5.21-9.34,11,11,0,0,1-.42-3.27,13.76,13.76,0,0,0,7.78,20.93.67.67,0,1,1-.35,1.3,15.1,15.1,0,0,1-5.81-26,.68.68,0,0,1,.88,1h0c-2.58,2.21-.67,8.86,4.17,14.53s11.11,8.59,13.69,6.39h0a.67.67,0,0,1,.87,1A15.06,15.06,0,0,1,26.31,56.15Z"/><path class="cls-1" d="M37.75,49.81l-.76,0a.65.65,0,0,1-.48-.23.67.67,0,0,1-.16-.51,11.56,11.56,0,0,0-1-5.2.66.66,0,0,1,.29-.83A33,33,0,0,0,44.1,35.8a30.81,30.81,0,0,0,6.46-11.53c.93-3.54.55-6.25-1.08-7.64a.68.68,0,0,1,.88-1h0a19.48,19.48,0,0,1,6.79,13.87.68.68,0,0,1-1.35.06,18,18,0,0,0-3.46-9.84,13.67,13.67,0,0,1-.48,4.92,32,32,0,0,1-6.74,12.07,34.77,34.77,0,0,1-8.31,7.21,13.22,13.22,0,0,1,.91,4.57h0a18.08,18.08,0,0,0,17.95-15.9.67.67,0,1,1,1.34.16A19.44,19.44,0,0,1,37.75,49.81Z"/><circle class="cls-2" cx="34.43" cy="34.43" r="33.93"/></g></g></svg>