<svg xmlns="http://www.w3.org/2000/svg" viewBox="0 0 63.15 60.62"><defs><style>.cls-1{fill:#2e46b9;}</style></defs><title>24Asset 9</title><g id="Layer_2" data-name="Layer 2"><g id="Layer_1-2" data-name="Layer 1"><path class="cls-1" d="M29.76,37.55a21.31,21.31,0,0,1,1.66,2.79A34,34,0,0,1,33.37,46a5.81,5.81,0,0,1-1.89,5.52c-2.13,2.1-4.23,4.23-6.26,6.44-2.49,2.72-5.48,3.17-8.8,2a16.64,16.64,0,0,1-3.79-1.85C8.79,55.62,5,53,1.21,50.3c-1.48-1-1.57-1.65-.45-3C3,44.53,5.2,41.85,7.39,39.11c.91-1.14,1.79-1.37,3-.42a18.54,18.54,0,0,0,3.94,2.39,16.27,16.27,0,0,1-1-1.65A38.14,38.14,0,0,1,11.08,34,6.24,6.24,0,0,1,12.9,27.5c2.29-2.16,4.59-4.32,6.92-6.44,2-1.86,4.36-1.66,6.65-.67,2,.87,3.93,1.94,6.3,3.13-.52-.9-.87-1.42-1.15-2a32.07,32.07,0,0,1-2.17-4.74C28.63,14,29,11.36,31.36,9.22s4.85-4.58,7.2-6.93c3-3,6.36-2.78,9.66-1A98,98,0,0,1,56.53,6.8c1.87,1.26,3.7,2.59,5.57,3.85,1.19.8,1.4,1.68.48,2.81Q59.09,17.72,55.63,22a1.69,1.69,0,0,1-2.63.35,44.3,44.3,0,0,0-5.37-3.42c.49.82,1,1.62,1.45,2.47a33.13,33.13,0,0,1,2.19,4.73,7,7,0,0,1-2.14,8c-1.62,1.41-3.1,3-4.58,4.54a7,7,0,0,1-8.3,1.94C34.14,39.75,32.12,38.67,29.76,37.55Zm13.75-2.33c1-.9,2.11-2,3.23-3.08C49,29.9,49.23,28.6,48,25.64A22.75,22.75,0,0,0,46.8,23.4c-3-5.39-7.15-10.1-9-16.33-1.61,1.62-3,3.12-4.55,4.56a3.21,3.21,0,0,0-1,3.53,29.66,29.66,0,0,0,2.3,5.22C37.39,25.32,40.43,30.18,43.51,35.22ZM25,54.06c1.7-1.81,3.36-3.35,4.73-5.13a4.65,4.65,0,0,0,.7-3,7.77,7.77,0,0,0-1.08-3.17C26,37.12,22.57,31.5,19.06,25.67,17.7,27,16.23,28.32,15,29.81a3.59,3.59,0,0,0-1,2.53,20.78,20.78,0,0,0,1.87,5.34C18.73,43.09,23,47.72,25,54.06ZM53.91,19.32l5.59-6.81c-4-2.78-7.91-5.6-12-8.15a8.4,8.4,0,0,0-4.49-1.11c-.88,0-2.53,1.38-2.44,1.91.43,2.77,1.1,5.58,3.6,7.37C47.34,14.76,50.5,16.94,53.91,19.32ZM9.25,41.57,3.68,48.44C7.8,51.2,11.74,54,15.87,56.49c1.3.78,3.11.81,4.7.94.49,0,1.54-.8,1.5-1.14-.36-3-1.1-6-3.54-8C15.61,45.93,12.44,43.86,9.25,41.57ZM41,37.78c-1.9-4.16-3.22-8.44-7.74-10.52-2.2-1-4.24-2.34-6.39-3.44a13.15,13.15,0,0,0-3.16-1.15,2.09,2.09,0,0,0-1.64.52c-.23.23-.12,1,.09,1.46a38.69,38.69,0,0,0,2.14,4c.76,1.23,1.44,2.71,2.57,3.46,2.91,1.92,6,3.54,9.1,5.17A5.74,5.74,0,0,0,41,37.78Z"/></g></g></svg>