<svg xmlns="http://www.w3.org/2000/svg" viewBox="0 0 53.31 57.64"><defs><style>.cls-1{fill:#001080;}</style></defs><title>24Asset 14</title><g id="Layer_2" data-name="Layer 2"><g id="Layer_1-2" data-name="Layer 1"><path class="cls-1" d="M52.72,27.4a1.17,1.17,0,0,0-.41-1.27,25.67,25.67,0,0,0-7.38-3.89,28.52,28.52,0,0,1,7.39-2.41,1.15,1.15,0,0,0,.53-2.06,14.51,14.51,0,0,0-9.57-2.86A19.29,19.29,0,0,0,44.5,10c.15-1.55.13-3.54-.85-4.28s-3-.26-4.44.32a18.33,18.33,0,0,0-4.3,2.54A14.49,14.49,0,0,0,29.51.23,1.13,1.13,0,0,0,28.24.16a1.17,1.17,0,0,0-.56,1.15,27.79,27.79,0,0,1-.26,7.78,25.66,25.66,0,0,0-5.8-6,1.16,1.16,0,0,0-1.33,0,1.15,1.15,0,0,0-.48,1.24,30.18,30.18,0,0,1,.66,4.19,1.15,1.15,0,1,0,2.29-.21c0-.46-.09-.9-.14-1.3a22,22,0,0,1,4.13,5.5A1.15,1.15,0,0,0,27,13,18.51,18.51,0,0,1,29,21.79L28,21a13.86,13.86,0,0,0-5.75-2.55c.19-.85.34-1.72.45-2.62a1.14,1.14,0,0,0-1-1.28,1.16,1.16,0,0,0-1.29,1,25,25,0,0,1-.47,2.66A14,14,0,0,0,8.44,23.8L2.79,31.32A14,14,0,0,0,5.56,50.86l5.31,4a14,14,0,0,0,19.54-2.78l5.65-7.51A14,14,0,0,0,38.21,32,33.81,33.81,0,0,1,51.66,28.2,1.17,1.17,0,0,0,52.72,27.4Zm-3.66-9.19a30.8,30.8,0,0,0-7.42,3.19l-.72-.11a20.94,20.94,0,0,0-7.38.24C38,17.39,44.13,16.08,49.06,18.21ZM42.18,7.61a14.26,14.26,0,0,1-1.57,7.65,18,18,0,0,0-6,2.54,18.06,18.06,0,0,0,.75-6.56C38.11,8.7,41.15,7.62,42.18,7.61ZM29.44,12.66c-.1-.21-.2-.43-.31-.64a30.44,30.44,0,0,0,1-8C33.57,8.14,34,14.41,31.26,19.85A21.05,21.05,0,0,0,29.44,12.66ZM29,25.28,30.23,34l-8.75,1.24-1.24-8.76Zm2.51,1.27.41.31a11.64,11.64,0,0,1,4.26,6.33l-3.66.52Zm-12,11.33,1.29,9.06-9.06,1.28-1.29-9.06Zm-9.38-1L8.9,28.13,18,26.85,19.2,35.6Zm16.46-14,.48.36-7.16,1-.53-3.7A11.59,11.59,0,0,1,26.6,22.87ZM10.29,25.18a11.58,11.58,0,0,1,6.81-4.37l.54,3.76L9.93,25.66ZM2.43,38A11.47,11.47,0,0,1,4.64,32.7l2.17-2.89,1.05,7.4ZM6.84,48.92h0a11.63,11.63,0,0,1-4.51-8.6l5.86-.83,1.29,9.06ZM12.26,53,9.43,50.88l11.7-1.66L22,55A11.6,11.6,0,0,1,12.26,53Zm16.31-2.31a11.48,11.48,0,0,1-4.4,3.56l-.76-5.35,7.29-1-2.13,2.83Zm8-15.22a11.6,11.6,0,0,1-2.31,7.7l-1.57,2.09-9.56,1.36L21.8,37.56l8.76-1.24.28,2a1.13,1.13,0,0,0,.45.76,1.11,1.11,0,0,0,.85.22,1.15,1.15,0,0,0,1-1.3l-.28-2Zm.8-5.65a13.9,13.9,0,0,0-4-4.8l-1-.77a18.67,18.67,0,0,1,9-.57,1.16,1.16,0,0,0,.68.14,21.9,21.9,0,0,1,6.39,2.43A34.58,34.58,0,0,0,37.33,29.82Z"/><path class="cls-1" d="M22.92,11.93v0a1.15,1.15,0,1,0-2.3,0v0a1.15,1.15,0,1,0,2.3,0Z"/><path class="cls-1" d="M33.64,41.65a1.18,1.18,0,0,0-.45-.76,1.17,1.17,0,0,0-.85-.22,1.16,1.16,0,0,0-1,1.31,1.1,1.1,0,0,0,.45.75,1.09,1.09,0,0,0,.85.22,1.15,1.15,0,0,0,.76-.44A1.21,1.21,0,0,0,33.64,41.65Z"/><path class="cls-1" d="M26.19,30.29a1.14,1.14,0,0,0-.45-.76,1.12,1.12,0,0,0-.85-.21,1.15,1.15,0,0,0-.76.44,1.21,1.21,0,0,0-.22.86,1.15,1.15,0,0,0,1.3,1,1.16,1.16,0,0,0,1-1.31Z"/><path class="cls-1" d="M16.63,43a1.16,1.16,0,0,0-1.31-1,1.18,1.18,0,0,0-.76.45,1.12,1.12,0,0,0-.21.85,1.15,1.15,0,0,0,.44.76,1.12,1.12,0,0,0,.86.22,1.14,1.14,0,0,0,.76-.45A1.17,1.17,0,0,0,16.63,43Z"/><path class="cls-1" d="M14.91,31.84a1.23,1.23,0,0,0-.45-.76,1.14,1.14,0,0,0-1.61.23,1.11,1.11,0,0,0-.22.86,1.17,1.17,0,0,0,.44.76,1.18,1.18,0,0,0,1.62-.23A1.21,1.21,0,0,0,14.91,31.84Z"/><path class="cls-1" d="M27.91,41.62a1.16,1.16,0,0,0-.45-.76,1.09,1.09,0,0,0-.85-.22,1.12,1.12,0,0,0-.76.45,1.17,1.17,0,0,0-.22.85,1.12,1.12,0,0,0,.45.76,1.17,1.17,0,0,0,.85.22,1.2,1.2,0,0,0,.76-.45A1.17,1.17,0,0,0,27.91,41.62Z"/><path class="cls-1" d="M19.36,53a1.16,1.16,0,0,0-1.31-1,1.17,1.17,0,0,0-1,1.3,1.2,1.2,0,0,0,.45.76,1.16,1.16,0,0,0,.86.22,1.14,1.14,0,0,0,.76-.45A1.17,1.17,0,0,0,19.36,53Z"/><path class="cls-1" d="M6.35,43.22a1.15,1.15,0,0,0-.44-.76,1.21,1.21,0,0,0-.86-.22,1.18,1.18,0,0,0-.76.45,1.17,1.17,0,0,0-.22.85,1.16,1.16,0,0,0,1.31,1,1.14,1.14,0,0,0,.75-.45A1.09,1.09,0,0,0,6.35,43.22Z"/></g></g></svg>