<svg xmlns="http://www.w3.org/2000/svg" viewBox="0 0 69.57 69.57"><defs><style>.cls-1{fill:none;stroke:#8b5e3c;stroke-miterlimit:10;stroke-width:2px;}.cls-2{fill:#8b5e3c;}</style></defs><title>24Asset 17</title><g id="Layer_2" data-name="Layer 2"><g id="Layer_1-2" data-name="Layer 1"><circle class="cls-1" cx="34.79" cy="34.79" r="33.79"/><path class="cls-2" d="M18.82,47.66a9.73,9.73,0,1,1,9.72-9.73A9.73,9.73,0,0,1,18.82,47.66Zm0-17.62a7.89,7.89,0,1,0,7.89,7.89A7.9,7.9,0,0,0,18.82,30Z"/><path class="cls-2" d="M19.17,38.47a1.62,1.62,0,0,1,.3,1,1.55,1.55,0,0,1-.58,1.28,2.51,2.51,0,0,1-1.61.46H14.39V34.82h2.8a2.46,2.46,0,0,1,1.55.44,1.48,1.48,0,0,1,.57,1.22,1.46,1.46,0,0,1-.27.88,1.44,1.44,0,0,1-.73.54A1.6,1.6,0,0,1,19.17,38.47Zm-3.65-1H17q1.2,0,1.2-.9a.77.77,0,0,0-.29-.67,1.5,1.5,0,0,0-.91-.23H15.52Zm2.55,2.57a1,1,0,0,0,0-1.43,1.42,1.42,0,0,0-.91-.24H15.52V40.3h1.64A1.49,1.49,0,0,0,18.07,40.08Z"/><path class="cls-2" d="M23.43,40.26h1.39v.94H20.88v-.94h1.4V36.14l-1.3.78v-1l1.78-1.07h.67Z"/><path class="cls-2" d="M47.67,55.62A12.82,12.82,0,1,1,60.48,42.81,12.82,12.82,0,0,1,47.67,55.62Zm0-23.79a11,11,0,1,0,11,11A11,11,0,0,0,47.67,31.83Z"/><path class="cls-2" d="M43.09,49.24V36.47h8.54V38.3H45.35v3.53h5.9v1.83h-5.9v3.75h6.28v1.83Z"/><path class="cls-2" d="M28.92,27.45A6.46,6.46,0,1,1,35.37,21,6.46,6.46,0,0,1,28.92,27.45Zm0-11.07A4.62,4.62,0,1,0,33.53,21,4.62,4.62,0,0,0,28.92,16.38Z"/><path class="cls-2" d="M31.16,21.89a1.34,1.34,0,0,1,.23.79,1.2,1.2,0,0,1-.46,1,1.94,1.94,0,0,1-1.27.37H27.35V19h2.23a2,2,0,0,1,1.24.35,1.2,1.2,0,0,1-.35,2.1A1.31,1.31,0,0,1,31.16,21.89Zm-2.91-.76h1.18q1,0,1-.72a.63.63,0,0,0-.24-.53,1.15,1.15,0,0,0-.72-.18H28.25Zm2,2a.68.68,0,0,0,.23-.56.71.71,0,0,0-.23-.58,1.21,1.21,0,0,0-.73-.18H28.25v1.5h1.31A1.21,1.21,0,0,0,30.29,23.17Z"/></g></g></svg>