<svg xmlns="http://www.w3.org/2000/svg" viewBox="0 0 68.86 68.86"><defs><style>.cls-1{fill:#8b5e3c;}.cls-2{fill:none;stroke:#8b5e3c;stroke-miterlimit:10;}</style></defs><title>24Asset 4</title><g id="Layer_2" data-name="Layer 2"><g id="Layer_1-2" data-name="Layer 1"><path class="cls-1" d="M29.88,27.66A2.17,2.17,0,0,0,28.33,27a2.14,2.14,0,0,0-2.18,2.1.7.7,0,0,0,.68.7h0a.69.69,0,0,0,.69-.68.76.76,0,0,1,1.33-.5.68.68,0,0,0,1,0A.69.69,0,0,0,29.88,27.66Z"/><path class="cls-1" d="M33.54,29.91a2,2,0,0,0-3.65.08.69.69,0,0,0,.4.89.67.67,0,0,0,.24,0,.7.7,0,0,0,.65-.45.6.6,0,0,1,.76-.35.58.58,0,0,1,.33.32.69.69,0,0,0,1.27-.53Z"/><path class="cls-1" d="M38,23.81a.69.69,0,0,0-1,0l-.65.65a.69.69,0,0,0,0,1,.7.7,0,0,0,1,0l.65-.65A.7.7,0,0,0,38,23.81Z"/><path class="cls-1" d="M33.69,32.7h-.91a.68.68,0,0,0-.69.68.69.69,0,0,0,.69.69h.91a.69.69,0,0,0,.69-.69A.68.68,0,0,0,33.69,32.7Z"/><path class="cls-1" d="M40.73,32.7h-.92a.68.68,0,0,0-.69.68.69.69,0,0,0,.69.69h.92a.69.69,0,0,0,.69-.69A.68.68,0,0,0,40.73,32.7Z"/><path class="cls-1" d="M58.68,45.11l-.18-1a1.32,1.32,0,0,0-1.29-1.07l-.23,0-3.65.67L55,42.66a1.32,1.32,0,0,0,.56-1.32,1.38,1.38,0,0,0-.15-.4l-.5-.89a1.31,1.31,0,0,0-.8-.62,1.46,1.46,0,0,0-.51,0,16.89,16.89,0,0,0,.28-3.11,1.15,1.15,0,0,0-.68-1,5.3,5.3,0,0,0,0-4A.81.81,0,0,0,53,31a.75.75,0,0,0-.28-.18,5.16,5.16,0,0,0-1.94-.38h-.26A3.62,3.62,0,0,0,46.18,27a5.65,5.65,0,0,0-.32-3,1,1,0,0,0-.19-.29,1,1,0,0,0-.29-.19,5.75,5.75,0,0,0-2.09-.4,5.68,5.68,0,0,0-3,.87,6.82,6.82,0,0,0-1.62-2.59,1.17,1.17,0,0,0-.83-.34,1.19,1.19,0,0,0-.83.34l-3.33,3.34a3.45,3.45,0,0,0-2.31-.88,4,4,0,0,0-.6.05,3.55,3.55,0,0,0-1.88,1,3.49,3.49,0,0,0-2.11-.29,3.43,3.43,0,0,0-.46.11V22.15a3.24,3.24,0,0,0-3.19-3.25V17.44a1.15,1.15,0,0,0,1-1.13V13a1.15,1.15,0,0,0-1.15-1.14h-5.6A1.15,1.15,0,0,0,16.17,13v3.31a1.15,1.15,0,0,0,1,1.13V18.9a3.24,3.24,0,0,0-3.19,3.25V42.24a6.54,6.54,0,0,0-2.23,4.88A7.13,7.13,0,0,0,19.08,54H46.63a3.17,3.17,0,0,0,3.12-3.65l5.5,1a.9.9,0,0,0,.23,0,1.29,1.29,0,0,0,.76-.24,1.28,1.28,0,0,0,.53-.87l.15-1a1.24,1.24,0,0,0,0-.43,1.29,1.29,0,0,0-1-1L54,47.29l3.65-.66a1.34,1.34,0,0,0,.84-.55A1.28,1.28,0,0,0,58.68,45.11ZM50.81,31.78A4.13,4.13,0,0,1,52,32a3.9,3.9,0,0,1-.33,3.17H49.84l.59-.59a.69.69,0,0,0,0-1,.71.71,0,0,0-1,0l-.31.32a3.18,3.18,0,0,0-.74-1.27A3.86,3.86,0,0,1,50.81,31.78Zm-3.88-3.45a2.26,2.26,0,0,1,2.25,2.26v.07a5.22,5.22,0,0,0-2,1.17l-.27-.1A3.21,3.21,0,0,0,45,29.37,2.24,2.24,0,0,1,46.93,28.33ZM43.29,24.5a4.32,4.32,0,0,1,1.37.22,4.36,4.36,0,0,1-.17,3.18,3.69,3.69,0,0,0-.89,1.22,2.23,2.23,0,0,0-.36.05,3.17,3.17,0,0,0-1.47.66,3.66,3.66,0,0,0-.52-.72l1.58-1.58a.69.69,0,1,0-1-1l-1.73,1.73A3.46,3.46,0,0,0,39.08,28a4.33,4.33,0,0,1,1.17-2.21A4.27,4.27,0,0,1,43.29,24.5ZM38,35.14h-.59a.68.68,0,0,0-.64-.44.68.68,0,0,0-.64.44h-.71a.68.68,0,0,0-.1-.85.69.69,0,0,0-1,0l-.65.65a.9.9,0,0,0-.14.2h-1.4a5.51,5.51,0,0,1-.88-2.78H42.21a5.51,5.51,0,0,1-.88,2.78H39.87a.66.66,0,0,0-.14-.2l-.64-.65a.7.7,0,0,0-1,0A.7.7,0,0,0,38,35.14ZM36.41,31a2.25,2.25,0,0,1,4.35,0Zm1.41-8.47A5.49,5.49,0,0,1,39.12,25a5.67,5.67,0,0,0-.87,1.26.66.66,0,0,0-.36-.11H37a.69.69,0,0,0,0,1.38h.8a5.4,5.4,0,0,0-.1.58,3.5,3.5,0,0,0-.78.3,3.5,3.5,0,0,0-2.12-1.62h0a3.23,3.23,0,0,0-.28-.88ZM25.38,28.73a2.14,2.14,0,0,1-.09-.34A2.1,2.1,0,0,1,27,26a2.19,2.19,0,0,1,.36,0,2.09,2.09,0,0,1,1.25.42.71.71,0,0,0,.53.13.69.69,0,0,0,.46-.3A2.05,2.05,0,0,1,31,25.27a2.19,2.19,0,0,1,.36,0A2.08,2.08,0,0,1,33.41,27a2.19,2.19,0,0,1,0,.36.69.69,0,0,0,.63.68,2.11,2.11,0,0,1,1.73,1.24A3.52,3.52,0,0,0,35,31H31.08a1.16,1.16,0,0,0-1.08.72,5.3,5.3,0,0,0-4.9-.53.87.87,0,0,0-.28.19.75.75,0,0,0-.18.28,4.89,4.89,0,0,0-.32,1.22,2.07,2.07,0,0,1-.49-1A2.11,2.11,0,0,1,25,29.59.69.69,0,0,0,25.38,28.73ZM27.43,35l.19.19H26a3.91,3.91,0,0,1-.12-2.76,3.89,3.89,0,0,1,4.23,1.25,6.93,6.93,0,0,0,.53,1.51h-1L28.4,34a.69.69,0,0,0-1,1Zm-2.93.19H22a2.26,2.26,0,0,1,1.07-1.57,3.44,3.44,0,0,0,1.26,1A3.16,3.16,0,0,0,24.5,35.14ZM17.55,13.23h5.14v2.85H17.55Zm4.19,4.23V18.9H18.5V17.46Zm-6.42,7.48h4.46a.69.69,0,1,0,0-1.38H15.32V22.15a1.87,1.87,0,0,1,1.86-1.88h5.88a1.87,1.87,0,0,1,1.86,1.88v1.41H23.64a.69.69,0,0,0,0,1.38h1.28v.61a3.49,3.49,0,0,0-1,3.07h0a3.5,3.5,0,0,0-1.46,3.46c0,.08,0,.15.05.23a3.76,3.76,0,0,0-.92.72H15.32Zm0,9.48H20.8a4.18,4.18,0,0,0-.15.72h-.11a1.16,1.16,0,0,0-1.15,1.15,17.22,17.22,0,0,0,.3,3.22,6.08,6.08,0,0,0-.61,0,6.27,6.27,0,0,0-2.23.37c-.93.37-1.19.89-1.24,1.25a2.69,2.69,0,0,0-.29.16ZM24,42.87a2.75,2.75,0,0,1,.49.49h0a4.26,4.26,0,0,1-1.88-.6,4.93,4.93,0,0,1-.79-.53.68.68,0,0,0-.89,0,5.43,5.43,0,0,1-.79.53,4.32,4.32,0,0,1-1.89.6h0a2.61,2.61,0,0,1,.48-.49.69.69,0,0,0,.24-.72.7.7,0,0,0-.59-.5,3.39,3.39,0,0,1-1.29-.37,3.87,3.87,0,0,1,2-.42,4.39,4.39,0,0,1,2,.38.67.67,0,0,0,.67,0,4.38,4.38,0,0,1,1.95-.38,3.89,3.89,0,0,1,2,.42,3.46,3.46,0,0,1-1.3.37.7.7,0,0,0-.58.5A.67.67,0,0,0,24,42.87Zm-1.38,8.38,0,.13a3.11,3.11,0,0,0,.49,1.2H19.08a5.75,5.75,0,0,1-6-5.46,5.4,5.4,0,0,1,3.1-4.77,3.24,3.24,0,0,0,.79.4,1.67,1.67,0,0,0-.23.68,1.12,1.12,0,0,0,.27.85,1.59,1.59,0,0,0,1.23.46A5.76,5.76,0,0,0,20.81,44a6,6,0,0,0,.56-.35c.18.12.37.24.57.35a5.73,5.73,0,0,0,2.55.77h0a1.58,1.58,0,0,0,1.23-.46,1.12,1.12,0,0,0,.27-.85,1.53,1.53,0,0,0-.23-.68,3.06,3.06,0,0,0,.79-.4,5.53,5.53,0,0,1,2.95,3.54l-4.86,1.85A3.15,3.15,0,0,0,22.65,51.25ZM48,51.93a1.77,1.77,0,0,1-1.37.64h-.72l-.46-2.44a.69.69,0,1,0-1.35.25l.41,2.19H42.14l-.31-1.65a.69.69,0,1,0-1.35.26l.26,1.39H35.23l-.42-2.24a.69.69,0,1,0-1.35.25l.37,2h-8A1.78,1.78,0,0,1,24,51.13L24,51a1.77,1.77,0,0,1,1.11-2l2.71-1,.2,1.08a.7.7,0,0,0,.68.57l.12,0a.67.67,0,0,0,.55-.8l-.24-1.33,4-1.53a.67.67,0,0,0,.4-.88.68.68,0,0,0-.89-.4l-1.86.71a7,7,0,0,0-3.66-4.3c-.06-.36-.31-.88-1.24-1.25a6.29,6.29,0,0,0-2.24-.37,6.7,6.7,0,0,0-1.6.18v-.42a.68.68,0,0,0-.69-.68.66.66,0,0,0-.42.14,15.64,15.64,0,0,1-.18-2.18H43.19a.69.69,0,0,0,0-1.38h-.28a6.9,6.9,0,0,0,.68-3A1.17,1.17,0,0,0,42.54,31a1.76,1.76,0,0,1,.93-.47l.32,0A1.83,1.83,0,0,1,45.59,32a3,3,0,0,1,0,.31.69.69,0,0,0,.63.68,1.83,1.83,0,0,1,1.64,1.51,1.9,1.9,0,0,1,0,.63h-.74a.69.69,0,0,0,0,1.38h5.35A15.68,15.68,0,0,1,52,40.21l-3.73,2.2a3.15,3.15,0,0,0-4.16-2.07l-7.68,2.92a.67.67,0,0,0-.4.88.68.68,0,0,0,.89.4l1-.38.31,1.7a.69.69,0,0,0,.68.56H39a.69.69,0,0,0,.56-.8l-.36-2,5.36-2A1.78,1.78,0,0,1,47,43l1.39,7.52A1.73,1.73,0,0,1,48,51.93Zm2.45-5.39a.7.7,0,0,0-.56.67.69.69,0,0,0,.53.68l5.13,1.18-.13.86-5.94-1.07-.93-5,5.18-3.05.43.76-4.37,2.92a.68.68,0,0,0-.25.83.69.69,0,0,0,.76.42l6.86-1.26.15.82Z"/><circle class="cls-2" cx="34.43" cy="34.43" r="33.93"/></g></g></svg>