<svg xmlns="http://www.w3.org/2000/svg" viewBox="0 0 69.57 69.57"><defs><style>.cls-1{fill:none;stroke:#8b5e3c;stroke-miterlimit:10;stroke-width:2px;}.cls-2{fill:#8b5e3c;}</style></defs><title>24Asset 10</title><g id="Layer_2" data-name="Layer 2"><g id="Layer_1-2" data-name="Layer 1"><circle class="cls-1" cx="34.79" cy="34.79" r="33.79"/><path class="cls-2" d="M34.78,45.77a15.34,15.34,0,0,1-5.28-1.06,13.34,13.34,0,0,1-8-8.44A11.65,11.65,0,0,0,10.45,28a.78.78,0,0,1-.74-.82.82.82,0,0,1,.68-.89,13.09,13.09,0,0,1,12.46,9.35c2.91,8.61,11.91,8.44,12,8.44a.79.79,0,0,1,.73.84.81.81,0,0,1-.69.88Z"/><path class="cls-2" d="M9.61,45.77H9.47a.81.81,0,0,1-.69-.88.79.79,0,0,1,.71-.84h.08c.85,0,10.26-.2,13.05-8.44a13.08,13.08,0,0,1,12.45-9.35.8.8,0,0,1,.68.89A.76.76,0,0,1,35,28h0a11.49,11.49,0,0,0-11.09,8.3,13.37,13.37,0,0,1-8.53,8.45A18.4,18.4,0,0,1,9.61,45.77Z"/><path class="cls-2" d="M34.73,45.77h-.16a.88.88,0,0,1,0-1.72c.09,0,9.57.16,12.48-8.44a13.08,13.08,0,0,1,12.45-9.35.81.81,0,0,1,.68.89.78.78,0,0,1-.73.82h0a11.49,11.49,0,0,0-11.09,8.3C45.29,45.42,36.1,45.77,34.73,45.77Z"/><path class="cls-2" d="M60.33,45.77a18.44,18.44,0,0,1-5.8-1.05A13.33,13.33,0,0,1,46,36.27,11.62,11.62,0,0,0,35.6,28V44.32a.72.72,0,1,1-1.42,0V27.12a.81.81,0,0,1,.68-.86,13.09,13.09,0,0,1,12.46,9.35c2.91,8.59,13,8.44,13.11,8.44h0a.79.79,0,0,1,.71.84.81.81,0,0,1-.69.88Z"/><path class="cls-2" d="M29.87,44.61a.8.8,0,0,1-.71-.86V28.26a.72.72,0,1,1,1.42,0V43.75A.8.8,0,0,1,29.87,44.61Z"/><path class="cls-2" d="M39.64,44.61a.79.79,0,0,1-.7-.86V28.26a.72.72,0,1,1,1.41,0V43.75A.79.79,0,0,1,39.64,44.61Z"/></g></g></svg>