<svg xmlns="http://www.w3.org/2000/svg" viewBox="0 0 51.39322 41.07727"><defs><style>.cls-1{fill:#2e46b9;}</style></defs><title>16Asset 121</title><g id="Layer_2" data-name="Layer 2"><g id="Layer_1-2" data-name="Layer 1"><path class="cls-1" d="M9.7273,33.1158a9.72722,9.72722,0,1,1,9.72729-9.72715A9.73806,9.73806,0,0,1,9.7273,33.1158Zm0-17.61621a7.889,7.889,0,1,0,7.88906,7.88906A7.89785,7.89785,0,0,0,9.7273,15.49959Z"/><path class="cls-1" d="M10.07851,23.92266a1.62053,1.62053,0,0,1,.30025.995,1.54447,1.54447,0,0,1-.57828,1.27755,2.51581,2.51581,0,0,1-1.60907.46158H5.296V20.27422h2.806a2.44868,2.44868,0,0,1,1.5506.44368A1.59534,1.59534,0,0,1,9.953,22.81551a1.50132,1.50132,0,0,1-.73055.54247A1.57567,1.57567,0,0,1,10.07851,23.92266Zm-3.653-.95919H7.9136q1.2012,0,1.2012-.89641a.79011.79011,0,0,0-.29594-.67232,1.49616,1.49616,0,0,0-.90526-.2241H6.42554Zm2.55919,2.57279a.83694.83694,0,0,0,.2914-.70812.87469.87469,0,0,0-.2914-.72624,1.46808,1.46808,0,0,0-.91885-.23294H6.42554v1.8914H8.06588A1.51026,1.51026,0,0,0,8.98473,25.53626Z"/><path class="cls-1" d="M14.34081,25.7155H15.7303v.94128H11.795V25.7155h1.39833V21.60094l-1.29976.77995v-1.031l1.77493-1.07566h.67232Z"/><path class="cls-1" d="M38.58007,41.07727A12.81308,12.81308,0,1,1,51.39322,28.26412,12.82719,12.82719,0,0,1,38.58007,41.07727Zm0-23.78792A10.97485,10.97485,0,1,0,49.555,28.26412,10.98681,10.98681,0,0,0,38.58007,17.28935Z"/><path class="cls-1" d="M34.00492,34.69419V21.92906h8.53455V23.7577H36.26409v3.532h5.89833v1.82864H36.26409v3.74724h6.27538v1.82864Z"/><path class="cls-1" d="M19.82978,12.90321A6.45161,6.45161,0,1,1,26.28093,6.4516,6.45911,6.45911,0,0,1,19.82978,12.90321Zm0-11.065A4.61338,4.61338,0,1,0,24.4427,6.4516,4.61876,4.61876,0,0,0,19.82978,1.83823Z"/><path class="cls-1" d="M22.06505,7.34526a1.28678,1.28678,0,0,1,.23861.7906A1.22674,1.22674,0,0,1,21.84412,9.151a1.99764,1.99764,0,0,1-1.27846.36686H18.26479V4.446h2.22949a1.947,1.947,0,0,1,1.23246.35258,1.16878,1.16878,0,0,1,.44867.97256,1.16829,1.16829,0,0,1-.21006.69452,1.19378,1.19378,0,0,1-.58054.43076A1.25382,1.25382,0,0,1,22.06505,7.34526ZM19.16234,6.583h1.18239q.95442,0,.95443-.7122a.62764.62764,0,0,0-.235-.53432,1.18892,1.18892,0,0,0-.71944-.1781H19.16234Zm2.03371,2.04436a.66515.66515,0,0,0,.23136-.56264.69526.69526,0,0,0-.23136-.57692,1.16642,1.16642,0,0,0-.73032-.18536H19.16234v1.503h1.30339A1.20024,1.20024,0,0,0,21.19605,8.62735Z"/></g></g></svg>