<svg xmlns="http://www.w3.org/2000/svg" viewBox="0 0 74.57715 27.78623"><defs><style>.cls-1{fill:#2e46b9;}</style></defs><title>16Asset 131</title><g id="Layer_2" data-name="Layer 2"><g id="Layer_1-2" data-name="Layer 1"><path class="cls-1" d="M37.01818,27.78543a21.8145,21.8145,0,0,1-7.52-1.50335A19.01905,19.01905,0,0,1,18.16563,14.25544,16.55779,16.55779,0,0,0,2.37542,2.4463,1.11212,1.11212,0,0,1,1.32664,1.27486,1.15258,1.15258,0,0,1,2.29273.00312c.12535-.00557,13.05863-.48871,17.73813,13.32305C24.18335,25.586,36.9998,25.34285,37.14222,25.33907a1.12864,1.12864,0,0,1,1.033,1.19194,1.14428,1.14428,0,0,1-.98315,1.25243C37.17569,27.784,37.116,27.78543,37.01818,27.78543Z"/><path class="cls-1" d="M1.177,27.78563c-.10829,0-.17327-.00159-.19164-.00219A1.142,1.142,0,0,1,.00023,26.535a1.12563,1.12563,0,0,1,1.0081-1.19632c.01181,0-.00657.0008.10894.001,1.21943,0,14.61016-.27958,18.58544-12.0135C24.38155-.4842,37.31089-.002,37.44084.00312a1.15271,1.15271,0,0,1,.96609,1.27174A1.11142,1.11142,0,0,1,37.35946,2.4463h0c-.47583-.02289-11.6561-.398-15.79152,11.80914a18.99155,18.99155,0,0,1-12.13717,12.036A26.07352,26.07352,0,0,1,1.177,27.78563Z"/><path class="cls-1" d="M36.94926,27.78623c-.11354,0-.189-.0018-.22249-.00279a1.24533,1.24533,0,0,1,.0466-2.44437c.13586.0006,13.62831.22187,17.77292-12.0129C59.22514-.4842,72.15447-.002,72.28442.00312a1.1527,1.1527,0,0,1,.9661,1.27174A1.11569,1.11569,0,0,1,72.203,2.4463h0c-.47451-.02289-11.65675-.398-15.79151,11.80914C51.99455,27.29293,38.89523,27.78623,36.94926,27.78623Z"/><path class="cls-1" d="M73.40015,27.78563a26.07009,26.07009,0,0,1-8.25377-1.4942,18.99157,18.99157,0,0,1-12.13717-12.036C49.57014,4.10427,41.06171,2.664,38.18575,2.47157v23.245a1.02691,1.02691,0,1,1-2.01618,0V1.22471A1.14247,1.14247,0,0,1,37.13631.00312c.13126-.00557,13.058-.48871,17.73814,13.32305,4.14264,12.23119,18.52374,12.01768,18.67337,12.0127l.021-.0002A1.12562,1.12562,0,0,1,74.57692,26.535a1.142,1.142,0,0,1-.98512,1.24845C73.57342,27.784,73.50845,27.78563,73.40015,27.78563Z"/><path class="cls-1" d="M30.03174,26.13463a1.13117,1.13117,0,0,1-1.0081-1.22259V2.85323a1.02691,1.02691,0,1,1,2.01619,0V24.912A1.13116,1.13116,0,0,1,30.03174,26.13463Z"/><path class="cls-1" d="M43.94883,26.13463a1.13116,1.13116,0,0,1-1.0081-1.22259V2.85323a1.02691,1.02691,0,1,1,2.01619,0V24.912A1.13116,1.13116,0,0,1,43.94883,26.13463Z"/></g></g></svg>