<svg xmlns="http://www.w3.org/2000/svg" viewBox="0 0 69.57 69.57"><defs><style>.cls-1{fill:none;stroke:#8b5e3c;stroke-miterlimit:10;stroke-width:2px;}.cls-2{fill:#8b5e3c;}</style></defs><title>24Asset 16</title><g id="Layer_2" data-name="Layer 2"><g id="Layer_1-2" data-name="Layer 1"><circle class="cls-1" cx="34.79" cy="34.79" r="33.79"/><path class="cls-2" d="M41.35,35.05,37.27,32l-3,2.23-3-2.23-4.09,3.06v2.23l-3,2.23v3.34l3,2.23v2.23l4.09,3.06,3-2.23,3,2.23,4.08-3.06V45.08l3-2.23V39.51l-3-2.23Zm-2.23,1.12v1.11l-1.85,1.39-1.86-1.39V36.17l1.86-1.39Zm-4.82,7-1.86-1.39V40.62l1.86-1.39,1.85,1.39v1.12Zm-3-8.35,1.85,1.39v1.11l-1.85,1.39-1.86-1.39V36.17ZM26.5,40.62l1.86-1.39,1.85,1.39v1.12l-1.85,1.39L26.5,41.74Zm3,5.57V45.08l1.86-1.39,1.85,1.39v1.11l-1.85,1.39Zm7.8,1.39-1.86-1.39V45.08l1.86-1.39,1.85,1.39v1.11Zm4.82-5.84-1.85,1.39-1.86-1.39V40.62l1.86-1.39,1.85,1.39Z"/><path class="cls-2" d="M50,23.28a3.34,3.34,0,1,0-2.67-5.35l-.75,1V16.6H22v5.11L15.8,28l1.23.8a7.15,7.15,0,0,0,3,1.13,20.76,20.76,0,0,0-1.85,6.71c-.59,5.5.76,11.36,4,17.44l.31.59H46.1l.32-.59c3.24-6.06,4.6-11.92,4-17.42a21.15,21.15,0,0,0-1.82-6.72,7.16,7.16,0,0,0,3.06-1.15L52.83,28l-4.7-4.71Zm-.9-4a1.12,1.12,0,1,1,.9,1.79H47.7Zm-24.8-.44H44.32v2.23h-20ZM44.76,52.39H23.83c-5.69-11-3.39-18.74-1.27-22.62a7.38,7.38,0,0,0,2.39-1,4.86,4.86,0,0,1,5.44,0,7.13,7.13,0,0,0,7.92,0,4.88,4.88,0,0,1,5.45,0,7.4,7.4,0,0,0,2.29,1C48.17,33.61,50.47,41.32,44.76,52.39ZM45,26.89a7.13,7.13,0,0,0-7.92,0,4.91,4.91,0,0,1-5.45,0,7.13,7.13,0,0,0-7.92,0,4.89,4.89,0,0,1-4.27.58l4.18-4.19H45l4.22,4.21A4.88,4.88,0,0,1,45,26.89Z"/></g></g></svg>