<svg xmlns="http://www.w3.org/2000/svg" viewBox="0 0 51.39322 41.07727"><defs><style>.cls-1{fill:#2e46b9;}</style></defs><title>16Asset 71</title><g id="Layer_2" data-name="Layer 2"><g id="Layer_1-2" data-name="Layer 1"><path class="cls-1" d="M9.7267,33.1158A9.72722,9.72722,0,1,1,19.454,23.38865,9.73793,9.73793,0,0,1,9.7267,33.1158Zm0-17.61621a7.889,7.889,0,1,0,7.88906,7.88906A7.89772,7.89772,0,0,0,9.7267,15.49959Z"/><path class="cls-1" d="M7.51832,27.71371A3.95975,3.95975,0,0,1,5.89815,26.0659a5.27014,5.27014,0,0,1-.56445-2.50322A5.23079,5.23079,0,0,1,5.92535,21.032a4.22614,4.22614,0,0,1,1.675-1.70243,5.01747,5.01747,0,0,1,2.50322-.60977,5.92891,5.92891,0,0,1,1.90274.30953,3.70629,3.70629,0,0,1,1.4654.85563l-.63719,1.602a4.42562,4.42562,0,0,0-1.2379-.719,3.66565,3.66565,0,0,0-1.29274-.24586,2.45482,2.45482,0,0,0-1.9297.77383,3.23811,3.23811,0,0,0-.692,2.23017,3.23251,3.23251,0,0,0,.68274,2.22111,2.46392,2.46392,0,0,0,1.939.76477,3.54457,3.54457,0,0,0,1.29274-.25493,4.59711,4.59711,0,0,0,1.2379-.72828l.63719,1.60227a4.04023,4.04023,0,0,1-1.51095.85563,6.12408,6.12408,0,0,1-1.94805.30953A5.08231,5.08231,0,0,1,7.51832,27.71371Z"/><path class="cls-1" d="M38.58007,41.07727A12.81308,12.81308,0,1,1,51.39322,28.26412,12.8277,12.8277,0,0,1,38.58007,41.07727Zm0-23.78792A10.97485,10.97485,0,1,0,49.555,28.26412,10.98742,10.98742,0,0,0,38.58007,17.28935Z"/><path class="cls-1" d="M35.59712,34.104a5.34679,5.34679,0,0,1-2.188-2.225,7.11677,7.11677,0,0,1-.76205-3.38038,7.06229,7.06229,0,0,1,.799-3.41708,5.70651,5.70651,0,0,1,2.26167-2.29883,6.77492,6.77492,0,0,1,3.38038-.82346,8.003,8.003,0,0,1,2.56916.41785,5.01,5.01,0,0,1,1.9791,1.15542L42.776,25.69609a5.97956,5.97956,0,0,0-1.67184-.9712,4.95017,4.95017,0,0,0-1.74547-.33174,3.31482,3.31482,0,0,0-2.6061,1.04484,4.37485,4.37485,0,0,0-.934,3.01148,4.36525,4.36525,0,0,0,.92179,2.99947,3.32722,3.32722,0,0,0,2.61834,1.03238,4.79063,4.79063,0,0,0,1.74547-.344,6.21941,6.21941,0,0,0,1.67184-.98343l.86039,2.16332a5.4582,5.4582,0,0,1-2.04051,1.15565,8.26789,8.26789,0,0,1-2.63057.41784A6.86151,6.86151,0,0,1,35.59712,34.104Z"/><path class="cls-1" d="M19.82918,12.90321A6.45161,6.45161,0,1,1,26.28093,6.4516,6.4591,6.4591,0,0,1,19.82918,12.90321Zm0-11.065A4.61338,4.61338,0,1,0,24.4427,6.4516,4.61876,4.61876,0,0,0,19.82918,1.83823Z"/><path class="cls-1" d="M18.44212,9.16967A2.48913,2.48913,0,0,1,17.42425,8.1348a3.31227,3.31227,0,0,1-.3544-1.57258,3.2836,3.2836,0,0,1,.37162-1.58936,2.65474,2.65474,0,0,1,1.05209-1.06931,3.15,3.15,0,0,1,1.57236-.38317A3.72756,3.72756,0,0,1,21.261,3.7148a2.3311,2.3311,0,0,1,.92044.53749L21.78126,5.2586a2.78085,2.78085,0,0,0-.77768-.4516,2.3024,2.3024,0,0,0-.8119-.15432,1.54219,1.54219,0,0,0-1.21207.48583,2.03519,2.03519,0,0,0-.43461,1.401,2.03033,2.03033,0,0,0,.42872,1.39493,1.54815,1.54815,0,0,0,1.218.48039,2.22476,2.22476,0,0,0,.8119-.16021,2.8877,2.8877,0,0,0,.77768-.45727l.40017,1.00632a2.54082,2.54082,0,0,1-.94921.53749,3.849,3.849,0,0,1-1.2234.19442A3.19143,3.19143,0,0,1,18.44212,9.16967Z"/></g></g></svg>