<?xml version="1.0" encoding="utf-8"?>
<!-- Generator: Adobe Illustrator 23.0.0, SVG Export Plug-In . SVG Version: 6.00 Build 0)  -->
<svg version="1.1" id="Layer_1" xmlns="http://www.w3.org/2000/svg" xmlns:xlink="http://www.w3.org/1999/xlink" x="0px" y="0px"
	 viewBox="0 0 359.5 142.5" style="enable-background:new 0 0 359.5 142.5;" xml:space="preserve">
<style type="text/css">
	.st0{clip-path:url(#SVGID_2_);}
	.st1{fill:url(#SVGID_3_);}
	.st2{fill:#BE975F;}
</style>
<title>Asset 1</title>
<g>
	<g id="Layer_1-2">
		<g>
			<defs>
				<path id="SVGID_1_" d="M237.6,28.6v23.8c-2.6,1.2-5.4,2.1-8.2,2.7c-3.2,0.7-6.5,1-9.8,1c-4.6,0.1-9.2-0.9-13.3-3.1
					c-3.7-2-6.7-5-8.6-8.8c-2.1-4.2-3.1-8.9-3-13.7c-0.1-4.7,0.9-9.3,3-13.5c1.9-3.7,4.9-6.8,8.5-8.8c4-2.1,8.5-3.2,13-3.1
					c3.3,0,6.6,0.5,9.8,1.5c2.8,0.9,5.4,2.3,7.6,4.3l-3.1,6.5c-2.1-1.7-4.4-3-6.8-3.9c-2.4-0.8-4.8-1.2-7.3-1.2
					c-5.1,0-9,1.5-11.6,4.6c-2.6,3.1-3.9,7.6-3.9,13.5c0,6.1,1.3,10.7,4,13.8c2.7,3.1,6.7,4.6,12.1,4.6c3.2,0,6.5-0.5,9.6-1.3V35.1
					h-10.7v-6.5H237.6z M246.5,4.3h9.7v8.6h-9.7L246.5,4.3z M247.1,55.4V20.2h8.6v35.2H247.1z M298.9,20.2v35.2h-8.6v-5.7
					c-1.1,1.9-2.7,3.5-4.6,4.6c-2.1,1.1-4.4,1.7-6.8,1.7c-2.9,0.1-5.7-0.7-8.1-2.2c-2.4-1.5-4.3-3.7-5.5-6.3c-1.4-3-2-6.3-2-9.5
					c-0.1-3.3,0.6-6.6,2-9.7c1.2-2.7,3.1-4.9,5.5-6.5c2.4-1.6,5.2-2.4,8.1-2.3c2.4,0,4.7,0.5,6.8,1.7c1.9,1,3.5,2.6,4.6,4.6v-5.3
					L298.9,20.2z M288,46.2c1.6-2,2.4-4.8,2.4-8.4s-0.8-6.6-2.4-8.6c-1.6-2-4.2-3.1-6.8-3c-2.6-0.1-5.1,1-6.7,3.1
					c-1.6,2.1-2.4,4.9-2.4,8.6s0.8,6.5,2.4,8.4c1.7,2,4.2,3.1,6.8,2.9C283.9,49.3,286.4,48.2,288,46.2z M284.5,15.7h-4.7v-1.9
					c0-0.8,0.2-1.7,0.7-2.4c0.6-0.8,1.2-1.5,2-2.1c0.5-0.4,0.9-0.8,1.3-1.2c0.3-0.3,0.4-0.7,0.4-1.1c0-1.1-0.9-1.7-2.6-1.7
					c-1.3,0-2.6,0.2-3.8,0.7l-1.3-3.6c1.8-0.9,3.8-1.3,5.9-1.3c2-0.1,4,0.4,5.7,1.5c1.3,0.8,2,2.1,2.1,3.6c0,0.9-0.2,1.8-0.8,2.6
					c-0.7,0.8-1.5,1.6-2.4,2.3c-0.6,0.5-1.3,1-1.8,1.6c-0.4,0.4-0.6,1-0.6,1.6V15.7z M307.8,4.3h9.7v8.6h-9.7V4.3z M308.4,55.4V20.2
					h8.6v35.2H308.4z M223.7,93.7c2.4,1.6,4.3,3.9,5.5,6.6c1.4,3,2.1,6.3,2,9.6c0.1,3.3-0.6,6.5-2,9.5c-2.4,5.3-7.7,8.7-13.6,8.6
					c-2.4,0-4.7-0.5-6.8-1.6c-1.9-1-3.5-2.6-4.6-4.6v20.7h-8.6v-40.3c0-3.3-0.2-6.7-0.6-10h8.2l0.7,6.1c0.9-2.2,2.5-4,4.5-5.1
					C213.2,90.5,219.1,90.7,223.7,93.7L223.7,93.7z M220,118.2c1.6-1.9,2.4-4.7,2.4-8.4c0-3.6-0.8-6.5-2.4-8.6
					c-1.6-2.1-4.1-3.2-6.7-3.1c-2.6-0.2-5.2,1-6.8,3c-1.6,2-2.4,4.9-2.4,8.6s0.8,6.5,2.4,8.5c3.5,3.7,9.3,4,13,0.5
					C219.7,118.5,219.8,118.3,220,118.2L220,118.2z M271.5,105.8v21.6h-8.7v-21.2c0-2.8-0.5-4.8-1.6-6.1c-1.3-1.4-3.1-2.1-4.9-1.9
					c-2.4-0.1-4.7,0.8-6.4,2.6c-1.7,1.8-2.6,4.2-2.4,6.7v19.9h-8.6V76.1h8.6v21.2c1.2-1.9,2.8-3.4,4.8-4.4c2.1-1.1,4.4-1.6,6.7-1.6
					C267.3,91.3,271.5,96.2,271.5,105.8L271.5,105.8z M314.4,92.2v35.2h-8.6v-5.6c-1.1,1.9-2.7,3.5-4.6,4.6
					c-2.1,1.1-4.5,1.7-6.8,1.6c-2.9,0.1-5.7-0.7-8.1-2.2c-2.4-1.5-4.3-3.7-5.5-6.3c-1.4-3-2.1-6.3-2-9.5c-0.1-3.3,0.6-6.6,2-9.6
					c1.2-2.7,3.1-4.9,5.5-6.6c2.4-1.6,5.2-2.4,8.1-2.3c2.4,0,4.7,0.5,6.8,1.6c1.9,1,3.5,2.6,4.6,4.6v-5.3L314.4,92.2z M303.5,118.1
					c1.6-2,2.4-4.8,2.4-8.4c0-3.7-0.8-6.6-2.4-8.6c-3.3-3.7-9-4-12.7-0.7c-0.3,0.2-0.5,0.5-0.8,0.8c-1.6,2.1-2.4,4.9-2.4,8.6
					c0,3.7,0.8,6.5,2.4,8.4c1.7,2,4.2,3.1,6.8,2.9C299.4,121.3,301.9,120.2,303.5,118.1z M300.4,87.7h-5.6l7-14.3h8.9L300.4,87.7z
					 M352,93.7c2.4,1.6,4.3,3.9,5.5,6.6c1.4,3,2.1,6.3,2,9.6c0.1,3.3-0.6,6.5-2,9.5c-2.4,5.3-7.7,8.7-13.6,8.6
					c-2.4,0-4.7-0.5-6.8-1.6c-1.9-1-3.5-2.6-4.6-4.6v20.7h-8.6v-40.3c0-3.3-0.2-6.7-0.6-10h8.1l0.7,6.1c0.9-2.2,2.5-4,4.5-5.1
					c2.2-1.3,4.7-1.9,7.2-1.8C346.8,91.3,349.6,92.1,352,93.7L352,93.7z M348.4,118.3c1.6-1.9,2.4-4.7,2.4-8.4s-0.8-6.5-2.4-8.6
					c-1.6-2.1-4.1-3.2-6.7-3.1c-2.6-0.2-5.2,1-6.8,3c-1.6,2-2.4,4.9-2.4,8.6s0.8,6.5,2.4,8.5c3.5,3.7,9.3,4,13,0.5
					C348,118.6,348.2,118.4,348.4,118.3L348.4,118.3z"/>
			</defs>
			<clipPath id="SVGID_2_">
				<use xlink:href="#SVGID_1_"  style="overflow:visible;"/>
			</clipPath>
			<g class="st0">
				
					<linearGradient id="SVGID_3_" gradientUnits="userSpaceOnUse" x1="86.2302" y1="135.545" x2="538.8098" y2="14.2751" gradientTransform="matrix(1 0 0 -1 0 150)">
					<stop  offset="7.000000e-02" style="stop-color:#EFDF80"/>
					<stop  offset="0.28" style="stop-color:#BB8949"/>
					<stop  offset="0.48" style="stop-color:#DDC364"/>
					<stop  offset="0.68" style="stop-color:#BB8949"/>
					<stop  offset="0.7" style="stop-color:#BD8D4C"/>
					<stop  offset="0.73" style="stop-color:#C59954"/>
					<stop  offset="0.76" style="stop-color:#D1AD61"/>
					<stop  offset="0.78" style="stop-color:#E2C974"/>
					<stop  offset="0.8" style="stop-color:#EEDD81"/>
					<stop  offset="0.89" style="stop-color:#A9803C"/>
					<stop  offset="0.99" style="stop-color:#855B22"/>
				</linearGradient>
				<rect x="98.4" y="-31" class="st1" width="428.2" height="212.2"/>
			</g>
		</g>
		<path class="st2" d="M78,82.3c0,16.7-3.4,29.6-10.2,38.7s-16.3,13.6-28.7,13.6c-12.4,0-22-4.6-28.9-13.7C3.4,111.9,0,99,0,82.3
			V55.2c0-16.7,3.4-29.5,10.2-38.7S26.6,2.9,39,2.9c12.4,0,22,4.6,28.8,13.7S78,38.6,78,55.2V82.3z M73.3,55.2
			c0-14.9-2.9-26.6-8.8-35S50.1,7.6,39,7.7c-11.1,0-19.6,4.2-25.5,12.6s-8.8,20.1-8.8,35v26.9c0,14.8,2.9,26.4,8.8,35
			S28,130,39.1,129.9c11.1,0,19.5-4.3,25.4-12.8c5.8-8.5,8.8-20.2,8.8-35V55.2z"/>
		<path class="st2" d="M118,65h9.8c10.7,0,19.2-2.7,25.3-8s9.2-11.9,9.2-19.7c0-8.6-2.7-15.7-8-21.3c-5.3-5.6-13.1-8.4-23.4-8.4
			c-9.5,0-17.4,2.8-23.7,8.4c-6.3,5.6-9.4,13-9.4,22.2h-4l-0.2-0.5c-0.3-10.4,3.2-18.8,10.4-25.2c7.2-6.4,16.2-9.6,26.9-9.6
			c11,0,19.8,3.1,26.3,9.4c6.5,6.2,9.8,14.7,9.8,25.4c0,6.6-2.2,13-6.4,18.1c-4.4,5.5-10.4,9.5-17.2,11.5c8.3,2,14.8,5.8,19.4,11.2
			s6.9,12.2,6.9,20.4c0,11.1-3.5,19.9-10.6,26.3c-7.1,6.4-16.3,9.5-27.5,9.5c-10.4,0.1-20.6-3.3-28.8-9.6
			c-8.3-6.4-12.3-15.5-12-27.3l0.2-0.5h4c-0.2,9,3.6,17.6,10.4,23.5c6.9,6.1,15.7,9.2,26.2,9.2c10.5,0,18.7-2.7,24.6-8.1
			c5.9-5.4,8.8-13,8.8-22.6c0-10-3.4-17.4-10.1-22.1c-6.7-4.7-15.8-7.1-27.3-7.2H118V65z"/>
	</g>
</g>
</svg>
