<?xml version="1.0" encoding="utf-8"?>
<!-- Generator: Adobe Illustrator 23.0.0, SVG Export Plug-In . SVG Version: 6.00 Build 0)  -->
<svg version="1.1" id="Layer_1" xmlns="http://www.w3.org/2000/svg" xmlns:xlink="http://www.w3.org/1999/xlink" x="0px" y="0px"
	 viewBox="0 0 592.6 153.3" style="enable-background:new 0 0 592.6 153.3;" xml:space="preserve">
<style type="text/css">
	.st0{clip-path:url(#SVGID_2_);}
	.st1{fill:url(#SVGID_3_);}
	.st2{fill:#BE975F;}
</style>
<title>Asset 3</title>
<g>
	<g id="Layer_1-2">
		<g>
			<defs>
				<path id="SVGID_1_" d="M205.9,51.6c-3.6-2.1-6.5-5.2-8.4-8.9c-2-4.2-3-8.8-2.9-13.5c-0.1-4.6,0.9-9.2,2.9-13.4
					c1.9-3.7,4.8-6.8,8.4-8.8c3.9-2.1,8.3-3.2,12.8-3.1c3.2,0,6.4,0.5,9.4,1.6c2.7,0.9,5.2,2.4,7.4,4.3l-2.9,6.5
					c-2-1.7-4.2-3-6.7-3.9c-2.3-0.8-4.7-1.2-7.1-1.2c-4.8,0-8.5,1.6-11.1,4.7s-3.9,7.6-3.9,13.4c0,5.8,1.3,10.3,3.9,13.5
					c2.6,3.1,6.3,4.7,11.1,4.7c2.4,0,4.8-0.4,7.1-1.2c2.4-0.9,4.7-2.3,6.7-3.9l2.9,6.6c-2.1,2-4.6,3.4-7.4,4.3c-3,1-6.2,1.6-9.4,1.5
					C214.3,54.8,209.8,53.7,205.9,51.6z M276,32.5v21.6h-8.7V32.9c0-2.8-0.5-4.8-1.6-6.1c-1.3-1.4-3.1-2.1-5-1.9
					c-2.4-0.1-4.7,0.8-6.4,2.5c-1.7,1.8-2.5,4.3-2.4,6.7v19.9h-8.6V2.8h8.6V24c1.2-1.9,2.8-3.4,4.8-4.4c2.1-1.1,4.4-1.6,6.7-1.6
					C271.9,18,276.1,22.8,276,32.5z M325.6,9.8v2.4c0.1,2.6-0.7,5.1-2.2,7.1c-1.5,1.9-3.6,3.2-6,3.7v31.1h-8.5v-5.4
					c-1,1.9-2.6,3.4-4.5,4.5c-2,1.1-4.2,1.6-6.4,1.5c-8.6,0-12.9-4.8-12.9-14.5V18.9h8.6v21.3c0,2.6,0.5,4.4,1.6,5.6
					c1.3,1.3,3,2,4.8,1.8c2.3,0.1,4.5-0.8,6.1-2.5c1.6-1.9,2.4-4.2,2.3-6.7V18.9h2.5c2.5,0,4.2-0.6,5.3-1.8s1.6-3.2,1.6-6.1V9.8
					H325.6z M304.1,14.3h-5.6l7-14.3h8.9L304.1,14.3z M361,32.5v21.6h-8.7V32.9c0-2.8-0.5-4.8-1.6-6.1c-1.3-1.4-3.1-2.1-4.9-1.9
					c-2.4-0.1-4.7,0.8-6.4,2.5c-1.7,1.8-2.6,4.3-2.4,6.7v19.9h-8.6V28.8c0-3.3-0.2-6.7-0.6-10h8.1l0.6,5.8c1.1-2.1,2.8-3.8,4.9-4.9
					c2.1-1.2,4.6-1.8,7-1.8C356.8,18,361,22.8,361,32.5z M404.3,18.9V53c0,5.5-1.5,9.6-4.5,12.5c-3,2.8-7.5,4.2-13.3,4.2
					c-5,0.1-9.9-1.1-14.4-3.4l1.4-6.6c3.9,2.1,8.3,3.3,12.8,3.3c6.3,0,9.4-3.1,9.4-9.3v-7c-1.1,1.9-2.7,3.5-4.7,4.6
					c-2.1,1.2-4.5,1.8-6.9,1.8c-2.9,0.1-5.7-0.7-8.2-2.2c-2.4-1.5-4.3-3.6-5.6-6.2c-1.4-2.9-2.1-6-2-9.2c-0.1-3.2,0.6-6.3,2-9.2
					c1.2-2.6,3.2-4.7,5.6-6.2c2.5-1.5,5.3-2.2,8.2-2.2c2.4,0,4.8,0.6,7,1.7c2,1,3.6,2.6,4.6,4.6v-5.3H404.3z M393.1,43.4
					c1.7-1.9,2.5-4.5,2.5-7.9c0-3.3-0.8-6-2.4-7.9c-3.7-3.8-9.7-3.8-13.5-0.1c0,0-0.1,0.1-0.1,0.1c-1.6,1.9-2.5,4.5-2.5,7.9
					s0.8,6,2.5,7.9c3.7,3.8,9.7,3.8,13.4,0.2C393,43.5,393.1,43.5,393.1,43.4z M465.5,32.5v21.6h-8.7V32.9c0-2.8-0.5-4.8-1.6-6.1
					c-1.3-1.4-3.1-2.1-5-1.9c-2.4-0.1-4.7,0.8-6.4,2.5c-1.7,1.8-2.6,4.3-2.4,6.7v19.9h-8.6V28.8c0-3.3-0.2-6.7-0.6-10h8.1l0.7,5.8
					c1.1-2.1,2.8-3.8,4.9-4.9c2.1-1.2,4.6-1.8,7-1.8C461.3,18,465.5,22.8,465.5,32.5L465.5,32.5z M507.5,32.5v21.6h-8.7V32.9
					c0-2.8-0.5-4.8-1.6-6.1c-1.3-1.4-3.1-2.1-4.9-1.9c-2.4-0.1-4.7,0.8-6.4,2.5c-1.7,1.8-2.6,4.3-2.4,6.7v19.9h-8.6V2.8h8.6V24
					c1.2-1.9,2.8-3.4,4.8-4.4c2.1-1.1,4.4-1.6,6.7-1.6C503.3,18,507.5,22.8,507.5,32.5L507.5,32.5z M550.4,18.9v35.2h-8.6v-5.6
					c-1.1,1.9-2.7,3.5-4.6,4.6c-2.1,1.1-4.4,1.7-6.8,1.7c-2.9,0.1-5.7-0.7-8.2-2.2c-2.4-1.5-4.3-3.7-5.5-6.3c-1.4-3-2-6.3-2-9.5
					c-0.1-3.3,0.6-6.6,2-9.7c1.2-2.7,3.1-4.9,5.5-6.5c2.4-1.6,5.2-2.4,8.1-2.3c2.4,0,4.7,0.5,6.8,1.7c1.9,1,3.5,2.6,4.6,4.6v-5.3
					H550.4z M529.1,14.4H522L530.8,0h5.5l8.8,14.3H538l-4.4-8.9L529.1,14.4z M539.5,44.8c1.6-2,2.4-4.8,2.4-8.4s-0.8-6.5-2.4-8.6
					c-3.3-3.7-9-4-12.7-0.7c-0.3,0.2-0.5,0.5-0.8,0.8c-1.6,2.1-2.4,4.9-2.4,8.6s0.8,6.5,2.4,8.4c1.7,2,4.2,3.1,6.8,2.9
					C535.4,47.9,537.9,46.8,539.5,44.8z M529.3,59.5h8.4v8.2h-8.4V59.5z M592.6,32.5v21.6h-8.7V32.9c0-2.8-0.5-4.8-1.6-6.1
					c-1.3-1.4-3.1-2.1-4.9-1.9c-2.4-0.1-4.7,0.8-6.4,2.5c-1.7,1.8-2.6,4.3-2.4,6.7v19.9h-8.7V28.8c0-3.3-0.2-6.7-0.6-10h8.2l0.6,5.8
					c1.1-2.1,2.8-3.7,4.9-4.9c2.1-1.2,4.6-1.8,7-1.8C588.4,18,592.6,22.8,592.6,32.5L592.6,32.5z M202,136c-2.6-1.4-4.8-3.6-6.2-6.3
					c-1.5-3-2.2-6.3-2.2-9.6c-0.1-3.4,0.7-6.7,2.3-9.7c1.5-2.7,3.7-5,6.4-6.5c2.9-1.6,6.2-2.4,9.6-2.3c2.5,0,4.9,0.4,7.3,1.2
					c2.1,0.6,4,1.8,5.6,3.3l-2.4,6.1c-1.4-1.2-3-2.1-4.7-2.8c-1.6-0.6-3.3-0.9-4.9-0.9c-2.8-0.1-5.5,1-7.4,3c-1.8,2-2.7,4.8-2.6,8.5
					s0.9,6.5,2.6,8.5c1.7,2,4.2,2.9,7.4,2.9c1.7,0,3.4-0.4,4.9-1c1.7-0.7,3.3-1.6,4.7-2.8l2.4,6.1c-1.7,1.5-3.6,2.6-5.8,3.3
					c-2.4,0.8-4.9,1.2-7.4,1.2C208.2,138.3,204.9,137.6,202,136z M263.4,116.1v21.6h-8.7v-21.2c0-2.8-0.5-4.8-1.6-6.1
					c-1.3-1.4-3.1-2.1-4.9-1.9c-2.4-0.1-4.7,0.8-6.4,2.5c-1.7,1.8-2.5,4.3-2.4,6.7v19.9h-8.6V86.4h8.6v21.2c1.2-1.9,2.8-3.4,4.8-4.4
					c2.1-1.1,4.4-1.6,6.7-1.6C259.2,101.6,263.4,106.4,263.4,116.1L263.4,116.1z M306.3,102.5v35.2h-8.6V132
					c-1.1,1.9-2.7,3.5-4.6,4.6c-2.1,1.1-4.5,1.7-6.8,1.6c-2.9,0.1-5.7-0.7-8.1-2.2c-2.4-1.5-4.3-3.7-5.5-6.3c-1.4-3-2-6.3-2-9.6
					c-0.1-3.3,0.6-6.6,2-9.6c1.2-2.7,3.1-4.9,5.5-6.5c2.4-1.6,5.2-2.4,8.1-2.3c2.4,0,4.7,0.5,6.8,1.6c1.9,1,3.5,2.6,4.6,4.6v-5.3
					L306.3,102.5z M284.7,98h-6.8l8.9-10h5.2l8.9,10h-6.8l-4.7-5.7L284.7,98z M295.4,128.4c1.6-2,2.4-4.8,2.4-8.4
					c0-3.7-0.8-6.6-2.4-8.6c-1.6-2-4.2-3.1-6.8-3c-2.6-0.1-5.1,1-6.7,3.1c-1.6,2.1-2.4,4.9-2.4,8.6c0,3.6,0.8,6.4,2.4,8.4
					c1.7,2,4.2,3.1,6.8,2.9C291.2,131.5,293.7,130.4,295.4,128.4L295.4,128.4z M300.3,90.5h-4.5l5.6-9.9h7.6L300.3,90.5z M326.9,109
					v15.7c0,4.1,1.9,6.2,5.8,6.2c1.2,0,2.4-0.2,3.5-0.5v6.9c-1.8,0.6-3.7,0.9-5.6,0.8c-4,0-7.1-1.1-9.2-3.3
					c-2.1-2.2-3.2-5.4-3.2-9.6V109h-6.8v-6.6h6.8v-8.6l8.7-2.9v11.5h9.3v6.6L326.9,109z M361.3,137.6V86.4h8.6v51.3H361.3z
					 M419.7,93.3v2.4c0.1,2.6-0.7,5.1-2.2,7.1c-1.5,1.9-3.6,3.2-6,3.7v31.1H403v-5.4c-1,1.9-2.6,3.4-4.5,4.5c-2,1-4.2,1.6-6.4,1.5
					c-8.6,0-12.9-4.8-12.9-14.5v-21.2h8.6v21.3c0,2.6,0.5,4.4,1.6,5.6c1.3,1.3,3,2,4.9,1.8c2.3,0.1,4.6-0.8,6.1-2.5
					c1.6-1.8,2.4-4.2,2.3-6.7v-19.6h2.5c2.5,0,4.2-0.6,5.3-1.8s1.6-3.2,1.6-6.1v-1.3L419.7,93.3z M455.4,102.2
					c-1.2,1.8-2.9,3.2-5,3.8c1.9,1.6,3.3,3.6,4.2,5.9c1,2.6,1.5,5.3,1.4,8c0.1,3.3-0.7,6.7-2.2,9.6c-1.4,2.7-3.6,4.9-6.2,6.4
					c-2.9,1.5-6.1,2.3-9.3,2.2c-3.3,0.1-6.5-0.7-9.4-2.2c-2.7-1.4-4.9-3.7-6.3-6.4c-2.9-6.1-2.9-13.2,0-19.4
					c1.4-2.7,3.6-4.9,6.2-6.4c2.8-1.6,6.1-2.3,9.3-2.3c0.6,0,1.9,0.1,3.9,0.4c0.6,0.1,1.2,0.2,1.7,0.2c1.6,0.1,3.2-0.5,4.4-1.6
					c1-1.1,1.5-3,1.5-5.9v-1.3h7.5v2.4C457.3,98,456.6,100.3,455.4,102.2L455.4,102.2z M445,128.5c1.6-1.9,2.3-4.8,2.3-8.6
					c0-3.8-0.8-6.6-2.4-8.6c-3.4-3.7-9.2-4-12.9-0.6c-0.2,0.2-0.4,0.4-0.6,0.6c-1.6,2-2.4,4.8-2.4,8.6s0.8,6.7,2.3,8.6
					c1.7,2,4.1,3,6.7,2.9C440.8,131.6,443.3,130.5,445,128.5z M434,143.1h8.4v8.1H434V143.1z M496.3,116.1v21.5h-8.7v-21.2
					c0-2.8-0.5-4.8-1.6-6.1c-1.3-1.4-3.1-2.1-4.9-1.9c-2.4-0.1-4.7,0.8-6.4,2.5c-1.7,1.8-2.6,4.3-2.4,6.7v19.9h-8.6v-25.2
					c0-3.3-0.2-6.7-0.6-10h8.1l0.6,5.8c1.1-2.1,2.8-3.8,4.9-5c2.1-1.2,4.6-1.8,7-1.7C492.1,101.5,496.4,106.4,496.3,116.1
					L496.3,116.1z M539.5,102.5v34.1c0,5.5-1.5,9.6-4.5,12.5s-7.5,4.3-13.3,4.3c-5,0.1-9.9-1.1-14.4-3.4l1.4-6.6
					c3.9,2.1,8.3,3.3,12.8,3.3c6.3,0,9.4-3.1,9.4-9.3v-7c-1.1,1.9-2.7,3.5-4.7,4.6c-2.1,1.2-4.5,1.8-6.9,1.8c-2.9,0-5.7-0.7-8.2-2.2
					c-2.4-1.5-4.3-3.6-5.6-6.2c-2.7-5.8-2.7-12.5,0-18.3c1.2-2.6,3.2-4.7,5.6-6.2c2.5-1.5,5.3-2.3,8.2-2.2c2.4,0,4.8,0.5,6.9,1.6
					c2,1,3.6,2.6,4.6,4.6v-5.3L539.5,102.5z M528.4,127.1c1.7-1.9,2.5-4.5,2.5-7.9s-0.8-6-2.4-7.9c-3.7-3.8-9.7-3.8-13.5-0.1
					c0,0-0.1,0.1-0.1,0.1c-1.7,1.9-2.5,4.5-2.5,7.9c0,3.3,0.8,6,2.5,7.9c3.7,3.8,9.7,3.8,13.4,0.2
					C528.3,127.2,528.4,127.1,528.4,127.1z"/>
			</defs>
			<clipPath id="SVGID_2_">
				<use xlink:href="#SVGID_1_"  style="overflow:visible;"/>
			</clipPath>
			<g class="st0">
				
					<linearGradient id="SVGID_3_" gradientUnits="userSpaceOnUse" x1="89.9256" y1="147.9862" x2="645.4443" y2="-0.8662" gradientTransform="matrix(1 0 0 -1 0 147.3)">
					<stop  offset="7.000000e-02" style="stop-color:#EBDB80"/>
					<stop  offset="0.28" style="stop-color:#B78549"/>
					<stop  offset="0.48" style="stop-color:#D9BF64"/>
					<stop  offset="0.68" style="stop-color:#B78549"/>
					<stop  offset="0.7" style="stop-color:#B9894C"/>
					<stop  offset="0.73" style="stop-color:#C19554"/>
					<stop  offset="0.76" style="stop-color:#CDA961"/>
					<stop  offset="0.78" style="stop-color:#DEC573"/>
					<stop  offset="0.8" style="stop-color:#EAD980"/>
					<stop  offset="0.89" style="stop-color:#A5803C"/>
					<stop  offset="0.99" style="stop-color:#815B22"/>
				</linearGradient>
				<rect x="98.4" y="-32.3" class="st1" width="538.5" height="212.2"/>
			</g>
		</g>
		<path class="st2" d="M78,81c0,16.7-3.4,29.6-10.2,38.7s-16.3,13.6-28.7,13.6c-12.4,0-22-4.6-28.9-13.7C3.4,110.5,0,97.6,0,81V53.9
			c0-16.7,3.4-29.5,10.2-38.7S26.6,1.6,39,1.6c12.4,0,22,4.6,28.8,13.7S78,37.2,78,53.9V81z M73.3,53.9c0-14.9-2.9-26.6-8.8-35
			S50.1,6.2,39,6.3c-11.1,0-19.6,4.2-25.5,12.6S4.8,39,4.8,53.9v26.9c0,14.8,2.9,26.4,8.8,35s14.4,12.8,25.5,12.7
			c11.1,0,19.5-4.2,25.4-12.7c5.8-8.5,8.8-20.2,8.8-35V53.9z"/>
		<path class="st2" d="M99,73.2l6.9-69.8h60.7v4.7h-56.4l-5.4,54.4c3.5-3.5,7.6-6.4,12.1-8.3c4.4-1.9,10.8-2.9,19.3-3.2
			c10.2-0.3,18.6,3.2,25.3,10.5c6.6,7.3,9.9,17,9.9,29.3c0,13.1-3.1,23.4-9.2,31.1c-6.2,7.7-15.7,11.5-28.6,11.5
			c-10.4,0-19-2.9-25.8-8.8c-6.9-5.9-10.1-14.6-9.8-26.2l0.2-0.5h4.1c0,10.1,2.8,17.8,8.4,23c5.6,5.2,13.3,7.9,23,7.8
			c11.4,0,19.7-3.1,25-9.4c5.3-6.3,8-15.7,8-28.3c0-10.8-2.7-19.3-8-25.5S145.8,56,136.3,56c-9.4,0-16.8,1.6-22.1,4.7
			c-5.4,3.1-9.5,8.1-11.6,13.9L99,73.2z"/>
	</g>
</g>
</svg>
