<?xml version="1.0" encoding="utf-8"?>
<!-- Generator: Adobe Illustrator 23.0.0, SVG Export Plug-In . SVG Version: 6.00 Build 0)  -->
<svg version="1.1" id="Layer_1" xmlns="http://www.w3.org/2000/svg" xmlns:xlink="http://www.w3.org/1999/xlink" x="0px" y="0px"
	 viewBox="0 0 356.7 151.7" style="enable-background:new 0 0 356.7 151.7;" xml:space="preserve">
<style type="text/css">
	.st0{clip-path:url(#SVGID_2_);}
	.st1{fill:url(#SVGID_3_);}
	.st2{fill:#BE975F;}
</style>
<title>24Asset 5</title>
<g>
	<g id="Layer_1-2">
		<g>
			<defs>
				<path id="SVGID_1_" d="M237.5,2.9h7.1v49.6h-7.9V21.7l-13.2,30.8h-5.9l-13.2-30.4v30.4h-7.9V2.9h7.1l17.1,38.8L237.5,2.9z
					 M286.9,17.3v35.2h-8.5v-5.4c-1,1.9-2.6,3.4-4.5,4.5c-2,1.1-4.2,1.6-6.4,1.5c-8.6,0-12.9-4.8-12.9-14.5V17.3h8.6v21.3
					c0,2.6,0.5,4.4,1.6,5.6c1.3,1.3,3,2,4.8,1.8c2.3,0.1,4.6-0.8,6.1-2.5c1.6-1.9,2.4-4.2,2.3-6.7V17.3L286.9,17.3z M330,17.3v35.2
					h-8.6v-5.6c-1.1,1.9-2.7,3.5-4.6,4.6c-2.1,1.1-4.4,1.7-6.8,1.7c-2.9,0.1-5.7-0.7-8.1-2.2c-2.4-1.5-4.3-3.7-5.5-6.3
					c-1.4-3-2-6.3-2-9.5c-0.1-3.3,0.6-6.6,2-9.7c1.2-2.7,3.1-4.9,5.5-6.5c2.4-1.6,5.2-2.4,8.1-2.4c2.4,0,4.7,0.6,6.8,1.7
					c1.9,1,3.5,2.6,4.6,4.6v-5.3L330,17.3z M319,43.3c1.6-2,2.4-4.8,2.4-8.4c0-3.7-0.8-6.6-2.4-8.6c-3.3-3.7-9-4-12.7-0.7
					c-0.3,0.2-0.5,0.5-0.8,0.8c-1.6,2.1-2.4,4.9-2.4,8.6s0.8,6.5,2.4,8.4c1.7,2,4.2,3.1,6.8,2.9C314.9,46.4,317.4,45.3,319,43.3z
					 M228.3,114.5v21.6h-8.7v-21.2c0-2.8-0.5-4.8-1.6-6.1c-1.3-1.4-3.1-2.1-5-1.9c-2.4-0.1-4.7,0.8-6.4,2.5
					c-1.7,1.8-2.6,4.3-2.4,6.7v19.9h-8.6V84.8h8.6V106c1.2-1.9,2.9-3.4,4.9-4.4c2.1-1.1,4.4-1.6,6.7-1.6
					C224.1,100,228.3,104.9,228.3,114.5L228.3,114.5z M271.2,100.9v35.2h-8.6v-5.6c-1.1,1.9-2.7,3.5-4.6,4.6
					c-2.1,1.1-4.5,1.7-6.8,1.6c-2.9,0.1-5.7-0.7-8.1-2.2c-2.4-1.5-4.3-3.7-5.5-6.3c-1.4-3-2.1-6.3-2-9.5c-0.1-3.3,0.6-6.6,2-9.6
					c1.2-2.7,3.1-4.9,5.5-6.6c2.4-1.6,5.2-2.4,8.1-2.3c2.4,0,4.7,0.5,6.8,1.6c1.9,1,3.5,2.6,4.6,4.6v-5.3L271.2,100.9z M251.5,96.4
					l-10.2-14.3h8.9l7,14.4L251.5,96.4z M260.3,126.9c1.6-2,2.4-4.8,2.4-8.4c0-3.7-0.8-6.6-2.4-8.6c-1.6-2-4.2-3.1-6.8-3
					c-2.6-0.1-5.1,1-6.7,3.1c-1.6,2.1-2.4,4.9-2.4,8.6c0,3.6,0.8,6.4,2.4,8.4c1.7,2,4.2,3.1,6.8,2.9
					C256.2,130,258.7,128.9,260.3,126.9L260.3,126.9z M313.4,114.5v21.6h-8.7v-21.2c0-2.8-0.5-4.8-1.6-6.1c-1.3-1.4-3.1-2.1-5-1.9
					c-2.4-0.1-4.7,0.8-6.4,2.5c-1.7,1.8-2.6,4.3-2.4,6.7v19.9h-8.6v-25.2c0-3.3-0.2-6.7-0.6-10h8.2l0.6,5.8c1.1-2.1,2.8-3.8,4.9-5
					c2.1-1.2,4.6-1.8,7-1.7C309.2,100,313.5,104.9,313.4,114.5L313.4,114.5z M356.7,100.9V135c0,5.5-1.5,9.6-4.5,12.5
					c-3,2.8-7.4,4.3-13.3,4.3c-5,0.1-9.9-1.1-14.4-3.4l1.4-6.6c3.9,2.1,8.3,3.3,12.8,3.3c6.3,0,9.4-3.1,9.4-9.3v-7
					c-1.1,1.9-2.7,3.5-4.7,4.6c-2.1,1.2-4.5,1.8-6.9,1.8c-2.9,0.1-5.7-0.7-8.2-2.2c-2.4-1.5-4.3-3.6-5.6-6.2
					c-2.7-5.8-2.7-12.5,0-18.3c1.2-2.6,3.2-4.7,5.6-6.2c2.5-1.5,5.3-2.3,8.2-2.2c2.4,0,4.8,0.5,6.9,1.6c2,1,3.6,2.6,4.6,4.6v-5.3
					L356.7,100.9z M345.6,125.5c1.6-1.9,2.5-4.5,2.5-7.9s-0.8-6-2.4-7.9c-3.7-3.8-9.7-3.8-13.5-0.1c0,0-0.1,0.1-0.1,0.1
					c-1.7,1.9-2.5,4.5-2.5,7.9c0,3.3,0.8,6,2.5,7.9c3.7,3.8,9.7,3.8,13.4,0.2C345.5,125.6,345.5,125.5,345.6,125.5z"/>
			</defs>
			<clipPath id="SVGID_2_">
				<use xlink:href="#SVGID_1_"  style="overflow:visible;"/>
			</clipPath>
			<g class="st0">
				
					<linearGradient id="SVGID_3_" gradientUnits="userSpaceOnUse" x1="89.9256" y1="146.4362" x2="645.4443" y2="-2.4162" gradientTransform="matrix(1 0 0 -1 0 144.2)">
					<stop  offset="7.000000e-02" style="stop-color:#EBDB80"/>
					<stop  offset="0.28" style="stop-color:#B78549"/>
					<stop  offset="0.48" style="stop-color:#D9BF64"/>
					<stop  offset="0.68" style="stop-color:#B78549"/>
					<stop  offset="0.7" style="stop-color:#B9894C"/>
					<stop  offset="0.73" style="stop-color:#C19554"/>
					<stop  offset="0.76" style="stop-color:#CDA961"/>
					<stop  offset="0.78" style="stop-color:#DEC573"/>
					<stop  offset="0.8" style="stop-color:#EAD980"/>
					<stop  offset="0.89" style="stop-color:#A5803C"/>
					<stop  offset="0.99" style="stop-color:#815B22"/>
				</linearGradient>
				<rect x="98.4" y="-33.9" class="st1" width="538.5" height="212.2"/>
			</g>
		</g>
		<path class="st2" d="M78,79.4c0,16.7-3.4,29.6-10.2,38.7s-16.3,13.6-28.7,13.6c-12.4,0-22-4.6-28.9-13.7C3.4,109,0,96.1,0,79.4
			V52.3c0-16.7,3.4-29.5,10.2-38.7S26.6,0,39,0c12.4,0,22,4.6,28.8,13.7S78,35.7,78,52.3V79.4z M73.3,52.3c0-14.9-2.9-26.6-8.8-35
			S50.1,4.7,39,4.8C27.9,4.8,19.4,9,13.5,17.4s-8.8,20.1-8.8,35v26.9c0,14.8,2.9,26.4,8.8,35S28,127.1,39.1,127
			c11.1,0,19.5-4.3,25.4-12.8c5.8-8.5,8.8-20.2,8.8-35V52.3z"/>
		<path class="st2" d="M169.9,6.6c-12.9,15.2-23.8,32.1-32.2,50.2c-8.8,18.8-14.5,40.5-17.2,65.1l-0.5,8h-4.8l0.5-8
			c2.5-23.1,7.9-44.2,16.1-63.2c8.1-18.9,19-36.4,32.2-52.1H88.1V1.8h81.8V6.6z"/>
	</g>
</g>
</svg>
