<?xml version="1.0" encoding="utf-8"?>
<!-- Generator: Adobe Illustrator 23.0.0, SVG Export Plug-In . SVG Version: 6.00 Build 0)  -->
<svg version="1.1" id="Layer_1" xmlns="http://www.w3.org/2000/svg" xmlns:xlink="http://www.w3.org/1999/xlink" x="0px" y="0px"
	 viewBox="0 0 382 141.4" style="enable-background:new 0 0 382 141.4;" xml:space="preserve">
<style type="text/css">
	.st0{clip-path:url(#SVGID_2_);}
	.st1{fill:url(#SVGID_3_);}
	.st2{fill:#BE975F;}
</style>
<title>Asset 1</title>
<g>
	<g id="Layer_1-2">
		<g>
			<g>
				<defs>
					<path id="SVGID_1_" d="M202.3,53.4c-3.1-0.9-6-2.4-8.5-4.4l3.1-6.6c2.3,1.7,4.8,3.1,7.6,4s5.7,1.3,8.6,1.3c3.4,0,6.1-0.6,8-1.8
						c1.8-1.1,2.8-3,2.8-5c0-1.8-1-3.5-2.6-4.3c-2.7-1.3-5.6-2.3-8.6-2.8c-6.2-1.3-10.7-3.1-13.6-5.2c-2.8-2.1-4.3-5.3-4.3-9.3
						c0-2.8,0.8-5.5,2.4-7.8c1.7-2.4,4-4.2,6.7-5.4c3.2-1.4,6.6-2.1,10.1-2c3.4,0,6.7,0.5,9.9,1.6c2.8,0.9,5.5,2.4,7.7,4.3l-3,6.5
						c-4.1-3.4-9.3-5.3-14.6-5.3c-2.7-0.1-5.3,0.6-7.6,2c-1.8,1.2-2.8,3.2-2.8,5.4c-0.1,1.8,0.9,3.5,2.5,4.5
						c2.7,1.4,5.5,2.3,8.5,2.9c3.5,0.8,6.8,1.8,10.1,3.2c2.3,0.9,4.4,2.4,6,4.4c1.4,1.9,2.2,4.3,2.1,6.7c0.1,2.8-0.8,5.5-2.4,7.8
						c-1.7,2.3-4.1,4.1-6.8,5.1c-3.4,1.3-6.9,1.9-10.5,1.8C209.4,54.9,205.8,54.4,202.3,53.4z M274.1,19.1v35.2h-8.6v-5.6
						c-1.1,1.9-2.7,3.5-4.6,4.6c-2.1,1.1-4.4,1.7-6.8,1.7c-2.9,0-5.7-0.7-8.1-2.3c-2.4-1.5-4.3-3.7-5.5-6.3c-1.4-3-2-6.3-1.9-9.5
						c-0.1-3.3,0.6-6.6,2-9.7c1.2-2.6,3.1-4.9,5.5-6.5s5.2-2.4,8.1-2.3c2.4,0,4.7,0.5,6.8,1.7c1.9,1,3.5,2.6,4.6,4.6v-5.3
						L274.1,19.1z M263.2,45.1c1.6-2,2.4-4.8,2.4-8.4c0-3.7-0.8-6.6-2.4-8.6c-3.3-3.7-9-4-12.7-0.7c-0.3,0.2-0.5,0.5-0.8,0.8
						c-1.6,2.1-2.4,4.9-2.4,8.6s0.8,6.5,2.4,8.4c1.7,2,4.2,3.1,6.8,2.9C259.1,48.2,261.5,47.1,263.2,45.1z M259.7,14.6H255v-1.9
						c0-0.8,0.2-1.7,0.7-2.4c0.6-0.8,1.2-1.5,2-2.1c0.5-0.4,0.9-0.8,1.3-1.2c0.3-0.3,0.4-0.7,0.4-1.1c0-1.1-0.9-1.7-2.6-1.7
						c-1.3,0-2.6,0.2-3.8,0.7l-1.3-3.6c1.8-0.9,3.8-1.3,5.8-1.3c2-0.1,4,0.4,5.7,1.5c1.3,0.8,2,2.1,2,3.6c0,0.9-0.2,1.8-0.8,2.6
						c-0.7,0.8-1.5,1.6-2.4,2.3c-0.6,0.5-1.3,1-1.8,1.6c-0.4,0.4-0.6,1-0.6,1.6v1.4H259.7z M316.3,32.7v21.6h-8.7V33.1
						c0-2.8-0.5-4.8-1.6-6.1c-1.3-1.4-3.1-2.1-4.9-1.9c-2.4-0.1-4.7,0.8-6.4,2.5c-1.7,1.8-2.6,4.2-2.4,6.7v19.9h-8.6V29.1
						c0-3.3-0.2-6.7-0.6-10h8.1l0.6,5.8c1.1-2.1,2.8-3.8,4.9-4.9c2.1-1.2,4.6-1.8,7-1.8C312.1,18.2,316.3,23.1,316.3,32.7z
						 M223.7,92.6c2.4,1.6,4.3,3.9,5.5,6.6c1.4,3,2.1,6.3,2,9.6c0.1,3.3-0.6,6.5-2,9.5c-2.4,5.3-7.7,8.7-13.6,8.6
						c-2.4,0-4.7-0.5-6.8-1.6c-1.9-1-3.5-2.6-4.6-4.6v20.7h-8.6v-40.3c0-3.3-0.2-6.7-0.6-10h8.2l0.7,6.1c0.9-2.2,2.5-4,4.5-5.1
						C213.2,89.4,219.1,89.6,223.7,92.6L223.7,92.6z M220,117.1c1.6-1.9,2.4-4.7,2.4-8.4c0-3.6-0.8-6.5-2.4-8.6
						c-1.6-2.1-4.1-3.2-6.7-3.1c-2.6-0.2-5.2,1-6.8,3s-2.4,4.9-2.4,8.6s0.8,6.5,2.4,8.5c3.5,3.7,9.3,3.9,13.1,0.5
						C219.7,117.4,219.9,117.2,220,117.1L220,117.1z M271.5,104.7v21.6h-8.7v-21.2c0-2.8-0.5-4.8-1.6-6.1c-1.3-1.4-3.1-2.1-4.9-1.9
						c-2.4-0.1-4.7,0.8-6.4,2.6s-2.6,4.2-2.4,6.7v19.9h-8.6V75h8.6v21.2c1.2-1.9,2.8-3.4,4.8-4.4c2.1-1.1,4.4-1.6,6.7-1.6
						C267.3,90.2,271.5,95.1,271.5,104.7L271.5,104.7z M314.4,91.1v35.2h-8.6v-5.6c-1.1,1.9-2.6,3.5-4.6,4.6
						c-2.1,1.1-4.5,1.7-6.8,1.6c-2.9,0.1-5.7-0.7-8.1-2.2s-4.3-3.7-5.5-6.3c-1.4-3-2.1-6.3-2-9.5c-0.1-3.3,0.6-6.6,2-9.6
						c1.2-2.7,3.1-4.9,5.5-6.6c2.4-1.6,5.2-2.4,8.1-2.3c2.4,0,4.7,0.5,6.8,1.6c1.9,1,3.5,2.6,4.6,4.6v-5.3L314.4,91.1z M292.8,86.6
						H286l8.9-10h5.2l8.9,10h-6.8l-4.7-5.7L292.8,86.6z M303.5,117.1c1.6-2,2.4-4.8,2.4-8.4c0-3.7-0.8-6.6-2.4-8.6
						c-3.3-3.7-9-4-12.7-0.7c-0.3,0.2-0.5,0.5-0.8,0.8c-1.6,2.1-2.4,4.9-2.4,8.6c0,3.7,0.8,6.5,2.4,8.4c1.7,2,4.2,3.1,6.8,2.9
						C299.4,120.2,301.9,119.1,303.5,117.1L303.5,117.1z M308.5,79.2h-4.7v-1.3c0-0.7,0.3-1.4,0.8-1.9c0.7-0.5,1.5-0.9,2.4-1.3
						c1-0.3,1.5-0.7,1.5-1s-0.2-0.6-0.6-0.8c-0.6-0.2-1.2-0.3-1.9-0.3c-1.4,0.1-2.8,0.3-4.2,0.8l-1.3-3.3c2-0.8,4.2-1.3,6.3-1.3
						c1.9-0.1,3.7,0.3,5.3,1.2c1.2,0.6,2,1.8,2,3.2c0.1,0.8-0.2,1.5-0.8,2c-0.7,0.5-1.5,1-2.4,1.3c-0.6,0.2-1.2,0.5-1.8,0.9
						c-0.4,0.3-0.6,0.7-0.6,1.2L308.5,79.2z M374.3,93.8c1.9,2.4,2.9,6,2.9,10.9v21.6h-8.7V105c0-2.8-0.5-4.8-1.4-6
						s-2.4-1.9-4.5-1.9c-2.2-0.1-4.3,0.8-5.7,2.6c-1.5,2-2.2,4.5-2.1,7v19.6h-8.7V105c0-2.8-0.5-4.7-1.4-6c-1.1-1.3-2.8-2-4.5-1.9
						c-2.2-0.1-4.3,0.8-5.7,2.6c-1.5,2-2.2,4.5-2.1,7v19.6h-8.6v-25.2c0-3.3-0.2-6.7-0.6-10h8.1l0.6,5.6c1-2,2.5-3.7,4.4-4.8
						c2-1.1,4.3-1.7,6.7-1.7c5.4,0,8.9,2.2,10.5,6.7c1.1-2.1,2.7-3.8,4.8-4.9c2.1-1.2,4.5-1.8,6.9-1.8
						C369.4,90.2,372.4,91.4,374.3,93.8L374.3,93.8z"/>
				</defs>
				<clipPath id="SVGID_2_">
					<use xlink:href="#SVGID_1_"  style="overflow:visible;"/>
				</clipPath>
				<g class="st0">
					
						<linearGradient id="SVGID_3_" gradientUnits="userSpaceOnUse" x1="86.217" y1="-158.6206" x2="538.783" y2="-37.3544" gradientTransform="matrix(1 0 0 1 0 172)">
						<stop  offset="7.000000e-02" style="stop-color:#EBDB80"/>
						<stop  offset="0.28" style="stop-color:#B78549"/>
						<stop  offset="0.48" style="stop-color:#D9BF64"/>
						<stop  offset="0.68" style="stop-color:#805623"/>
						<stop  offset="0.7" style="stop-color:#835A26"/>
						<stop  offset="0.72" style="stop-color:#8D662E"/>
						<stop  offset="0.74" style="stop-color:#9D7A3D"/>
						<stop  offset="0.76" style="stop-color:#B49751"/>
						<stop  offset="0.78" style="stop-color:#D2BB6B"/>
						<stop  offset="0.8" style="stop-color:#EAD980"/>
						<stop  offset="0.89" style="stop-color:#A5803C"/>
						<stop  offset="0.99" style="stop-color:#815B22"/>
					</linearGradient>
					<rect x="98.4" y="-32.1" class="st1" width="428.2" height="212.2"/>
				</g>
			</g>
		</g>
		<path class="st2" d="M78,81.2c0,16.7-3.4,29.6-10.2,38.7s-16.3,13.6-28.7,13.6s-22-4.6-28.9-13.7C3.4,110.8,0,97.9,0,81.2V54.1
			c0-16.7,3.4-29.5,10.2-38.7S26.6,1.8,39,1.8s22,4.6,28.8,13.7S78,37.5,78,54.1V81.2z M73.3,54.1c0-14.9-2.9-26.6-8.8-35
			S50.1,6.5,39,6.6c-11.1,0-19.6,4.2-25.5,12.6s-8.8,20.1-8.8,35v26.9c0,14.8,2.9,26.4,8.8,35s14.5,12.8,25.6,12.7
			c11.1,0,19.5-4.3,25.4-12.8c5.8-8.5,8.8-20.2,8.8-35V54.1z"/>
		<path class="st2" d="M139.3,132.9h-4.8V7.5l-35,6.9v-4l39.8-7.5V132.9z"/>
	</g>
</g>
</svg>
