<?xml version="1.0" encoding="utf-8"?>
<!-- Generator: Adobe Illustrator 23.0.0, SVG Export Plug-In . SVG Version: 6.00 Build 0)  -->
<svg version="1.1" id="Layer_1" xmlns="http://www.w3.org/2000/svg" xmlns:xlink="http://www.w3.org/1999/xlink" x="0px" y="0px"
	 viewBox="0 0 227 44" style="enable-background:new 0 0 227 44;" xml:space="preserve">
<style type="text/css">
	.st0{clip-path:url(#SVGID_2_);}
	.st1{fill:url(#SVGID_3_);}
</style>
<title>1Asset 2</title>
<g>
	<g id="Layer_1-2">
		<g>
			<defs>
				<path id="SVGID_1_" d="M1.9,28.4c0-2.8,1.7-4.8,4.4-5.9v-0.1c-2.1-0.8-3.5-2.8-3.5-5c0-3.5,3-5.9,6.8-5.9c4.3,0,6.4,2.7,6.4,5.5
					c0,1.9-0.9,3.9-3.6,5.2v0.1c2.8,1.1,4.4,3,4.4,5.7c0,3.8-3.3,6.4-7.5,6.4C4.7,34.4,1.9,31.6,1.9,28.4z M13.8,28.3
					c0-2.7-1.9-4-4.9-4.8c-2.6,0.8-4,2.5-4,4.6s1.6,4.2,4.4,4.2S13.8,30.5,13.8,28.3z M5.6,17.3c0,2.2,1.7,3.4,4.2,4.1
					c1.9-0.6,3.4-2,3.4-4c0.1-1.9-1.3-3.5-3.2-3.7c-0.2,0-0.4,0-0.6,0c-1.9-0.2-3.6,1.2-3.8,3.2C5.6,16.9,5.6,17.1,5.6,17.3
					L5.6,17.3z M20.1,34v-1.8l2.4-2.3c5.6-5.4,8.2-8.2,8.2-11.6c0-2.2-1.1-4.3-4.4-4.3c-1.7,0.1-3.4,0.7-4.7,1.9l-1-2.1
					c1.8-1.5,4-2.3,6.3-2.2c4.8,0,6.8,3.3,6.8,6.4c0,4.1-3,7.4-7.6,11.9l-1.8,1.6v0.1h9.9V34H20.1z M51.7,34l-2.9-5.1
					c-1.2-1.9-1.9-3.2-2.7-4.5h-0.1c-0.6,1.3-1.3,2.6-2.5,4.6l-2.8,5h-3.4l7-11.6l-6.7-11.3h3.4l3,5.4c0.8,1.5,1.5,2.6,2.1,3.9h0.1
					c0.7-1.4,1.2-2.4,2.1-3.9l3.1-5.4H55l-7,11.1L55.2,34H51.7z M82.9,33.3c-1.9,0.8-4,1.2-6.1,1.1c-6.4,0-11.3-4.1-11.3-11.6
					c0-7.2,4.9-12,12-12c1.9-0.1,3.7,0.3,5.4,1l-0.7,2.4c-1.4-0.7-3-1-4.6-1c-5.4,0-8.9,3.4-8.9,9.4c0,5.6,3.2,9.2,8.8,9.2
					c1.7,0,3.3-0.3,4.8-1L82.9,33.3z M106,22.3c0,7.9-4.8,12.1-10.7,12.1c-6,0-10.3-4.7-10.3-11.6c0-7.3,4.5-12,10.6-12
					S106,15.5,106,22.3z M88.2,22.7c0,4.9,2.7,9.3,7.3,9.3s7.3-4.3,7.3-9.5c0-4.5-2.4-9.3-7.3-9.3S88.2,17.6,88.2,22.7L88.2,22.7z
					 M110.4,11.1h3v20.4h9.8V34h-12.8L110.4,11.1z M127,11.1h3v20.4h9.8V34H127L127,11.1z M147.3,26.8l-2.4,7.2h-3.1l7.8-22.9h3.6
					L161,34h-3.2l-2.4-7.2L147.3,26.8z M154.8,24.5l-2.3-6.6c-0.5-1.5-0.9-2.9-1.2-4.2h-0.1c-0.3,1.4-0.7,2.8-1.1,4.1l-2.3,6.6
					H154.8z M181.9,33c-2.2,0.8-4.6,1.2-7,1.3c-3.5,0-6.3-0.9-8.6-3c-2.2-2.3-3.3-5.4-3.2-8.5c0-6.8,4.7-11.8,12.4-11.8
					c2,0,3.9,0.3,5.7,1.1l-0.7,2.4c-1.6-0.7-3.3-1-5.1-1c-5.6,0-9.2,3.5-9.2,9.2s3.5,9.2,8.8,9.2c1.4,0.1,2.7-0.1,4-0.6v-6.9h-4.7
					V22h7.6L181.9,33z M198.8,23.3h-8.9v8.3h9.9V34H187V11.1h12.4v2.5h-9.5v7.2h8.9V23.3z M204.2,34V11.1h3.2l7.3,11.6
					c1.5,2.4,2.9,4.9,4.1,7.4h0.1c-0.3-3.1-0.3-5.8-0.3-9.4v-9.6h2.8V34h-3l-7.3-11.6c-1.6-2.5-3-5-4.3-7.6h-0.1
					c0.2,2.9,0.2,5.6,0.2,9.4V34H204.2z"/>
			</defs>
			<clipPath id="SVGID_2_">
				<use xlink:href="#SVGID_1_"  style="overflow:visible;"/>
			</clipPath>
			<g class="st0">
				
					<linearGradient id="SVGID_3_" gradientUnits="userSpaceOnUse" x1="3.6335" y1="59.5591" x2="269.0266" y2="-11.5591" gradientTransform="matrix(1 0 0 -1 0 46)">
					<stop  offset="7.000000e-02" style="stop-color:#EBDB80"/>
					<stop  offset="0.28" style="stop-color:#AF8033"/>
					<stop  offset="0.48" style="stop-color:#D9BF64"/>
					<stop  offset="0.68" style="stop-color:#AF7E33"/>
					<stop  offset="0.7" style="stop-color:#B28236"/>
					<stop  offset="0.73" style="stop-color:#B98E41"/>
					<stop  offset="0.75" style="stop-color:#C7A252"/>
					<stop  offset="0.78" style="stop-color:#D9BE6A"/>
					<stop  offset="0.8" style="stop-color:#EAD980"/>
					<stop  offset="0.89" style="stop-color:#A5803C"/>
					<stop  offset="0.99" style="stop-color:#815B22"/>
				</linearGradient>
				<rect class="st1" width="272.7" height="44"/>
			</g>
		</g>
	</g>
</g>
</svg>
