<svg xmlns="http://www.w3.org/2000/svg" viewBox="0 0 1111.19 567.25"><defs><style>.cls-1{fill:#001080;}.cls-2{fill:#3f61a7;}</style></defs><title>12Asset 7</title><g id="Layer_2" data-name="Layer 2"><g id="Layer_1-2" data-name="Layer 1"><path class="cls-1" d="M12.88,516.36h6a8.92,8.92,0,0,1,6.5,2.25,10,10,0,0,1,0,12.73,8.88,8.88,0,0,1-6.5,2.26h-6Zm5.89,15.16q6.38,0,6.37-6.56t-6.37-6.52H15.38v13.08Z"/><path class="cls-1" d="M42.07,521.4v12.2H39.65v-2.08a3.78,3.78,0,0,1-1.59,1.67,5,5,0,0,1-2.46.58,5.23,5.23,0,0,1-2.84-.77,5.15,5.15,0,0,1-1.9-2.19,7.5,7.5,0,0,1-.68-3.31,7.7,7.7,0,0,1,.69-3.34,5.31,5.31,0,0,1,1.92-2.25,5,5,0,0,1,2.81-.8,4.83,4.83,0,0,1,2.45.59,4,4,0,0,1,1.6,1.68v-2Zm-3.33,9.28a6.21,6.21,0,0,0,0-6.47,3.46,3.46,0,0,0-5.16,0,5.14,5.14,0,0,0-.93,3.26,4.94,4.94,0,0,0,.93,3.2,3.17,3.17,0,0,0,2.6,1.13A3.07,3.07,0,0,0,38.74,530.68Z"/><path class="cls-1" d="M54.22,533a5.22,5.22,0,0,1-2.1-2.19,7.24,7.24,0,0,1-.73-3.31,7.06,7.06,0,0,1,.77-3.34,5.47,5.47,0,0,1,2.14-2.25,6.23,6.23,0,0,1,3.22-.8,7.32,7.32,0,0,1,2.47.42,5.17,5.17,0,0,1,1.92,1.15l-.75,1.77a5.58,5.58,0,0,0-3.47-1.36,3.47,3.47,0,0,0-2.76,1.15,4.83,4.83,0,0,0-1,3.24,4.7,4.7,0,0,0,1,3.2,3.45,3.45,0,0,0,2.76,1.13,5.48,5.48,0,0,0,3.47-1.35l.75,1.76a5.32,5.32,0,0,1-2,1.14,7.49,7.49,0,0,1-2.5.41A6.46,6.46,0,0,1,54.22,533Z"/><path class="cls-1" d="M75.37,521.4v12.2H73v-2.08a3.72,3.72,0,0,1-1.59,1.67,5,5,0,0,1-2.45.58,5.24,5.24,0,0,1-2.85-.77,5.15,5.15,0,0,1-1.9-2.19,8.41,8.41,0,0,1,0-6.65,5.27,5.27,0,0,1,1.93-2.25,5,5,0,0,1,2.81-.8,4.79,4.79,0,0,1,2.44.59,3.93,3.93,0,0,1,1.6,1.68v-2Zm-8.12-3.06a4.5,4.5,0,0,1-1.64-2.42l1.38-.58A4.11,4.11,0,0,0,68.23,517a2.67,2.67,0,0,0,1.57.5,2.63,2.63,0,0,0,1.55-.5,4.11,4.11,0,0,0,1.24-1.61l1.38.58a4.41,4.41,0,0,1-1.61,2.42,4.48,4.48,0,0,1-5.11,0ZM72,530.68a6.21,6.21,0,0,0,0-6.47,3.46,3.46,0,0,0-5.16,0A5.14,5.14,0,0,0,66,527.5a4.94,4.94,0,0,0,.93,3.2,3.17,3.17,0,0,0,2.61,1.13A3.05,3.05,0,0,0,72,530.68Z"/><path class="cls-1" d="M89.83,526v7.6H87.39v-7.46a3.56,3.56,0,0,0-.62-2.32,2.44,2.44,0,0,0-2-.73,3.31,3.31,0,0,0-2.48,1,3.59,3.59,0,0,0-.93,2.59v7H79v-8.76a27.15,27.15,0,0,0-.2-3.44H81l.22,2.1a4.13,4.13,0,0,1,1.68-1.78,5.07,5.07,0,0,1,2.51-.61Q89.83,521.11,89.83,526Z"/><path class="cls-1" d="M104.58,521.4v12a5.63,5.63,0,0,1-1.46,4.2A6.06,6.06,0,0,1,98.77,539a9.49,9.49,0,0,1-4.87-1.21l.41-1.91a11.53,11.53,0,0,0,2.19.9,8.59,8.59,0,0,0,2.24.29c2.28,0,3.42-1.17,3.42-3.49v-2.64a4.09,4.09,0,0,1-1.62,1.68,4.87,4.87,0,0,1-2.47.62,5.41,5.41,0,0,1-2.85-.75,5.08,5.08,0,0,1-1.94-2.13,7.65,7.65,0,0,1,0-6.35,5.16,5.16,0,0,1,1.94-2.14,5.33,5.33,0,0,1,2.85-.76,5,5,0,0,1,2.47.59,3.92,3.92,0,0,1,1.62,1.68v-2Zm-3.37,8.79a4.44,4.44,0,0,0,1-3,4.53,4.53,0,0,0-.93-3,3.24,3.24,0,0,0-2.61-1.1,3.29,3.29,0,0,0-2.6,1.1,5.18,5.18,0,0,0,0,6,3.29,3.29,0,0,0,2.6,1.1A3.22,3.22,0,0,0,101.21,530.19Z"/><path class="cls-1" d="M125.51,526v7.6h-2.45v-7.46a3.5,3.5,0,0,0-.62-2.32,2.43,2.43,0,0,0-2-.73,3.31,3.31,0,0,0-2.48,1,3.6,3.6,0,0,0-.94,2.59v7h-2.42V515.78h2.42v7.51a4.12,4.12,0,0,1,1.68-1.63,5.1,5.1,0,0,1,2.39-.55Q125.51,521.11,125.51,526Z"/><path class="cls-1" d="M139.81,521.14a3.26,3.26,0,0,1-1.71,1.3,5.21,5.21,0,0,1,1.58,2.09,7.6,7.6,0,0,1,.53,2.92,7.18,7.18,0,0,1-.74,3.34,5.25,5.25,0,0,1-2.09,2.21,6.79,6.79,0,0,1-6.28,0,5.25,5.25,0,0,1-2.09-2.21,7.06,7.06,0,0,1-.74-3.34,7.16,7.16,0,0,1,.74-3.35,5.28,5.28,0,0,1,2.09-2.22,6.18,6.18,0,0,1,3.13-.77,11.21,11.21,0,0,1,1.23.09,3.19,3.19,0,0,0,.61.08,2.15,2.15,0,0,0,1.66-.61,3.13,3.13,0,0,0,.54-2.08v-.39h2.13v.73A3.9,3.9,0,0,1,139.81,521.14Zm-3,9.58a6.37,6.37,0,0,0,0-6.51,3.09,3.09,0,0,0-2.56-1.14,3.14,3.14,0,0,0-2.59,1.14,6.25,6.25,0,0,0,0,6.51,3.57,3.57,0,0,0,5.17,0Z"/><path class="cls-1" d="M153.94,526v7.6H151.5v-7.46a3.56,3.56,0,0,0-.62-2.32,2.44,2.44,0,0,0-2-.73,3.31,3.31,0,0,0-2.48,1,3.59,3.59,0,0,0-.93,2.59v7h-2.42v-8.76a27.15,27.15,0,0,0-.2-3.44h2.28l.22,2.1a4.13,4.13,0,0,1,1.68-1.78,5.07,5.07,0,0,1,2.51-.61Q153.94,521.11,153.94,526Z"/><path class="cls-1" d="M211.33,516.36h2V533.6h-2.25V521.76L206,533.6h-1.72l-5.19-11.77,0,11.77h-2.25V516.36h2l6.27,14.24Z"/><path class="cls-1" d="M228,521.14a3.23,3.23,0,0,1-1.71,1.3,5.21,5.21,0,0,1,1.58,2.09,7.6,7.6,0,0,1,.53,2.92,7.18,7.18,0,0,1-.74,3.34,5.25,5.25,0,0,1-2.09,2.21,6.79,6.79,0,0,1-6.28,0,5.25,5.25,0,0,1-2.09-2.21,7.18,7.18,0,0,1-.74-3.34,7.28,7.28,0,0,1,.74-3.35,5.28,5.28,0,0,1,2.09-2.22,6.18,6.18,0,0,1,3.13-.77,11.21,11.21,0,0,1,1.23.09,3.29,3.29,0,0,0,.61.08,2.15,2.15,0,0,0,1.66-.61,3.13,3.13,0,0,0,.54-2.08v-.39h2.13v.73A3.9,3.9,0,0,1,228,521.14Zm-6.38-1.32-3.44-5h2.64l2.42,5Zm3.39,10.9a6.31,6.31,0,0,0,0-6.51,3.09,3.09,0,0,0-2.56-1.14,3.14,3.14,0,0,0-2.59,1.14,6.25,6.25,0,0,0,0,6.51,3.57,3.57,0,0,0,5.17,0Z"/><path class="cls-1" d="M248.58,526v7.6h-2.45v-7.46a3.56,3.56,0,0,0-.61-2.32,2.45,2.45,0,0,0-2-.73,3.31,3.31,0,0,0-2.48,1,3.59,3.59,0,0,0-.93,2.59v7H237.7v-8.76a27.28,27.28,0,0,0-.19-3.44h2.28l.22,2.1a4,4,0,0,1,1.68-1.78,5,5,0,0,1,2.51-.61Q248.58,521.11,248.58,526Z"/><path class="cls-1" d="M263.23,521.4v12.2h-2.42v-2.08a3.67,3.67,0,0,1-1.59,1.67,5,5,0,0,1-2.45.58,5.26,5.26,0,0,1-2.85-.77,5.15,5.15,0,0,1-1.9-2.19,8.41,8.41,0,0,1,0-6.65,5.27,5.27,0,0,1,1.93-2.25,5,5,0,0,1,2.81-.8,4.79,4.79,0,0,1,2.44.59,3.93,3.93,0,0,1,1.6,1.68v-2Zm-3.33,9.28a6.21,6.21,0,0,0,0-6.47,3.46,3.46,0,0,0-5.16,0,5.14,5.14,0,0,0-.93,3.26,4.94,4.94,0,0,0,.93,3.2,3.17,3.17,0,0,0,2.61,1.13A3,3,0,0,0,259.9,530.68Zm-1.44-10.86h-1.62l2.42-5h2.64Z"/><path class="cls-1" d="M284.81,526v7.6h-2.44v-7.48a3.87,3.87,0,0,0-.55-2.3,2,2,0,0,0-1.75-.73,2.76,2.76,0,0,0-2.22,1,4,4,0,0,0-.81,2.64v6.9h-2.45v-7.48a3.88,3.88,0,0,0-.54-2.3,2.05,2.05,0,0,0-1.76-.73,2.79,2.79,0,0,0-2.23,1,4,4,0,0,0-.82,2.64v6.9h-2.42v-8.76a27.15,27.15,0,0,0-.2-3.44h2.28l.22,2a4,4,0,0,1,1.52-1.72,4.44,4.44,0,0,1,2.33-.6,3.53,3.53,0,0,1,3.7,2.35,4.18,4.18,0,0,1,1.64-1.72,4.73,4.73,0,0,1,2.43-.63C283.46,521.11,284.81,522.74,284.81,526Z"/><path class="cls-1" d="M345.78,533.6V518.44H340v-2.08h14.19v2.08H348.3V533.6Z"/><path class="cls-1" d="M361.58,521.28l-.05,2.22a4.17,4.17,0,0,0-1.43-.24,3.08,3.08,0,0,0-2.51,1,3.8,3.8,0,0,0-.83,2.53v6.8h-2.43v-8.76a27.28,27.28,0,0,0-.19-3.44h2.28l.21,2.2a3.81,3.81,0,0,1,1.51-1.85,4.27,4.27,0,0,1,3.44-.47Z"/><path class="cls-1" d="M374.36,521.4v12.2h-2.42v-2.08a3.7,3.7,0,0,1-1.58,1.67,5,5,0,0,1-2.46.58,5.29,5.29,0,0,1-2.85-.77,5.22,5.22,0,0,1-1.9-2.19,8.41,8.41,0,0,1,0-6.65,5.27,5.27,0,0,1,1.93-2.25,5,5,0,0,1,2.81-.8,4.79,4.79,0,0,1,2.44.59,3.93,3.93,0,0,1,1.6,1.68v-2Zm-8.07-2.1a3.76,3.76,0,0,1-1.59-2l1.19-.51a3.36,3.36,0,0,0,5.79,0l1.18.51a3.89,3.89,0,0,1-1.58,2,4.69,4.69,0,0,1-2.49.64A4.75,4.75,0,0,1,366.29,519.3ZM371,530.68a6.21,6.21,0,0,0,0-6.47,3.09,3.09,0,0,0-2.58-1.14,3.14,3.14,0,0,0-2.58,1.17,5.14,5.14,0,0,0-.93,3.26,4.94,4.94,0,0,0,.93,3.2,3.19,3.19,0,0,0,2.61,1.13A3,3,0,0,0,371,530.68Zm-1.49-13.4H368l2.42-3.46h2.4Z"/><path class="cls-1" d="M388.82,526v7.6h-2.44v-7.46a3.56,3.56,0,0,0-.62-2.32,2.43,2.43,0,0,0-2-.73,3.31,3.31,0,0,0-2.49,1,3.59,3.59,0,0,0-.93,2.59v7H378v-8.76a27.15,27.15,0,0,0-.2-3.44H380l.22,2.1a4.13,4.13,0,0,1,1.68-1.78,5.07,5.07,0,0,1,2.51-.61Q388.82,521.11,388.82,526Z"/><path class="cls-1" d="M403.57,521.4v12a5.63,5.63,0,0,1-1.46,4.2,6.06,6.06,0,0,1-4.35,1.41,9.49,9.49,0,0,1-4.87-1.21l.41-1.91a11.35,11.35,0,0,0,2.2.9,8.48,8.48,0,0,0,2.24.29c2.27,0,3.41-1.17,3.41-3.49v-2.64a4.09,4.09,0,0,1-1.62,1.68,4.87,4.87,0,0,1-2.47.62,5.41,5.41,0,0,1-2.85-.75,5.08,5.08,0,0,1-1.94-2.13,7.65,7.65,0,0,1,0-6.35,5.16,5.16,0,0,1,1.94-2.14,5.33,5.33,0,0,1,2.85-.76,5,5,0,0,1,2.47.59,3.92,3.92,0,0,1,1.62,1.68v-2Zm-3.36,8.79a4.44,4.44,0,0,0,.94-3,4.53,4.53,0,0,0-.93-3,3.24,3.24,0,0,0-2.61-1.1,3.29,3.29,0,0,0-2.6,1.1,5.18,5.18,0,0,0,0,6,3.29,3.29,0,0,0,2.6,1.1A3.25,3.25,0,0,0,400.21,530.19Z"/><path class="cls-1" d="M424.5,526v7.6h-2.45v-7.46a3.56,3.56,0,0,0-.61-2.32,2.45,2.45,0,0,0-2-.73,3.31,3.31,0,0,0-2.48,1,3.59,3.59,0,0,0-.93,2.59v7h-2.43V515.78h2.43v7.51a4,4,0,0,1,1.67-1.63,5.11,5.11,0,0,1,2.4-.55Q424.5,521.11,424.5,526Z"/><path class="cls-1" d="M438.8,521.14a3.19,3.19,0,0,1-1.71,1.3,5.21,5.21,0,0,1,1.58,2.09,7.6,7.6,0,0,1,.53,2.92,7.18,7.18,0,0,1-.74,3.34,5.25,5.25,0,0,1-2.09,2.21,6.79,6.79,0,0,1-6.28,0,5.25,5.25,0,0,1-2.09-2.21,7.18,7.18,0,0,1-.74-3.34,7.28,7.28,0,0,1,.74-3.35,5.28,5.28,0,0,1,2.09-2.22,6.18,6.18,0,0,1,3.13-.77,11,11,0,0,1,1.23.09,3.29,3.29,0,0,0,.61.08,2.14,2.14,0,0,0,1.66-.61,3.13,3.13,0,0,0,.54-2.08v-.39h2.13v.73A3.9,3.9,0,0,1,438.8,521.14Zm-3,9.58a6.31,6.31,0,0,0,0-6.51,3.09,3.09,0,0,0-2.56-1.14,3.14,3.14,0,0,0-2.59,1.14,6.25,6.25,0,0,0,0,6.51,3.57,3.57,0,0,0,5.17,0Z"/><path class="cls-1" d="M452.93,526v7.6h-2.44v-7.46a3.56,3.56,0,0,0-.62-2.32,2.43,2.43,0,0,0-2-.73,3.31,3.31,0,0,0-2.49,1,3.59,3.59,0,0,0-.93,2.59v7h-2.42v-8.76a27.15,27.15,0,0,0-.2-3.44h2.28l.22,2.1a4.13,4.13,0,0,1,1.68-1.78,5.07,5.07,0,0,1,2.51-.61Q452.93,521.11,452.93,526Z"/><path class="cls-1" d="M514.43,516.36h2V533.6h-2.26V521.76l-5.11,11.84h-1.72l-5.18-11.77,0,11.77h-2.25V516.36h2l6.27,14.24Z"/><path class="cls-1" d="M530.87,521.4v12.2H528.5v-2a4.05,4.05,0,0,1-1.6,1.63,4.64,4.64,0,0,1-2.3.57q-4.41,0-4.41-4.89V521.4h2.42v7.46a3.31,3.31,0,0,0,.62,2.21,2.34,2.34,0,0,0,1.88.72,3.18,3.18,0,0,0,2.41-1,3.63,3.63,0,0,0,.9-2.57V521.4Zm-6.61,14.31h2.59v2.47h-2.59Z"/><path class="cls-1" d="M545.33,526v7.6h-2.45v-7.46a3.56,3.56,0,0,0-.61-2.32,2.44,2.44,0,0,0-2-.73,3.31,3.31,0,0,0-2.48,1,3.59,3.59,0,0,0-.93,2.59v7h-2.42v-8.76a27.15,27.15,0,0,0-.2-3.44h2.28l.22,2.1a4,4,0,0,1,1.68-1.78,5,5,0,0,1,2.51-.61Q545.33,521.11,545.33,526Z"/><path class="cls-1" d="M566.55,521.4v12a5.59,5.59,0,0,1-1.47,4.2,6,6,0,0,1-4.35,1.41,9.45,9.45,0,0,1-4.86-1.21l.41-1.91a11.53,11.53,0,0,0,2.19.9,8.54,8.54,0,0,0,2.24.29c2.28,0,3.42-1.17,3.42-3.49v-2.64a4.18,4.18,0,0,1-1.63,1.68,4.84,4.84,0,0,1-2.47.62,5.4,5.4,0,0,1-2.84-.75,5,5,0,0,1-1.94-2.13,7.65,7.65,0,0,1,0-6.35,5.1,5.1,0,0,1,1.94-2.14,5.32,5.32,0,0,1,2.84-.76,4.93,4.93,0,0,1,2.47.59,4,4,0,0,1,1.63,1.68v-2Zm-3.37,8.79a4.44,4.44,0,0,0,1-3,4.53,4.53,0,0,0-.94-3,3.62,3.62,0,0,0-5.2,0,5.18,5.18,0,0,0,0,6,3.62,3.62,0,0,0,5.19,0Z"/><path class="cls-1" d="M569.91,516.07h2.84v2.56h-2.84Zm.22,17.53V521.4h2.42v12.2Z"/><path class="cls-1" d="M587.3,521.4v12.2h-2.42v-2.08a3.7,3.7,0,0,1-1.58,1.67,5,5,0,0,1-2.46.58A5.29,5.29,0,0,1,578,533a5.22,5.22,0,0,1-1.9-2.19,8.41,8.41,0,0,1,0-6.65,5.27,5.27,0,0,1,1.93-2.25,5,5,0,0,1,2.81-.8,4.79,4.79,0,0,1,2.44.59,3.93,3.93,0,0,1,1.6,1.68v-2ZM584,530.68a6.21,6.21,0,0,0,0-6.47,3.09,3.09,0,0,0-2.58-1.14,3.14,3.14,0,0,0-2.58,1.17,5.14,5.14,0,0,0-.93,3.26,4.94,4.94,0,0,0,.93,3.2,3.19,3.19,0,0,0,2.61,1.13A3,3,0,0,0,584,530.68Zm-1.49-10.86H581v-.65a1.38,1.38,0,0,1,.23-.81,5.18,5.18,0,0,1,.72-.79,4.77,4.77,0,0,0,.46-.47.67.67,0,0,0,.14-.4.49.49,0,0,0-.25-.43,1.43,1.43,0,0,0-.72-.15,4.07,4.07,0,0,0-1.35.26l-.42-1.16a4.75,4.75,0,0,1,2-.44,3.07,3.07,0,0,1,1.86.5,1.55,1.55,0,0,1,.4,2.13,4.36,4.36,0,0,1-.78.76,4.3,4.3,0,0,0-.64.6.93.93,0,0,0-.21.62Z"/><path class="cls-1" d="M608.88,526v7.6h-2.44v-7.48a3.8,3.8,0,0,0-.55-2.3,2,2,0,0,0-1.75-.73,2.76,2.76,0,0,0-2.22,1,4,4,0,0,0-.81,2.64v6.9h-2.45v-7.48a3.88,3.88,0,0,0-.54-2.3,2.05,2.05,0,0,0-1.76-.73,2.81,2.81,0,0,0-2.23,1,4,4,0,0,0-.82,2.64v6.9h-2.42v-8.76a27.15,27.15,0,0,0-.2-3.44H593l.22,2a3.94,3.94,0,0,1,1.53-1.72,4.38,4.38,0,0,1,2.32-.6,3.55,3.55,0,0,1,3.71,2.35,4.09,4.09,0,0,1,1.63-1.72,4.74,4.74,0,0,1,2.44-.63Q608.89,521.11,608.88,526Z"/><path class="cls-1" d="M685,516.36h2.35V533.6h-1.91l-9.88-13v13H673.2V516.36h1.89l9.9,13Z"/><path class="cls-1" d="M693.25,533a5.25,5.25,0,0,1-2.09-2.21,7.06,7.06,0,0,1-.74-3.34,7.16,7.16,0,0,1,.74-3.35,5.28,5.28,0,0,1,2.09-2.22,6.21,6.21,0,0,1,3.15-.77,6.12,6.12,0,0,1,3.12.77,5.24,5.24,0,0,1,2.1,2.22,7.28,7.28,0,0,1,.74,3.35,7.18,7.18,0,0,1-.74,3.34,5.21,5.21,0,0,1-2.1,2.21,6.22,6.22,0,0,1-3.12.77A6.31,6.31,0,0,1,693.25,533Zm1.48-13.18h-2.11l3-5h1.62l2.95,5h-2.1l-1.65-3.29Zm4.24,10.9a5.16,5.16,0,0,0,.89-3.27,5.1,5.1,0,0,0-.9-3.24,3.09,3.09,0,0,0-2.56-1.14,3.14,3.14,0,0,0-2.59,1.14,5,5,0,0,0-.92,3.24,5,5,0,0,0,.91,3.27,3.57,3.57,0,0,0,5.17,0Zm-3.88,5h2.59v2.47h-2.59Z"/><path class="cls-1" d="M705,516.07h2.83v2.56H705Zm.22,17.53V521.4h2.42v12.2Z"/><path class="cls-1" d="M720.86,523.29v6.12a2.36,2.36,0,0,0,.55,1.78,2.07,2.07,0,0,0,1.51.52,4.41,4.41,0,0,0,1.28-.19v2a5.9,5.9,0,0,1-1.81.26,3.9,3.9,0,0,1-2.93-1.06,4.24,4.24,0,0,1-1-3.1v-6.32H716V521.4h2.38v-3.06l2.44-.84v3.9h3.37v1.89Z"/><path class="cls-1" d="M726.26,516.07h2.84v2.56h-2.84Zm.22,17.53V521.4h2.42v12.2Z"/><path class="cls-1" d="M742.9,527.55h-8.72c.08,2.86,1.38,4.28,3.9,4.28a6,6,0,0,0,3.85-1.37l.75,1.74a6,6,0,0,1-2.09,1.15,8.12,8.12,0,0,1-2.56.42,5.79,5.79,0,0,1-6.27-6.29,7.24,7.24,0,0,1,.74-3.32,5.37,5.37,0,0,1,2.07-2.25,5.72,5.72,0,0,1,3-.8,5,5,0,0,1,3.89,1.59,6.5,6.5,0,0,1,1.41,4.44Zm-7-7.73h-2l3-3.53h1.53l3,3.53h-2l-1.72-2.23Zm-.46,3.93a3.94,3.94,0,0,0-1.11,2.34h6.47a3.79,3.79,0,0,0-1-2.36,2.88,2.88,0,0,0-2.15-.81A3.18,3.18,0,0,0,735.39,523.75Zm5.7-6.47h-1.38l2.1-3.46h2.35Z"/><path class="cls-1" d="M748.76,523.29v6.12a2.4,2.4,0,0,0,.55,1.78,2.08,2.08,0,0,0,1.51.52,4.53,4.53,0,0,0,1.29-.19v2a6,6,0,0,1-1.82.26,3.9,3.9,0,0,1-2.93-1.06,4.24,4.24,0,0,1-1-3.1v-6.32h-2.38V521.4h2.38v-3.06l2.44-.84v3.9h3.37v1.89Z"/><path class="cls-1" d="M667.75,562.06a5.11,5.11,0,0,1-2.1-2.19,7.21,7.21,0,0,1-.72-3.31,7.06,7.06,0,0,1,.76-3.34,5.47,5.47,0,0,1,2.14-2.25,6.36,6.36,0,0,1,3.22-.8,7.32,7.32,0,0,1,2.47.42,5.31,5.31,0,0,1,1.92,1.15l-.75,1.77a5.62,5.62,0,0,0-3.47-1.35,3.44,3.44,0,0,0-2.76,1.15,4.78,4.78,0,0,0-1,3.23,4.71,4.71,0,0,0,1,3.21,3.49,3.49,0,0,0,2.76,1.13,5.49,5.49,0,0,0,3.47-1.36l.75,1.77a5.61,5.61,0,0,1-2,1.14,7.75,7.75,0,0,1-2.5.41A6.36,6.36,0,0,1,667.75,562.06Z"/><path class="cls-1" d="M688.9,550.46v12.21h-2.42v-2.09a3.73,3.73,0,0,1-1.58,1.68,5.2,5.2,0,0,1-7.21-2.39,7.61,7.61,0,0,1-.68-3.31,7.7,7.7,0,0,1,.69-3.34,5.27,5.27,0,0,1,1.93-2.25,5.07,5.07,0,0,1,2.81-.8,4.9,4.9,0,0,1,2.44.59,4,4,0,0,1,1.6,1.69v-2Zm-3.33,9.29a6.22,6.22,0,0,0,0-6.48,3.45,3.45,0,0,0-5.16,0,5.11,5.11,0,0,0-.93,3.25,4.92,4.92,0,0,0,.93,3.2A3.19,3.19,0,0,0,683,560.9,3,3,0,0,0,685.57,559.75Zm-1.49-10.86h-1.45v-.66a1.41,1.41,0,0,1,.23-.81,5.59,5.59,0,0,1,.71-.79,5.1,5.1,0,0,0,.47-.47.65.65,0,0,0,.14-.4.46.46,0,0,0-.25-.42,1.33,1.33,0,0,0-.72-.16,3.86,3.86,0,0,0-1.35.27l-.42-1.17a4.75,4.75,0,0,1,2-.43,3.09,3.09,0,0,1,1.86.49,1.5,1.5,0,0,1,.66,1.23,1.53,1.53,0,0,1-.26.91,5.17,5.17,0,0,1-.78.76,4.33,4.33,0,0,0-.64.59,1,1,0,0,0-.21.62Z"/><path class="cls-1" d="M692.27,545.13h2.83v2.57h-2.83Zm.22,17.54V550.46h2.42v12.21Z"/><path class="cls-1" d="M708.13,552.35v6.13a2.41,2.41,0,0,0,.55,1.78,2.08,2.08,0,0,0,1.51.52,4.55,4.55,0,0,0,1.29-.2v2a5.71,5.71,0,0,1-1.82.27,3.91,3.91,0,0,1-2.93-1.07,4.23,4.23,0,0,1-1-3.1v-6.32h-2.38v-1.89h2.38v-3.05l2.44-.85v3.9h3.37v1.89Z"/><path class="cls-1" d="M724.63,555.06v7.61h-2.45v-7.46a3.53,3.53,0,0,0-.62-2.33,2.46,2.46,0,0,0-2-.72,3.27,3.27,0,0,0-2.48,1,3.56,3.56,0,0,0-.93,2.59v6.95h-2.43V544.84h2.43v7.51a4,4,0,0,1,1.67-1.62,5.11,5.11,0,0,1,2.39-.56Q724.64,550.17,724.63,555.06Z"/><path class="cls-1" d="M727.9,545.13h2.83v2.57H727.9Zm.22,17.54V550.46h2.42v12.21Z"/><path class="cls-1" d="M744.54,556.61h-8.72q.12,4.29,3.9,4.29a6.06,6.06,0,0,0,3.85-1.38l.75,1.74a5.87,5.87,0,0,1-2.1,1.15,7.8,7.8,0,0,1-2.55.43,6.15,6.15,0,0,1-4.6-1.69,6.23,6.23,0,0,1-1.67-4.61,7.27,7.27,0,0,1,.73-3.32A5.5,5.5,0,0,1,736.2,551a5.81,5.81,0,0,1,3-.8,4.91,4.91,0,0,1,3.89,1.6,6.46,6.46,0,0,1,1.42,4.43Zm-7-7.72h-2.11l3-5H740l3,5h-2.11l-1.65-3.3Zm-.53,3.92a4,4,0,0,0-1.12,2.35h6.47a3.79,3.79,0,0,0-.94-2.36,2.92,2.92,0,0,0-2.16-.81A3.13,3.13,0,0,0,737,552.81Zm1.28,12h2.59v2.47h-2.59Z"/><path class="cls-1" d="M758.22,555.06v7.61h-2.45v-7.46a3.59,3.59,0,0,0-.61-2.33,2.47,2.47,0,0,0-2-.72,3.27,3.27,0,0,0-2.48,1,3.56,3.56,0,0,0-.93,2.59v6.95h-2.42V553.9a27.38,27.38,0,0,0-.2-3.44h2.28l.22,2.11a4,4,0,0,1,1.68-1.78,5,5,0,0,1,2.51-.62Q758.22,550.17,758.22,555.06Z"/><path class="cls-1" d="M804.63,516.36h6a8.91,8.91,0,0,1,6.49,2.25,10,10,0,0,1,0,12.73,8.87,8.87,0,0,1-6.49,2.26h-6Zm5.89,15.16q6.38,0,6.37-6.56t-6.37-6.52h-3.39v13.08Z"/><path class="cls-1" d="M833.07,527.55h-8.72c.08,2.86,1.38,4.28,3.9,4.28a6.05,6.05,0,0,0,3.85-1.37l.75,1.74a6.07,6.07,0,0,1-2.09,1.15,8.12,8.12,0,0,1-2.56.42,6.2,6.2,0,0,1-4.6-1.68,6.27,6.27,0,0,1-1.67-4.61,7.12,7.12,0,0,1,.74-3.32,5.37,5.37,0,0,1,2.07-2.25,5.69,5.69,0,0,1,3-.8,4.93,4.93,0,0,1,3.88,1.59,6.45,6.45,0,0,1,1.42,4.44Zm-8.7-13.41a2.22,2.22,0,0,1,1.68-.69,3,3,0,0,1,.94.15,9,9,0,0,1,1.07.41,6.52,6.52,0,0,0,.73.29,2.2,2.2,0,0,0,.65.12,1.1,1.1,0,0,0,.8-.28,1,1,0,0,0,.31-.69h1.24a2.45,2.45,0,0,1-.66,1.76,2.19,2.19,0,0,1-1.67.69,3,3,0,0,1-.94-.15,8.4,8.4,0,0,1-1.07-.41,3.61,3.61,0,0,0-1.38-.43,1.05,1.05,0,0,0-.8.29,1,1,0,0,0-.31.7h-1.24A2.48,2.48,0,0,1,824.37,514.14Zm1.65,5.68h-2l3-3.53h1.53l3,3.53h-2l-1.72-2.23Zm-.46,3.93a3.94,3.94,0,0,0-1.11,2.34h6.46a3.73,3.73,0,0,0-.94-2.36,2.89,2.89,0,0,0-2.16-.81A3.14,3.14,0,0,0,825.56,523.75Z"/><path class="cls-1" d="M853.22,526v7.6h-2.45v-7.46a3.56,3.56,0,0,0-.61-2.32,2.44,2.44,0,0,0-2-.73,3.31,3.31,0,0,0-2.48,1,3.59,3.59,0,0,0-.93,2.59v7h-2.42v-8.76a27.15,27.15,0,0,0-.2-3.44h2.28l.22,2.1a4,4,0,0,1,1.68-1.78,5,5,0,0,1,2.51-.61Q853.22,521.11,853.22,526Z"/><path class="cls-1" d="M868,521.4v12a5.63,5.63,0,0,1-1.46,4.2,6.06,6.06,0,0,1-4.35,1.41,9.49,9.49,0,0,1-4.87-1.21l.41-1.91a11.53,11.53,0,0,0,2.19.9,8.59,8.59,0,0,0,2.24.29c2.28,0,3.42-1.17,3.42-3.49v-2.64a4.09,4.09,0,0,1-1.62,1.68,4.87,4.87,0,0,1-2.47.62,5.41,5.41,0,0,1-2.85-.75,5.08,5.08,0,0,1-1.94-2.13,7.65,7.65,0,0,1,0-6.35,5.16,5.16,0,0,1,1.94-2.14,5.33,5.33,0,0,1,2.85-.76,5,5,0,0,1,2.47.59,3.92,3.92,0,0,1,1.62,1.68v-2Zm-3.37,8.79a4.44,4.44,0,0,0,.95-3,4.53,4.53,0,0,0-.93-3,3.63,3.63,0,0,0-5.21,0,5.18,5.18,0,0,0,0,6,3.28,3.28,0,0,0,2.6,1.1A3.23,3.23,0,0,0,864.6,530.19Z"/><path class="cls-1" d="M882.16,521.4v12.2h-2.37v-2a4.05,4.05,0,0,1-1.6,1.63,4.62,4.62,0,0,1-2.3.57q-4.41,0-4.41-4.89V521.4h2.42v7.46a3.31,3.31,0,0,0,.62,2.21,2.34,2.34,0,0,0,1.88.72,3.18,3.18,0,0,0,2.41-1,3.63,3.63,0,0,0,.91-2.57V521.4Zm-4.55-1.58h-1.45v-.65a1.32,1.32,0,0,1,.23-.81,5.59,5.59,0,0,1,.71-.79,3.83,3.83,0,0,0,.46-.47.62.62,0,0,0,.15-.4.5.5,0,0,0-.26-.43,1.39,1.39,0,0,0-.71-.15,4.17,4.17,0,0,0-1.36.26l-.41-1.16a4.75,4.75,0,0,1,2-.44,3,3,0,0,1,1.85.5,1.47,1.47,0,0,1,.67,1.22,1.43,1.43,0,0,1-.27.91,4,4,0,0,1-.77.76,3.85,3.85,0,0,0-.64.6.93.93,0,0,0-.21.62Z"/><path class="cls-1" d="M903.09,526v7.6h-2.45v-7.46a3.56,3.56,0,0,0-.61-2.32,2.45,2.45,0,0,0-2-.73,3.31,3.31,0,0,0-2.48,1,3.59,3.59,0,0,0-.93,2.59v7h-2.42V515.78h2.42v7.51a4,4,0,0,1,1.67-1.63,5.11,5.11,0,0,1,2.4-.55Q903.09,521.11,903.09,526Z"/><path class="cls-1" d="M917.39,521.14a3.19,3.19,0,0,1-1.71,1.3,5.21,5.21,0,0,1,1.58,2.09,7.6,7.6,0,0,1,.53,2.92,7.06,7.06,0,0,1-.74,3.34A5.25,5.25,0,0,1,915,533a6.79,6.79,0,0,1-6.28,0,5.25,5.25,0,0,1-2.09-2.21,7.18,7.18,0,0,1-.74-3.34,7.28,7.28,0,0,1,.74-3.35,5.28,5.28,0,0,1,2.09-2.22,6.18,6.18,0,0,1,3.13-.77,11,11,0,0,1,1.23.09,3.29,3.29,0,0,0,.61.08,2.14,2.14,0,0,0,1.66-.61,3.13,3.13,0,0,0,.54-2.08v-.39H918v.73A3.9,3.9,0,0,1,917.39,521.14Zm-3,9.58a6.31,6.31,0,0,0,0-6.51,3.09,3.09,0,0,0-2.56-1.14,3.15,3.15,0,0,0-2.59,1.14,6.25,6.25,0,0,0,0,6.51,3.57,3.57,0,0,0,5.17,0Z"/><path class="cls-1" d="M931.52,526v7.6h-2.44v-7.46a3.56,3.56,0,0,0-.62-2.32,2.43,2.43,0,0,0-2-.73,3.33,3.33,0,0,0-2.49,1,3.59,3.59,0,0,0-.93,2.59v7h-2.42v-8.76a29.3,29.3,0,0,0-.19-3.44h2.27l.22,2.1a4.13,4.13,0,0,1,1.68-1.78,5.07,5.07,0,0,1,2.51-.61Q931.52,521.11,931.52,526Z"/><path class="cls-1" d="M977.71,533.6V518.44h-5.84v-2.08h14.2v2.08h-5.84V533.6Z"/><path class="cls-1" d="M987.93,516.07h2.83v2.56h-2.83Zm.22,17.53V521.4h2.42v12.2Z"/><path class="cls-1" d="M1005,526v7.6h-2.45v-7.46a3.5,3.5,0,0,0-.62-2.32,2.43,2.43,0,0,0-2-.73,3.31,3.31,0,0,0-2.48,1,3.59,3.59,0,0,0-.93,2.59v7h-2.43v-8.76a27.28,27.28,0,0,0-.19-3.44h2.28l.21,2.1a4.1,4.1,0,0,1,1.69-1.78,5,5,0,0,1,2.5-.61Q1005,521.11,1005,526Z"/><path class="cls-1" d="M1019.39,526v7.6H1017v-7.46a3.56,3.56,0,0,0-.62-2.32,2.44,2.44,0,0,0-2-.73,3.31,3.31,0,0,0-2.48,1,3.59,3.59,0,0,0-.93,2.59v7h-2.42V515.78h2.42v7.51a4,4,0,0,1,1.67-1.63,5.11,5.11,0,0,1,2.4-.55Q1019.39,521.11,1019.39,526Z"/><path class="cls-1" d="M1032.52,523.29v6.12a2.4,2.4,0,0,0,.54,1.78,2.11,2.11,0,0,0,1.52.52,4.41,4.41,0,0,0,1.28-.19v2a6,6,0,0,1-1.82.26,3.92,3.92,0,0,1-2.93-1.06,4.29,4.29,0,0,1-1-3.1v-6.32h-2.37V521.4h2.37v-3.06l2.45-.84v3.9h3.37v1.89Z"/><path class="cls-1" d="M1049,526v7.6h-2.44v-7.46a3.56,3.56,0,0,0-.62-2.32,2.43,2.43,0,0,0-2-.73,3.31,3.31,0,0,0-2.49,1,3.59,3.59,0,0,0-.93,2.59v7h-2.42V515.78h2.42v7.51a4,4,0,0,1,1.67-1.63,5.11,5.11,0,0,1,2.4-.55Q1049,521.11,1049,526Z"/><path class="cls-1" d="M1063.67,521.4v12.2h-2.43v-2.08a3.7,3.7,0,0,1-1.58,1.67,5,5,0,0,1-2.46.58,5.29,5.29,0,0,1-2.85-.77,5.22,5.22,0,0,1-1.9-2.19,8.41,8.41,0,0,1,0-6.65,5.33,5.33,0,0,1,1.93-2.25,5,5,0,0,1,2.81-.8,4.83,4.83,0,0,1,2.45.59,4,4,0,0,1,1.59,1.68v-2Zm-3.33,9.28a6.26,6.26,0,0,0,0-6.47,3.46,3.46,0,0,0-5.16,0,5.08,5.08,0,0,0-.94,3.26,4.88,4.88,0,0,0,.94,3.2,3.17,3.17,0,0,0,2.6,1.13A3.07,3.07,0,0,0,1060.34,530.68Zm-4-10.86h-2l3-3.53h1.53l3,3.53h-2l-1.71-2.23Zm4.92-2.54-2.81-3.46h2.32l1.84,3.46Z"/><path class="cls-1" d="M1078.12,526v7.6h-2.44v-7.46a3.56,3.56,0,0,0-.62-2.32,2.43,2.43,0,0,0-2-.73,3.33,3.33,0,0,0-2.49,1,3.59,3.59,0,0,0-.93,2.59v7h-2.42v-8.76a27.28,27.28,0,0,0-.19-3.44h2.27l.22,2.1a4.13,4.13,0,0,1,1.68-1.78,5.07,5.07,0,0,1,2.51-.61Q1078.12,521.11,1078.12,526Z"/><path class="cls-1" d="M990.23,552.35v6.13a2.37,2.37,0,0,0,.55,1.78,2.07,2.07,0,0,0,1.51.52,4.43,4.43,0,0,0,1.28-.2v2a5.64,5.64,0,0,1-1.81.27,3.91,3.91,0,0,1-2.93-1.07,4.23,4.23,0,0,1-1.05-3.1v-6.32h-2.37v-1.89h2.37v-3.05l2.45-.85v3.9h3.37v1.89Z"/><path class="cls-1" d="M998,562.06a5.19,5.19,0,0,1-2.1-2.2,7.21,7.21,0,0,1-.74-3.34,7.3,7.3,0,0,1,.74-3.36A5.16,5.16,0,0,1,998,551a6.69,6.69,0,0,1,6.27,0,5.19,5.19,0,0,1,2.09,2.21,7.17,7.17,0,0,1,.74,3.36,7.09,7.09,0,0,1-.74,3.34,5.23,5.23,0,0,1-2.09,2.2,6.69,6.69,0,0,1-6.27,0Zm1.4-13.17h-2l3-3.54h1.53l3,3.54h-2l-1.71-2.23Zm4.31,10.9a5.14,5.14,0,0,0,.9-3.27,5.07,5.07,0,0,0-.91-3.25,3.07,3.07,0,0,0-2.55-1.14,3.16,3.16,0,0,0-2.6,1.14,5.07,5.07,0,0,0-.92,3.25,5.14,5.14,0,0,0,.91,3.27,3.57,3.57,0,0,0,5.17,0Zm.92-13.45h-1.38l2.11-3.46h2.35Z"/><path class="cls-1" d="M1013.05,552.35v6.13a2.41,2.41,0,0,0,.54,1.78,2.09,2.09,0,0,0,1.52.52,4.54,4.54,0,0,0,1.28-.2v2a5.66,5.66,0,0,1-1.82.27,3.92,3.92,0,0,1-2.93-1.07,4.27,4.27,0,0,1-1-3.1v-6.32h-2.37v-1.89h2.37v-3.05l2.45-.85v3.9h3.36v1.89Z"/><path class="cls-1" d="M1036,555.06v7.61h-2.45v-7.46a3.53,3.53,0,0,0-.62-2.33,2.46,2.46,0,0,0-2-.72,3.27,3.27,0,0,0-2.48,1,3.52,3.52,0,0,0-.94,2.59v6.95h-2.42V544.84h2.42v7.51a4,4,0,0,1,1.68-1.62,5.11,5.11,0,0,1,2.39-.56Q1036,550.17,1036,555.06Z"/><path class="cls-1" d="M1050.31,550.21a3.3,3.3,0,0,1-1.71,1.29,5.18,5.18,0,0,1,1.58,2.1,7.6,7.6,0,0,1,.53,2.92,7.21,7.21,0,0,1-.74,3.34,5.19,5.19,0,0,1-2.1,2.2,6.12,6.12,0,0,1-3.12.78,6.24,6.24,0,0,1-3.15-.78,5.23,5.23,0,0,1-2.09-2.2,7.09,7.09,0,0,1-.74-3.34,7.17,7.17,0,0,1,.74-3.36,5.19,5.19,0,0,1,2.09-2.21,6.19,6.19,0,0,1,3.13-.78,9.6,9.6,0,0,1,1.23.1,3.07,3.07,0,0,0,.61.07,2.12,2.12,0,0,0,1.66-.61,3.11,3.11,0,0,0,.54-2.08v-.39h2.13V548A4,4,0,0,1,1050.31,550.21Zm-3,9.58a5.2,5.2,0,0,0,.89-3.27,5.13,5.13,0,0,0-.9-3.25,3.09,3.09,0,0,0-2.56-1.14,3.14,3.14,0,0,0-2.59,1.14,5,5,0,0,0-.92,3.25,5.08,5.08,0,0,0,.91,3.27,3.57,3.57,0,0,0,5.17,0Z"/><path class="cls-1" d="M1064.44,555.06v7.61H1062v-7.46a3.59,3.59,0,0,0-.61-2.33,2.47,2.47,0,0,0-2-.72,3.27,3.27,0,0,0-2.48,1,3.56,3.56,0,0,0-.93,2.59v6.95h-2.42V553.9a27.38,27.38,0,0,0-.2-3.44h2.28l.22,2.11a4,4,0,0,1,1.68-1.78,5,5,0,0,1,2.51-.62Q1064.44,550.17,1064.44,555.06Z"/><path class="cls-2" d="M-77.53,301.62H227.21a18.84,18.84,0,0,1,18.84,18.84v0a18.84,18.84,0,0,1-18.84,18.84H-77.53a0,0,0,0,1,0,0V301.62A0,0,0,0,1-77.53,301.62Z" transform="translate(-236.2 404.72) rotate(-90)"/><path class="cls-1" d="M69.91,109a9.9,9.9,0,0,1,1.7,6.2A11.5,11.5,0,0,1,69.85,122a5.71,5.71,0,0,1-4.9,2.43,7.95,7.95,0,0,1-5.41-2.13l.78-1.52a9.41,9.41,0,0,0,2.35,1.51,5.61,5.61,0,0,0,2.25.47,3.83,3.83,0,0,0,3.45-2,10.6,10.6,0,0,0,1.23-5.57v-.32a4.48,4.48,0,0,1-1.82,2.14,5.28,5.28,0,0,1-2.88.79,5.55,5.55,0,0,1-2.79-.69,4.77,4.77,0,0,1-1.89-1.94,5.87,5.87,0,0,1-.68-2.84,5.65,5.65,0,0,1,.72-2.86,5.11,5.11,0,0,1,2-2,5.68,5.68,0,0,1,2.86-.72A5.76,5.76,0,0,1,69.91,109ZM68,115.1a3.84,3.84,0,0,0-2.78-6.61,3.53,3.53,0,0,0-2.67,1.06,4.34,4.34,0,0,0,0,5.57,3.59,3.59,0,0,0,2.69,1A3.7,3.7,0,0,0,68,115.1Z"/><path class="cls-1" d="M84.85,116.9a4.3,4.3,0,0,1,.8,2.69,4.38,4.38,0,0,1-1.52,3.54,6.17,6.17,0,0,1-4.14,1.3,9.34,9.34,0,0,1-3.21-.56,7.26,7.26,0,0,1-2.61-1.57l.78-1.53a7.72,7.72,0,0,0,5,2,4.2,4.2,0,0,0,2.8-.83,3,3,0,0,0,1-2.42q0-3.17-4-3.17h-2v-1.67h1.6a4.41,4.41,0,0,0,2.93-.85,3,3,0,0,0,1-2.42,2.77,2.77,0,0,0-.83-2.16,3.44,3.44,0,0,0-2.37-.75,7.7,7.7,0,0,0-4.89,2L74.44,109A7.45,7.45,0,0,1,77,107.39a8.85,8.85,0,0,1,3.16-.57A5.51,5.51,0,0,1,83.87,108a4,4,0,0,1,1.4,3.2,4.7,4.7,0,0,1-.73,2.59,4.05,4.05,0,0,1-2,1.6A4.22,4.22,0,0,1,84.85,116.9Z"/><path class="cls-1" d="M89.87,116a7.67,7.67,0,0,1,0-7.88,4.17,4.17,0,0,1,6.11,0A7.55,7.55,0,0,1,96,116a4.17,4.17,0,0,1-6.11,0Zm4.83-1a5.81,5.81,0,0,0,.57-2.94,5.75,5.75,0,0,0-.57-2.92,2.16,2.16,0,0,0-3.55,0,5.64,5.64,0,0,0-.58,2.92,5.69,5.69,0,0,0,.58,2.94,2.16,2.16,0,0,0,3.55,0Zm.06,9.24H92.85l10-17.25h1.91Zm6.86-1.16a7.68,7.68,0,0,1,0-7.89,3.72,3.72,0,0,1,3-1.32,3.77,3.77,0,0,1,3.06,1.32,7.62,7.62,0,0,1,0,7.89,3.75,3.75,0,0,1-3.06,1.33A3.7,3.7,0,0,1,101.62,123.1Zm4.85-1a5.78,5.78,0,0,0,.57-2.95,5.66,5.66,0,0,0-.58-2.92,2,2,0,0,0-1.79-.93,1.93,1.93,0,0,0-1.78.93,7.82,7.82,0,0,0,0,5.86,2.19,2.19,0,0,0,3.58,0Z"/><path class="cls-2" d="M89.81,311.6H373.69a18.84,18.84,0,0,1,18.84,18.84v.9a18.84,18.84,0,0,1-18.84,18.84H89.81a0,0,0,0,1,0,0V311.6A0,0,0,0,1,89.81,311.6Z" transform="translate(-89.72 572.05) rotate(-90)"/><path class="cls-1" d="M227.77,144.66a4.06,4.06,0,0,1,.94,2.7,4.15,4.15,0,0,1-1.67,3.48,8.63,8.63,0,0,1-9,0,4.13,4.13,0,0,1-1.68-3.48,4.07,4.07,0,0,1,1-2.71,4.93,4.93,0,0,1,2.63-1.57,4.56,4.56,0,0,1-2.37-1.52,3.91,3.91,0,0,1-.83-2.48,4,4,0,0,1,.73-2.41,4.65,4.65,0,0,1,2-1.6,8.29,8.29,0,0,1,6,0,4.65,4.65,0,0,1,2,1.6,4,4,0,0,1,.73,2.41,3.86,3.86,0,0,1-.84,2.48,4.61,4.61,0,0,1-2.33,1.52A4.92,4.92,0,0,1,227.77,144.66Zm-2.11,5a2.84,2.84,0,0,0,1.08-2.4,2.72,2.72,0,0,0-1.15-2.29,5,5,0,0,0-6.12,0,2.72,2.72,0,0,0-1.15,2.29,2.82,2.82,0,0,0,1.09,2.4,5.07,5.07,0,0,0,3.12.82A5.12,5.12,0,0,0,225.66,149.64Zm-5.9-8.18a4.15,4.15,0,0,0,5.54,0,3,3,0,0,0,0-4.49,5.19,5.19,0,0,0-5.6,0,3,3,0,0,0,0,4.49Z"/><path class="cls-1" d="M231.37,134.69h11.38v1.48l-8.09,15.77h-2.13l8-15.57h-9.2Z"/><path class="cls-1" d="M246.78,143.71a7.67,7.67,0,0,1,0-7.88,3.73,3.73,0,0,1,3.05-1.33,3.78,3.78,0,0,1,3.06,1.33,7.61,7.61,0,0,1,0,7.88,3.78,3.78,0,0,1-3.06,1.33A3.73,3.73,0,0,1,246.78,143.71Zm4.83-1a5.81,5.81,0,0,0,.57-2.94,5.75,5.75,0,0,0-.57-2.92,2.16,2.16,0,0,0-3.55,0,5.64,5.64,0,0,0-.58,2.92,5.69,5.69,0,0,0,.58,2.94,2.16,2.16,0,0,0,3.55,0Zm.06,9.24h-1.92l10-17.25h1.92Zm6.85-1.16a6.18,6.18,0,0,1-1.09-3.95,6.11,6.11,0,0,1,1.09-3.94,3.75,3.75,0,0,1,3.05-1.32,3.79,3.79,0,0,1,3.07,1.32,6.05,6.05,0,0,1,1.1,3.94,6.12,6.12,0,0,1-1.1,3.95,3.77,3.77,0,0,1-3.07,1.33A3.73,3.73,0,0,1,258.52,150.78Zm4.86-1a7.78,7.78,0,0,0,0-5.87,2,2,0,0,0-1.8-.93,1.94,1.94,0,0,0-1.78.93,7.82,7.82,0,0,0,0,5.86,2.2,2.2,0,0,0,3.59,0Z"/><path class="cls-2" d="M243.11,308.44h291.1A18.84,18.84,0,0,1,553,327.28v0a18.84,18.84,0,0,1-18.84,18.84H243.11a0,0,0,0,1,0,0V308.44a0,0,0,0,1,0,0Z" transform="translate(70.8 725.35) rotate(-90)"/><path class="cls-1" d="M384.68,137.77a4.43,4.43,0,0,1-.74,6.18,8.63,8.63,0,0,1-9,0,4.15,4.15,0,0,1-1.67-3.48,4.07,4.07,0,0,1,1-2.71,4.93,4.93,0,0,1,2.63-1.57,4.53,4.53,0,0,1-2.38-1.52,3.9,3.9,0,0,1-.82-2.48,4,4,0,0,1,.73-2.41,4.65,4.65,0,0,1,2-1.6,8.26,8.26,0,0,1,6,0,4.68,4.68,0,0,1,2.05,1.6,4.11,4.11,0,0,1,.73,2.41,3.86,3.86,0,0,1-.84,2.48,4.61,4.61,0,0,1-2.34,1.52A5,5,0,0,1,384.68,137.77Zm-2.12,5a2.82,2.82,0,0,0,1.09-2.4,2.72,2.72,0,0,0-1.15-2.29,5,5,0,0,0-6.13,0,2.75,2.75,0,0,0-1.15,2.29,2.84,2.84,0,0,0,1.09,2.4,6.36,6.36,0,0,0,6.25,0Zm-5.9-8.17a4.19,4.19,0,0,0,5.55,0,3,3,0,0,0,0-4.5,5.19,5.19,0,0,0-5.6,0,2.77,2.77,0,0,0-1,2.26A2.81,2.81,0,0,0,376.66,134.58Z"/><path class="cls-1" d="M398.26,129.79A9.92,9.92,0,0,1,400,136a11.48,11.48,0,0,1-1.75,6.82,5.72,5.72,0,0,1-4.91,2.44,8,8,0,0,1-5.4-2.14l.78-1.52A9.37,9.37,0,0,0,391,143.1a5.69,5.69,0,0,0,2.26.47,3.86,3.86,0,0,0,3.45-2,10.7,10.7,0,0,0,1.22-5.57v-.32a4.47,4.47,0,0,1-1.81,2.15,5.39,5.39,0,0,1-2.89.78,5.51,5.51,0,0,1-2.78-.69,4.77,4.77,0,0,1-1.89-1.94,5.87,5.87,0,0,1-.68-2.84,5.65,5.65,0,0,1,.72-2.86,5,5,0,0,1,2-2,5.65,5.65,0,0,1,2.86-.72A5.76,5.76,0,0,1,398.26,129.79Zm-1.94,6.11a4.16,4.16,0,0,0,0-5.55,3.78,3.78,0,0,0-2.79-1.07,3.52,3.52,0,0,0-2.66,1.06,4.31,4.31,0,0,0,0,5.57,3.57,3.57,0,0,0,2.69,1.05A3.73,3.73,0,0,0,396.32,135.9Z"/><path class="cls-1" d="M403.68,136.82a6.18,6.18,0,0,1-1.09-3.95,6.09,6.09,0,0,1,1.09-3.92,3.73,3.73,0,0,1,3.05-1.34A3.77,3.77,0,0,1,409.8,129a6,6,0,0,1,1.1,3.92,6.12,6.12,0,0,1-1.1,3.95,3.77,3.77,0,0,1-3.07,1.33A3.73,3.73,0,0,1,403.68,136.82Zm4.83-1a5.81,5.81,0,0,0,.57-2.94,5.75,5.75,0,0,0-.57-2.92,2.15,2.15,0,0,0-3.54,0,5.62,5.62,0,0,0-.59,2.92,5.68,5.68,0,0,0,.59,2.94,2.15,2.15,0,0,0,3.54,0Zm.06,9.24h-1.91l10-17.24h1.91Zm6.86-1.16a7.68,7.68,0,0,1,0-7.89,3.76,3.76,0,0,1,3.05-1.31,3.81,3.81,0,0,1,3.07,1.31,7.62,7.62,0,0,1,0,7.89,3.77,3.77,0,0,1-3.07,1.33A3.71,3.71,0,0,1,415.43,143.89Zm4.86-1a6,6,0,0,0,.56-3,5.66,5.66,0,0,0-.58-2.92,2.18,2.18,0,0,0-3.57,0,7.82,7.82,0,0,0,0,5.86,1.92,1.92,0,0,0,1.78.94A2,2,0,0,0,420.29,142.9Z"/><path class="cls-2" d="M431.53,340H659.6a18.84,18.84,0,0,1,18.84,18.84v0a18.84,18.84,0,0,1-18.84,18.84H431.53a0,0,0,0,1,0,0V340A0,0,0,0,1,431.53,340Z" transform="translate(196.19 913.77) rotate(-90)"/><path class="cls-1" d="M530.65,189.61H542v1.48L534,206.86h-2.13l8-15.58h-9.21Z"/><path class="cls-1" d="M552.52,205.19h3.81v1.67h-9.62v-1.67h3.8V192.08L547,194.34v-1.92l4.41-2.81h1.13Z"/><path class="cls-1" d="M560.59,198.62a7.65,7.65,0,0,1,0-7.87,3.71,3.71,0,0,1,3-1.33,3.77,3.77,0,0,1,3.07,1.33,7.59,7.59,0,0,1,0,7.87,3.77,3.77,0,0,1-3.07,1.34A3.72,3.72,0,0,1,560.59,198.62Zm4.83-1a5.83,5.83,0,0,0,.57-3,5.74,5.74,0,0,0-.57-2.91,2.15,2.15,0,0,0-3.55,0,5.72,5.72,0,0,0-.58,2.91,5.82,5.82,0,0,0,.58,3,2.16,2.16,0,0,0,3.55,0Zm.06,9.24h-1.91l10-17.25h1.91Zm6.86-1.16a6.12,6.12,0,0,1-1.09-3.95,6.05,6.05,0,0,1,1.09-3.94,4.2,4.2,0,0,1,6.11,0,6,6,0,0,1,1.1,3.94,6.06,6.06,0,0,1-1.1,3.95,4.17,4.17,0,0,1-6.11,0Zm4.85-1a5.81,5.81,0,0,0,.57-2.95,5.64,5.64,0,0,0-.58-2.92,2,2,0,0,0-1.79-.93,1.93,1.93,0,0,0-1.78.93,5.75,5.75,0,0,0-.57,2.92,5.81,5.81,0,0,0,.57,2.94,2.19,2.19,0,0,0,3.58,0Z"/><path class="cls-2" d="M576.15,327.67H828.79a18.84,18.84,0,0,1,18.84,18.84v0a18.84,18.84,0,0,1-18.84,18.84H576.15a0,0,0,0,1,0,0V327.67A0,0,0,0,1,576.15,327.67Z" transform="translate(365.38 1058.4) rotate(-90)"/><path class="cls-1" d="M687.56,165h11.38v1.48l-8.09,15.77h-2.13l8-15.58h-9.2Z"/><path class="cls-1" d="M713,174.94a4.42,4.42,0,0,1-.74,6.17,8.57,8.57,0,0,1-9,0,4.4,4.4,0,0,1-.72-6.18,5,5,0,0,1,2.63-1.58,4.58,4.58,0,0,1-2.37-1.51,3.93,3.93,0,0,1-.83-2.48,4.07,4.07,0,0,1,.73-2.41,4.74,4.74,0,0,1,2-1.6,8.26,8.26,0,0,1,6,0,4.74,4.74,0,0,1,2.05,1.6,4.06,4.06,0,0,1,.72,2.41,3.93,3.93,0,0,1-.83,2.48,4.66,4.66,0,0,1-2.34,1.51A5,5,0,0,1,713,174.94Zm-2.12,5a2.84,2.84,0,0,0,1.09-2.4,2.72,2.72,0,0,0-1.15-2.29,5,5,0,0,0-6.13,0,2.7,2.7,0,0,0-1.15,2.29,2.82,2.82,0,0,0,1.09,2.4,6.36,6.36,0,0,0,6.25,0Zm-5.9-8.18a4.19,4.19,0,0,0,5.55,0,2.79,2.79,0,0,0,1-2.24,2.76,2.76,0,0,0-1-2.25,5.12,5.12,0,0,0-5.59,0,3,3,0,0,0,0,4.49Z"/><path class="cls-1" d="M717.5,174a7.65,7.65,0,0,1,0-7.87,4.17,4.17,0,0,1,6.11,0,7.59,7.59,0,0,1,0,7.87,4.17,4.17,0,0,1-6.11,0Zm4.83-1a5.88,5.88,0,0,0,.57-2.95,5.8,5.8,0,0,0-.57-2.92,2.16,2.16,0,0,0-3.55,0,5.69,5.69,0,0,0-.58,2.92,5.76,5.76,0,0,0,.58,2.95,2.16,2.16,0,0,0,3.55,0Zm.06,9.24h-1.92l10-17.25h1.92Zm6.85-1.17a7.67,7.67,0,0,1,0-7.88,3.75,3.75,0,0,1,3-1.32,3.79,3.79,0,0,1,3.07,1.32,7.61,7.61,0,0,1,0,7.88,3.77,3.77,0,0,1-3.07,1.34A3.73,3.73,0,0,1,729.24,181.05Zm4.86-1a5.81,5.81,0,0,0,.57-2.95,5.74,5.74,0,0,0-.58-2.92,2,2,0,0,0-1.8-.94,2,2,0,0,0-1.78.94,5.77,5.77,0,0,0-.56,2.92,5.83,5.83,0,0,0,.56,2.94,1.94,1.94,0,0,0,1.78.93A2,2,0,0,0,734.1,180.06Z"/><rect class="cls-2" y="482.24" width="1111.19" height="1.9"/><path class="cls-2" d="M710.42,305h297.91a18.84,18.84,0,0,1,18.84,18.84v0a18.84,18.84,0,0,1-18.84,18.84H710.42a0,0,0,0,1,0,0V305a0,0,0,0,1,0,0Z" transform="translate(544.93 1192.67) rotate(-90)"/><path class="cls-1" d="M854.45,122.33a10,10,0,0,1,1.69,6.2,11.52,11.52,0,0,1-1.76,6.82,5.7,5.7,0,0,1-4.9,2.43,8.08,8.08,0,0,1-5.4-2.13l.77-1.53a9.66,9.66,0,0,0,2.35,1.52,5.87,5.87,0,0,0,2.26.47,3.85,3.85,0,0,0,3.45-2,10.68,10.68,0,0,0,1.22-5.57v-.31a4.47,4.47,0,0,1-1.82,2.14,5.28,5.28,0,0,1-2.88.79,5.49,5.49,0,0,1-2.78-.69,4.84,4.84,0,0,1-1.89-1.94,6.19,6.19,0,0,1,0-5.7,5.23,5.23,0,0,1,2-2,6.31,6.31,0,0,1,7.68,1.47Zm-1.94,6.1a3.84,3.84,0,0,0-2.79-6.61,3.53,3.53,0,0,0-2.66,1.05,3.87,3.87,0,0,0-1,2.8,3.8,3.8,0,0,0,1,2.77,3.54,3.54,0,0,0,2.69,1.06A3.74,3.74,0,0,0,852.51,128.43Z"/><path class="cls-1" d="M866.34,135.92h3.8v1.67h-9.62v-1.67h3.81V122.81l-3.54,2.26v-1.92l4.41-2.81h1.14Z"/><path class="cls-1" d="M874.4,129.35a7.65,7.65,0,0,1,0-7.87,3.73,3.73,0,0,1,3.05-1.33,3.77,3.77,0,0,1,3.07,1.33,7.59,7.59,0,0,1,0,7.87,3.77,3.77,0,0,1-3.07,1.33A3.73,3.73,0,0,1,874.4,129.35Zm4.83-1a5.83,5.83,0,0,0,.57-2.95,5.74,5.74,0,0,0-.57-2.91,2.14,2.14,0,0,0-3.54,0,5.61,5.61,0,0,0-.59,2.91,5.7,5.7,0,0,0,.59,2.95,2.15,2.15,0,0,0,3.54,0Zm.07,9.24h-1.92l10-17.25h1.91Zm6.85-1.17a7.67,7.67,0,0,1,0-7.88,3.74,3.74,0,0,1,3.05-1.32,3.79,3.79,0,0,1,3.07,1.32,7.61,7.61,0,0,1,0,7.88,3.77,3.77,0,0,1-3.07,1.34A3.72,3.72,0,0,1,886.15,136.42Zm4.86-1a5.93,5.93,0,0,0,.56-3,5.64,5.64,0,0,0-.58-2.92,2.18,2.18,0,0,0-3.57,0,5.75,5.75,0,0,0-.57,2.92,5.81,5.81,0,0,0,.57,2.94,1.93,1.93,0,0,0,1.78.93A2,2,0,0,0,891,135.43Z"/><path class="cls-2" d="M865.47,303.17H1167.1A18.84,18.84,0,0,1,1185.93,322v0a18.84,18.84,0,0,1-18.84,18.84H865.47a0,0,0,0,1,0,0V303.17A0,0,0,0,1,865.47,303.17Z" transform="translate(703.69 1347.72) rotate(-90)"/><path class="cls-1" d="M1011.35,122.33a9.9,9.9,0,0,1,1.7,6.2,11.52,11.52,0,0,1-1.76,6.82,5.71,5.71,0,0,1-4.9,2.43,8.08,8.08,0,0,1-5.41-2.13l.78-1.53a9.47,9.47,0,0,0,2.35,1.52,5.78,5.78,0,0,0,2.25.47,3.82,3.82,0,0,0,3.45-2,10.58,10.58,0,0,0,1.23-5.57v-.31a4.52,4.52,0,0,1-1.82,2.14,5.28,5.28,0,0,1-2.88.79,5.55,5.55,0,0,1-2.79-.69,4.84,4.84,0,0,1-1.89-1.94,5.87,5.87,0,0,1-.68-2.84,5.65,5.65,0,0,1,.72-2.86,5.13,5.13,0,0,1,2-2,6.31,6.31,0,0,1,7.68,1.47Zm-1.94,6.1a3.84,3.84,0,0,0-2.78-6.61,3.55,3.55,0,0,0-2.67,1.05,3.87,3.87,0,0,0-1,2.8,3.79,3.79,0,0,0,1,2.77,3.56,3.56,0,0,0,2.69,1.06A3.74,3.74,0,0,0,1009.41,128.43Z"/><path class="cls-1" d="M1027.43,135.92v1.67h-11.09v-1.5l6-6.69a11.78,11.78,0,0,0,1.77-2.45,4.74,4.74,0,0,0,.56-2.18,2.84,2.84,0,0,0-.83-2.19,3.32,3.32,0,0,0-2.35-.76,7.67,7.67,0,0,0-4.89,2l-.75-1.53a7.41,7.41,0,0,1,2.57-1.55,8.74,8.74,0,0,1,3.12-.58,5.5,5.5,0,0,1,3.76,1.22,4.21,4.21,0,0,1,1.38,3.31,6.47,6.47,0,0,1-.67,2.84,13.1,13.1,0,0,1-2.22,3.07l-4.91,5.33Z"/><path class="cls-1" d="M1031.31,129.35a7.65,7.65,0,0,1,0-7.87,4.17,4.17,0,0,1,6.11,0,7.53,7.53,0,0,1,0,7.87,4.17,4.17,0,0,1-6.11,0Zm4.83-1a5.83,5.83,0,0,0,.57-2.95,5.74,5.74,0,0,0-.57-2.91,2.15,2.15,0,0,0-3.55,0,5.62,5.62,0,0,0-.58,2.91,5.71,5.71,0,0,0,.58,2.95,2.16,2.16,0,0,0,3.55,0Zm.06,9.24h-1.91l10-17.25h1.91Zm6.86-1.17a7.67,7.67,0,0,1,0-7.88,3.72,3.72,0,0,1,3-1.32,3.77,3.77,0,0,1,3.06,1.32,7.61,7.61,0,0,1,0,7.88,3.75,3.75,0,0,1-3.06,1.34A3.71,3.71,0,0,1,1043.06,136.42Zm4.85-1a5.81,5.81,0,0,0,.57-3,5.64,5.64,0,0,0-.58-2.92,2,2,0,0,0-1.79-.93,1.93,1.93,0,0,0-1.78.93,5.75,5.75,0,0,0-.57,2.92,5.81,5.81,0,0,0,.57,2.94,1.93,1.93,0,0,0,1.78.93A2,2,0,0,0,1047.91,135.43Z"/><path class="cls-1" d="M188.53,37.74h-9l-11.5-13v13h-7.59V9H168V21.35L179.21,9h8.88L175.37,22.65Z"/><path class="cls-1" d="M208.64,9h7.42V37.74h-7.42V26.12H197V37.74h-7.43V9H197V20.18h11.63Z"/><path class="cls-1" d="M243.8,37.74l-2.55-5.93H228.5L226,37.74h-7.58L231.81,9h6l13.48,28.74ZM231,26.12h7.83L234.88,17Zm5.49-19.58h-3.39V5.61a1.28,1.28,0,0,1,.48-1.09,7.26,7.26,0,0,1,1.34-.73c.56-.18.84-.37.84-.56,0-.43-.41-.65-1.25-.65a7.41,7.41,0,0,0-2.22.41L231.36.73A10.92,10.92,0,0,1,235.48,0a6,6,0,0,1,3.21.77,2.16,2.16,0,0,1,1.23,1.81,1.52,1.52,0,0,1-.54,1.23,6.08,6.08,0,0,1-1.48.87,6.17,6.17,0,0,0-1.11.63.79.79,0,0,0-.34.66Z"/><path class="cls-1" d="M258.81,36.31a12.17,12.17,0,0,1-5-5.15A16.62,16.62,0,0,1,252,23.33a16.2,16.2,0,0,1,1.78-7.79,12.34,12.34,0,0,1,5-5.1,17.16,17.16,0,0,1,15.3,0,12.09,12.09,0,0,1,5,5.1,16.67,16.67,0,0,1,1.73,7.79,16.86,16.86,0,0,1-1.73,7.83,12.1,12.1,0,0,1-5,5.15,15.51,15.51,0,0,1-7.65,1.8A15.67,15.67,0,0,1,258.81,36.31ZM271.55,30c1.22-1.53,1.84-3.76,1.84-6.7s-.62-5.12-1.84-6.64a6.76,6.76,0,0,0-10.11,0q-1.81,2.26-1.82,6.66t1.82,6.72a6.72,6.72,0,0,0,10.11,0Z"/><path class="cls-1" d="M302.33,37.26A15.45,15.45,0,0,1,297.2,35l2.38-5.37a17.8,17.8,0,0,0,4.46,2,16.56,16.56,0,0,0,4.75.7,8.35,8.35,0,0,0,3.71-.66,2,2,0,0,0,.12-3.67,15.72,15.72,0,0,0-4.4-1.4,23.84,23.84,0,0,1-6.34-2,7.4,7.4,0,0,1-3.16-2.8,7.84,7.84,0,0,1-.91-3.92,8,8,0,0,1,1.49-4.74,9.88,9.88,0,0,1,4.2-3.31,15.24,15.24,0,0,1,6.18-1.19,21,21,0,0,1,6,.87,12.48,12.48,0,0,1,4.58,2.28L318,17.16a15.43,15.43,0,0,0-4-2,13.08,13.08,0,0,0-4.19-.71,6.07,6.07,0,0,0-3.31.79,2.39,2.39,0,0,0-1.26,2.12,1.71,1.71,0,0,0,.45,1.21,4.51,4.51,0,0,0,1.65.95,26.62,26.62,0,0,0,3.64,1,24.34,24.34,0,0,1,6.15,2,7.74,7.74,0,0,1,3.17,2.79,7.44,7.44,0,0,1,.93,3.81,7.77,7.77,0,0,1-3.27,6.61q-3.27,2.4-9.2,2.4A24.63,24.63,0,0,1,302.33,37.26Z"/><path class="cls-1" d="M347.5,37.74,345,31.81H332.2l-2.54,5.93h-7.59L335.51,9h6L355,37.74ZM334.66,26.12h7.83L338.58,17Zm6-19.58h-4.4l4.2-6.38H347Z"/><path class="cls-1" d="M360,37.74V15.14h-8.55V9H376.2v6.14h-8.56v22.6Z"/><path class="cls-1" d="M398.73,37.74V15.14h-8.56V9H415v6.14H406.4v22.6Z"/><path class="cls-1" d="M443.65,37.74h-8l-3.71-9.56q-.65-1.62-3-1.62h-2.75V37.74h-7.46V9H432q5.21,0,7.83,2.24a8,8,0,0,1,2.62,6.4,8.26,8.26,0,0,1-1.55,5,8.37,8.37,0,0,1-4.38,3,4.58,4.58,0,0,1,2.18,1.13,6,6,0,0,1,1.53,2.39Zm-9.32-17.58a2.6,2.6,0,0,0,1.09-2.32,2.68,2.68,0,0,0-1.07-2.38,6.52,6.52,0,0,0-3.53-.73h-4.77v6.18h4.77A6.36,6.36,0,0,0,434.33,20.16Z"/><path class="cls-1" d="M448.13,37.74V9h20.51v5.81H455.52v5.41h12.27V26H455.52v5.89h13.12v5.81Zm8.64-31.2h-5.29L457.1.16h4l5.61,6.38h-5.29l-2.3-3.15Z"/><path class="cls-1" d="M491.73,9h7.15V37.74h-5.62l-13-16.3v16.3h-7.07V9h5.53l13,16.23Z"/><path class="cls-1" d="M535.59,25.47a7.23,7.23,0,0,1,1.35,4.44,7.12,7.12,0,0,1-1.35,4.34,8.47,8.47,0,0,1-3.9,2.83,16.26,16.26,0,0,1-5.93,1,20.92,20.92,0,0,1-5.87-.83A12.56,12.56,0,0,1,515.34,35l2.39-5.37a13.4,13.4,0,0,0,7.67,2.58,6.25,6.25,0,0,0,3.43-.7,2.74,2.74,0,0,0,1-2.41,2.61,2.61,0,0,0-1-2.3,6,6,0,0,0-3.29-.68h-4.48V20.3h3.71a6.31,6.31,0,0,0,3.25-.62,2.24,2.24,0,0,0,1-2,2.92,2.92,0,0,0-.95-2.34,3.93,3.93,0,0,0-2.64-.81,11,11,0,0,0-3.66.67,14.06,14.06,0,0,0-3.65,1.92l-2.38-5.37a13.45,13.45,0,0,1,4.54-2.22A19.34,19.34,0,0,1,526,8.64a13.66,13.66,0,0,1,5.37,1,8.07,8.07,0,0,1,3.57,2.76,7,7,0,0,1,1.27,4.18A6.4,6.4,0,0,1,535,20.47a6.92,6.92,0,0,1-3.31,2.46A7.07,7.07,0,0,1,535.59,25.47Z"/><path class="cls-1" d="M543.3,34.31q-2.85-3.8-2.85-11t2.85-10.84a10.75,10.75,0,0,1,16.35,0q2.83,3.78,2.84,10.84t-2.84,11a10.69,10.69,0,0,1-16.35,0Zm11-4a20.64,20.64,0,0,0,.85-7,19.87,19.87,0,0,0-.85-6.82,2.9,2.9,0,0,0-5.57,0,19.62,19.62,0,0,0-.85,6.82,20.38,20.38,0,0,0,.85,7,2.89,2.89,0,0,0,5.57,0Z"/><path class="cls-1" d="M573.59,30.24V35a11.66,11.66,0,0,1-.94,4.76,14.46,14.46,0,0,1-3.25,4.36l-2.71-2.18a9.53,9.53,0,0,0,2.71-4.16H566v-7.5Z"/><path class="cls-1" d="M580,34.31q-2.85-3.8-2.84-11T580,12.49a10.75,10.75,0,0,1,16.35,0q2.85,3.78,2.85,10.84t-2.85,11a10.69,10.69,0,0,1-16.35,0Zm11-4a20.38,20.38,0,0,0,.85-7,19.62,19.62,0,0,0-.85-6.82,2.9,2.9,0,0,0-5.57,0,19.87,19.87,0,0,0-.85,6.82,20.64,20.64,0,0,0,.85,7,2.89,2.89,0,0,0,5.57,0Z"/><path class="cls-1" d="M604.82,34.31q-2.85-3.8-2.85-11t2.85-10.84a10.75,10.75,0,0,1,16.35,0Q624,16.27,624,23.33t-2.84,11a10.69,10.69,0,0,1-16.35,0Zm11-4a20.69,20.69,0,0,0,.84-7,19.92,19.92,0,0,0-.84-6.82,2.9,2.9,0,0,0-5.57,0,19.62,19.62,0,0,0-.85,6.82,20.38,20.38,0,0,0,.85,7,2.89,2.89,0,0,0,5.57,0Z"/><path class="cls-1" d="M629.68,34.31q-2.83-3.8-2.84-11t2.84-10.84a10.75,10.75,0,0,1,16.35,0q2.85,3.78,2.85,10.84t-2.85,11a10.69,10.69,0,0,1-16.35,0Zm11-4a20.38,20.38,0,0,0,.85-7,19.62,19.62,0,0,0-.85-6.82,2.9,2.9,0,0,0-5.57,0,19.87,19.87,0,0,0-.85,6.82,20.64,20.64,0,0,0,.85,7,2.89,2.89,0,0,0,5.57,0Z"/><path class="cls-1" d="M693.64,37.74h-9l-11.5-13v13h-7.59V9h7.59V21.35L684.32,9h8.88L680.49,22.65Z"/><path class="cls-1" d="M713.75,9h7.43V37.74h-7.43V26.12H702.12V37.74h-7.43V9h7.43V20.18h11.63Z"/><path class="cls-1" d="M748.91,37.74l-2.55-5.93H733.61l-2.54,5.93h-7.59L736.92,9h6l13.49,28.74ZM736.07,26.12h7.83L740,17Zm6-19.58h-4.4L741.88.16h6.54Z"/><path class="cls-1" d="M764.07,36.27a12.58,12.58,0,0,1-5.13-5.19,16.1,16.1,0,0,1-1.8-7.75,15.94,15.94,0,0,1,1.8-7.69,12.62,12.62,0,0,1,5.13-5.16,15.85,15.85,0,0,1,7.81-1.84,17.72,17.72,0,0,1,5.47.85,11.51,11.51,0,0,1,4.26,2.3l-2.31,5.37A12.2,12.2,0,0,0,772,14.61a6.6,6.6,0,0,0-5.33,2.2q-1.86,2.21-1.86,6.52t1.86,6.58A6.55,6.55,0,0,0,772,32.13a12.26,12.26,0,0,0,7.26-2.54L781.61,35a11.65,11.65,0,0,1-4.26,2.3,18,18,0,0,1-5.47.85A15.85,15.85,0,0,1,764.07,36.27Z"/><path class="cls-1" d="M805.26,9h7.43V37.74h-7.43V26.12H793.63V37.74h-7.42V9h7.42V20.18h11.63Z"/><path class="cls-1" d="M849.91,9h7.42V37.74h-7.42V26.12H838.28V37.74h-7.43V9h7.43V20.18h11.63Z"/><path class="cls-1" d="M885.07,37.74l-2.55-5.93H869.77l-2.55,5.93h-7.59L873.08,9h6l13.48,28.74ZM873.84,6.54,867.51.16h6.54l4.19,6.38Zm-1.61,19.58h7.83L876.14,17Z"/><path class="cls-1" d="M913.4,9h7.15V37.74h-5.61l-13-16.3v16.3h-7.07V9h5.53l13,16.23Z"/><path class="cls-1" d="M951.91,21.52V35.93a22.94,22.94,0,0,1-5.14,1.61,29.66,29.66,0,0,1-5.84.57,17.47,17.47,0,0,1-8.13-1.78,12.47,12.47,0,0,1-5.31-5.11,15.93,15.93,0,0,1-1.86-7.89,15.67,15.67,0,0,1,1.86-7.77,12.64,12.64,0,0,1,5.25-5.12,16.63,16.63,0,0,1,7.91-1.8,20.76,20.76,0,0,1,5.87.81A12.44,12.44,0,0,1,951,11.67L948.64,17a15.44,15.44,0,0,0-3.81-1.88,13,13,0,0,0-3.94-.59c-2.55,0-4.46.72-5.71,2.16s-1.88,3.64-1.88,6.6.66,5.34,2,6.82,3.32,2.23,6,2.23a18.1,18.1,0,0,0,3.79-.41V26.64h-5V21.52Z"/></g></g></svg>