<svg xmlns="http://www.w3.org/2000/svg" viewBox="0 0 49.03889 42.02281"><defs><style>.cls-1{fill:#2e46b9;}</style></defs><title>16Asset 81</title><g id="Layer_2" data-name="Layer 2"><g id="Layer_1-2" data-name="Layer 1"><path class="cls-1" d="M49.03889,17.50363c0-1.89777-1.16158-3.7201-3.36289-5.28495l-.88893-3.67315a.81307.81307,0,0,0-1.4583-.27211L41.9765,10.22269c-.16705-.06992-.33465-.13638-.50268-.20261a8.006,8.006,0,0,0-10.27991-3.071,8.19549,8.19549,0,0,0-.70107-2.19264L29.4944,2.69241a.81285.81285,0,0,0-1.08579-.3779L26.34313,3.313l-.047.02374a8.31052,8.31052,0,0,0-2.40859-2.08846L21.89822.10788a.81288.81288,0,0,0-1.10954.30061l-1.142,1.98993a8.21694,8.21694,0,0,0-.96731,2.67028,6.31986,6.31986,0,0,0-3.592,2.5739A8.032,8.032,0,0,0,8.7181,7.08225a.81581.81581,0,0,0-.1469.06594,8.03378,8.03378,0,0,0-2.98159,1.849l.01335.0131a7.983,7.983,0,0,0-1.854,2.8832A6.63535,6.63535,0,0,0,1.27,14.15457c-.01116.01262-.02261.02484-.03311.0383A5.34279,5.34279,0,0,0,.00023,17.4994L0,17.50341A24.51872,24.51872,0,0,0,40.94927,35.70312a.80443.80443,0,0,0,.07946-.05971A17.90317,17.90317,0,0,0,44.001,32.39248,24.58861,24.58861,0,0,0,49.03836,17.533C49.03824,17.523,49.03889,17.51338,49.03889,17.50363Zm-6.1278-5.77734.02254-.03056.699-1.00754,2.35384,9.72606-.0025.00239-.59507-.75326a.81194.81194,0,0,0-.12783-.22419l-2.61073-3.23707c-.01178-.01755-.02363-.03509-.037-.052l-1.47552-1.86742Zm-2.37779,4.414a.81459.81459,0,0,0,.0944.1475L42.6578,18.805a.81533.81533,0,0,0,.08427.13117L44.737,21.46124a24.36543,24.36543,0,0,1-8.19708,3.35867l1.98883-11.21666ZM31.30058,8.7399A6.33437,6.33437,0,0,1,34.634,7.799a6.40288,6.40288,0,0,1,6.03512,4.30679l-.585.84341-1.40191-1.7743a.81033.81033,0,0,0-1.3281.07816l-.00162-.00108-4.83474,7.83576a3.13439,3.13439,0,0,0-1.6687-.59309,3.16022,3.16022,0,0,0,.03664-1.02261.813.813,0,0,0-1.6131.2049,1.51732,1.51732,0,1,1-.93392-1.21352.81307.81307,0,0,0,.61109-1.507,3.16469,3.16469,0,0,0-.66963-.189A8.32142,8.32142,0,0,0,31.30058,8.7399ZM25.53225,26.13814c-.33693.00575-.67527.00878-1.01285.00878-.16706,0-.33151-.00086-.49434-.00216V24.79562a3.11475,3.11475,0,0,0,1.54318.51516A3.1267,3.1267,0,0,0,25.53225,26.13814Zm-6.87333-7.73321c2.32012,0,3.74.87733,3.74,1.35508a.70316.70316,0,0,1-.30419.448c-.015.01007-.0302.01979-.04474.031a4.75627,4.75627,0,0,1-2.00657.78076.81675.81675,0,0,0-.15586.00753,8.454,8.454,0,0,1-1.22879.0878c-2.32013,0-3.74-.87733-3.74-1.35508S16.33879,18.40493,18.65892,18.40493Zm-.5634-3.89735a1.48182,1.48182,0,0,1,.53455-.345,1.51722,1.51722,0,0,1,1.61125,2.49163,1.53981,1.53981,0,0,1-.262.20879,10.22353,10.22353,0,0,0-1.3205-.08423c-.13822,0-.27427.00347-.40913.00868a1.50964,1.50964,0,0,1-.15416-2.27992Zm.56329,8.23363c.14069,0,.2807-.00356.42018-.00917a.8141.8141,0,0,0,.14961.01425l.02441-.00037a8.05233,8.05233,0,0,0,3.14583-.80573v4.16662a52.78687,52.78687,0,0,1-7.48008-.78368v-3.3875A8.13592,8.13592,0,0,0,18.65881,22.74121ZM22.054,17.41745a1.51414,1.51414,0,0,1,1.88781,1.79835A3.16747,3.16747,0,0,0,22.054,17.41745Zm1.34349-1.77051a1.51775,1.51775,0,1,1,2.14636,0A1.51955,1.51955,0,0,1,23.39749,15.64694Zm1.29,7.59966a1.51744,1.51744,0,1,1,1.07312.44458A1.508,1.508,0,0,1,24.68754,23.2466ZM27.59067,24.786a1.51855,1.51855,0,0,1,2.59223,1.08418c-.70323.06971-1.41005.12651-2.10938.16879-.29421.01821-.59657.034-.91029.04813A1.51362,1.51362,0,0,1,27.59067,24.786Zm2.0063-2.08142a1.51741,1.51741,0,1,1,1.07312.44459A1.508,1.508,0,0,1,29.597,22.70456Zm3.29611,1.14977a3.149,3.149,0,0,0,.69283-3.40148l2.91431-4.7233L34.822,25.19435c-.97362.19144-1.9857.355-3.02272.49032a3.18521,3.18521,0,0,0-.2385-1.03734A3.12553,3.12553,0,0,0,32.89308,23.85433ZM27.05114,4.777l1.33329-.6447.64438,1.33222A6.68255,6.68255,0,0,1,27.38666,13.396a3.138,3.138,0,0,0-.69306-1.04515l-.03479-.03317a6.3733,6.3733,0,0,0-1.89843-5.71728A6.64092,6.64092,0,0,1,27.05114,4.777ZM21.05741,3.20713l.73707-1.2843,1.28419.7362a6.58241,6.58241,0,0,1,1.827,1.54056,8.23755,8.23755,0,0,0-1.45656,1.438,6.34,6.34,0,0,0-3.05978-.79343A6.633,6.633,0,0,1,21.05741,3.20713ZM20.37055,6.47a4.76179,4.76179,0,0,1,4.75581,4.75691c0,.09106-.00346.18168-.00856.27209a3.13848,3.13848,0,0,0-3.59889,1.99523c-.0412-.04628-.08348-.092-.12793-.13648a3.14861,3.14861,0,0,0-2.441-.91246,7.97293,7.97293,0,0,0-2.51915-3.88531A4.72168,4.72168,0,0,1,20.37055,6.47ZM11.25917,8.29651a6.373,6.373,0,0,1,6.15219,4.67777,3.13639,3.13639,0,0,0-1.08526,1.26435,4.28842,4.28842,0,0,0-4.096,1.20266.813.813,0,1,0,1.14976,1.14977,2.74023,2.74023,0,0,1,2.65781-.7518,3.1409,3.1409,0,0,0,.34658,1.20169c-1.85776.45835-3.091,1.47639-3.09133,2.71852v.96645a6.303,6.303,0,0,1-1.6351.31979,4.18054,4.18054,0,0,0-5.662-2.7609A6.37875,6.37875,0,0,1,7.20018,9.7534a.81343.81343,0,0,0,.09665-.09551,7.23746,7.23746,0,0,1,2.73549-1.24l-.00049-.00278A6.41931,6.41931,0,0,1,11.25917,8.29651Zm2.0337,14.12782v2.57684h-.0001q-1.13079-.24765-2.18852-.54475a4.21277,4.21277,0,0,0,.66583-1.78881A7.93694,7.93694,0,0,0,13.29287,22.42433Zm-3.11464-.282a2.535,2.535,0,0,1-.73988,1.80043,21.74695,21.74695,0,0,1-4.37443-1.98015,2.56058,2.56058,0,0,1,5.10629-.0294C10.17564,21.99808,10.17823,22.06648,10.17823,22.14236ZM2.08889,15.83924a.813.813,0,0,0,.09082-.1188,9.48226,9.48226,0,0,1,1.08181-1.4417c-.00656.13274-.01038.26595-.01038.3997a8.00724,8.00724,0,0,0,1.39649,4.5147A4.1679,4.1679,0,0,0,3.6117,20.92788a4.74557,4.74557,0,0,1-1.98548-3.42425A3.406,3.406,0,0,1,2.08889,15.83924ZM42.76,31.33848a.81751.81751,0,0,0-.06913.08615l-.0162.02324c-.10322.134-.206.26824-.31247.40049a.812.812,0,0,0-.10292.16679,16.00333,16.00333,0,0,1-1.1322,1.30051.81271.81271,0,0,0-.19509.148,22.71473,22.71473,0,0,1-16.41249,6.93306A22.93064,22.93064,0,0,1,2.00673,21.66656a11.96373,11.96373,0,0,0,1.8028,1.42707A23.17934,23.17934,0,0,0,9.3694,25.633a39.76141,39.76141,0,0,0,4.58052,1.1657,54.45709,54.45709,0,0,0,9.24408.96027c.42106.00943.86705.01431,1.32572.01431.7002,0,1.40387-.01215,2.09183-.0361l.00888-.00021c.55417-.01974,1.06249-.04424,1.55282-.0747.92277-.05572,1.85973-.13561,2.78509-.23752,1.64181-.18136,3.23475-.43276,4.73468-.74737,4.679-.98031,8.38311-2.51786,10.71245-4.44631.22657-.18776.438-.37909.6357-.572A22.56919,22.56919,0,0,1,42.76,31.33848Zm4.457-12.75284-.87268-3.60584a3.93386,3.93386,0,0,1,1.06847,2.52383A3.17954,3.17954,0,0,1,47.217,18.58564Z"/></g></g></svg>