<svg xmlns="http://www.w3.org/2000/svg" viewBox="0 0 69.57 69.57"><defs><style>.cls-1{fill:none;stroke:#8b5e3c;stroke-miterlimit:10;stroke-width:2px;}.cls-2{fill:#8b5e3c;}</style></defs><title>24Asset 8</title><g id="Layer_2" data-name="Layer 2"><g id="Layer_1-2" data-name="Layer 1"><circle class="cls-1" cx="34.79" cy="34.79" r="33.79"/><g id="surface1"><path class="cls-2" d="M12.51,39.55a1.8,1.8,0,0,0-.9,2.25A7.37,7.37,0,0,0,15.7,46a7.31,7.31,0,0,0,.05,7.07,1.81,1.81,0,0,0,2.17.82l.55-.18a.37.37,0,0,1,.46.23.33.33,0,0,1,0,.17l-.06.4a1.82,1.82,0,0,0,1.27,2.06,7.37,7.37,0,0,0,7.18-1.82,7.34,7.34,0,0,0,7.54,1.7A1.81,1.81,0,0,0,36,54.23a.37.37,0,0,1,.25-.45.33.33,0,0,1,.22,0l.27.09a1.8,1.8,0,0,0,2.2-.82,7.31,7.31,0,0,0,0-7,7.39,7.39,0,0,0,4.1-4.23,1.82,1.82,0,0,0-.92-2.26.36.36,0,0,1-.16-.48.31.31,0,0,1,.16-.16h0a1.81,1.81,0,0,0,.9-2.27,6.81,6.81,0,0,0-.6-1.21,5.23,5.23,0,0,0,1.68-1,5.29,5.29,0,0,0,5.24,1.09,1.48,1.48,0,0,0,1-1.79s0-.06,0-.07l.18.06A1.49,1.49,0,0,0,52.32,33a5.27,5.27,0,0,0,.11-4.84,5.29,5.29,0,0,0,2.72-2.9,1.55,1.55,0,0,0-.74-1.9,1.49,1.49,0,0,0,.74-1.86,5.35,5.35,0,0,0-5.78-3.34A5.31,5.31,0,0,0,46,13.89a1.54,1.54,0,0,0-1.9.74,1.49,1.49,0,0,0-1.87-.74,5.31,5.31,0,0,0-3.36,4.28,5.35,5.35,0,0,0-5.78,3.34,1.55,1.55,0,0,0,.74,1.9,1.48,1.48,0,0,0-.74,1.86,5.3,5.3,0,0,0,2.72,2.9,5.23,5.23,0,0,0-.33,3.73,5.79,5.79,0,0,0-.82.12,7.41,7.41,0,0,0-4.75-6.31,1.82,1.82,0,0,0-2.27.91.32.32,0,0,1-.32.2.35.35,0,0,1-.33-.2,1.81,1.81,0,0,0-2.26-.91A7.41,7.41,0,0,0,20,32a6.8,6.8,0,0,0-1.49-.16,7.39,7.39,0,0,0-6.89,4.76,1.83,1.83,0,0,0,.91,2.28.32.32,0,0,1,.2.32A.36.36,0,0,1,12.51,39.55Zm22-14.83a1.49,1.49,0,0,0,.82-1.33A1.53,1.53,0,0,0,34.48,22a3.86,3.86,0,0,1,4.85-2.24.74.74,0,0,0,1-.44.92.92,0,0,0,0-.29v-.23a3.77,3.77,0,0,1,2.48-3.55,1.48,1.48,0,0,0,1.33.82,1.51,1.51,0,0,0,1.36-.84A3.86,3.86,0,0,1,48,18.83c0,.05,0,.09,0,.14v.09a.74.74,0,0,0,.69.77.63.63,0,0,0,.3,0,3.82,3.82,0,0,1,4.83,2.26,1.5,1.5,0,0,0-.82,1.34,1.51,1.51,0,0,0,.84,1.35,3.81,3.81,0,0,1-2.62,2.33.73.73,0,0,0-.52.9.58.58,0,0,0,.12.25,3.8,3.8,0,0,1,.74,2.26A3.62,3.62,0,0,1,51,32.3l-.18-.06A1.49,1.49,0,0,0,48.88,34s0,.06,0,.08a3.81,3.81,0,0,1-4.19-1.23.74.74,0,0,0-1-.1l-.11.1a3.7,3.7,0,0,1-2,1.29,7.39,7.39,0,0,0-4.45-2.24,3.76,3.76,0,0,1,.46-3.7.74.74,0,0,0-.16-1,1.15,1.15,0,0,0-.25-.12A3.7,3.7,0,0,1,34.5,24.72ZM13.17,37.57a.35.35,0,0,1-.18-.43,5.86,5.86,0,0,1,7.49-3.46.73.73,0,0,0,.94-.44,1,1,0,0,0,0-.29v-.11c0-.09,0-.17,0-.25a5.93,5.93,0,0,1,3.81-5.51.37.37,0,0,1,.44.2,1.83,1.83,0,0,0,2.46.82,1.78,1.78,0,0,0,.82-.83.37.37,0,0,1,.43-.19,5.92,5.92,0,0,1,3.82,5.51c0,.08,0,.16,0,.24v.11a.74.74,0,0,0,.69.78.92.92,0,0,0,.29,0,5.86,5.86,0,0,1,7.49,3.46.34.34,0,0,1-.19.43h0a1.83,1.83,0,0,0,0,3.28.36.36,0,0,1,.18.42,5.86,5.86,0,0,1-4,3.63.74.74,0,0,0-.53.9.64.64,0,0,0,.12.25,5.85,5.85,0,0,1,.4,6.29.35.35,0,0,1-.42.14L37,52.4a1.83,1.83,0,0,0-2.34,1.12,1.78,1.78,0,0,0,0,1.14.36.36,0,0,1-.2.43,5.87,5.87,0,0,1-6.49-1.87.72.72,0,0,0-1-.11.57.57,0,0,0-.11.11,5.87,5.87,0,0,1-6.2,2,.34.34,0,0,1-.23-.4l.06-.39a1.82,1.82,0,0,0-1.5-2.11,1.87,1.87,0,0,0-.88.06l-.55.19a.38.38,0,0,1-.43-.15,5.85,5.85,0,0,1,.39-6.32.74.74,0,0,0-.16-1,1.15,1.15,0,0,0-.25-.12,5.89,5.89,0,0,1-4-3.63.35.35,0,0,1,.2-.42,1.84,1.84,0,0,0,0-3.29Z"/><path class="cls-2" d="M35.43,40.69H36.9v1.47H35.43Z"/><path class="cls-2" d="M26.59,31.86h1.48v1.47H26.59Z"/><path class="cls-2" d="M17.76,40.69h1.47v1.47H17.76Z"/><path class="cls-2" d="M26.59,49.52h1.48V51H26.59Z"/><path class="cls-2" d="M25.34,40.48a1.8,1.8,0,0,0-.08.21H20.7v1.47h4.56a1.8,1.8,0,0,0,.08.21l-3.22,3.22,1,1,3.22-3.22a1.89,1.89,0,0,0,.21.09v4.55h1.48V43.5l.2-.09,3.22,3.22,1-1-3.21-3.22a1.8,1.8,0,0,0,.08-.21H34V40.69H29.4a1.8,1.8,0,0,0-.08-.21l3.21-3.22-1-1-3.22,3.22-.2-.09V34.8H26.59v4.55l-.21.09-3.22-3.22-1,1Zm1.25,1a.74.74,0,1,1,.74.73A.74.74,0,0,1,26.59,41.43Z"/><path class="cls-2" d="M32.53,35.18l1-1,1,1-1,1Z"/><path class="cls-2" d="M20,35.18l1-1,1,1-1,1Z"/><path class="cls-2" d="M20,47.67l1-1,1,1-1,1Z"/><path class="cls-2" d="M32.53,47.67l1-1,1,1-1,1Z"/><path class="cls-2" d="M48.62,24.5h.79V26h-.79Z"/><path class="cls-2" d="M43.52,20.08H45v.79H43.52Z"/><path class="cls-2" d="M39.11,24.5h.79V26h-.79Z"/><path class="cls-2" d="M43.52,29.59H45v.79H43.52Z"/><path class="cls-2" d="M42.48,24.5H40.69V26h1.79l-1.26,1.26,1,1L43.52,27V28.8H45V27l1.26,1.26,1-1L46,26h1.79V24.5H46l1.26-1.27-1-1L45,23.46v-1.8H43.52v1.8l-1.26-1.27-1,1Zm1,.4.46-.46h.66l.46.46v.66l-.46.46h-.66l-.46-.46Z"/><path class="cls-2" d="M46.82,21.63l.56-.56,1,1-.57.56Z"/><path class="cls-2" d="M40.09,22.11l1-1,.56.56-1,1Z"/><path class="cls-2" d="M40.1,28.35l.56-.56,1,1.05-.56.56Z"/><path class="cls-2" d="M46.82,28.84l1-1,.56.56-1,1Z"/></g></g></g></svg>