<svg xmlns="http://www.w3.org/2000/svg" viewBox="0 0 68.86 68.86"><defs><style>.cls-1{fill:#8b5e3c;}.cls-2{fill:none;stroke:#8b5e3c;stroke-miterlimit:10;}</style></defs><title>24Asset 6</title><g id="Layer_2" data-name="Layer 2"><g id="Layer_1-2" data-name="Layer 1"><path class="cls-1" d="M57.33,21.5c-2.72-3.26-6.6-4.18-10.22-1.37A7,7,0,0,0,45.74,17l-2,1.47A4.86,4.86,0,0,1,44,23.89c-4.56-2.35-15.71-3.74-20.88,10-2.09,5.54-6.11,7.18-7,9.56C13.7,49.6,27.86,58.31,41.25,49.71,53.27,42,51.68,30,46.05,25.26A8.22,8.22,0,0,0,46.63,24c3.95,3.46,8.09,2.47,11.33-1.78ZM46.88,30.43C52.78,44,31.54,57,20.13,47.79,19,46.85,18,45.42,18.39,44.33c.54-1.41,4.79-3.66,7-9.58,2.47-6.54,6.16-9.67,11.62-9.85C41.31,24.76,45.16,26.48,46.88,30.43Zm1.5-8.14c2.18-1.86,4.14-1.77,6.25,0C52.48,24.18,50.42,24,48.38,22.29Z"/><circle class="cls-2" cx="34.43" cy="34.43" r="33.93"/></g></g></svg>