<svg xmlns="http://www.w3.org/2000/svg" viewBox="0 0 48.82028 48.08821"><defs><style>.cls-1{fill:#2e46b9;}</style></defs><title>16Asset 91</title><g id="Layer_2" data-name="Layer 2"><g id="Layer_1-2" data-name="Layer 1"><path class="cls-1" d="M36.25019,11.93043a.3953.3953,0,1,0,.39541.3953A.39535.39535,0,0,0,36.25019,11.93043Z"/><path class="cls-1" d="M17.67062,30.016a.8213.8213,0,1,0,.82155.82129A.82141.82141,0,0,0,17.67062,30.016Z"/><path class="cls-1" d="M48.71164,8.61115a5.96616,5.96616,0,0,0-6.4413-3.72963A5.94431,5.94431,0,0,0,38.51322.109a1.72549,1.72549,0,0,0-2.12008.82163A1.65718,1.65718,0,0,0,34.31356.109a5.94138,5.94138,0,0,0-3.75679,4.77253,5.96512,5.96512,0,0,0-6.44064,3.73063,1.72456,1.72456,0,0,0,.82131,2.12,1.65369,1.65369,0,0,0-.82131,2.07634A5.90341,5.90341,0,0,0,27.146,16.05a5.78177,5.78177,0,0,0-.36551,4.15271,8.17541,8.17541,0,0,0-.92059.13589,8.26136,8.26136,0,0,0-5.29423-7.03975,2.03535,2.03535,0,0,0-2.53478,1.02185.39136.39136,0,0,1-.35972.22252.39724.39724,0,0,1-.36452-.23121,2.03219,2.03219,0,0,0-2.52991-1.01316,8.25993,8.25993,0,0,0-5.29389,7.03975,8.04292,8.04292,0,0,0-1.66918-.17953,8.25186,8.25186,0,0,0-7.685,5.31882,2.03258,2.03258,0,0,0,1.02153,2.53569.39163.39163,0,0,1,.22217.35973.397.397,0,0,1-.23417.36518A2.02482,2.02482,0,0,0,.12481,31.25775a8.22058,8.22058,0,0,0,4.57262,4.714,8.16818,8.16818,0,0,0,.05267,7.89368,2.03263,2.03263,0,0,0,2.42382.91934L7.78753,44.58a.4028.4028,0,0,1,.52435.44766l-.07345.44129a2.03392,2.03392,0,0,0,1.42431,2.29985,8.1867,8.1867,0,0,0,8.00788-2.034,8.20276,8.20276,0,0,0,8.41993,1.90493,2.02842,2.02842,0,0,0,1.2486-2.51565.40254.40254,0,0,1,.5192-.493l.298.10517a2.02412,2.02412,0,0,0,2.46447-.91578,8.17221,8.17221,0,0,0,.02716-7.84872,8.22058,8.22058,0,0,0,4.57262-4.714,2.02828,2.02828,0,0,0-1.026-2.525.40241.40241,0,0,1,0-.71935l.00969-.00489a2.02912,2.02912,0,0,0,1.01209-2.53089,8.073,8.073,0,0,0-.66794-1.35691A5.8522,5.8522,0,0,0,36.4165,23.0002a5.89361,5.89361,0,0,0,5.85127,1.20942,1.64348,1.64348,0,0,0,1.06162-1.9913c0-.01715.0188-.06823.01291-.08214l.197.06988a1.65927,1.65927,0,0,0,2.01424-.76209,5.87742,5.87742,0,0,0,.13233-5.39491,5.91358,5.91358,0,0,0,3.03-3.24148,1.725,1.725,0,0,0-.8213-2.11585A1.66271,1.66271,0,0,0,48.71164,8.61115ZM32.542,29.28557a2.04789,2.04789,0,0,0,.92572.92025.39622.39622,0,0,1,.21025.47292,6.576,6.576,0,0,1-4.49363,4.05019.82128.82128,0,0,0-.45677,1.27907,6.52952,6.52952,0,0,1,.45089,7.0164.39361.39361,0,0,1-.47581.15982l-.29787-.10483a2.0463,2.0463,0,0,0-2.636,2.525.39118.39118,0,0,1-.21381.47972,6.561,6.561,0,0,1-7.24553-2.08861.821.821,0,0,0-1.278,0,6.54221,6.54221,0,0,1-5.11055,2.44833,6.46066,6.46066,0,0,1-1.80242-.25554.39519.39519,0,0,1-.26035-.44867l.074-.44119a2.04593,2.04593,0,0,0-2.66438-2.2766l-.61394.20446a.39878.39878,0,0,1-.471-.164A6.5283,6.5283,0,0,1,6.614,36.00958a.82183.82183,0,0,0-.45678-1.279,6.57037,6.57037,0,0,1-4.49395-4.05084.40072.40072,0,0,1,.22192-.47814A2.04652,2.04652,0,0,0,1.87605,26.538v.001a.39651.39651,0,0,1-.21025-.48229A6.54663,6.54663,0,0,1,10.02437,22.196a.82108.82108,0,0,0,1.09556-.82129l-.00745-.12041c-.00645-.0954-.01291-.18433-.01291-.27393A6.60173,6.60173,0,0,1,15.3552,14.8325a.40018.40018,0,0,1,.48551.21928,2.046,2.046,0,0,0,3.66429-.01.39692.39692,0,0,1,.481-.20926,6.60229,6.60229,0,0,1,4.25556,6.14791c0,.0896-.00647.17853-.01325.26714l-.0068.12065a.82124.82124,0,0,0,1.09557.82131A6.54568,6.54568,0,0,1,33.67535,26.055a.3957.3957,0,0,1-.20992.48136l-.009.0048A2.045,2.045,0,0,0,32.542,29.28557Zm11.71481-14.4654a.82178.82178,0,0,0-.45512,1.2813A4.22941,4.22941,0,0,1,44.6304,18.62a3.98065,3.98065,0,0,1-.5496,2.03528l-.197-.0689a1.65105,1.65105,0,0,0-1.69693.3613,1.633,1.633,0,0,0-.46737,1.62223c.00414.01813.01.06988.01581.087a4.25384,4.25384,0,0,1-4.68193-1.3618.82122.82122,0,0,0-1.15543-.122.80478.80478,0,0,0-.122.122,4.22982,4.22982,0,0,1-2.29339,1.43815,8.2643,8.2643,0,0,0-4.96209-2.5043,4.17728,4.17728,0,0,1-.32377-1.609,4.22732,4.22732,0,0,1,.82965-2.51756.8209.8209,0,0,0-.456-1.28229,4.18872,4.18872,0,0,1-2.90186-2.62273,1.65367,1.65367,0,0,0,.91992-1.48923,1.71022,1.71022,0,0,0-.93707-1.51615,4.30971,4.30971,0,0,1,5.41653-2.49363.82155.82155,0,0,0,1.09623-.822l-.00489-.08669c-.00413-.05589-.008-.11188-.008-.16852a4.2294,4.2294,0,0,1,2.7731-3.96481,1.65552,1.65552,0,0,0,1.489.92481A1.70961,1.70961,0,0,0,37.929,1.64419a4.28522,4.28522,0,0,1,2.74727,3.9764c0,.05341-.00422.10516-.00811.15758l-.0058.09772a.82188.82188,0,0,0,1.09656.82154A4.27075,4.27075,0,0,1,47.15864,9.2193a1.65636,1.65636,0,0,0-.91992,1.48891,1.69477,1.69477,0,0,0,.93905,1.5106A4.27066,4.27066,0,0,1,44.25676,14.82017Z"/><path class="cls-1" d="M25.21082,30.0407h-.14759V30.016H19.98339a2.17347,2.17347,0,0,0-.09573-.23419l3.59085-3.59117-.027-.02706.11415-.11414a.79663.79663,0,0,0-1.1266-1.1266l-.11411.11412-.00763-.00764L18.7261,28.61953a2.27629,2.27629,0,0,0-.23393-.09514V23.44464h-.025a.79659.79659,0,0,0-1.59318,0h-.02466v5.07975a2.24712,2.24712,0,0,0-.23419.0958l-3.59092-3.59092-.00782.0078-.03147-.03148a.79662.79662,0,0,0-1.12659,1.1266l.0312.0312-.02722.0272,3.59052,3.59117a2.24081,2.24081,0,0,0-.096.23419H10.27793v.02475h-.14762a.79659.79659,0,0,0,0,1.59317h.14762v.02467h5.07951a2.245,2.245,0,0,0,.09638.23418l-3.59151,3.59093.008.008-.09477.09477a.79662.79662,0,0,0,1.1266,1.12659l.09476-.09476.02733.02733L16.61513,33.055a2.18156,2.18156,0,0,0,.23419.09614v5.07884H16.874v.29516a.79659.79659,0,0,0,1.59318,0v-.29516h.025v-5.0795a2.30579,2.30579,0,0,0,.23393-.0964l3.59118,3.59151.02715-.02716.1774.1774a.79662.79662,0,0,0,1.12659-1.1266l-.17772-.17772.00781-.00781-3.58985-3.59093a2.23438,2.23438,0,0,0,.09473-.23418h5.07984v-.02467h.14759a.79659.79659,0,1,0,0-1.59317Zm-7.5402,1.61784a.8213.8213,0,1,1,.82155-.8213A.82136.82136,0,0,1,17.67062,31.65854Z"/><circle class="cls-1" cx="17.67074" cy="21.11477" r="0.82142"/><circle class="cls-1" cx="17.67074" cy="40.8647" r="0.82143"/><circle class="cls-1" cx="10.77772" cy="23.92742" r="0.82143"/><circle class="cls-1" cx="24.69215" cy="37.92226" r="0.82142"/><circle class="cls-1" cx="24.73235" cy="23.96763" r="0.82142"/><circle class="cls-1" cx="10.73752" cy="37.88206" r="0.82142"/><circle class="cls-1" cx="27.50765" cy="30.83724" r="0.82143"/><circle class="cls-1" cx="7.79101" cy="30.83724" r="0.82142" transform="translate(-4.83899 1.64617) rotate(-9.2175)"/><path class="cls-1" d="M39.8793,11.88319H37.45687a.43922.43922,0,0,0-.10693.01448c-.007-.01844-.01434-.03674-.02238-.05474a.43874.43874,0,0,0,.08877-.06692l1.71289-1.71289a.4425.4425,0,0,0-.6258-.62579l-1.71288,1.71289a.4382.4382,0,0,0-.06921.09313l-.03266-.01329c.00122-.01339.004-.0263.004-.04V8.76763a.44255.44255,0,0,0-.8851,0v2.42243c0,.01377.00282.02674.004.04018l-.02189.009a.43835.43835,0,0,0-.04016-.04914L34.03672,9.47718a.4425.4425,0,0,0-.62579.62579l1.71288,1.71288a.43768.43768,0,0,0,.04473.03656l-.01852.04516a.439.439,0,0,0-.10659-.01438H32.621a.44255.44255,0,1,0,0,.88509h2.42243a.43962.43962,0,0,0,.10691-.01449l.01619.03934a.43976.43976,0,0,0-.08257.06366l-1.71288,1.71289a.4425.4425,0,1,0,.62579.62579l1.71288-1.71289a.44094.44094,0,0,0,.06109-.0777c.0233.01036.04672.02041.07071.029a.44075.44075,0,0,0-.03395.16959v2.42244a.44255.44255,0,0,0,.8851,0V13.6035a.4409.4409,0,0,0-.034-.16982q.04374-.01592.08612-.03548a.43845.43845,0,0,0,.08559.12423l1.71288,1.71288a.4425.4425,0,1,0,.62579-.62579l-1.71288-1.71288a.43844.43844,0,0,0-.12838-.08778c.008-.01808.01527-.03649.02227-.055a.43968.43968,0,0,0,.1068.01445H39.8793a.44255.44255,0,1,0,0-.88509Zm-3.62911.83783a.3953.3953,0,1,1,.39541-.39529A.39531.39531,0,0,1,36.25019,12.721Z"/><path class="cls-1" d="M36.25026,8.04164a.39536.39536,0,1,0-.39536-.39535A.39535.39535,0,0,0,36.25026,8.04164Z"/><path class="cls-1" d="M36.25026,16.75661a.39535.39535,0,1,0,.39534.39535A.39535.39535,0,0,0,36.25026,16.75661Z"/><circle class="cls-1" cx="32.93263" cy="9.00002" r="0.39535"/><path class="cls-1" d="M39.62966,15.34041a.39536.39536,0,1,0,.39536.39535A.39535.39535,0,0,0,39.62966,15.34041Z"/><circle class="cls-1" cx="39.64901" cy="9.01937" r="0.39535"/><path class="cls-1" d="M32.91328,15.32106a.39536.39536,0,1,0,.39535.39535A.39535.39535,0,0,0,32.91328,15.32106Z"/><path class="cls-1" d="M40.98477,11.93038a.39535.39535,0,1,0,.39536.39535A.39535.39535,0,0,0,40.98477,11.93038Z"/><path class="cls-1" d="M31.49512,11.93038a.39535.39535,0,1,0,.39536.39535A.39535.39535,0,0,0,31.49512,11.93038Z"/></g></g></svg>