<svg xmlns="http://www.w3.org/2000/svg" viewBox="0 0 79.43069 29.07772"><defs><style>.cls-1{fill:#2e46b9;}</style></defs><title>16Asset 101</title><g id="Layer_2" data-name="Layer 2"><g id="Layer_1-2" data-name="Layer 1"><path class="cls-1" d="M76.69406,14.26416c-1.46125-.91639-3.3319-1.95535-5.26708-2.92525-2.99928-1.50359-8.52746-4.026-11.85408-4.026-1.13545,0-2.19194.02705-3.21368.0532-3.34617.0854-5.98909.15357-7.07862-.90823-.55415-.53989-1.27492-1.40277-2.0382-2.31644-.83589-1.00058-1.70016-2.03532-2.47182-2.79361C44.1989.78583,42.86022-.52912,41.55877.23023c-1.08767.63586-1.10815,2.22046-1.142,4.8457a16.66251,16.66251,0,0,1-.29973,3.739c-1.88384.89311-15.43776,3.3347-17.77739,3.3347a1.97306,1.97306,0,0,1-1.43937-.43953,3.55915,3.55915,0,0,0-2.28394-.76963c-.68664,0-1.21953.43878-2.187,1.23561a10.25269,10.25269,0,0,1-1.62,1.18271H12.48533c-.98962-.30728-4.52785-3.41935-6.43961-5.10083C5.05129,7.3833,4.11193,6.557,3.39286,5.96844c-.97007-.794-1.73614-1.42076-2.62058-1.03837A1.26231,1.26231,0,0,0,0,6.10356c0,.69269.56517,1.75237,2.79232,5.63074,1.2214,2.12706,3.25821,5.67413,3.41273,6.49575a22.48831,22.48831,0,0,1-.65794,2.9567c-.80269,3.079-1.0492,4.18278-.43718,4.94938a1.39319,1.39319,0,0,0,1.09574.52326c.92539,0,1.47163-.72111,2.93148-2.648a37.27191,37.27191,0,0,1,2.65177-3.2419c1.299-1.34957,1.84086-1.365,1.8632-1.365l.50947-.00091c.402-.00121.8334-.00242,1.1775.00862-.07509.17019-.17794.38874-.31912.66927a1.20562,1.20562,0,0,0,.17376,1.33385,1.50178,1.50178,0,0,0,1.66261.304c.24031-.06666.554-.16323.91733-.27509a19.00776,19.00776,0,0,1,3.32522-.83038c.71984,0,2.48221,1.04667,2.48221,2.41831a1.25794,1.25794,0,0,0,.65762,1.09928c.70573.38829,1.3497.19467,3.82787-1.1487.774-.41943,1.519-.8452,1.95893-1.09943,1.25816.21645,4.96239.8449,9.36039,1.50979l-.15359.17488c-.781.89175-1.54145,1.77943-2.141,2.49933-.2611.31332-.47892.57994-.63033.771a1.3856,1.3856,0,0,0-.3759,1.49225,1.24433,1.24433,0,0,0,1.148.74726c1.891,0,4.66437-1.6168,9.0073-4.27982q.2946-.18069.59775-.36622a1.28482,1.28482,0,0,0,.16165.03265,99.70268,99.70268,0,0,0,11.332.98592,53.34873,53.34873,0,0,0,10.149-.93347c3.23477-.67229,5.1332-1.62843,5.75576-2.90591,3.56-.71537,4.94626-3.0764,5.17726-4.426a1.187,1.187,0,0,0,.01691-.19876C79.43053,16.27665,79.05029,15.74175,76.69406,14.26416Zm-4.71014,5.14013a10.82727,10.82727,0,0,1-2.4158-.44406c-2.30442-.58841-5.17245-1.32025-8.20136.64705a1.19017,1.19017,0,0,0-.34425,1.6768,1.26155,1.26155,0,0,0,1.7211.33539c2.10149-1.36484,4.0902-.85729,6.19542-.31982.40088.10247.79338.20223,1.1806.28717a20.30826,20.30826,0,0,1-2.65286.66322,51.553,51.553,0,0,1-9.135.78172,77.73244,77.73244,0,0,1-8.0999-.61168c1.82489-1.02249,3.47927-1.80663,4.37659-1.80663H58.3318a1.20957,1.20957,0,1,0,0-2.41832H54.60849c-2.2602,0-5.86933,2.21306-9.69021,4.556-1.14756.70358-2.40867,1.47683-3.59051,2.14852,1.66044-1.8875,3.7233-4.14711,5.47062-5.8493a1.18712,1.18712,0,0,0,0-1.71,1.26463,1.26463,0,0,0-1.75507,0c-1.238,1.20613-2.5815,2.63641-3.73712,3.90528a1.25138,1.25138,0,0,0-.16336-.03643c-5.99716-.88616-11.08568-1.77655-11.13641-1.78547a1.26844,1.26844,0,0,0-.86163.15492c-1.14554.67441-2.48624,1.41593-3.404,1.87707A5.596,5.596,0,0,0,21.099,18.19529a12.55131,12.55131,0,0,0-3.07732.6413,1.67719,1.67719,0,0,0-.26963-.91109c-.60876-.94828-1.734-.9436-3.59718-.94028l-.5028.00076c-1.83574,0-3.59019,1.83323-5.595,4.39483a15.335,15.335,0,0,0,.63063-3.18568c0-.98078-.93-2.7667-3.72361-7.6319,4.4509,3.89848,6.199,5.21359,7.44692,5.21359h2.4822c.93859,0,1.85219-.69466,3.13875-1.754.25179-.20737.606-.49923.82022-.65082a1.25571,1.25571,0,0,1,.59154.29594,4.41709,4.41709,0,0,0,2.89611.89976,93.40713,93.40713,0,0,0,9.928-1.45719c8.37635-1.5521,9.18043-2.2049,9.483-2.45051,1.03508-.84051,1.11063-2.658,1.148-5.554.00822-.633.01893-1.45794.06329-2.10575.72155.71189,1.69364,1.87541,2.355,2.66725.80439.96295,1.56426,1.87254,2.20823,2.50009,1.84366,1.7962,4.95681,1.71624,8.899,1.61558,1.0056-.02584,2.04564-.05244,3.14836-.05244,1.93581,0,5.61087,1.2551,10.083,3.44322a50.64183,50.64183,0,0,1,7.13,4.09361C76.39945,18.04354,75.25515,19.40429,71.98392,19.40429Z"/><path class="cls-1" d="M62.93937,14.58169a1.21133,1.21133,0,1,0,.85634.35555A1.2215,1.2215,0,0,0,62.93937,14.58169Z"/><path class="cls-1" d="M62.93927,17.39058a1.59784,1.59784,0,0,1-1.13089-2.72735,1.65182,1.65182,0,0,1,2.26177-.00019,1.5977,1.5977,0,0,1-1.13088,2.72754Zm0-2.42076a.823.823,0,0,0-.58212,1.40414.85373.85373,0,0,0,1.16424,0,.82324.82324,0,0,0,0-1.16253A.842.842,0,0,0,62.93927,14.96982Z"/></g></g></svg>