<svg xmlns="http://www.w3.org/2000/svg" viewBox="0 0 48.93 51.42"><defs><style>.cls-1{fill:#2e46b9;}</style></defs><title>24Asset 7</title><g id="Layer_2" data-name="Layer 2"><g id="Layer_1-2" data-name="Layer 1"><path class="cls-1" d="M43.13,29a5.81,5.81,0,0,0-5.81,5.8v5H34.83V17.29A7.42,7.42,0,0,0,32,11.46l-1.34-1.08V8.29h.82a1.66,1.66,0,0,0,1.66-1.66v-5A1.66,1.66,0,0,0,31.51,0H3.32A1.66,1.66,0,0,0,1.66,1.66v5A1.66,1.66,0,0,0,3.32,8.29h.83v2.09L2.8,11.46A7.42,7.42,0,0,0,0,17.29V45.61a5.82,5.82,0,0,0,5.81,5.81H29a5.76,5.76,0,0,0,2.89-.79,5.76,5.76,0,0,0,2.91.79h6.64a5.81,5.81,0,0,0,5.8-5.81v-.09a5.78,5.78,0,0,0,1.66-4.05V34.83A5.8,5.8,0,0,0,43.13,29ZM6.63,29A10.79,10.79,0,1,1,17.42,39.81,10.79,10.79,0,0,1,6.63,29ZM9,38.15H1.66V19.9H9A12.39,12.39,0,0,0,9,38.15ZM29.86,29a12.45,12.45,0,0,0-4-9.13h7.32V38.15H25.85A12.43,12.43,0,0,0,29.86,29ZM3.32,1.66H31.51v5H3.32Zm.52,11.09,2-1.57V8.29H29v2.89l2,1.57a5.77,5.77,0,0,1,2.18,4.54v1H23.6a12.33,12.33,0,0,0-12.36,0H1.66v-1A5.77,5.77,0,0,1,3.84,12.75Zm2,37a4.15,4.15,0,0,1-4.15-4.15v-5.8h9.58a12.33,12.33,0,0,0,12.36,0h9.57v.24A5.82,5.82,0,0,0,29,45.61a5.74,5.74,0,0,0,1.48,3.86,3.94,3.94,0,0,1-1.48.29Zm35.66,0H34.83a4.15,4.15,0,0,1,0-8.29h6.64a4.15,4.15,0,0,1,0,8.29Zm5.8-8.29a4.08,4.08,0,0,1-.46,1.88,5.58,5.58,0,0,0-1.2-1.79V36.49H44v3.89a5.72,5.72,0,0,0-2.48-.57H39v-5a4.15,4.15,0,0,1,8.29,0Z"/><path class="cls-1" d="M12.9,22.14a27,27,0,0,1,4-.3c2.68,0,4.59.62,5.86,1.8a6.67,6.67,0,0,1,2,5.2,7.65,7.65,0,0,1-2.08,5.62c-1.35,1.35-3.59,2.08-6.4,2.08a29.49,29.49,0,0,1-3.39-.17Zm1.87,12.79a11.16,11.16,0,0,0,1.88.11c4,0,6.17-2.23,6.17-6.14,0-3.41-1.91-5.58-5.86-5.58a11.15,11.15,0,0,0-2.19.19Z"/></g></g></svg>