<svg xmlns="http://www.w3.org/2000/svg" viewBox="0 0 69.57 69.57"><defs><style>.cls-1{fill:none;stroke:#8b5e3c;stroke-miterlimit:10;stroke-width:2px;}.cls-2{fill:#8b5e3c;}</style></defs><title>24Asset 7</title><g id="Layer_2" data-name="Layer 2"><g id="Layer_1-2" data-name="Layer 1"><circle class="cls-1" cx="34.79" cy="34.79" r="33.79"/><path class="cls-2" d="M52.65,37.07a4.82,4.82,0,0,0-4.82,4.82V46H45.77V27.34a6.14,6.14,0,0,0-2.32-4.83l-1.12-.89V19.88H43a1.37,1.37,0,0,0,1.38-1.37V14.38A1.38,1.38,0,0,0,43,13H19.65a1.38,1.38,0,0,0-1.38,1.37v4.13a1.37,1.37,0,0,0,1.38,1.37h.68v1.74l-1.11.89a6.14,6.14,0,0,0-2.32,4.83V50.82a4.82,4.82,0,0,0,4.81,4.82H41a4.81,4.81,0,0,0,2.4-.66,4.81,4.81,0,0,0,2.41.66h5.5a4.81,4.81,0,0,0,4.81-4.82v-.07a4.8,4.8,0,0,0,1.38-3.36v-5.5A4.82,4.82,0,0,0,52.65,37.07Zm-30.25,0A8.94,8.94,0,1,1,31.33,46,8.95,8.95,0,0,1,22.4,37.07Zm2,7.57H18.27V29.51h6.08a10.26,10.26,0,0,0,0,15.13Zm17.3-7.57a10.28,10.28,0,0,0-3.33-7.56H44.4V44.64H38.32A10.3,10.3,0,0,0,41.65,37.07Zm-22-22.69H43v4.13H19.65Zm.43,9.2,1.63-1.3v-2.4H41v2.4l1.63,1.3a4.79,4.79,0,0,1,1.81,3.76v.79H36.46a10.27,10.27,0,0,0-10.25,0H18.27v-.79A4.79,4.79,0,0,1,20.08,23.58Zm1.63,30.68a3.44,3.44,0,0,1-3.44-3.44V46h7.94a10.21,10.21,0,0,0,10.25,0H44.4v.2A4.8,4.8,0,0,0,42.19,54a3.45,3.45,0,0,1-1.23.24Zm29.56,0h-5.5a3.44,3.44,0,1,1,0-6.87h5.5a3.44,3.44,0,1,1,0,6.87Zm4.81-6.87A3.39,3.39,0,0,1,55.7,49a4.68,4.68,0,0,0-1-1.49v-4.2H53.33v3.22A4.72,4.72,0,0,0,51.27,46H49.21V41.89a3.44,3.44,0,1,1,6.87,0Z"/><path class="cls-2" d="M33.64,37.58H29V41.9h5.2v1.3H27.43v-12H33.9v1.3H29V36.3h4.67Z"/></g></g></svg>