<svg xmlns="http://www.w3.org/2000/svg" viewBox="0 0 69.57 69.57"><defs><style>.cls-1{fill:none;stroke:#8b5e3c;stroke-miterlimit:10;stroke-width:2px;}.cls-2{fill:#8b5e3c;}</style></defs><title>24Asset 14</title><g id="Layer_2" data-name="Layer 2"><g id="Layer_1-2" data-name="Layer 1"><circle class="cls-1" cx="34.79" cy="34.79" r="33.79"/><path class="cls-2" d="M42.35,27.8l-.16,0-.15,0-.13-.07a.63.63,0,0,1-.12-.1l-.1-.12a1,1,0,0,1-.08-.14.83.83,0,0,1,0-.15.61.61,0,0,1,0-.31.83.83,0,0,1,0-.15.57.57,0,0,1,.08-.13.64.64,0,0,1,.1-.13l.12-.09.13-.08.15,0a.81.81,0,0,1,.31,0l.15,0,.14.08.12.09a1.47,1.47,0,0,1,.1.13s.05.08.07.13a.83.83,0,0,1,0,.15.61.61,0,0,1,0,.31.83.83,0,0,1,0,.15c0,.05,0,.09-.07.14l-.1.12-.12.1-.14.07-.15,0Z"/><path class="cls-2" d="M52.53,28a.77.77,0,0,0-1.12,0l-4.48,4.48a14.52,14.52,0,0,0-1.68-3.28.79.79,0,1,0-1.31.88,13.6,13.6,0,0,1,1.74,3.65L30.83,48.55a.79.79,0,0,0,0,1.12,16.36,16.36,0,0,0,2,1.72h-.65a13.76,13.76,0,1,1-.29-27.52,7.8,7.8,0,0,0-.1,1.28v1.49a.79.79,0,1,0,1.58,0V25.16a6.23,6.23,0,0,1,.12-1.22A14.17,14.17,0,0,1,39.2,25.7a.8.8,0,0,0,1.08-.3.79.79,0,0,0-.3-1.08,15.88,15.88,0,0,0-6-1.93,6.83,6.83,0,0,1,2.93-3.16.79.79,0,0,0-.77-1.39,8.5,8.5,0,0,0-2.37,1.95A6.92,6.92,0,0,0,32,15.54c-2.6-2.55-7.46-1.7-7.67-1.67a.81.81,0,0,0-.64.64c0,.2-.89,5,1.71,7.54h0a5.46,5.46,0,0,0,1.66,1.1A15.31,15.31,0,0,0,32.21,53a16.34,16.34,0,0,0,2.71-.23l.16,0A15.76,15.76,0,0,0,42,54.3a15.18,15.18,0,0,0,10.77-4.42A15.51,15.51,0,0,0,52.53,28Zm-26-7C25,19.39,25,16.56,25.17,15.36c1.22-.12,4.14-.22,5.71,1.31a6.25,6.25,0,0,1,1.39,4.48l-2.5-2.45a.79.79,0,1,0-1.11,1.13l2.51,2.46C29.75,22.32,27.72,22.11,26.5,20.92Zm12.4,21.8.29,1.71a.79.79,0,0,0,.78.66h.14a.79.79,0,0,0,.64-.92l-.45-2.65s0-.1,0-.15l1.42-1.42L43,41.26a.8.8,0,0,0,1.13-1.12L42.8,38.82l1.43-1.43.14,0,2.65.46h.14a.79.79,0,0,0,.13-1.57l-1.7-.3,4.17-4.17a10.8,10.8,0,0,1-.34,14.7A10.44,10.44,0,0,1,42,49.62h-.14a11,11,0,0,1-7.11-2.73Zm12.72,6a13.89,13.89,0,0,1-19.09.34L33.6,48a12.59,12.59,0,0,0,8.22,3.18H42a12,12,0,0,0,8.56-3.52,12.39,12.39,0,0,0,.34-16.94L52,29.66A13.91,13.91,0,0,1,51.62,48.75Z"/></g></g></svg>