<svg xmlns="http://www.w3.org/2000/svg" viewBox="0 0 69.57 69.57"><defs><style>.cls-1{fill:#8b5e3c;}.cls-2{fill:none;stroke:#8b5e3c;stroke-miterlimit:10;stroke-width:2px;}</style></defs><title>24Asset 6</title><g id="Layer_2" data-name="Layer 2"><g id="Layer_1-2" data-name="Layer 1"><path class="cls-1" d="M20,46.06a9.73,9.73,0,1,1,9.73-9.73A9.73,9.73,0,0,1,20,46.06Zm0-17.62a7.89,7.89,0,1,0,7.89,7.89A7.9,7.9,0,0,0,20,28.44Z"/><path class="cls-1" d="M17.83,40.66A4,4,0,0,1,16.21,39a5.79,5.79,0,0,1,0-5,4.19,4.19,0,0,1,1.68-1.71,5.06,5.06,0,0,1,2.5-.61,6.1,6.1,0,0,1,1.9.31,3.89,3.89,0,0,1,1.47.86l-.64,1.6a4.71,4.71,0,0,0-1.24-.72,3.76,3.76,0,0,0-1.29-.24,2.46,2.46,0,0,0-1.93.77A3.25,3.25,0,0,0,18,36.47a3.21,3.21,0,0,0,.68,2.22,2.47,2.47,0,0,0,1.94.77,3.58,3.58,0,0,0,1.29-.26,4.49,4.49,0,0,0,1.24-.73l.64,1.61a4.08,4.08,0,0,1-1.51.85,6,6,0,0,1-2,.31A5.1,5.1,0,0,1,17.83,40.66Z"/><path class="cls-1" d="M48.9,54A12.81,12.81,0,1,1,61.71,41.21,12.83,12.83,0,0,1,48.9,54Zm0-23.79a11,11,0,1,0,11,11A11,11,0,0,0,48.9,30.23Z"/><path class="cls-1" d="M45.91,47.05a5.41,5.41,0,0,1-2.19-2.23A7.17,7.17,0,0,1,43,41.44a7.07,7.07,0,0,1,.8-3.41A5.69,5.69,0,0,1,46,35.73a6.77,6.77,0,0,1,3.38-.83,8,8,0,0,1,2.57.42,5,5,0,0,1,2,1.16l-.86,2.16a5.77,5.77,0,0,0-1.67-1,5,5,0,0,0-1.75-.33,3.32,3.32,0,0,0-2.6,1,4.34,4.34,0,0,0-.94,3,4.31,4.31,0,0,0,.93,3,3.3,3.3,0,0,0,2.61,1,4.79,4.79,0,0,0,1.75-.35,6,6,0,0,0,1.67-1L54,46.26a5.44,5.44,0,0,1-2,1.16,8.23,8.23,0,0,1-2.63.42A6.94,6.94,0,0,1,45.91,47.05Z"/><path class="cls-1" d="M30.14,25.85A6.46,6.46,0,1,1,36.6,19.4,6.47,6.47,0,0,1,30.14,25.85Zm0-11.07a4.62,4.62,0,1,0,4.62,4.62A4.62,4.62,0,0,0,30.14,14.78Z"/><path class="cls-1" d="M28.76,22.11a2.41,2.41,0,0,1-1-1,3.56,3.56,0,0,1,0-3.16,2.52,2.52,0,0,1,1-1.07,3.1,3.1,0,0,1,1.57-.38,3.77,3.77,0,0,1,1.2.19,2.36,2.36,0,0,1,.92.54l-.4,1a3.09,3.09,0,0,0-.78-.45,2.4,2.4,0,0,0-.81-.15,1.57,1.57,0,0,0-1.22.48,2,2,0,0,0-.43,1.4,2,2,0,0,0,.43,1.4,1.54,1.54,0,0,0,1.22.48,2.2,2.2,0,0,0,.81-.16,3.13,3.13,0,0,0,.78-.46l.4,1a2.57,2.57,0,0,1-.95.54,3.86,3.86,0,0,1-1.23.19A3.1,3.1,0,0,1,28.76,22.11Z"/><circle class="cls-2" cx="34.79" cy="34.79" r="33.79"/></g></g></svg>