<svg xmlns="http://www.w3.org/2000/svg" viewBox="0 0 57.94371 51.4574"><defs><style>.cls-1{fill:#2e46b9;}</style></defs><title>16Asset 111</title><g id="Layer_2" data-name="Layer 2"><g id="Layer_1-2" data-name="Layer 1"><path class="cls-1" d="M31.35521,9.84084A4.92042,4.92042,0,1,1,36.2757,4.92049,4.92607,4.92607,0,0,1,31.35521,9.84084Zm0-8.00261a3.08219,3.08219,0,1,0,3.08227,3.08226A3.08587,3.08587,0,0,0,31.35521,1.83823Z"/><path class="cls-1" d="M52.04187,23.738a5.90132,5.90132,0,1,1,5.90184-5.90124A5.90787,5.90787,0,0,1,52.04187,23.738Zm0-9.96441a4.06309,4.06309,0,1,0,4.06361,4.06317A4.06767,4.06767,0,0,0,52.04187,13.77355Z"/><path class="cls-1" d="M38.71351,23.96714a6.1305,6.1305,0,1,1,6.13042-6.13042A6.13745,6.13745,0,0,1,38.71351,23.96714Zm0-10.42277a4.29227,4.29227,0,1,0,4.2922,4.29235A4.29725,4.29725,0,0,0,38.71351,13.54437Z"/><path class="cls-1" d="M32.99657,39.088a7.05515,7.05515,0,1,1,7.05492-7.05507A7.06309,7.06309,0,0,1,32.99657,39.088Zm0-12.27206a5.21692,5.21692,0,1,0,5.2167,5.217A5.22288,5.22288,0,0,0,32.99657,26.81589Z"/><path class="cls-1" d="M16.03663,49.44654A7.47731,7.47731,0,1,1,23.514,41.96916,7.486,7.486,0,0,1,16.03663,49.44654Zm0-13.11638a5.63908,5.63908,0,1,0,5.63916,5.639A5.64563,5.64563,0,0,0,16.03663,36.33016Z"/><path class="cls-1" d="M5.80251,34.09909a5.80281,5.80281,0,1,1,5.80311-5.80281A5.8092,5.8092,0,0,1,5.80251,34.09909Zm0-9.76739a3.96458,3.96458,0,1,0,3.96488,3.96458A3.969,3.969,0,0,0,5.80251,24.3317Z"/><path class="cls-1" d="M43.46646,51.4574a6.699,6.699,0,1,1,6.69888-6.699A6.70706,6.70706,0,0,1,43.46646,51.4574Zm0-11.55984a4.86081,4.86081,0,1,0,4.86066,4.86081A4.86634,4.86634,0,0,0,43.46646,39.89756Z"/><rect class="cls-1" x="33.59934" y="8.12532" width="1.83784" height="5.68545" transform="translate(-0.50929 20.18101) rotate(-32.36366)"/><rect class="cls-1" x="43.92482" y="16.9176" width="3.13492" height="1.83823"/><rect class="cls-1" x="34.14217" y="23.62272" width="3.9601" height="1.83879" transform="translate(-0.47657 48.36769) rotate(-67.25679)"/><polygon class="cls-1" points="39.155 47.193 36.189 45.333 37.587 44.694 40.552 46.554 39.155 47.193"/><rect class="cls-1" x="21.1264" y="35.83331" width="6.97188" height="1.83816" transform="matrix(0.86299, -0.50523, 0.50523, 0.86299, -15.19607, 17.47037)"/><rect class="cls-1" x="9.33925" y="31.74979" width="1.83821" height="5.65497" transform="translate(-19.44526 14.11959) rotate(-38.91924)"/></g></g></svg>