<svg xmlns="http://www.w3.org/2000/svg" viewBox="0 0 69.57 69.57"><defs><style>.cls-1{fill:none;stroke:#8b5e3c;stroke-miterlimit:10;stroke-width:2px;}.cls-2{fill:#8b5e3c;}</style></defs><title>24Asset 15</title><g id="Layer_2" data-name="Layer 2"><g id="Layer_1-2" data-name="Layer 1"><circle class="cls-1" cx="34.79" cy="34.79" r="33.79"/><path class="cls-2" d="M58.51,32.83c0-1.9-1.16-3.72-3.36-5.29l-.89-3.67a.81.81,0,0,0-1.46-.27l-1.35,1.94-.5-.2a8,8,0,0,0-6.84-3.84,7.94,7.94,0,0,0-3.44.77,8.46,8.46,0,0,0-.7-2.19L39,18a.81.81,0,0,0-1.09-.37l-2.06,1,0,0a8.33,8.33,0,0,0-2.41-2.09l-2-1.14a.82.82,0,0,0-1.11.3l-1.14,2a8.41,8.41,0,0,0-1,2.67A6.35,6.35,0,0,0,24.56,23a8,8,0,0,0-3.83-1,8.09,8.09,0,0,0-2.54.41l-.14.07a8,8,0,0,0-3,1.85h0a8,8,0,0,0-1.86,2.89,6.61,6.61,0,0,0-2.48,2.26l0,0a5.43,5.43,0,0,0-1.24,3.31h0a24.53,24.53,0,0,0,41,18.2L50.5,51a18.36,18.36,0,0,0,3-3.26,24.55,24.55,0,0,0,5-14.85Zm-6.12-5.78,0,0,.7-1,2.35,9.73h0l-.6-.75a1,1,0,0,0-.12-.23l-2.62-3.24,0-.05L50.61,29.6ZM50,31.46a.6.6,0,0,0,.09.15l2,2.52a1,1,0,0,0,.09.13l2,2.52A24.17,24.17,0,0,1,46,40.14l2-11.21Zm-9.24-7.4a6.38,6.38,0,0,1,9.37,3.37l-.58.84-1.4-1.77a.82.82,0,0,0-.84-.29.83.83,0,0,0-.49.37h0L42,34.41a3.13,3.13,0,0,0-1.67-.59,3.22,3.22,0,0,0,0-1,.81.81,0,0,0-1.61.21,1.52,1.52,0,1,1-.94-1.21.83.83,0,0,0,1.06-.45.81.81,0,0,0-.45-1.06,3.19,3.19,0,0,0-.67-.19A8.3,8.3,0,0,0,40.77,24.06ZM35,41.46H33.5V40.12a3.14,3.14,0,0,0,1.54.51A2.88,2.88,0,0,0,35,41.46Zm-6.88-7.73c2.32,0,3.74.87,3.74,1.35a.7.7,0,0,1-.3.45l-.05,0a4.8,4.8,0,0,1-2,.78h-.16a8.18,8.18,0,0,1-1.23.09c-2.32,0-3.74-.88-3.74-1.36S25.81,33.73,28.13,33.73Zm-.56-3.9a1.58,1.58,0,0,1,.53-.35,1.54,1.54,0,0,1,1.62.35,1.53,1.53,0,0,1,0,2.15,1.78,1.78,0,0,1-.27.21,9.33,9.33,0,0,0-1.32-.09h-.41L27.57,32A1.53,1.53,0,0,1,27.57,29.83Zm.56,8.23h.42l.15,0h0a7.92,7.92,0,0,0,3.14-.81v4.17a53.59,53.59,0,0,1-7.48-.78V37.26A8.22,8.22,0,0,0,28.13,38.06Zm3.4-5.32a1.5,1.5,0,0,1,1.48.39,1.53,1.53,0,0,1,.41,1.41A3.18,3.18,0,0,0,31.53,32.74ZM32.87,31a1.53,1.53,0,0,1,0-2.15A1.52,1.52,0,0,1,35,31,1.53,1.53,0,0,1,32.87,31Zm1.29,7.6a1.53,1.53,0,0,1,0-2.15,1.52,1.52,0,0,1,2.15,2.15,1.53,1.53,0,0,1-2.15,0Zm2.9,1.54a1.53,1.53,0,0,1,2.15,0,1.49,1.49,0,0,1,.45,1.08c-.71.07-1.41.13-2.11.17l-.91,0A1.54,1.54,0,0,1,37.06,40.11Zm2-2.08a1.52,1.52,0,0,1,2.15-2.15A1.52,1.52,0,0,1,39.07,38Zm3.3,1.15a3.16,3.16,0,0,0,.69-3.41L46,31.05,44.3,40.52c-1,.19-2,.35-3,.49A3.09,3.09,0,0,0,41,40,3.27,3.27,0,0,0,42.37,39.18ZM36.53,20.1l1.33-.65.64,1.34a6.67,6.67,0,0,1-1.64,7.93,3.3,3.3,0,0,0-.69-1l0,0a6.59,6.59,0,0,0,.1-1.09,6.37,6.37,0,0,0-2-4.63A6.71,6.71,0,0,1,36.53,20.1Zm-6-1.57.74-1.29,1.28.74a6.64,6.64,0,0,1,1.83,1.54A8.65,8.65,0,0,0,32.92,21a6.33,6.33,0,0,0-3.06-.79A6.66,6.66,0,0,1,30.53,18.53Zm-.69,3.26a4.76,4.76,0,0,1,4.76,4.76,2.44,2.44,0,0,1,0,.27,3.14,3.14,0,0,0-2.87.85A3.21,3.21,0,0,0,31,28.82a.86.86,0,0,0-.13-.14,3.14,3.14,0,0,0-2.44-.91,7.89,7.89,0,0,0-2.52-3.89A4.74,4.74,0,0,1,29.84,21.79Zm-9.11,1.83a6.38,6.38,0,0,1,6.16,4.68,2.89,2.89,0,0,0-.47.38,3.13,3.13,0,0,0-.62.88,4.3,4.3,0,0,0-4.1,1.2.83.83,0,0,0,0,1.15.82.82,0,0,0,.58.24.78.78,0,0,0,.57-.24,2.76,2.76,0,0,1,2.66-.75,3.14,3.14,0,0,0,.35,1.2c-1.86.46-3.09,1.48-3.09,2.72v1a6.53,6.53,0,0,1-1.64.32,4.21,4.21,0,0,0-4-3.09,4.08,4.08,0,0,0-1.62.33A6.44,6.44,0,0,1,14.35,30a6.36,6.36,0,0,1,2.32-4.92.94.94,0,0,0,.1-.1,7.12,7.12,0,0,1,2.74-1.24h0A6.23,6.23,0,0,1,20.73,23.62Zm2,14.13v2.57h0q-1.14-.24-2.19-.54A4.27,4.27,0,0,0,21.24,38,7.87,7.87,0,0,0,22.77,37.75Zm-3.12-.29a2.49,2.49,0,0,1-.74,1.8,21.23,21.23,0,0,1-4.37-2,2.56,2.56,0,0,1,2.55-2.38,2.57,2.57,0,0,1,2.55,2.36A1.27,1.27,0,0,1,19.65,37.46Zm-8.09-6.3a.34.34,0,0,0,.09-.12,9.82,9.82,0,0,1,1.09-1.44c0,.13,0,.27,0,.4a8.06,8.06,0,0,0,1.39,4.52,4.08,4.08,0,0,0-1,1.73,4.74,4.74,0,0,1-2-3.42A3.48,3.48,0,0,1,11.56,31.16Zm40.67,15.5-.07.09v0l-.31.4a.62.62,0,0,0-.11.17c-.38.49-.78.93-1.13,1.3a.7.7,0,0,0-.19.15A22.9,22.9,0,0,1,11.48,37a13,13,0,0,0,1.8,1.43A23.83,23.83,0,0,0,18.84,41a42.49,42.49,0,0,0,4.58,1.16,54.22,54.22,0,0,0,9.25,1l1.32,0c.7,0,1.41,0,2.1,0h0L37.65,43c.92,0,1.86-.13,2.78-.23,1.64-.18,3.24-.44,4.74-.75,4.68-1,8.38-2.52,10.71-4.45.23-.18.44-.38.64-.57A22.59,22.59,0,0,1,52.23,46.66Zm4.46-12.75-.87-3.61a4,4,0,0,1,1.07,2.53A3.17,3.17,0,0,1,56.69,33.91Z"/></g></g></svg>