<svg xmlns="http://www.w3.org/2000/svg" viewBox="0 0 52.54006 61.64452"><defs><style>.cls-1{fill:#2e46b9;}</style></defs><title>16Asset 151</title><g id="Layer_2" data-name="Layer 2"><g id="Layer_1-2" data-name="Layer 1"><path class="cls-1" d="M41.77,22.74165C43.94984,19.84842,45.29509,5.0561,45.29509.85385h-.01176a.90349.90349,0,0,0-1.80561.05023c0,.01579.00157.03119.00238.04679-.0416,7.7453-5.0495,25.0205-11.29112,25.33285a6.35481,6.35481,0,0,0-2.35766-.813,6.32323,6.32323,0,0,0-11.25809-3.06083A6.33233,6.33233,0,0,0,8.51886,30.11,6.32934,6.32934,0,0,0,5.97555,41.19944a6.35311,6.35311,0,0,0-4.1615,5.94949,6.24983,6.24983,0,0,0,.787,3.04836A6.33357,6.33357,0,1,0,11.72237,58.646a6.31931,6.31931,0,0,0,9.41686-2.47765,6.2793,6.2793,0,0,0,3.3224.9467,6.35525,6.35525,0,0,0,6.03331-4.40159,6.32934,6.32934,0,0,0,8.1701-9.25379,6.32121,6.32121,0,0,0-3.336-11.70427V31.752a6.29172,6.29172,0,0,0-1.3317-3.875,12.52315,12.52315,0,0,0,5.92345-3.09707A11.79117,11.79117,0,0,0,51.6387,35.37447h.90136V34.4674A11.78306,11.78306,0,0,0,41.77,22.74165ZM33.52065,31.752a4.66963,4.66963,0,0,1-.08042.82665l-.00452.00449c-.01248.08836-.04414.17214-.06566.26048-.03968.15512-.08038.31023-.1325.45635-.0453.1189-.10191.23441-.15516.34879-.04866.10639-.10191.21736-.15965.31931-.06566.11887-.14152.23441-.21627.34426-.06227.08831-.128.17777-.19476.26155-.08833.10644-.17666.2118-.27405.3137-.07588.07923-.15968.15055-.24345.2253-.09738.08834-.1948.17781-.29671.257a4.47533,4.47533,0,0,1-.59674.3805c-.05778.0306-.12005.0487-.17665.07926a4.81261,4.81261,0,0,1-.5447.22082c-.07019.02261-.146.03625-.21627.05773a4.74623,4.74623,0,0,1-.6862.137c-.02153-.01243-.04417-.02148-.0657-.03509a6.38747,6.38747,0,0,0-1.39849-.58771c-.06567-.0181-.13246-.0362-.1993-.05322a5.68435,5.68435,0,0,0-.56619-.111c-.06569-.01361-.137-.026-.20721-.03512a6.85536,6.85536,0,0,0-.75193-.04868h-.01355A4.62717,4.62717,0,0,1,25.226,34.26814l-.0566-.09285a4.45208,4.45208,0,0,1-.6681-1.83558l-.01361-.10648a4.28559,4.28559,0,0,1-.026-.48125,4.52951,4.52951,0,1,1,9.059,0ZM19.84717,25.32914c-.00793-.05321-.017-.10643-.026-.1597a6.44426,6.44426,0,0,0-.24349-.924.3669.3669,0,0,1-.01811-.06676,4.53124,4.53124,0,0,1,8.44867,1.30447c-.03507.00456-.06565.01812-.09738.02269a6.214,6.214,0,0,0-.82209.19475c-.01813.00451-.03514.01358-.05325.017a7.41449,7.41449,0,0,0-.73375.29672c-.06227.02715-.12.05776-.17781.08375a7.24225,7.24225,0,0,0-.70769.41675c-.02606.017-.04872.03961-.07476.0566a5.916,5.916,0,0,0-.58433.46884c-.04868.04074-.09285.08039-.14153.12454a7.85021,7.85021,0,0,0-.55262.59673c-.026.03061-.04865.06681-.07019.09744a6.51474,6.51474,0,0,0-.41672.60129c-.03058.04866-.06114.1019-.09286.15512a6.46809,6.46809,0,0,0-.36237.73829c-.01811.04417-.03055.08834-.05322.137a5.96332,5.96332,0,0,0-.21625.6953,1.03481,1.03481,0,0,0-.03625.10982,6.26842,6.26842,0,0,0-1.548-.84021c-.0487-.02154-.10192-.03966-.154-.05776a7.099,7.099,0,0,0-.79264-.22082c-.04873-.009-.10192-.02151-.15064-.03056-.05662-.0091-.10984-.03171-.16762-.03963a4.28231,4.28231,0,0,1-.44612-.66356.31269.31269,0,0,0,.017-.06232,5.9447,5.9447,0,0,0,.248-.924c.00905-.05327.01359-.10644.02149-.15966a5.93334,5.93334,0,0,0,.08948-.98179A6.57948,6.57948,0,0,0,19.84717,25.32914Zm-.23441,5.56448a4.48236,4.48236,0,0,1,.55714.10646c.07133.017.13816.03961.20835.06114a4.1961,4.1961,0,0,1,.58886.22987c.03509.0181.07018.03173.10528.04873a4.53487,4.53487,0,0,1,1.28755.98175l.05775.06229a4.57281,4.57281,0,0,1,.31816.38955c.01361.08375.03512.16755.05322.248.03512.17665.07475.34422.12344.513.04078.14153.08495.28309.13364.41554.03964.111.08832.21177.13249.31824.04412.10192.09285.20382.14155.30572.05774.10987.10986.21628.1721.32274a.7373.7373,0,0,0,.03967.07019c.01355.137.0226.27066.0226.40768a4.594,4.594,0,0,1-.09735.89346l-.04416.1857a4.52055,4.52055,0,0,1-1.48232,2.37911.73206.73206,0,0,1-.07019.05775c-.05773.04871-.12906.08378-.19475.1291a5.59037,5.59037,0,0,0-.42921-.38955c-.15056-.12453-.31026-.24343-.46881-.35443l-.01354-.00454a6.11817,6.11817,0,0,0-1.64992-.79607c-.00448-.00448-.00448-.00448-.00905-.00448-.17662-.05327-.35327-.09742-.53446-.137a.4807.4807,0,0,1-.07589-.02154c-.16757-.03171-.33632-.05321-.50387-.07587-.04417-.00449-.08381-.01246-.128-.017a6.02472,6.02472,0,0,0-.64206-.03624,6.41739,6.41739,0,0,0-.87536.07131.85232.85232,0,0,0-.10641.00905c.00449-.03163.00449-.06224.009-.09285a6.60825,6.60825,0,0,0,.0657-.88889,6.51388,6.51388,0,0,0-.05664-.83227c-.00906-.05778-.01811-.11892-.02716-.17665a6.45509,6.45509,0,0,0-.17214-.76549A.13259.13259,0,0,0,16.039,34.472a5.68825,5.68825,0,0,0-.30121-.80063c-.017-.03507-.03508-.07132-.05208-.11095a7.16974,7.16974,0,0,0-.36352-.66356c-.01243-.017-.026-.0442-.03963-.06571a4.70431,4.70431,0,0,1,.45184-.54915c.04868-.017.09624-.04417.145-.06117.10641-.04078.20831-.0849.31478-.13363.07924-.03507.163-.0747.248-.1189.10077-.0487.20272-.10646.30006-.16421.07931-.04415.15969-.09281.23445-.14154.09735-.06114.1902-.12343.27856-.18572.08039-.0566.15963-.11438.23437-.17665.08494-.06565.16422-.12792.24349-.19475.03963-.03512.07924-.0657.12-.10193A4.40894,4.40894,0,0,1,19.61276,30.89362Zm-6.02423-9.1077a4.53312,4.53312,0,0,1,4.1581,2.74262,4.41239,4.41239,0,0,1,.248.77792c.00795.03173.0215.05776.03054.08836a4.54765,4.54765,0,0,1,.09286.92061,4.4928,4.4928,0,0,1-.09286.915c-.009.03625-.02259.06227-.03054.09285a4.07435,4.07435,0,0,1-.248.7791,4.51615,4.51615,0,0,1-1.55706,1.90577,1.35716,1.35716,0,0,1-.14152.09738,4.4666,4.4666,0,0,1-.659.359c-.03964.017-.07927.03054-.12457.04866a4.50678,4.50678,0,0,1-1.67591.33182,3.9146,3.9146,0,0,1-.402-.02268c-.02264-.01244-.04531-.02154-.0668-.03508-.111-.06682-.22535-.128-.3454-.1857-.06114-.03058-.12341-.05778-.18571-.08836-.11889-.05322-.23894-.10641-.36234-.15058-.05775-.02266-.12-.04417-.18119-.06683a4.14132,4.14132,0,0,0-.40311-.12343c-.04872-.01356-.09742-.026-.14607-.03961-.14951-.03512-.3001-.07137-.45523-.09741a.12484.12484,0,0,1-.03967-.00908,4.525,4.525,0,0,1,2.58752-8.24028Zm-8.152,14.49557A4.49086,4.49086,0,0,1,10.744,31.82671c.07588.01361.14607.026.22195.04414a4.08132,4.08132,0,0,1,.667.20839c.06224.02151.12451.04868.18681.07475a4.594,4.594,0,0,1,.659.36233l.026.01361a4.69654,4.69654,0,0,1,1.10636,1.08369c.06567.09283.1325.19024.19024.28311a4.53175,4.53175,0,0,1,.24684.45518c.04417.08947.08381.18232.12457.27061a4.24848,4.24848,0,0,1,.17214.56622,1.98973,1.98973,0,0,1,.06224.23895,4.48848,4.48848,0,0,1,.08837.8538,4.57222,4.57222,0,0,1-.0838.81758c-.00905.04414-.01362.09285-.02268.137a4.52709,4.52709,0,0,1-.20381.65451c-.03512.08947-.07019.17778-.10983.26609-.05778.12343-.12455.23443-.19024.34882-.07133.12453-.137.25248-.21744.368-.07474.10529-.163.19814-.24684.29557a4.3175,4.3175,0,0,1-.56619.56616,3.66365,3.66365,0,0,1-.29667.248c-.11554.07924-.24346.14607-.37143.21626A4.45682,4.45682,0,0,1,9.966,40.811,4.53556,4.53556,0,0,1,5.43653,36.28149Zm5.34711,19.8608a3.79864,3.79864,0,0,1-.11891.44161c-.04869.15512-.0838.3148-.14611.46428l-.00905.02264a4.5253,4.5253,0,1,1-6.0865-5.85664c.12-.05322.23893-.102.35894-.14607.12345-.04417.24684-.0838.38048-.11892.14156-.03624.28652-.07585.43256-.1019.08947-.01363.18232-.01363.27066-.02719a4.69114,4.69114,0,0,1,1.80048.17326c.0566.017.10984.03512.16306.05322a3.74729,3.74729,0,0,1,.496.20723c.09286.04417.18571.09283.27405.14607.12339.07134.24686.14153.36688.22534a3.91413,3.91413,0,0,1,.38953.32387c.06566.06116.14608.11438.21177.18119.0883.09285.15963.19813.24343.29557a4.36111,4.36111,0,0,1,.32728.42462c.06681.10641.12.21741.17667.32723a3.92514,3.92514,0,0,1,.2174.42921,3.69005,3.69005,0,0,1,.14155.45179c.03511.12341.0838.24343.10985.37145a4.68318,4.68318,0,0,1,.08944.87077A4.41229,4.41229,0,0,1,10.78364,56.14229ZM11.129,48.826c-.1234.10984-.23436.23891-.34874.35783-.09739.10639-.1993.20832-.29216.31816-.09285.11554-.17323.239-.257.359-.06569.09283-.14611.18119-.20725.28309a.27778.27778,0,0,0-.06227-.03963,6.05336,6.05336,0,0,0-.68963-.42011c-.07136-.03622-.14607-.07136-.21744-.10643-.21172-.09739-.42913-.19027-.64995-.26614-.05324-.017-.1019-.03964-.15517-.05661a6.66363,6.66363,0,0,0-.81417-.19024c-.07021-.01361-.14154-.02714-.21173-.03622a6.52842,6.52842,0,0,0-.87986-.06568,6.65264,6.65264,0,0,0-.99536.08381c-.05326.00905-.10648.01809-.15965.026a6.15761,6.15761,0,0,0-.93309.248c-.02267.00907-.04417.00907-.06683.01812a4.47533,4.47533,0,0,1-.56616-2.19A4.53846,4.53846,0,0,1,8.152,42.61939a4.49279,4.49279,0,0,1,3.08794,1.23887,3.94385,3.94385,0,0,1,.45979.51293c.04866.05778.1019.111.14607.17214a4.64217,4.64217,0,0,1,.385.6681c.02152.04414.04868.08039.06566.12456a4.3948,4.3948,0,0,1,.26612.81758c.00453.02266.017.03963.02153.06227a4.68572,4.68572,0,0,1,.09736.93309,3.97134,3.97134,0,0,1-.05322.64659,6.28741,6.28741,0,0,0-1.26941.84475C11.28414,48.70141,11.20034,48.75919,11.129,48.826Zm8.7182,5.46708a1.629,1.629,0,0,1-.026.16311A4.5373,4.5373,0,0,1,15.40259,58.022a4.47363,4.47363,0,0,1-2.93738-1.08824.23048.23048,0,0,1,.01357-.05322c.05209-.21625.09629-.43369.128-.659.00905-.04866.017-.10193.026-.15515a7.00539,7.00539,0,0,0,.04871-.76546,6.55526,6.55526,0,0,0-.07475-.93758l-.02718-.17216a6.02855,6.02855,0,0,0-.2253-.88441c-.01362-.0396-.02606-.08039-.0442-.12a6.30214,6.30214,0,0,0-.91155-1.694.08528.08528,0,0,0-.017-.02607c.05319-.1019.09285-.20836.15512-.30573a1.25572,1.25572,0,0,1,.08382-.14158,4.192,4.192,0,0,1,.539-.67264c.01355-.01694.03165-.03055.04414-.04412a4.62918,4.62918,0,0,1,.69529-.57076l.00452-.00338a4.432,4.432,0,0,1,.84928-.43826l.06566-.02715a4.125,4.125,0,0,1,.77-.21625c.11436-.02269.22082-.03512.32723-.04871a4.30221,4.30221,0,0,1,.48694-.0351,4.67915,4.67915,0,0,1,.79154.07924,2.50335,2.50335,0,0,1,.248.05322,5.02944,5.02944,0,0,1,.56167.17217c.0657.02714.13249.04412.19816.07585a4.54429,4.54429,0,0,1,1.35433.9104,4.35732,4.35732,0,0,1,.42917.505c.04868.06117.10982.11892.154.18573a3.93816,3.93816,0,0,1,.26609.47783,4.47667,4.47667,0,0,1,.52656,2.07A4.34934,4.34934,0,0,1,19.84717,54.29308Zm-.91042-6.59951a5.12127,5.12127,0,0,1-.55828.20272,6.19253,6.19253,0,0,0-.67149-.30462c-.03621-.01356-.06683-.02717-.10191-.03961-.19026-.07136-.385-.13248-.58432-.1857l-.15855-.04078c-.18568-.04417-.37592-.07475-.56616-.10531-.05775-.00451-.111-.0181-.1687-.0272a6.71309,6.71309,0,0,0-.72475-.04414,5.92534,5.92534,0,0,0-.81417.06229c-.03173-.0272-.06231-.04868-.09285-.07137,0-.20718-.01361-.411-.03174-.61488-.01243-.137-.03963-.2695-.06111-.402-.00907-.06675-.01813-.128-.02718-.19021-.03514-.16758-.07475-.33177-.12343-.49484-.0091-.02717-.01359-.05775-.02267-.08949-.04866-.16755-.10986-.3363-.17663-.50388-.00456-.01812-.01361-.03966-.017-.05778a5.21961,5.21961,0,0,0-.22648-.48576c-.00791-.0181-.017-.04078-.026-.05775-.07927-.15512-.16874-.30119-.25705-.44731-.017-.02605-.03058-.05322-.04871-.07926-.0883-.137-.18572-.26953-.28307-.3986a1.10213,1.10213,0,0,1-.07025-.09737c-.10191-.12345-.20382-.23779-.31026-.35781-.02153-.02153-.04412-.04871-.06565-.07475a4.47947,4.47947,0,0,1,.26494-.95119,6.50061,6.50061,0,0,0,.72132-.46881l.06231-.04869a6.41173,6.41173,0,0,0,1.21162-1.20823.72936.72936,0,0,1,.04417-.06121,6.788,6.788,0,0,0,.46428-.71222l.06682-.0272a4.1151,4.1151,0,0,1,.72022-.21626c.04071-.00907.08038-.01363.12451-.02268a4.60282,4.60282,0,0,1,.78251-.07473,4.74109,4.74109,0,0,1,.8402.08378c.03626.00907.07586.01363.10648.01812a4.649,4.649,0,0,1,.75186.23443c.03964.017.08042.03507.12006.0532a4.38411,4.38411,0,0,1,.68056.36688c.03166.02267.06228.0442.09736.07022a4.76473,4.76473,0,0,1,.5356.44279c.03063.03053.06231.0532.09286.0838a4.3985,4.3985,0,0,1,.42919.522c.07475.10192.137.20838.20272.31028a3.76111,3.76111,0,0,1,.22647.42013c.04868.09739.09285.19475.13248.29552a4.49049,4.49049,0,0,1,.163.53114c.02268.08375.0487.16868.06684.257a4.38967,4.38967,0,0,1,.0838.84024,4.28694,4.28694,0,0,1-.0838.81871c-.02606.11887-.07133.24346-.10647.36686a4.53473,4.53473,0,0,1-.15851.504A6.28509,6.28509,0,0,0,18.93675,47.69357Zm5.52488,7.60735a4.4902,4.4902,0,0,1-2.77888-.9546.20609.20609,0,0,1,.00456-.05324,6.74128,6.74128,0,0,0,.05322-.80056,5.89447,5.89447,0,0,0-.03062-.61944c-.00449-.05773-.01354-.10639-.0226-.16417-.017-.14948-.03964-.30008-.06569-.45066-.01361-.05322-.02717-.10649-.03963-.15971-.03173-.14607-.06684-.29211-.111-.43256-.01815-.05322-.03061-.1019-.04873-.15064-.04866-.1415-.09734-.28306-.15512-.42462-.0215-.04865-.03963-.09287-.06114-.14153-.05775-.137-.12458-.26611-.19027-.39857-.02717-.05327-.05771-.10193-.08491-.15066-.06567-.11887-.137-.23438-.21174-.34874-.03514-.05778-.07585-.11553-.11552-.17324-.06566-.09741-.137-.19026-.21173-.28311-.05322-.07019-.10648-.13705-.16418-.20724-.017-.02266-.03511-.04414-.05778-.07134.04077-.10987.094-.21626.14268-.32274l.10081-.20721a4.54393,4.54393,0,0,1,2.062-2.06655l.2389-.11892c.0657-.02719.13253-.05775.19819-.07928a3.66675,3.66675,0,0,1,.43373-.1291c.07586-.017.15061-.03961.22985-.05322a3.88621,3.88621,0,0,1,.39862-.0566c.0838-.00905.17209-.01815.26046-.02264.12907-.00456.257-.00456.38045,0a3.94146,3.94146,0,0,1,.513.05322,4.13875,4.13875,0,0,1,.52656.111c.13246.0351.26155.07473.38952.1189.11892.04414.23437.09736.3499.1506.13245.06566.26042.137.38842.21177.08491.05317.17773.09734.257.15512a4.31842,4.31842,0,0,1,.51749.42465,4.73808,4.73808,0,0,1,.45977.51749c.04868.06227.1064.12.1506.18117a4.50286,4.50286,0,0,1,.30573.5311c.04868.09285.10528.17663.145.26948a4.411,4.411,0,0,1,.17325.53562c.03507.111.07924.21628.10643.33182a4.99425,4.99425,0,0,1,.09285.91947A4.53553,4.53553,0,0,1,24.46163,55.30092Zm4.96206-10.35c-.09282.08837-.19024.1676-.28759.25141-.07025.05321-.137.111-.20727.16419-.09286.07136-.19926.13248-.30118.19931a2.47474,2.47474,0,0,1-.24348.14153c-.02151.01361-.0487.02151-.07475.03515-.01355-.00908-.026-.0181-.03961-.02607a6.37211,6.37211,0,0,0-1.694-.91159,1.27732,1.27732,0,0,0-.12-.04412,6.02909,6.02909,0,0,0-.88436-.22538l-.17214-.02717a6.5582,6.5582,0,0,0-.9376-.07475,6.74482,6.74482,0,0,0-.99085.07475c.0034-.026.0034-.05771.00792-.08829a6.04165,6.04165,0,0,0,.07586-.89346,6.73538,6.73538,0,0,0-.04413-.73041c-.00907-.08378-.0272-.163-.03965-.24231-.02264-.1597-.05322-.31482-.08947-.46881-.02153-.09285-.04416-.18229-.07018-.27517-.04416-.14945-.09285-.30011-.14607-.44615-.0261-.07926-.05325-.15512-.0838-.22987a6.49784,6.49784,0,0,0-.30573-.64659l-.00456-.00792a1.1642,1.1642,0,0,0,.13363-.11554,6.05309,6.05309,0,0,0,.56618-.48235c.03965-.04419.07929-.09285.12345-.137a6.079,6.079,0,0,0,.50844-.59674c.02716-.03512.05318-.0759.07924-.111a5.71183,5.71183,0,0,0,.44276-.7247.787.787,0,0,0,.03963-.07586,6.39394,6.39394,0,0,0,.3635-.85833l.00339-.0091a4.33642,4.33642,0,0,1,1.23882-.1857,4.49144,4.49144,0,0,1,.81421.08493c.07924.01245.15513.03511.23441.05321a3.91118,3.91118,0,0,1,.56615.17668c.07136.026.14158.04868.20838.07473a4.59237,4.59237,0,0,1,.7032.385l.00906.00451a4.23387,4.23387,0,0,1,.5526.45977,4.69706,4.69706,0,0,1,.45977.51293,1.69683,1.69683,0,0,1,.14154.17324,4.41105,4.41105,0,0,1,.38949.67156c.02154.04073.04873.08037.0657.12a4.43513,4.43513,0,0,1,.26609.82211c.00456.01813.01248.03625.017.05773a4.545,4.545,0,0,1,.09739.88893l-.02153.31482a4.51152,4.51152,0,0,1-.51294,1.84011.52415.52415,0,0,1-.03622.07019c-.0838.15063-.17665.29213-.27407.43374-.03055.03963-.06114.08375-.09282.12792a3.74306,3.74306,0,0,1-.28313.33177C29.5256,44.84,29.47694,44.89773,29.42369,44.951Zm4.097,6.72751a4.5387,4.5387,0,0,1-2.72112-.91046v-.01356a6.42215,6.42215,0,0,0-.07019-.881c-.00906-.05207-.01358-.10529-.0272-.15855a6.15047,6.15047,0,0,0-.57525-1.76534l-.01243-.02607a6.50223,6.50223,0,0,0-.496-.82319l-.00453-.00456a6.2562,6.2562,0,0,0,1.17655-.9546c.06231-.06229.12005-.1291.1778-.19024.137-.15512.26043-.31026.385-.47335.05208-.07134.1053-.14153.15852-.21741a6.21385,6.21385,0,0,0,.376-.63639c.06677-.1291.12455-.26609.18115-.3986.04417-.10192.08833-.20721.12911-.31364.06113-.1642.11439-.32275.163-.496.00906-.026.01362-.04871.02267-.07473.04417-.18119.09286-.35784.128-.54471a4.85955,4.85955,0,0,1,1.00894-.17666,4.77,4.77,0,0,1,.87534.08834c.1234.0272.24345.07137.36237.10646.15512.04415.31025.0838.46085.14156.14155.06227.27857.14151.41559.21739a2.92077,2.92077,0,0,1,.33631.18116,3.93809,3.93809,0,0,1,.41556.32272,4.48446,4.48446,0,0,1,1.66349,3.47191A4.53552,4.53552,0,0,1,33.52065,51.67846Zm1.54344-18.109a4.52567,4.52567,0,0,1,2.31345,8.55513.29563.29563,0,0,0-.04873-.03171,6.4732,6.4732,0,0,0-1.694-.91494c-.03964-.01359-.08042-.0272-.12-.03963a6.02841,6.02841,0,0,0-.88439-.22651c-.05775-.0079-.11553-.01695-.17213-.026a6.55916,6.55916,0,0,0-.93761-.07475,1.88047,1.88047,0,0,0-.20838.017,6.31113,6.31113,0,0,0-.75644.06683c-.00448-.02268-.009-.03966-.01354-.05778a6.0395,6.0395,0,0,0-.137-.70322.9746.9746,0,0,1-.03058-.12341,6.45851,6.45851,0,0,0-.66358-1.54005c-.0181-.026-.03058-.05322-.04868-.07924a6.89319,6.89319,0,0,0-.48692-.69076.413.413,0,0,1,.07133-.03507,5.0282,5.0282,0,0,0,.56619-.248c.026-.01244.05321-.02605.0838-.03958.19929-.10534.38953-.21634.57977-.33974a.01565.01565,0,0,1,.00905-.00454A6.35284,6.35284,0,0,0,35.06409,33.56943Zm6.65272-9.0239a9.98949,9.98949,0,0,1,8.9707,8.97068A9.98531,9.98531,0,0,1,41.71681,24.54553Z"/></g></g></svg>