<?xml version="1.0" encoding="utf-8"?>
<!-- Generator: Adobe Illustrator 23.0.0, SVG Export Plug-In . SVG Version: 6.00 Build 0)  -->
<svg version="1.1" id="Layer_1" xmlns="http://www.w3.org/2000/svg" xmlns:xlink="http://www.w3.org/1999/xlink" x="0px" y="0px"
	 viewBox="0 0 452 211" style="enable-background:new 0 0 452 211;" xml:space="preserve">
<style type="text/css">
	.st0{clip-path:url(#SVGID_2_);fill:url(#SVGID_3_);}
</style>
<g>
	<defs>
		<path id="SVGID_1_" d="M36.02,36.68l-23.58,3.06c-0.14,0.03-0.42,0.29-0.83,0.8c-0.42,0.51-0.8,0.8-1.15,0.86
			c-0.35,0.06-0.6,0.07-0.76,0.03c-4.41-0.73-6.8-2.14-7.18-4.25c-0.19-1.05,0.31-1.69,1.5-1.9c0.7-0.13,5.34-0.4,13.93-0.83
			c8.58-0.42,17.72-1.51,27.4-3.26c9.69-1.75,18.89-3.95,27.61-6.62c7.99-9.92,16.66-15.73,25.99-17.41
			c3.86-0.7,5.96-0.13,6.29,1.69c0.86,4.77-9.23,10.69-30.28,17.75c-5.87,8.45-12.43,21.7-19.68,39.75
			c-2.71,6.65-5.43,13.08-8.15,19.3c-6.01,13.69-11.61,21.01-16.8,21.95c-1.89,0.34-2.99-0.31-3.29-1.96
			c-0.3-1.65,0.06-3.69,1.07-6.12c0.95-2.35,1.81-3.59,2.59-3.73l0.11-0.02c0.91-0.16,1.46,0.28,1.65,1.33l-0.06,2.08
			c0.06,0.35,0.24,0.5,0.52,0.45c3.72-0.67,8.67-9.39,14.84-26.16c2.48-6.75,5.79-14.52,9.92-23.32
			c4.14-8.79,8.35-16.15,12.65-22.07C58.47,31.83,47.03,34.69,36.02,36.68z M96.79,9.62c-6.74,1.22-13.14,5.71-19.2,13.47
			c5.05-1.71,9.36-3.46,12.91-5.27c3.55-1.8,6.01-3.33,7.38-4.59c1.37-1.26,1.98-2.26,1.85-3S98.61,9.29,96.79,9.62z M103.61,70.89
			c0.43-0.44,0.85-0.7,1.27-0.77c0.42-0.08,0.67,0.1,0.75,0.52l0.06,0.32c-4.71,5.63-9.4,10.76-14.08,15.37
			c-4.6,5.03-7.94,7.74-10,8.11c-2.07,0.37-3.26-0.28-3.56-1.97c-0.33-1.82,0.45-5.15,2.33-9.99c1.88-4.83,2.79-7.41,2.74-7.72
			c-0.06-0.32-0.23-0.45-0.51-0.4c-0.91,0.16-3.34,2.69-7.28,7.56c-3.94,4.88-7.35,9.35-10.24,13.43c-1.12,1.43-1.94,2.2-2.47,2.29
			c-0.53,0.09-0.86-0.24-1-1.02c-0.14-0.77,0.14-1.84,0.84-3.19l26.63-62.64c0.56-1.33,1.48-2.12,2.78-2.35
			c1.3-0.23,2.02,0.07,2.18,0.91c0.09,0.49-0.01,1.05-0.29,1.68c-0.29,0.63-2.05,4.41-5.29,11.34c-3.24,6.93-5.1,11.01-5.56,12.25
			c-0.46,1.24-2.68,6.43-6.65,15.55c-3.97,9.12-6.07,13.94-6.3,14.45c-0.23,0.51-0.33,0.91-0.27,1.19c0.05,0.28,0.2,0.4,0.44,0.35
			c0.25-0.04,0.4-0.11,0.45-0.19c1.84-2.65,4.44-5.82,7.8-9.51c3.36-3.69,5.77-5.66,7.25-5.93c0.56-0.1,1.09,0,1.58,0.31
			c0.49,0.31,0.82,0.9,0.97,1.78c0.16,0.88-0.78,3.51-2.81,7.9c-2.03,4.39-2.95,7.16-2.74,8.32s0.68,1.67,1.42,1.54
			c0.74-0.13,2.4-1.45,5-3.95c4.63-4.46,8.83-8.88,12.61-13.26L103.61,70.89z M115.24,73.9c-0.42,0.08-0.66-0.04-0.72-0.36
			c-0.06-0.32,0.12-0.73,0.54-1.24c1.97-2.31,2.82-4.24,2.54-5.79c-0.18-0.98-1.16-1.38-2.93-1.21c-3.15,0.64-6.51,3.6-10.08,8.89
			c-3.58,5.28-5.16,9.05-4.75,11.29c0.14,0.77,0.65,1.08,1.53,0.92c0.88-0.16,1.95-0.97,3.2-2.43c1.18-1.08,3.29-3.64,6.33-7.67
			c0.69-0.99,1.42-1.56,2.19-1.7c0.98-0.18,1.56,0.19,1.72,1.1c0.06,0.35,0.01,0.65-0.17,0.9c-0.17,0.25-0.48,0.76-0.92,1.52
			c-0.44,0.77-0.82,1.47-1.14,2.11c-0.93,2.05-1.35,3.36-1.25,3.92c0.25,1.4,0.94,2,2.06,1.8c1.47-0.27,4-2.12,7.58-5.55
			c3.58-3.44,6.81-6.83,9.69-10.17l4.33-4.91c0.43-0.44,0.85-0.7,1.28-0.77c0.42-0.08,0.68,0.13,0.76,0.62l0.04,0.21
			c-4.58,5.54-9.51,10.85-14.79,15.93c-5.28,5.08-8.87,7.8-10.76,8.14c-2.25,0.41-3.58-0.59-4.01-2.97
			c-0.1-0.56-0.09-1.11,0.03-1.64c0.12-0.53,0.16-0.9,0.12-1.11c-0.04-0.21-0.13-0.34-0.29-0.38c-0.21,0.04-1.39,1.23-3.54,3.57
			c-2.15,2.34-4.16,3.69-6.01,4.02c-1.86,0.34-2.97-0.48-3.32-2.44c-0.35-1.96,0.48-4.85,2.51-8.66c2.03-3.81,5.01-7.48,8.94-11.02
			s8-5.68,12.21-6.44c0.98-0.18,1.85-0.08,2.61,0.29c0.75,0.37,1.23,1.07,1.41,2.08c0.18,1.02-0.56,2.73-2.23,5.13
			C118.28,72.3,116.72,73.64,115.24,73.9z M109.58,59.38c1.19-0.65,2.67-1.86,4.45-3.63c1.78-1.77,2.87-3.05,3.27-3.85
			c0.4-0.8,0.97-1.26,1.7-1.39c0.74-0.13,1.48,0.06,2.22,0.58c0.26,0.24,0.66,1.17,1.21,2.77c0.54,1.61,1.44,3.06,2.69,4.35
			c0.19,0.26,0.29,0.42,0.3,0.49c0.06,0.35-0.12,0.56-0.54,0.64c-0.42,0.08-1-0.13-1.74-0.61c-0.74-0.48-1.54-1.33-2.42-2.55
			c-0.87-1.22-1.31-1.86-1.33-1.93c-1.41,1.85-4.97,4.38-10.7,7.58c-0.42,0.08-0.68-0.15-0.77-0.68
			C107.84,60.62,108.39,60.03,109.58,59.38z M177.9,57.92c-12.58,15.03-20.62,22.85-24.13,23.49c-2.04,0.37-3.21-0.29-3.51-1.98
			c-0.3-1.68,0.09-3.82,1.18-6.41c1.09-2.59,2.23-4.91,3.42-6.98c1.18-2.06,1.75-3.27,1.68-3.62c-0.06-0.35-0.2-0.51-0.41-0.47
			c-5.74,5.53-9.14,8.9-10.19,10.1c-1.05,1.21-2.76,3.18-5.13,5.93c-2.37,2.75-3.92,4.48-4.66,5.19c-0.74,0.71-1.6,1.16-2.58,1.34
			c-0.98,0.18-1.55-0.15-1.7-1c-0.18-0.98,1.23-4.42,4.22-10.33c2.85-5.88,4.22-9.13,4.11-9.76c-0.03-0.14-0.16-0.19-0.41-0.14
			c-0.25,0.04-2.89,2.73-7.95,8.07l-0.71-1.5c4.26-4.9,7.17-8.07,8.72-9.51c1.55-1.44,2.87-2.26,3.96-2.45
			c1.09-0.2,1.73,0.23,1.92,1.28c0.13,0.7-1.34,3.92-4.4,9.65c-3.06,5.73-4.55,8.8-4.48,9.18c0.07,0.39,0.23,0.56,0.47,0.51
			c0.25-0.04,3.74-3.59,10.47-10.64c6.73-7.05,10.95-10.73,12.63-11.03c0.49-0.09,1,0.02,1.53,0.32c0.52,0.3,0.82,0.63,0.88,0.98
			c0.15,0.84-1.21,3.97-4.07,9.38c-2.87,5.41-4.24,8.43-4.13,9.06c0.11,0.63,0.61,0.87,1.49,0.71c0.88-0.16,2.58-1.44,5.12-3.86
			c4.64-4.39,8.85-8.81,12.61-13.26l1.97-2.31c0.43-0.44,0.85-0.7,1.27-0.77c0.42-0.08,0.67,0.1,0.75,0.52L177.9,57.92z M227.93,49
			c-12.47,14.43-20.25,21.92-23.34,22.48c-1.19,0.22-1.92-0.38-2.17-1.78c-0.25-1.4-0.15-3.85,0.3-7.34
			c-0.01-0.07-0.09-0.09-0.23-0.07c-6.87,8.13-11.64,12.43-14.3,12.91c-1.82,0.33-2.86-0.17-3.1-1.51
			c-0.53-2.95,1.86-7.84,7.19-14.67c5.33-6.83,9.88-10.59,13.67-11.27c0.49-0.09,1.08,0.17,1.77,0.77
			c1.18-2.68,7.9-17.26,20.15-43.75c1.36-2.49,2.58-3.84,3.67-4.03c1.09-0.2,1.69,0.06,1.82,0.76c0.32,1.76-4.22,11.13-13.62,28.11
			c-3.48,6.43-6.55,13.01-9.21,19.76c-2.66,6.75-3.7,11.7-3.13,14.86c0.24,1.33,0.74,1.93,1.52,1.79c0.91-0.16,2.38-1.26,4.41-3.3
			c4.15-4.3,7.76-8.21,10.82-11.74l1.7-2.05c0.43-0.44,0.85-0.7,1.27-0.77s0.68,0.13,0.76,0.62L227.93,49z M204.81,55.23l2.44-5.77
			c-0.22-0.03-0.44-0.03-0.65,0.01c-2.95,0.53-6.4,3.48-10.36,8.83c-3.96,5.35-5.78,8.94-5.45,10.77c0.09,0.49,0.41,0.69,0.98,0.58
			c1.75-0.32,4.15-2.29,7.19-5.92C202,60.11,203.95,57.28,204.81,55.23z M230.86,64.66c-0.19-1.05,0.07-2.51,0.79-4.38
			c0.71-1.87,1.08-2.95,1.1-3.24c0.02-0.29-0.08-0.42-0.29-0.38c-0.21,0.04-0.48,0.29-0.79,0.74c-0.32,0.46-2.19,2.32-5.62,5.58
			c-3.43,3.27-5.89,5.03-7.36,5.3c-0.98,0.18-1.59-0.37-1.82-1.63c-0.23-1.26,1.15-4.88,4.13-10.85s5.28-9.11,6.89-9.4
			c0.35-0.06,0.71,0.03,1.09,0.29c0.37,0.26,0.58,0.48,0.61,0.65c0.03,0.18-1.39,2.66-4.25,7.45c-2.87,4.79-4.19,7.79-3.98,8.98
			c0.05,0.28,0.22,0.4,0.5,0.34c1.33-0.24,3.89-2.55,7.66-6.93c3.78-4.38,6.42-7.72,7.92-10.02c1.5-2.3,2.79-3.55,3.84-3.74
			c1.05-0.19,1.66,0.17,1.83,1.08c0.1,0.56-0.01,1.16-0.33,1.8c-0.32,0.64-0.93,1.78-1.83,3.43c-0.9,1.65-1.73,3.19-2.48,4.63
			c-2.1,4-3.08,6.44-2.92,7.32c0.16,0.88,0.61,1.25,1.34,1.12c0.74-0.13,2.37-1.44,4.89-3.93c4.7-4.47,8.94-8.9,12.71-13.27
			l1.97-2.31c0.43-0.44,0.82-0.69,1.17-0.75c0.35-0.06,0.56,0.12,0.64,0.54l0.06,0.32c0.28-0.05-1.32,1.83-4.8,5.65
			c-3.48,3.82-7.24,7.68-11.28,11.6c-4.04,3.92-6.66,5.98-7.85,6.2C232.37,67.22,231.19,66.49,230.86,64.66z M265.9,50.4
			c3.93-0.71,8.23-3.77,12.91-9.18l1.88,0.2c-5.84,7-11.25,10.94-16.23,11.84c-0.56,0.1-0.99,0.14-1.28,0.12
			c-1.48,2.66-3.21,4.91-5.19,6.75c-1.99,1.84-3.82,2.92-5.51,3.22c-2.67,0.48-4.27-0.77-4.81-3.75c-0.54-2.98,1.23-7.41,5.32-13.3
			c-1.21-1.88-2.02-3.95-2.42-6.19c-0.41-2.25,0.07-4.22,1.43-5.91c1.36-1.69,3.11-2.74,5.25-3.12c2.14-0.39,4.08-0.01,5.8,1.13
			c1.73,1.14,2.82,3.01,3.29,5.6c0.72,4,0.15,8.24-1.73,12.7C264.91,50.55,265.34,50.51,265.9,50.4z M251.88,58.26
			c0.25,1.4,1.29,1.94,3.12,1.61c1.82-0.33,3.8-2.61,5.94-6.83c-2.07-0.64-4.07-2.05-5.99-4.25
			C252.47,52.72,251.45,55.88,251.88,58.26z M262.34,49.96c1.52-4.04,2.04-7.34,1.58-9.91c-0.46-2.56-1.43-4.34-2.92-5.34
			c-1.48-1-2.82-1.39-4.02-1.18c-2.46,0.44-3.46,1.93-3,4.46s1.47,4.94,3.04,7.22C258.6,47.5,260.37,49.08,262.34,49.96z
			 M306.07,34.46c0.5-0.45,0.94-0.71,1.33-0.78c0.39-0.07,0.62,0.14,0.71,0.63l0.04,0.21c-4.66,5.91-9.6,11.26-14.82,16.05
			c-5.22,4.78-9.8,7.53-13.73,8.24c-3.09,0.56-4.97-1.01-5.63-4.69s0.84-8.1,4.51-13.26c3.67-5.16,8.1-8.2,13.3-9.14
			c1.57-0.14,2.58-0.07,3.03,0.21c0.45,0.28,0.73,0.74,0.84,1.37c0.11,0.63-0.33,1.89-1.33,3.77c-1,1.88-2.03,2.92-3.08,3.11
			c-1.23,0.01-1.9-0.31-2.02-0.94c-0.05-0.28,0.18-0.79,0.7-1.54c1-1.27,1.46-2.15,1.37-2.64c-0.09-0.49-0.52-0.67-1.29-0.53
			c-2.45,0.51-5.17,3.09-8.17,7.73c-3,4.64-4.27,8.25-3.8,10.85c0.35,1.97,1.81,2.72,4.38,2.25c2.56-0.46,5.15-1.87,7.77-4.23
			c4.62-4.1,9.17-8.79,13.65-14.1L306.07,34.46z M132.9,53.97c-0.28-0.04-0.81-0.34-1.6-0.89l-8.14-7.05
			c-0.36-0.49-0.5-0.98-0.43-1.47c0.15-0.99,0.71-1.41,1.7-1.26c0.42,0.06,0.75,0.26,1,0.58l7.33,8.12
			C133.6,53.13,133.64,53.79,132.9,53.97z M246.56,38.63l-0.42-1.86c0-0.36,0.12-0.67,0.36-0.93c0.24-0.26,0.54-0.39,0.9-0.39
			s0.68,0.13,0.96,0.39c0.28,0.26,0.44,0.67,0.48,1.23c-0.12,1.08-0.44,2.04-0.96,2.88c-0.52,0.84-1.1,1.48-1.74,1.92
			c-1.4,0.84-2.64,1.36-3.72,1.56l-0.66,0.12c-0.2,0-0.3-0.12-0.3-0.36c0-0.08,0.43-0.27,1.29-0.57c0.86-0.3,1.71-0.79,2.55-1.47
			C246.14,40.47,246.56,39.63,246.56,38.63z M267.99,27.19l-0.42-1.86c0-0.36,0.12-0.67,0.36-0.93c0.24-0.26,0.54-0.39,0.9-0.39
			s0.68,0.13,0.96,0.39c0.28,0.26,0.44,0.67,0.48,1.23c-0.12,1.08-0.44,2.04-0.96,2.88c-0.52,0.84-1.1,1.48-1.74,1.92
			c-1.4,0.84-2.64,1.36-3.72,1.56l-0.66,0.12c-0.2,0-0.3-0.12-0.3-0.36c0-0.08,0.43-0.27,1.29-0.57c0.86-0.3,1.71-0.79,2.55-1.47
			C267.57,29.02,267.99,28.18,267.99,27.19z M253.83,69.03c-0.39,0.41-0.82,0.61-1.28,0.61c-0.47,0-0.82-0.1-1.04-0.31
			c-0.22-0.2-0.35-0.55-0.37-1.04c-0.02-0.49,0.19-0.9,0.64-1.22c0.45-0.33,0.88-0.49,1.28-0.49c0.9,0,1.34,0.39,1.34,1.16
			C254.42,68.2,254.22,68.62,253.83,69.03z M167.07,164.1c0.12,0.69,0.75,0.93,1.89,0.72c1.13-0.2,3.02-1.24,5.67-3.1
			c2.65-1.86,4.94-3.68,6.9-5.45l2.93-2.66c0.09,0.13,0.18,0.39,0.25,0.81c0.07,0.41-0.17,0.81-0.74,1.2
			c-8.14,8-14.03,12.33-17.67,12.99c-1.79,0.32-2.84-0.38-3.15-2.09s0.87-7.25,3.55-16.61c2.68-9.36,5.44-18.34,8.29-26.94
			l4.19-12.79l-1.08,1.69c-0.79,1.14-12.36,20.01-34.71,56.63c-0.89,0.59-1.66,0.94-2.31,1.06c-0.65,0.12-1.04-0.13-1.15-0.75
			c-0.11-0.62,0.05-1.46,0.5-2.54c0.45-1.07,1.06-2.68,1.85-4.81c0.79-2.13,2.16-6.14,4.11-12.03c1.95-5.89,3.62-11.41,5-16.55
			c1.38-5.15,2.49-10.6,3.33-16.36c0.84-5.76,0.95-10.36,0.33-13.8c-1.03-5.71-4.02-8.11-8.97-7.22
			c-5.77,1.04-11.58,3.76-17.43,8.15c-5.85,4.39-10.41,9.07-13.71,14.03c-3.29,4.96-4.66,8.99-4.1,12.08c0.67,3.71,4,5.03,9.98,3.95
			c5.98-1.08,11.28-3.9,15.88-8.46c4.61-4.56,7.64-9.1,9.09-13.62c0.27-0.47,0.51-0.73,0.71-0.77c0.21-0.04,0.39,0.37,0.54,1.23
			c0.16,0.86-0.39,2.56-1.64,5.09c-1.25,2.53-2.93,5.2-5.05,7.99c-2.12,2.8-4.88,5.39-8.29,7.78c-3.4,2.39-6.86,3.9-10.36,4.53
			c-8.73,1.58-13.56-0.18-14.47-5.27c-0.5-2.75,0.3-6.12,2.38-10.12c2.08-4,4.96-7.92,8.63-11.78c3.67-3.86,8.18-7.37,13.54-10.54
			c5.35-3.17,10.75-5.24,16.18-6.22c6.39-1.15,10.19,1.6,11.4,8.27c0.98,5.43,0.26,13.16-2.15,23.17
			c-2.42,10.02-5.06,18.66-7.94,25.92l-4.32,10.89c0.25-0.19,2.84-4.35,7.76-12.47c15.58-25.74,24.42-40.11,26.5-43.12
			c0.48-0.09,1.15-0.01,2.01,0.22c0.86,0.24,1.33,0.56,1.4,0.97c0.07,0.41,0.05,0.84-0.09,1.29
			C171.86,143.64,166.71,162.1,167.07,164.1z M225.17,138.49c0.42-0.43,0.83-0.68,1.25-0.76c0.41-0.07,0.66,0.09,0.73,0.51
			l0.06,0.31c-4.61,5.52-9.21,10.54-13.79,15.05c-4.51,4.93-7.77,7.58-9.8,7.94c-2.03,0.37-3.19-0.28-3.49-1.93
			c-0.32-1.79,0.44-5.05,2.28-9.78c1.84-4.73,2.74-7.26,2.68-7.56c-0.06-0.31-0.22-0.44-0.5-0.39c-0.89,0.16-3.27,2.63-7.13,7.41
			c-3.86,4.78-7.2,9.16-10.03,13.15c-1.1,1.4-1.9,2.15-2.42,2.25c-0.52,0.09-0.84-0.24-0.98-0.99c-0.14-0.76,0.14-1.8,0.82-3.13
			l26.09-61.35c0.55-1.3,1.45-2.07,2.73-2.3c1.27-0.23,1.98,0.07,2.13,0.89c0.09,0.48-0.01,1.03-0.29,1.65
			c-0.28,0.62-2.01,4.32-5.18,11.1c-3.18,6.79-4.99,10.79-5.45,12c-0.46,1.22-2.63,6.3-6.51,15.23c-3.89,8.94-5.95,13.66-6.18,14.16
			c-0.23,0.5-0.32,0.89-0.27,1.17c0.05,0.28,0.19,0.39,0.44,0.35c0.24-0.04,0.39-0.11,0.45-0.19c1.8-2.6,4.35-5.7,7.64-9.31
			c3.29-3.61,5.65-5.55,7.1-5.81c0.55-0.1,1.07,0,1.55,0.31c0.48,0.3,0.8,0.89,0.95,1.74c0.16,0.86-0.76,3.44-2.76,7.74
			c-1.99,4.3-2.89,7.02-2.68,8.15c0.21,1.13,0.67,1.64,1.39,1.51c0.72-0.13,2.35-1.42,4.89-3.86c4.54-4.37,8.65-8.7,12.35-12.98
			L225.17,138.49z M236.56,141.44c-0.41,0.07-0.65-0.04-0.7-0.35c-0.06-0.31,0.12-0.71,0.53-1.21c1.93-2.27,2.76-4.15,2.49-5.67
			c-0.17-0.96-1.13-1.36-2.88-1.18c-3.08,0.63-6.37,3.53-9.88,8.7c-3.5,5.18-5.05,8.86-4.66,11.06c0.14,0.76,0.63,1.06,1.49,0.9
			c0.86-0.16,1.91-0.95,3.14-2.38c1.16-1.06,3.22-3.56,6.2-7.51c0.68-0.97,1.39-1.53,2.15-1.67c0.96-0.17,1.52,0.19,1.69,1.08
			c0.06,0.34,0.01,0.64-0.16,0.88c-0.17,0.24-0.47,0.74-0.9,1.49c-0.43,0.75-0.81,1.44-1.12,2.07c-0.91,2.01-1.32,3.29-1.22,3.84
			c0.25,1.38,0.92,1.96,2.02,1.76c1.44-0.26,3.92-2.07,7.43-5.44c3.51-3.37,6.67-6.69,9.49-9.96l4.24-4.81
			c0.42-0.43,0.83-0.68,1.25-0.76c0.41-0.07,0.66,0.13,0.75,0.61l0.04,0.21c-4.49,5.43-9.32,10.63-14.49,15.6
			c-5.17,4.98-8.68,7.64-10.54,7.97c-2.2,0.4-3.51-0.57-3.93-2.91c-0.1-0.55-0.09-1.08,0.03-1.6c0.12-0.52,0.16-0.88,0.12-1.09
			c-0.04-0.21-0.13-0.33-0.28-0.38c-0.21,0.04-1.36,1.2-3.47,3.5c-2.11,2.3-4.07,3.61-5.89,3.94c-1.82,0.33-2.91-0.47-3.25-2.39
			c-0.35-1.92,0.47-4.75,2.46-8.48c1.99-3.73,4.91-7.33,8.75-10.79c3.85-3.46,7.83-5.57,11.96-6.31c0.96-0.17,1.81-0.08,2.55,0.28
			c0.74,0.36,1.2,1.04,1.38,2.04c0.18,1-0.55,2.67-2.18,5.03C239.54,139.87,238,141.18,236.56,141.44z M231.01,127.21
			c1.16-0.64,2.62-1.82,4.36-3.56c1.75-1.73,2.81-2.99,3.21-3.77c0.39-0.78,0.95-1.24,1.67-1.37c0.72-0.13,1.45,0.06,2.18,0.57
			c0.26,0.24,0.65,1.14,1.18,2.71c0.53,1.57,1.41,2.99,2.63,4.26c0.19,0.25,0.29,0.41,0.3,0.48c0.06,0.34-0.11,0.55-0.53,0.63
			c-0.41,0.07-0.98-0.12-1.71-0.6c-0.72-0.47-1.51-1.31-2.37-2.5c-0.85-1.19-1.29-1.83-1.3-1.89c-1.38,1.81-4.87,4.29-10.48,7.43
			c-0.41,0.07-0.67-0.15-0.76-0.66C229.31,128.43,229.85,127.85,231.01,127.21z M243.68,117.79c4.67-0.84,9.27-1.71,13.8-2.6
			c5.66-10.75,9.82-16.36,12.51-16.84c0.96-0.17,1.54,0.26,1.72,1.29c0.6,3.3-1.07,7.86-4.98,13.68l7.82-1.52
			c5.19-1.15,8.36-1.83,9.53-2.04c1.17-0.21,1.78-0.18,1.83,0.1c0.24,1.31-0.53,2.16-2.31,2.55l-19.24,4.32
			c-2.8,3.77-6.35,7.86-10.67,12.25c-3.67,9.54-5.23,15.85-4.67,18.94c0.29,1.58,1.44,2.19,3.47,1.82c2.03-0.37,5.04-2.04,9.05-5.04
			l7.48-6.35c0.09,0.13,0.18,0.39,0.25,0.81c0.07,0.41-0.17,0.81-0.74,1.2c-1.93,1.91-4.06,3.86-6.4,5.84
			c-5.06,3.82-9.07,6-12.02,6.54c-1.38,0.25-2.49,0.16-3.35-0.25c-0.85-0.41-1.37-0.89-1.54-1.43l-0.36-0.79
			c-0.42-2.34,0.45-6.56,2.61-12.66c2.16-6.1,4.89-12.44,8.18-18.99c-3.28,0.73-6.39,1.37-9.35,1.9c-2.96,0.53-4.5,0.46-4.62-0.23
			C241.45,118.98,242.11,118.15,243.68,117.79z M262.63,117.14c-2.2,0.4-3.67,0.7-4.42,0.9c-0.46,1.01-1.08,2.47-1.87,4.38
			c-0.79,1.92-1.33,3.22-1.64,3.92C257.81,123.09,260.45,120.02,262.63,117.14z M268.9,102.38c-0.06-0.34-0.23-0.49-0.51-0.44
			c-1.58,0.29-4.44,4.53-8.56,12.73l5.16-0.93C268.08,108.85,269.39,105.06,268.9,102.38z M312.02,114.13
			c-3.54,9.48-5.29,14.37-5.23,14.68c0.06,0.31,0.38,0.41,0.96,0.31c0.58-0.11,1.38-0.5,2.4-1.18c1.01-0.68,1.65-1.5,1.9-2.47
			c2.64-7.01,6.72-18.14,12.23-33.41c5.51-15.26,8.25-23,8.22-23.2l-0.59-0.32l-2.43,1.29c-0.9,0.52-1.49,1.16-1.78,1.92
			c0.15,0.04-1.54,4.75-5.06,14.12C319.1,95.24,315.56,104.66,312.02,114.13z M360.45,122.91c-0.6-3.3-3.36-5.21-8.28-5.75
			c2.26-5.16,2.96-10.15,2.09-14.96c-0.51-2.82-2.08-4.84-4.72-6.07c-2.64-1.23-6.12-1.45-10.45-0.67c-1.86,0.33-3.81,0.9-5.87,1.7
			c4.33-3.12,8.92-8.27,13.77-15.42c4.85-7.16,6.87-12.97,6.06-17.44c-1.1-6.12-7.88-8.05-20.32-5.81
			c-7.84,1.41-16.39,4.86-25.66,10.33c-8.49,5.01-15.7,10.79-21.68,17.31c0.01,0.06,0.02,0.12,0.03,0.16c0,0.01,0,0.02,0.01,0.03
			c0.03,0.07,0.07,0.14,0.1,0.21c0.08,0.15,0.16,0.29,0.25,0.44c0.31,0.07,0.6,0.17,0.89,0.31c0.04,0,0.08-0.01,0.11-0.01
			c0.08-0.01,0.16-0.01,0.25-0.01c0.05-0.03,0.11-0.07,0.16-0.1c5-5.77,11.36-10.92,19.13-15.43c8.25-4.79,16.3-7.89,24.14-9.31
			c11.14-2.01,17.17-0.44,18.1,4.72c0.57,3.16-0.77,7.43-4.02,12.81c-3.25,5.38-6.74,10.07-10.45,14.08
			c-3.71,4.01-6.28,6.39-7.71,7.14c-0.93,0.74-1.36,1.29-1.3,1.67c0.07,0.38,0.48,0.5,1.24,0.36c0.41-0.07,0.92-0.41,1.52-1.02
			c2.97-2.03,6.24-3.36,9.82-4.01c3.57-0.64,6.57-0.35,9,0.88c2.42,1.23,3.85,3.05,4.29,5.46c0.74,4.12,0.39,8.27-1.06,12.44
			c-2.42-0.06-5.29,0.21-8.59,0.8c-6.67,1.2-13.54,3.74-20.61,7.61c-7.07,3.87-12.7,7.9-16.88,12.1c-4.18,4.2-6.05,7.5-5.61,9.9
			c0.52,2.89,4.29,3.7,11.3,2.43c7.01-1.27,14.67-4.78,22.96-10.53c8.29-5.76,14.42-12.22,18.38-19.4c4.05,0.41,6.29,1.81,6.72,4.22
			c0.22,1.24-0.26,2.5-1.45,3.78c-0.42,0.43-0.6,0.78-0.55,1.06c0.05,0.28,0.18,0.39,0.38,0.36
			C359.44,127.71,360.94,125.59,360.45,122.91z M337.92,132.88c-4.97,4.13-9.86,7.32-14.67,9.57c-4.81,2.25-9.33,3.76-13.56,4.52
			c-4.23,0.76-6.5,0.27-6.82-1.48c-0.32-1.75,1.49-4.44,5.41-8.06c3.93-3.62,8.99-7.12,15.19-10.52c6.2-3.39,11.92-5.56,17.14-6.5
			c2.68-0.48,5.37-0.72,8.07-0.71C346.48,124.36,342.89,128.76,337.92,132.88z M384.01,114.82c-0.41,0.07-0.65-0.04-0.7-0.35
			c-0.06-0.31,0.12-0.71,0.53-1.21c1.93-2.27,2.76-4.15,2.49-5.67c-0.17-0.96-1.13-1.36-2.88-1.18c-3.08,0.63-6.37,3.53-9.88,8.7
			c-3.5,5.18-5.05,8.86-4.66,11.06c0.14,0.76,0.63,1.06,1.49,0.9c0.86-0.15,1.91-0.95,3.14-2.38c1.16-1.06,3.22-3.56,6.2-7.51
			c0.68-0.97,1.39-1.53,2.15-1.67c0.96-0.17,1.52,0.19,1.69,1.08c0.06,0.34,0.01,0.64-0.16,0.88c-0.17,0.24-0.47,0.74-0.9,1.49
			c-0.43,0.75-0.8,1.44-1.12,2.07c-0.91,2.01-1.32,3.29-1.22,3.84c0.25,1.38,0.92,1.96,2.02,1.76c1.44-0.26,3.92-2.07,7.43-5.44
			c3.51-3.37,6.67-6.69,9.49-9.96l4.24-4.81c0.42-0.43,0.83-0.68,1.25-0.76c0.41-0.07,0.66,0.13,0.75,0.61l0.04,0.21
			c-4.49,5.43-9.32,10.63-14.49,15.61c-5.17,4.98-8.68,7.64-10.54,7.97c-2.2,0.4-3.51-0.57-3.93-2.91c-0.1-0.55-0.09-1.08,0.03-1.6
			c0.12-0.52,0.16-0.88,0.12-1.09c-0.04-0.21-0.13-0.33-0.28-0.38c-0.21,0.04-1.36,1.2-3.47,3.5c-2.11,2.3-4.07,3.61-5.89,3.94
			c-1.82,0.33-2.91-0.47-3.25-2.39c-0.35-1.92,0.47-4.75,2.46-8.48c1.99-3.73,4.91-7.33,8.75-10.79c3.85-3.46,7.83-5.57,11.96-6.31
			c0.96-0.17,1.81-0.08,2.55,0.28c0.74,0.36,1.2,1.04,1.38,2.04c0.18,1-0.55,2.67-2.18,5.03C387,113.25,385.46,114.56,384.01,114.82
			z M445.29,99.18c-12.32,14.72-20.2,22.39-23.64,23.01c-1.99,0.36-3.14-0.29-3.44-1.94c-0.3-1.65,0.09-3.74,1.16-6.28
			c1.07-2.54,2.18-4.81,3.35-6.83c1.16-2.02,1.71-3.2,1.65-3.55c-0.06-0.34-0.2-0.5-0.4-0.46c-5.62,5.42-8.95,8.71-9.98,9.89
			c-1.03,1.18-2.7,3.12-5.02,5.8c-2.32,2.69-3.84,4.38-4.57,5.08c-0.73,0.7-1.57,1.14-2.53,1.31c-0.96,0.17-1.52-0.15-1.67-0.98
			c-0.17-0.96,1.2-4.33,4.14-10.12c2.79-5.76,4.14-8.95,4.02-9.56c-0.02-0.14-0.16-0.18-0.4-0.14c-0.24,0.04-2.84,2.68-7.78,7.9
			l-0.69-1.47c4.17-4.8,7.02-7.9,8.54-9.31c1.52-1.41,2.81-2.21,3.88-2.4c1.07-0.19,1.69,0.23,1.88,1.26
			c0.12,0.69-1.31,3.84-4.31,9.46c-3,5.62-4.46,8.61-4.39,8.99c0.07,0.38,0.22,0.55,0.46,0.5c0.24-0.04,3.66-3.52,10.26-10.42
			c6.6-6.9,10.72-10.51,12.37-10.8c0.48-0.09,0.98,0.02,1.49,0.32c0.51,0.3,0.8,0.62,0.87,0.96c0.15,0.82-1.18,3.89-3.99,9.18
			c-2.81,5.3-4.15,8.26-4.04,8.88c0.11,0.62,0.6,0.85,1.46,0.7c0.86-0.15,2.53-1.41,5.01-3.78c4.55-4.3,8.66-8.63,12.35-12.98
			l1.93-2.27c0.42-0.43,0.83-0.68,1.25-0.76c0.41-0.07,0.66,0.09,0.73,0.51L445.29,99.18z M221.87,164
			c-0.42,0.44-0.89,0.67-1.4,0.67s-0.89-0.11-1.13-0.33c-0.24-0.22-0.38-0.6-0.4-1.13c-0.02-0.53,0.21-0.98,0.7-1.33
			c0.49-0.35,0.95-0.53,1.4-0.53c0.98,0,1.46,0.42,1.46,1.27C222.5,163.09,222.29,163.55,221.87,164z M405.27,87.44l-1.03-1.85
			c-0.11-0.38-0.08-0.75,0.09-1.1c0.17-0.35,0.45-0.58,0.84-0.7c0.38-0.11,0.76-0.07,1.14,0.12c0.38,0.19,0.68,0.58,0.89,1.16
			c0.21,1.19,0.16,2.31-0.13,3.37c-0.29,1.06-0.71,1.92-1.26,2.59c-1.23,1.33-2.39,2.27-3.48,2.82l-0.67,0.33
			c-0.21,0.06-0.36-0.03-0.43-0.29c-0.03-0.09,0.37-0.42,1.2-1.01c0.82-0.59,1.58-1.37,2.26-2.36
			C405.4,89.53,405.58,88.51,405.27,87.44z M285.2,86.61c-0.13,0.59,0.25,1.18,0.84,1.31c0.59,0.13,1.18-0.25,1.31-0.84
			c0.13-0.59-0.25-1.18-0.84-1.31C285.92,85.64,285.33,86.01,285.2,86.61z M449.99,149.53c-58.38,2.74-116.49,10.76-173.47,23.74
			c-35.38,8.06-70.46,17.89-104.57,30.3c-5.7,2.07-11.4,4.18-16.98,6.55c-0.8,0.34-0.35,1.57,0.42,1.57
			c3.82,0.01,7.51-0.31,11.27-0.97c1.07-0.19,0.61-1.81-0.45-1.62c-2.06,0.36-4.11,0.6-6.17,0.74c15.1-6.13,31.84-11.57,47.61-16.44
			c44.53-13.76,90.13-24.11,136.16-31.36c35.17-5.54,70.62-9.15,106.18-10.82C451.07,151.16,451.08,149.48,449.99,149.53z"/>
	</defs>
	<clipPath id="SVGID_2_">
		<use xlink:href="#SVGID_1_"  style="overflow:visible;"/>
	</clipPath>
	<linearGradient id="SVGID_3_" gradientUnits="userSpaceOnUse" x1="-165.2576" y1="15.2704" x2="757.1388" y2="262.4258">
		<stop  offset="0.0652" style="stop-color:#EFDF80"/>
		<stop  offset="0.2828" style="stop-color:#BB8949"/>
		<stop  offset="0.4834" style="stop-color:#DDC364"/>
		<stop  offset="0.6755" style="stop-color:#815623"/>
		<stop  offset="0.6965" style="stop-color:#845A26"/>
		<stop  offset="0.7176" style="stop-color:#8E662E"/>
		<stop  offset="0.7388" style="stop-color:#9E7A3C"/>
		<stop  offset="0.7601" style="stop-color:#B59750"/>
		<stop  offset="0.7812" style="stop-color:#D2BB69"/>
		<stop  offset="0.7979" style="stop-color:#EEDD81"/>
		<stop  offset="0.8933" style="stop-color:#A9803C"/>
		<stop  offset="0.9933" style="stop-color:#855B22"/>
	</linearGradient>
	<rect x="-147.52" y="-50.93" class="st0" width="886.92" height="379.55"/>
</g>
</svg>
