<?xml version="1.0" encoding="utf-8"?>
<!-- Generator: Adobe Illustrator 23.0.0, SVG Export Plug-In . SVG Version: 6.00 Build 0)  -->
<svg version="1.1" id="Layer_1" xmlns="http://www.w3.org/2000/svg" xmlns:xlink="http://www.w3.org/1999/xlink" x="0px" y="0px"
	 viewBox="0 0 356.7 156.7" style="enable-background:new 0 0 356.7 156.7;" xml:space="preserve">
<style type="text/css">
	.st0{clip-path:url(#SVGID_2_);}
	.st1{fill:url(#SVGID_3_);}
	.st2{fill:#BE975F;}
</style>
<title>Asset 6</title>
<g>
	<g id="Layer_1-2">
		<g>
			<g>
				<defs>
					<path id="SVGID_1_" d="M237.5,7.8h7.1v49.6h-7.9V26.6l-13.2,30.8h-5.9L204.3,27v30.4h-7.9V7.8h7.1l17.1,38.8L237.5,7.8z
						 M286.9,22.2v35.2h-8.5V52c-1,1.9-2.6,3.4-4.5,4.5c-2,1.1-4.2,1.6-6.4,1.5c-8.6,0-12.9-4.8-12.9-14.5V22.2h8.6v21.3
						c0,2.6,0.5,4.4,1.6,5.6c1.3,1.3,3,2,4.8,1.8c2.3,0.1,4.6-0.8,6.1-2.5c1.6-1.9,2.4-4.2,2.3-6.7V22.2H286.9z M330,22.2v35.2h-8.6
						v-5.6c-1.1,1.9-2.7,3.5-4.6,4.6c-2.1,1.1-4.4,1.7-6.8,1.7c-2.9,0.1-5.7-0.7-8.1-2.2s-4.3-3.7-5.5-6.3c-1.4-3-2-6.3-2-9.5
						c-0.1-3.3,0.6-6.6,2-9.7c1.2-2.7,3.1-4.9,5.5-6.5s5.2-2.4,8.1-2.4c2.4,0,4.7,0.6,6.8,1.7c1.9,1,3.5,2.6,4.6,4.6v-5.3L330,22.2z
						 M319,48.2c1.6-2,2.4-4.8,2.4-8.4s-0.8-6.5-2.4-8.6c-3.3-3.7-9-4-12.7-0.7c-0.3,0.2-0.5,0.5-0.8,0.8c-1.6,2.1-2.4,4.9-2.4,8.6
						s0.8,6.5,2.4,8.4c1.7,2,4.2,3.1,6.8,2.9C314.9,51.3,317.4,50.2,319,48.2z M228.3,119.4V141h-8.7v-21.2c0-2.8-0.5-4.8-1.6-6.1
						c-1.3-1.4-3.1-2.1-5-1.9c-2.4-0.1-4.7,0.8-6.4,2.5c-1.7,1.8-2.6,4.2-2.4,6.7v20h-8.6V89.7h8.6v21.2c1.2-1.9,2.9-3.4,4.9-4.4
						c2.1-1.1,4.4-1.6,6.7-1.6C224.1,104.9,228.3,109.8,228.3,119.4L228.3,119.4z M271.2,105.8V141h-8.6v-5.6
						c-1.1,1.9-2.7,3.5-4.6,4.6c-2.1,1.1-4.5,1.7-6.8,1.6c-2.9,0.1-5.7-0.7-8.1-2.2c-2.4-1.5-4.3-3.7-5.5-6.3c-1.4-3-2.1-6.3-2-9.6
						c-0.1-3.3,0.6-6.6,2-9.6c1.2-2.7,3.1-4.9,5.5-6.6c2.4-1.6,5.2-2.4,8.1-2.3c2.4,0,4.7,0.5,6.8,1.6c1.9,1,3.5,2.6,4.6,4.6v-5.3
						L271.2,105.8z M251.5,101.3L241.3,87h8.9l7,14.4L251.5,101.3z M260.3,131.8c1.6-2,2.4-4.8,2.4-8.4s-0.8-6.5-2.4-8.6
						c-1.6-2-4.2-3.1-6.8-3c-2.6-0.1-5.1,1-6.7,3.1c-1.6,2.1-2.4,4.9-2.4,8.6s0.8,6.4,2.4,8.4c1.7,2,4.2,3.1,6.8,2.9
						C256.2,134.9,258.7,133.8,260.3,131.8L260.3,131.8z M313.4,119.4V141h-8.7v-21.2c0-2.8-0.5-4.8-1.6-6.1c-1.3-1.4-3.1-2.1-5-1.9
						c-2.4-0.1-4.7,0.8-6.4,2.5c-1.7,1.8-2.6,4.2-2.4,6.7v20h-8.6v-25.2c0-3.3-0.2-6.7-0.6-10h8.2l0.6,5.8c1.1-2.1,2.8-3.8,4.9-5
						s4.6-1.8,7-1.7C309.2,104.9,313.5,109.8,313.4,119.4L313.4,119.4z M356.7,105.8v34.1c0,5.5-1.5,9.6-4.5,12.5s-7.4,4.3-13.3,4.3
						c-5,0.1-9.9-1.1-14.4-3.4l1.4-6.6c3.9,2.1,8.3,3.3,12.8,3.4c6.3,0,9.4-3.1,9.4-9.3v-7c-1.1,1.9-2.7,3.5-4.7,4.6
						c-2.1,1.2-4.5,1.8-6.9,1.8c-2.9,0-5.7-0.7-8.2-2.2c-2.4-1.5-4.3-3.6-5.6-6.2c-2.7-5.8-2.7-12.5,0-18.3c1.2-2.6,3.2-4.7,5.6-6.2
						c2.5-1.5,5.3-2.2,8.2-2.2c2.4,0,4.8,0.5,6.9,1.6c2,1,3.6,2.6,4.6,4.6V106L356.7,105.8z M345.6,130.4c1.6-1.9,2.5-4.5,2.5-7.9
						s-0.8-6-2.4-7.9c-3.7-3.8-9.7-3.8-13.5-0.1l-0.1,0.1c-1.7,1.9-2.5,4.5-2.5,7.9c0,3.3,0.8,6,2.5,7.9c3.7,3.8,9.7,3.8,13.4,0.2
						C345.5,130.5,345.5,130.4,345.6,130.4z"/>
				</defs>
				<clipPath id="SVGID_2_">
					<use xlink:href="#SVGID_1_"  style="overflow:visible;"/>
				</clipPath>
				<g class="st0">
					
						<linearGradient id="SVGID_3_" gradientUnits="userSpaceOnUse" x1="89.9114" y1="-169.3206" x2="645.3885" y2="-20.4794" gradientTransform="matrix(1 0 0 1 0 172)">
						<stop  offset="7.000000e-02" style="stop-color:#EBDB80"/>
						<stop  offset="0.28" style="stop-color:#B78549"/>
						<stop  offset="0.48" style="stop-color:#D9BF64"/>
						<stop  offset="0.68" style="stop-color:#B78549"/>
						<stop  offset="0.7" style="stop-color:#B9894C"/>
						<stop  offset="0.73" style="stop-color:#C19554"/>
						<stop  offset="0.76" style="stop-color:#CDA961"/>
						<stop  offset="0.78" style="stop-color:#DEC573"/>
						<stop  offset="0.8" style="stop-color:#EAD980"/>
						<stop  offset="0.89" style="stop-color:#A5803C"/>
						<stop  offset="0.99" style="stop-color:#815B22"/>
					</linearGradient>
					<rect x="98.4" y="-29" class="st1" width="538.5" height="212.2"/>
				</g>
			</g>
		</g>
		<path class="st2" d="M78,84.3c0,16.7-3.4,29.6-10.2,38.7s-16.3,13.6-28.7,13.6s-22-4.6-28.9-13.7C3.4,113.9,0,101,0,84.3V57.2
			c0-16.7,3.4-29.5,10.2-38.7S26.6,4.9,39,4.9s22,4.6,28.8,13.7S78,40.6,78,57.2V84.3z M73.3,57.2c0-14.9-2.9-26.6-8.8-35
			S50.1,9.6,39,9.7c-11.1,0-19.6,4.2-25.5,12.6s-8.8,20.1-8.8,35v26.9c0,14.8,2.9,26.4,8.8,35S27.9,132,39,131.9
			c11.1,0,19.5-4.3,25.4-12.8c5.8-8.5,8.8-20.2,8.8-35L73.3,57.2L73.3,57.2z"/>
		<path class="st2" d="M136.1,4.9c4.4,0,8.8,0.5,13.1,1.5c4.2,1,8.3,2.5,12,4.7l-1.9,4.5c-3.4-2-7-3.6-10.8-4.6
			c-4.1-0.9-8.3-1.4-12.4-1.3c-9.8,0-18.1,3.7-24.9,11.2S101,38.1,101,50.3v22.4c6-13.6,19.5-22.3,34.3-22.1c11.6,0,20.6,4,27.2,12
			s9.8,18.6,9.9,31.8c0,12.1-3.6,22.2-10.7,30.3s-16.2,12.1-27.2,12.1c-10.6,0.2-20.8-4.5-27.4-12.8c-7.1-8.6-10.7-19.9-10.7-34.1
			V50.4c0-13.3,3.9-24.2,11.6-32.7S125,4.9,136.1,4.9z M101,85.9v3.8c0,12.7,3.1,22.9,9.3,30.6c5.7,7.5,14.7,11.9,24.1,11.7
			c9.8,0,17.8-3.7,23.9-11.1c6.2-7.4,9.2-16.2,9.2-26.6c0-11.8-2.8-21.3-8.4-28.4c-5.6-7.1-13.8-10.6-24.4-10.6
			c-8.7-0.1-17.1,3.1-23.5,9C104.5,70.4,101.1,77.6,101,85.9L101,85.9z"/>
	</g>
</g>
</svg>
