<?xml version="1.0" encoding="utf-8"?>
<!-- Generator: Adobe Illustrator 23.0.0, SVG Export Plug-In . SVG Version: 6.00 Build 0)  -->
<svg version="1.1" id="Layer_1" xmlns="http://www.w3.org/2000/svg" xmlns:xlink="http://www.w3.org/1999/xlink" x="0px" y="0px"
	 viewBox="0 0 484.8 146" style="enable-background:new 0 0 484.8 146;" xml:space="preserve">
<style type="text/css">
	.st0{clip-path:url(#SVGID_2_);}
	.st1{fill:url(#SVGID_3_);}
	.st2{fill:#BE975F;}
</style>
<title>Asset 2</title>
<g>
	<g id="Layer_1-2">
		<g>
			<defs>
				<path id="SVGID_1_" d="M230.5,8.8h8.9v49.6h-8.9V36.9h-25.4v21.5h-8.9V8.8h8.9v20.8h25.4L230.5,8.8z M249,7.3h9.7v8.6H249V7.3z
					 M249.6,58.4V23.2h8.6v35.2H249.6z M298.6,41.3h-24.3c0.2,3.8,1.1,6.5,2.8,8.3s4.2,2.7,7.6,2.7c3.9,0,7.7-1.3,10.7-3.8l2.5,6
					c-1.8,1.4-3.9,2.5-6.2,3.2c-2.4,0.8-4.9,1.2-7.4,1.2c-5.8,0-10.3-1.6-13.6-4.9c-3.3-3.2-4.9-7.7-5-13.4
					c-0.1-3.3,0.7-6.6,2.2-9.5c1.4-2.7,3.5-5,6.1-6.5c2.7-1.6,5.7-2.4,8.9-2.3c4.8,0,8.6,1.6,11.5,4.7s4.2,7.5,4.2,13L298.6,41.3z
					 M278.4,18.7h-7.1L280,4.3h5.5l8.8,14.3h-7.1l-4.4-8.9L278.4,18.7z M277.4,30.7c-1.6,1.6-2.6,3.7-2.8,6h16.4
					c-0.1-2.2-0.9-4.3-2.4-6c-1.5-1.4-3.4-2.1-5.5-2C280.9,28.5,278.9,29.3,277.4,30.7L277.4,30.7z M279.9,63.9h8.4V72h-8.4V63.9z
					 M337.9,23.2v35.2h-8.5V53c-1,1.9-2.5,3.4-4.4,4.4c-2,1.1-4.2,1.6-6.5,1.6c-8.6,0-12.9-4.8-12.9-14.5V23.2h8.6v21.3
					c0,2.6,0.5,4.4,1.6,5.6c1.3,1.3,3,2,4.8,1.8c2.3,0.1,4.6-0.8,6.1-2.5c1.6-1.8,2.4-4.2,2.3-6.7V23.2L337.9,23.2z M400.7,23.2
					c-0.4,3.3-0.7,6.7-0.6,10v40.3h-8.7V53.1c-1,1.9-2.6,3.4-4.6,4.4c-2.1,1.1-4.4,1.6-6.7,1.6c-2.9,0-5.7-0.7-8.1-2.3
					c-2.4-1.5-4.3-3.7-5.5-6.3c-1.4-3-2.1-6.3-2-9.5c-0.1-3.3,0.6-6.6,2-9.7c1.2-2.7,3.1-4.9,5.5-6.5c2.4-1.6,5.2-2.4,8.1-2.3
					c2.5,0,5,0.6,7.2,1.8c2,1.2,3.7,2.9,4.6,5.1l0.6-6L400.7,23.2z M389.2,49.2c1.6-2,2.4-4.8,2.4-8.4c0-3.7-0.8-6.6-2.4-8.6
					c-3.3-3.7-9-4-12.7-0.7c-0.3,0.2-0.5,0.5-0.8,0.8c-1.6,2.1-2.4,4.9-2.4,8.6c0,3.7,0.8,6.5,2.4,8.4c1.7,2,4.2,3.1,6.8,2.9
					C385.1,52.3,387.6,51.2,389.2,49.2z M441.7,23.2v35.2h-8.5V53c-1,1.9-2.6,3.4-4.5,4.5c-2,1.1-4.2,1.6-6.4,1.5
					c-8.6,0-12.9-4.8-12.9-14.5V23.2h8.6v21.3c0,2.6,0.5,4.4,1.6,5.6c1.3,1.3,3.1,2,4.9,1.8c2.3,0.1,4.6-0.8,6.1-2.5
					c1.6-1.8,2.4-4.2,2.3-6.7V23.2L441.7,23.2z M484.8,23.2v35.2h-8.6v-5.7c-1.1,1.9-2.7,3.5-4.6,4.6c-2.1,1.1-4.4,1.7-6.8,1.7
					c-2.9,0.1-5.7-0.7-8.1-2.2c-2.4-1.5-4.3-3.7-5.5-6.3c-1.4-3-2-6.3-2-9.5c-0.1-3.3,0.6-6.6,2-9.7c1.2-2.7,3.1-4.9,5.5-6.5
					c2.4-1.6,5.2-2.4,8.1-2.3c2.4,0,4.7,0.5,6.8,1.7c1.9,1,3.5,2.6,4.6,4.6v-5.3L484.8,23.2z M473.9,49.2c1.6-2,2.4-4.8,2.4-8.4
					c0-3.7-0.8-6.6-2.4-8.6c-3.3-3.7-9-4-12.7-0.7c-0.3,0.2-0.5,0.5-0.8,0.8c-1.6,2.1-2.4,4.9-2.4,8.6s0.8,6.4,2.4,8.4
					c1.7,2,4.2,3.1,6.8,2.9C469.7,52.3,472.2,51.2,473.9,49.2z M470.4,18.7h-4.7v-1.9c0-0.8,0.2-1.7,0.7-2.4c0.6-0.8,1.2-1.5,2-2.1
					c0.5-0.4,0.9-0.8,1.3-1.2c0.3-0.3,0.4-0.7,0.4-1.1c0-1.1-0.9-1.7-2.6-1.7c-1.3,0-2.6,0.2-3.8,0.7l-1.3-3.6
					c1.8-0.9,3.8-1.3,5.9-1.3c2-0.1,4,0.4,5.7,1.5c1.3,0.8,2,2.1,2.1,3.6c0,0.9-0.2,1.8-0.8,2.6c-0.7,0.8-1.5,1.6-2.4,2.3
					c-0.6,0.5-1.2,1-1.8,1.6c-0.4,0.4-0.6,1-0.6,1.6L470.4,18.7z M193.3,126.5l2.4-6.1c3.7,2.8,8.3,4.2,12.9,4.2
					c1.7,0.1,3.3-0.2,4.8-1c1.1-0.6,1.7-1.7,1.7-2.9c0-1-0.4-1.9-1.2-2.5c-1.2-0.8-2.6-1.4-4-1.6l-5.9-1.3c-6.4-1.4-9.6-4.7-9.6-9.8
					c0-2,0.6-4,1.8-5.7c1.3-1.7,3.1-3.1,5.1-3.9c2.4-1,5-1.5,7.6-1.4c2.5,0,4.9,0.4,7.3,1.2c2.2,0.7,4.3,1.8,6.1,3.3l-2.6,5.9
					c-3.1-2.5-6.9-3.8-10.9-3.9c-1.6-0.1-3.3,0.3-4.7,1.1c-1.1,0.6-1.7,1.8-1.7,3.1c0,0.9,0.3,1.8,1,2.4c1,0.8,2.2,1.3,3.4,1.5
					l6,1.3c3.5,0.8,6,2,7.6,3.7c1.6,1.7,2.5,4.1,2.4,6.4c0.1,3.1-1.4,6-3.9,7.7c-2.6,1.9-6.2,2.9-10.7,2.9
					C202.1,131,197,129.5,193.3,126.5z M270.8,86.1v2.4c0.1,2.6-0.7,5.1-2.2,7.1c-1.5,1.9-3.6,3.2-6,3.7v31.2H254V125
					c-1,1.9-2.6,3.4-4.5,4.5c-2,1-4.2,1.6-6.4,1.5c-8.6,0-12.9-4.8-12.9-14.5V95.2h8.6v21.3c0,2.6,0.5,4.4,1.6,5.6
					c1.3,1.3,3,2,4.9,1.8c2.3,0.1,4.6-0.8,6.1-2.5c1.6-1.9,2.4-4.2,2.3-6.7V95.2h2.5c2.5,0,4.2-0.6,5.3-1.8s1.6-3.2,1.6-6.1v-1.3
					L270.8,86.1z M248.9,90.7h-4.7v-1.9c0-0.8,0.2-1.7,0.7-2.4c0.6-0.8,1.2-1.5,1.9-2.1c0.5-0.4,0.9-0.8,1.3-1.2
					c0.3-0.3,0.4-0.7,0.4-1.1c0-1.1-0.9-1.7-2.6-1.7c-1.3,0-2.6,0.2-3.8,0.7l-1.3-3.6c1.8-0.9,3.8-1.3,5.9-1.3c2-0.1,4,0.4,5.7,1.5
					c1.2,0.8,2,2.2,2,3.6c0,0.9-0.2,1.8-0.8,2.6c-0.7,0.8-1.5,1.6-2.4,2.3c-0.6,0.5-1.3,1-1.8,1.6c-0.4,0.4-0.6,1-0.6,1.6
					L248.9,90.7z M326.1,79.1v51.3h-8.6v-5.6c-1.1,1.9-2.7,3.5-4.6,4.6c-2.1,1.1-4.5,1.7-6.8,1.6c-2.9,0-5.7-0.8-8.1-2.3
					c-2.4-1.6-4.4-3.9-5.5-6.5c-1.4-3-2.1-6.3-2-9.6c-0.1-3.3,0.6-6.6,2-9.6c2.4-5.4,7.8-8.8,13.7-8.6c2.3,0,4.6,0.5,6.7,1.6
					c1.9,1,3.5,2.5,4.6,4.4V79.1L326.1,79.1z M315.1,121.1c1.6-2,2.4-4.8,2.4-8.5s-0.8-6.5-2.4-8.5c-1.6-2-4.1-3.1-6.7-3
					c-2.6-0.1-5.1,1-6.8,3c-1.6,2-2.4,4.8-2.4,8.4s0.8,6.5,2.4,8.6c3.3,3.7,9,4.1,12.7,0.8C314.7,121.7,314.9,121.4,315.1,121.1
					L315.1,121.1z M367.6,95.2v35.2h-8.5V125c-1,1.9-2.6,3.4-4.5,4.5c-2,1-4.2,1.6-6.4,1.5c-8.6,0-12.9-4.8-12.9-14.5V95.2h8.6v21.3
					c0,2.6,0.5,4.4,1.6,5.6c1.3,1.3,3,2,4.8,1.8c2.3,0.1,4.6-0.8,6.1-2.5c1.6-1.8,2.4-4.2,2.3-6.7V95.2L367.6,95.2z M347.3,135.8
					h8.4v8.2h-8.4V135.8z M409.9,108.8v21.6h-8.7v-21.2c0-2.8-0.5-4.8-1.6-6.1c-1.3-1.4-3.1-2.1-5-1.9c-2.4-0.1-4.7,0.8-6.4,2.6
					c-1.7,1.8-2.5,4.2-2.4,6.7v19.9h-8.6v-25.2c0-3.3-0.2-6.7-0.6-10h8.1l0.6,5.8c1.1-2.1,2.8-3.8,4.9-4.9c2.1-1.2,4.6-1.8,7-1.8
					C405.7,94.3,409.9,99.2,409.9,108.8L409.9,108.8z M453.1,95.2v34.1c0,5.5-1.5,9.6-4.5,12.5c-3,2.8-7.4,4.2-13.3,4.2
					c-5,0.1-9.9-1.1-14.3-3.4l1.4-6.6c3.9,2.1,8.3,3.3,12.8,3.3c6.3,0,9.4-3.1,9.4-9.3v-7c-1.1,1.9-2.7,3.5-4.7,4.6
					c-2.1,1.2-4.5,1.8-6.9,1.8c-2.9,0-5.7-0.7-8.2-2.2c-2.4-1.5-4.4-3.6-5.6-6.2c-2.6-5.8-2.6-12.5,0-18.3c1.2-2.6,3.2-4.7,5.6-6.2
					c2.5-1.5,5.3-2.2,8.2-2.2c2.4,0,4.8,0.5,6.9,1.6c2,1,3.6,2.6,4.6,4.6v-5.3L453.1,95.2z M442,119.8c1.6-1.9,2.5-4.5,2.5-7.9
					s-0.8-6-2.4-7.9c-3.7-3.8-9.7-3.8-13.5-0.1c0,0-0.1,0.1-0.1,0.1c-1.6,1.9-2.5,4.5-2.5,7.9s0.8,6,2.5,7.9
					c3.7,3.8,9.7,3.8,13.5,0.1C442,119.9,442,119.8,442,119.8z"/>
			</defs>
			<clipPath id="SVGID_2_">
				<use xlink:href="#SVGID_1_"  style="overflow:visible;"/>
			</clipPath>
			<g class="st0">
				
					<linearGradient id="SVGID_3_" gradientUnits="userSpaceOnUse" x1="86.2302" y1="138.545" x2="538.8098" y2="17.2751" gradientTransform="matrix(1 0 0 -1 0 156)">
					<stop  offset="7.000000e-02" style="stop-color:#EFDF80"/>
					<stop  offset="0.28" style="stop-color:#BB8949"/>
					<stop  offset="0.48" style="stop-color:#DDC364"/>
					<stop  offset="0.68" style="stop-color:#BB8949"/>
					<stop  offset="0.7" style="stop-color:#BD8D4C"/>
					<stop  offset="0.73" style="stop-color:#C59954"/>
					<stop  offset="0.76" style="stop-color:#D1AD61"/>
					<stop  offset="0.78" style="stop-color:#E2C974"/>
					<stop  offset="0.8" style="stop-color:#EEDD81"/>
					<stop  offset="0.89" style="stop-color:#A9803C"/>
					<stop  offset="0.99" style="stop-color:#855B22"/>
				</linearGradient>
				<rect x="98.4" y="-28" class="st1" width="428.2" height="212.2"/>
			</g>
		</g>
		<path class="st2" d="M78,85.3c0,16.7-3.4,29.6-10.2,38.7s-16.3,13.6-28.7,13.6c-12.4,0-22-4.6-28.9-13.7C3.4,114.9,0,102,0,85.3
			V58.2c0-16.7,3.4-29.5,10.2-38.7S26.6,5.9,39,5.9c12.4,0,22,4.6,28.8,13.7S78,41.6,78,58.2V85.3z M73.3,58.2
			c0-14.9-2.9-26.6-8.8-35S50.1,10.6,39,10.7c-11.1,0-19.6,4.2-25.5,12.6s-8.8,20.1-8.8,35v26.9c0,14.8,2.9,26.4,8.8,35
			S28,133,39.1,132.9c11.1,0,19.5-4.3,25.4-12.8c5.8-8.5,8.8-20.2,8.8-35V58.2z"/>
		<path class="st2" d="M155.4,96.1h22.2v4.8h-22.2v34.9h-4.8v-34.9H88.5v-2.6l61.1-90.5h5.7V96.1z M95.9,96.1h54.7V14.4l-0.5-0.2
			l-6.9,11.3L95.9,96.1z"/>
	</g>
</g>
</svg>
