<?xml version="1.0" encoding="utf-8"?>
<!-- Generator: Adobe Illustrator 23.0.0, SVG Export Plug-In . SVG Version: 6.00 Build 0)  -->
<svg version="1.1" id="Layer_1" xmlns="http://www.w3.org/2000/svg" xmlns:xlink="http://www.w3.org/1999/xlink" x="0px" y="0px"
	 viewBox="0 0 425 136.2" style="enable-background:new 0 0 425 136.2;" xml:space="preserve">
<style type="text/css">
	.st0{clip-path:url(#SVGID_2_);}
	.st1{fill:url(#SVGID_3_);}
	.st2{fill:#BE975F;}
</style>
<title>Asset 2</title>
<g>
	<g id="Layer_1-2">
		<g>
			<g>
				<defs>
					<path id="SVGID_1_" d="M232.6,7.4h9.1L219.6,57h-7.3L190.2,7.4h9.3L216,45.7L232.6,7.4z M275.4,21.8V57h-8.6v-5.6
						c-1.1,1.9-2.7,3.5-4.6,4.6c-2.1,1.1-4.4,1.7-6.8,1.7c-2.9,0.1-5.7-0.7-8.1-2.2c-2.4-1.5-4.3-3.7-5.5-6.3c-1.4-3-2-6.3-1.9-9.5
						c-0.1-3.3,0.6-6.6,2-9.7c1.2-2.7,3.1-4.9,5.5-6.5s5.2-2.4,8.1-2.3c2.4,0,4.7,0.5,6.8,1.7c1.9,1,3.5,2.6,4.6,4.6v-5.3
						L275.4,21.8z M253.8,17.3H247l8.9-10h5.2l8.9,10h-6.8l-4.7-5.7L253.8,17.3z M264.4,47.8c1.6-2,2.4-4.8,2.4-8.4
						c0-3.7-0.8-6.6-2.4-8.6c-3.3-3.7-9-4-12.7-0.7c-0.3,0.2-0.5,0.5-0.8,0.8c-1.6,2.1-2.4,4.9-2.4,8.6s0.8,6.5,2.4,8.4
						c1.7,2,4.2,3.1,6.8,2.9C260.3,50.9,262.8,49.8,264.4,47.8L264.4,47.8z M269.4,9.9h-4.5l5.6-9.9h7.7L269.4,9.9z M317.6,35.4V57
						h-8.7V35.8c0-2.8-0.5-4.8-1.6-6.1c-1.3-1.4-3.1-2.1-5-1.9c-2.4-0.1-4.7,0.8-6.4,2.5c-1.7,1.8-2.6,4.3-2.4,6.7v19.9h-8.6V31.8
						c0-3.3-0.2-6.7-0.6-10h8.2l0.5,5.8c1.2-2.1,2.9-3.8,5-4.9c2.1-1.2,4.6-1.8,7-1.8C313.4,20.9,317.6,25.8,317.6,35.4z M386,17.4
						h-6.4V57H371v-5.6c-1.1,1.9-2.7,3.5-4.6,4.6c-2.1,1.1-4.4,1.7-6.8,1.7c-2.9,0-5.7-0.8-8.1-2.3c-2.4-1.6-4.3-3.9-5.5-6.5
						c-1.4-3-2.1-6.3-2-9.7c-0.1-3.3,0.6-6.5,1.9-9.5c2.4-5.4,7.8-8.8,13.7-8.6c2.3,0,4.6,0.5,6.7,1.6c1.9,1,3.5,2.5,4.6,4.4v-9.5
						h-13.5v-6.2h13.5V5.9h8.7v5.5h6.4L386,17.4L386,17.4z M368.6,47.8c1.6-2,2.4-4.8,2.4-8.5s-0.8-6.5-2.4-8.5s-4.1-3.1-6.7-3
						c-2.6-0.1-5.1,1-6.8,3c-1.6,2-2.4,4.8-2.4,8.4s0.8,6.5,2.4,8.6c3.3,3.7,9,4.1,12.7,0.8C368.1,48.3,368.4,48,368.6,47.8
						L368.6,47.8z M419.9,39.9h-24.3c0.2,3.8,1.1,6.5,2.8,8.3s4.2,2.7,7.6,2.7c3.9,0,7.7-1.3,10.7-3.8l2.5,6
						c-1.8,1.4-3.9,2.5-6.2,3.2c-2.4,0.8-4.9,1.2-7.4,1.2c-5.8,0-10.3-1.6-13.6-4.9c-3.3-3.3-4.9-7.7-5-13.4
						c-0.1-3.3,0.7-6.6,2.2-9.5c1.4-2.7,3.5-5,6.1-6.5c2.7-1.6,5.7-2.4,8.9-2.3c4.8,0,8.6,1.6,11.5,4.7s4.2,7.5,4.2,12.9L419.9,39.9
						L419.9,39.9z M399.4,17.3h-6.8l8.9-10h5.2l8.9,10h-6.8l-4.7-5.7L399.4,17.3z M398.7,29.3c-1.6,1.6-2.6,3.7-2.8,6h16.4
						c-0.1-2.2-0.9-4.3-2.4-6c-1.5-1.4-3.4-2.1-5.5-2C402.3,27.2,400.3,27.9,398.7,29.3z M413.5,9.9L405.2,0h7.7l5.1,9.9H413.5z
						 M195.6,129V77.7h8.6V129H195.6z M247.4,93.8V129h-8.6v-5.6c-1.1,1.9-2.7,3.5-4.6,4.6c-2.1,1.1-4.5,1.7-6.8,1.6
						c-2.9,0.1-5.7-0.7-8.1-2.2c-2.4-1.5-4.3-3.7-5.5-6.3c-1.4-3-2-6.3-1.9-9.5c-0.1-3.3,0.6-6.6,2-9.6c1.2-2.7,3.1-4.9,5.5-6.6
						c2.4-1.6,5.2-2.4,8.1-2.3c2.4,0,4.7,0.5,6.8,1.6c1.9,1,3.5,2.6,4.6,4.6V94L247.4,93.8z M227.7,89.3L217.5,75h8.9l7,14.3H227.7z
						 M236.5,119.7c1.6-2,2.4-4.8,2.4-8.4c0-3.7-0.8-6.6-2.4-8.6c-3.3-3.7-9-4-12.7-0.7c-0.3,0.2-0.5,0.5-0.8,0.8
						c-1.6,2.1-2.4,4.9-2.4,8.6c0,3.7,0.8,6.5,2.4,8.4c1.7,2,4.2,3.1,6.8,2.9C232.4,122.9,234.9,121.8,236.5,119.7z M289.6,107.4
						V129h-8.7v-21.2c0-2.8-0.5-4.8-1.6-6.1c-1.3-1.4-3.1-2.1-5-1.9c-2.4-0.1-4.7,0.8-6.4,2.5c-1.7,1.8-2.6,4.3-2.4,6.7v19.9h-8.6
						v-25.2c0-3.3-0.2-6.7-0.6-10h8.2l0.6,5.8c1.2-2.1,2.9-3.8,4.9-4.9c2.1-1.2,4.6-1.8,7-1.8C285.4,92.9,289.6,97.8,289.6,107.4
						L289.6,107.4z M351.6,77.7V129H343v-5.6c-1.1,1.9-2.7,3.5-4.6,4.6c-2.1,1.1-4.5,1.7-6.8,1.6c-2.9,0-5.7-0.8-8.1-2.3
						c-2.4-1.6-4.4-3.9-5.5-6.5c-1.4-3-2.1-6.3-2-9.6c-0.1-3.3,0.6-6.5,2-9.5c2.4-5.4,7.8-8.8,13.7-8.6c2.3,0,4.6,0.5,6.7,1.6
						c1.9,1,3.5,2.5,4.6,4.4V77.9L351.6,77.7z M340.6,119.7c1.6-2,2.4-4.8,2.4-8.5s-0.8-6.5-2.4-8.5s-4.1-3.1-6.7-3
						c-2.6-0.1-5.1,1-6.8,3c-1.6,2-2.4,4.8-2.4,8.4s0.8,6.5,2.4,8.6c3.3,3.7,9,4.1,12.7,0.8C340.2,120.3,340.4,120,340.6,119.7
						L340.6,119.7z M394.7,93.8V129h-8.5v-5.6c-1.1,1.9-2.6,3.5-4.6,4.6c-2.1,1.1-4.5,1.7-6.8,1.6c-2.9,0.1-5.7-0.7-8.1-2.2
						c-2.4-1.5-4.3-3.7-5.5-6.3c-1.4-3-2-6.3-2-9.5c-0.1-3.3,0.6-6.6,2-9.6c1.2-2.7,3.1-4.9,5.5-6.6c2.4-1.6,5.2-2.4,8.1-2.3
						c2.4,0,4.7,0.5,6.8,1.6c1.9,1,3.5,2.6,4.6,4.6V94L394.7,93.8z M383.8,119.7c1.6-2,2.4-4.8,2.4-8.4c0-3.7-0.8-6.6-2.4-8.6
						c-3.3-3.7-9-4-12.7-0.7c-0.3,0.2-0.5,0.5-0.8,0.8c-1.6,2.1-2.4,4.9-2.4,8.6c0,3.7,0.8,6.5,2.4,8.4c1.7,2,4.2,3.1,6.8,2.9
						C379.7,122.9,382.2,121.8,383.8,119.7L383.8,119.7z"/>
				</defs>
				<clipPath id="SVGID_2_">
					<use xlink:href="#SVGID_1_"  style="overflow:visible;"/>
				</clipPath>
				<g class="st0">
					
						<linearGradient id="SVGID_3_" gradientUnits="userSpaceOnUse" x1="86.217" y1="-155.9331" x2="538.783" y2="-34.6669" gradientTransform="matrix(1 0 0 1 0 172)">
						<stop  offset="7.000000e-02" style="stop-color:#EBDB80"/>
						<stop  offset="0.28" style="stop-color:#B78549"/>
						<stop  offset="0.48" style="stop-color:#D9BF64"/>
						<stop  offset="0.68" style="stop-color:#B78549"/>
						<stop  offset="0.7" style="stop-color:#B9894C"/>
						<stop  offset="0.73" style="stop-color:#C19554"/>
						<stop  offset="0.76" style="stop-color:#CDA961"/>
						<stop  offset="0.78" style="stop-color:#DEC573"/>
						<stop  offset="0.8" style="stop-color:#EAD980"/>
						<stop  offset="0.89" style="stop-color:#A5803C"/>
						<stop  offset="0.99" style="stop-color:#815B22"/>
					</linearGradient>
					<rect x="98.4" y="-29.4" class="st1" width="428.2" height="212.2"/>
				</g>
			</g>
		</g>
		<path class="st2" d="M78,83.9c0,16.7-3.4,29.6-10.2,38.7s-16.3,13.6-28.7,13.6s-22-4.6-28.9-13.7C3.4,113.5,0,100.6,0,83.9V56.8
			c0-16.7,3.4-29.5,10.2-38.7S26.6,4.5,39,4.5s22,4.6,28.8,13.7S78,40.2,78,56.8V83.9z M73.3,56.8c0-14.9-2.9-26.6-8.8-35
			S50.1,9.2,39,9.3c-11.1,0-19.6,4.2-25.5,12.6S4.7,42,4.7,56.9v26.9c0,14.8,2.9,26.4,8.8,35s14.5,12.8,25.6,12.7
			c11.1,0,19.5-4.3,25.4-12.8c5.8-8.5,8.8-20.2,8.8-35V56.8z"/>
		<path class="st2" d="M171.4,134.4H94.8v-4.8l41.9-48.4c8-9.2,13.8-17.1,17.5-23.8s5.5-12.9,5.5-18.6c0-9.3-2.6-16.6-7.7-21.8
			s-12.7-7.8-22.6-7.8c-10.5,0-18.6,3.1-24.4,9.2s-8.6,14.2-8.6,24h-4l-0.2-0.5c-0.3-10.4,3-19.2,9.8-26.5s16-10.9,27.3-10.9
			c10.6,0,19.1,3,25.6,9c6.4,6,9.6,14.5,9.6,25.4c0,7.1-2.3,14.3-6.9,21.7c-5.9,9.1-12.4,17.7-19.5,25.8l-36.7,42.8l0.2,0.4h69.7
			L171.4,134.4L171.4,134.4z"/>
	</g>
</g>
</svg>
