<?xml version="1.0" encoding="utf-8"?>
<!-- Generator: Adobe Illustrator 23.0.0, SVG Export Plug-In . SVG Version: 6.00 Build 0)  -->
<svg version="1.1" id="Layer_1" xmlns="http://www.w3.org/2000/svg" xmlns:xlink="http://www.w3.org/1999/xlink" x="0px" y="0px"
	 viewBox="0 0 576.4 157.7" style="enable-background:new 0 0 576.4 157.7;" xml:space="preserve">
<style type="text/css">
	.st0{clip-path:url(#SVGID_2_);}
	.st1{fill:url(#SVGID_3_);}
	.st2{fill:#BE975F;}
</style>
<title>Asset 5</title>
<g>
	<g id="Layer_1-2">
		<g>
			<g>
				<defs>
					<path id="SVGID_1_" d="M205.9,55.9c-3.6-2.1-6.5-5.2-8.4-8.9c-2-4.2-3-8.8-2.9-13.5c-0.1-4.6,0.9-9.2,2.9-13.4
						c1.9-3.7,4.8-6.8,8.4-8.8c3.9-2.1,8.3-3.2,12.8-3.1c3.2,0,6.4,0.5,9.4,1.6c2.7,0.9,5.2,2.4,7.4,4.3l-2.9,6.5
						c-2-1.7-4.2-3-6.7-3.9c-2.3-0.8-4.7-1.2-7.1-1.2c-4.8,0-8.5,1.6-11.1,4.7s-3.9,7.6-3.9,13.4s1.3,10.3,3.9,13.5
						c2.6,3.1,6.3,4.7,11.1,4.7c2.4,0,4.8-0.4,7.1-1.2c2.4-0.9,4.7-2.3,6.7-3.9l2.9,6.6c-2.1,2-4.6,3.4-7.4,4.3
						c-3,1-6.2,1.6-9.4,1.5C214.3,59.1,209.8,58,205.9,55.9z M276,36.8v21.6h-8.7V37.2c0-2.8-0.5-4.8-1.6-6.1
						c-1.3-1.4-3.1-2.1-5-1.9c-2.4-0.1-4.7,0.8-6.4,2.5c-1.7,1.8-2.5,4.3-2.4,6.7v19.9h-8.6V7.1h8.6v21.2c1.2-1.9,2.8-3.4,4.8-4.4
						c2.1-1.1,4.4-1.6,6.7-1.6C271.9,22.3,276.1,27.1,276,36.8z M284.8,7.3h9.7v8.6h-9.7V7.3z M285.3,58.4V23.2h8.7v35.2H285.3z
						 M337.2,23.2v35.2h-8.6v-5.6c-1.1,1.9-2.7,3.5-4.6,4.6c-2.1,1.1-4.4,1.7-6.8,1.7c-2.9,0-5.7-0.7-8.2-2.3
						c-2.4-1.5-4.3-3.7-5.5-6.3c-1.4-3-2-6.3-2-9.5c-0.1-3.3,0.6-6.6,2-9.7c1.2-2.7,3.1-4.9,5.5-6.5s5.2-2.4,8.1-2.3
						c2.4,0,4.7,0.5,6.8,1.7c1.9,1,3.5,2.6,4.6,4.6v-5.3L337.2,23.2z M326.2,49.2c1.6-2,2.4-4.8,2.4-8.4s-0.8-6.6-2.4-8.6
						s-4.2-3.1-6.8-3c-2.6-0.1-5.1,1-6.7,3.1s-2.4,4.9-2.4,8.6s0.8,6.5,2.4,8.4c1.7,2,4.2,3.1,6.8,2.9
						C322.1,52.3,324.6,51.2,326.2,49.2z M363.4,54.5l2.4-6.1c3.7,2.8,8.3,4.2,12.9,4.2c1.7,0.1,3.3-0.2,4.8-1
						c1.1-0.6,1.7-1.7,1.7-2.9c0-1-0.4-1.9-1.2-2.5c-1.2-0.8-2.6-1.4-4-1.6l-5.9-1.3c-6.4-1.4-9.6-4.7-9.6-9.8c0-2,0.6-4,1.8-5.7
						c1.3-1.7,3.1-3.1,5.1-3.9c2.4-1,5-1.5,7.6-1.4c2.5,0,4.9,0.4,7.2,1.2c2.2,0.7,4.3,1.8,6.1,3.3l-2.6,5.9
						c-3.1-2.5-6.9-3.8-10.9-3.9c-1.6-0.1-3.3,0.3-4.7,1.1c-1.1,0.7-1.7,1.8-1.6,3.1c0,0.9,0.3,1.8,1,2.4c1,0.8,2.2,1.3,3.5,1.6
						l6,1.3c3.5,0.8,6,2,7.6,3.7s2.5,4.1,2.4,6.4c0.1,3.1-1.4,6-3.9,7.7c-2.6,1.9-6.2,2.8-10.7,2.8C372.3,59,367.2,57.5,363.4,54.5z
						 M431.4,41.3h-24.3c0.2,3.8,1.1,6.5,2.8,8.3s4.2,2.7,7.6,2.7c3.9,0,7.7-1.3,10.7-3.8l2.5,6c-1.8,1.4-3.9,2.5-6.2,3.2
						c-2.4,0.8-4.9,1.2-7.4,1.2c-5.8,0-10.3-1.6-13.6-4.9c-3.3-3.3-4.9-7.7-5-13.4c-0.1-3.3,0.7-6.6,2.2-9.5c1.4-2.7,3.5-5,6.1-6.5
						c2.7-1.6,5.7-2.4,8.8-2.3c4.8,0,8.6,1.6,11.5,4.7s4.2,7.4,4.2,12.9L431.4,41.3z M410.3,30.7c-1.6,1.6-2.6,3.7-2.8,6h16.4
						c-0.1-2.2-0.9-4.3-2.4-6c-1.5-1.4-3.4-2.1-5.5-2C413.9,28.6,411.8,29.3,410.3,30.7z M418.2,18.7h-4.7v-1.9
						c0-0.8,0.2-1.7,0.7-2.4c0.6-0.8,1.2-1.5,2-2.1c0.5-0.4,0.9-0.8,1.3-1.2c0.3-0.3,0.4-0.7,0.4-1.1c0-1.1-0.9-1.7-2.6-1.7
						c-1.3,0-2.6,0.2-3.8,0.7l-1.3-3.6c1.8-0.9,3.8-1.3,5.8-1.3c2-0.1,4,0.4,5.7,1.5c1.3,0.8,2,2.1,2.1,3.6c0,0.9-0.2,1.9-0.8,2.6
						c-0.7,0.8-1.5,1.6-2.4,2.3c-0.6,0.5-1.3,1-1.8,1.6c-0.4,0.4-0.6,1-0.6,1.6L418.2,18.7z M230.5,142h-10.9l-15.4-16.2V142h-8.6
						V90.7h8.6v31.6l14.5-15.5h10.5l-15.8,16.8L230.5,142z M266.7,120.4V142H258v-21.2c0-2.8-0.5-4.8-1.6-6.1
						c-1.3-1.4-3.1-2.1-5-1.9c-2.4-0.1-4.7,0.8-6.4,2.5c-1.7,1.8-2.6,4.2-2.4,6.7v20H234V90.7h8.6v21.2c1.2-1.9,2.8-3.4,4.8-4.4
						c2.1-1.1,4.4-1.6,6.7-1.6C262.5,105.9,266.7,110.8,266.7,120.4L266.7,120.4z M309.6,106.8V142H301v-5.6
						c-1.1,1.9-2.7,3.5-4.6,4.6c-2.1,1.1-4.5,1.7-6.8,1.6c-2.9,0.1-5.7-0.7-8.1-2.2s-4.3-3.7-5.5-6.3c-1.4-3-2.1-6.3-2-9.6
						c-0.1-3.3,0.6-6.6,2-9.6c1.2-2.7,3.1-4.9,5.5-6.6c2.4-1.6,5.2-2.4,8.1-2.3c2.4,0,4.7,0.5,6.8,1.6c1.9,1,3.5,2.6,4.6,4.6v-5.3
						L309.6,106.8z M298.7,132.8c1.6-2,2.4-4.8,2.4-8.4s-0.8-6.5-2.4-8.6c-1.6-2-4.2-3.1-6.8-3c-2.6-0.1-5.1,1-6.7,3.1
						s-2.4,4.9-2.4,8.6s0.8,6.4,2.4,8.4c1.7,2,4.2,3.1,6.8,2.9C294.6,135.9,297.1,134.8,298.7,132.8z M295.6,102.3H290l7-14.4h8.9
						L295.6,102.3z M325.6,140.3c-2.6-1.4-4.8-3.6-6.2-6.3c-2.9-6.1-2.9-13.2,0.1-19.3c1.5-2.7,3.7-5,6.4-6.5
						c2.9-1.6,6.2-2.4,9.6-2.3c2.5,0,4.9,0.4,7.3,1.2c2.1,0.6,4,1.8,5.6,3.3l-2.4,6.1c-1.4-1.2-3-2.1-4.7-2.8
						c-1.6-0.6-3.3-0.9-5-0.9c-2.8-0.1-5.5,1-7.4,3c-1.8,2-2.6,4.8-2.6,8.5s0.9,6.6,2.6,8.5c1.9,2,4.6,3.1,7.4,2.9
						c1.7,0,3.4-0.4,5-1c1.7-0.7,3.3-1.6,4.7-2.8l2.4,6.1c-1.7,1.5-3.6,2.6-5.8,3.3c-2.4,0.8-4.9,1.2-7.5,1.2
						C331.8,142.7,328.5,141.9,325.6,140.3L325.6,140.3z M386.9,120.4V142h-8.7v-21.2c0-2.8-0.5-4.8-1.6-6.1c-1.3-1.4-3.1-2.1-5-1.9
						c-2.4-0.1-4.7,0.8-6.4,2.5c-1.7,1.8-2.6,4.2-2.4,6.7v20h-8.6V90.7h8.6v21.2c1.2-1.9,2.8-3.4,4.8-4.4c2.1-1.1,4.4-1.6,6.7-1.6
						C382.7,105.9,386.9,110.8,386.9,120.4L386.9,120.4z M448,120.4V142h-8.7v-21.2c0-2.8-0.5-4.8-1.6-6.1c-1.3-1.4-3.1-2.1-4.9-1.9
						c-2.4-0.1-4.7,0.8-6.4,2.5c-1.7,1.8-2.6,4.2-2.4,6.7v20h-8.6V90.7h8.6v21.2c1.2-1.9,2.8-3.4,4.8-4.4c2.1-1.1,4.4-1.6,6.7-1.6
						C443.8,105.9,448,110.8,448,120.4L448,120.4z M491,106.8V142h-8.6v-5.6c-1.1,1.9-2.7,3.5-4.6,4.6c-2.1,1.1-4.4,1.7-6.8,1.6
						c-2.9,0.1-5.7-0.7-8.1-2.2s-4.3-3.7-5.5-6.3c-1.4-3-2-6.3-2-9.6c-0.1-3.3,0.6-6.6,2-9.6c1.2-2.7,3.1-4.9,5.5-6.6
						c2.4-1.6,5.2-2.4,8.1-2.3c2.4,0,4.7,0.5,6.8,1.6c1.9,1,3.5,2.6,4.6,4.6v-5.3L491,106.8z M471.3,102.3L461,88h8.9l7,14.4
						L471.3,102.3z M480,132.8c1.6-2,2.4-4.8,2.4-8.4s-0.8-6.5-2.4-8.6c-1.6-2-4.1-3.1-6.8-3c-2.6-0.1-5.1,1-6.7,3.1
						s-2.4,4.9-2.4,8.6s0.8,6.4,2.4,8.4c1.7,2,4.2,3.1,6.8,2.9C475.9,135.9,478.4,134.8,480,132.8z M533.2,120.4V142h-8.7v-21.2
						c0-2.8-0.5-4.8-1.6-6.1c-1.3-1.4-3.1-2.1-4.9-1.9c-2.4-0.1-4.7,0.8-6.4,2.5c-1.7,1.8-2.6,4.2-2.4,6.7v20h-8.7v-25.2
						c0-3.3-0.2-6.7-0.6-10h8.2l0.6,5.8c1.1-2.1,2.8-3.8,4.9-5c2.1-1.2,4.6-1.8,7-1.7C528.9,105.9,533.1,110.8,533.2,120.4
						L533.2,120.4z M576.4,106.8v34.1c0,5.5-1.5,9.6-4.5,12.5s-7.5,4.3-13.3,4.3c-5,0.1-9.9-1.1-14.4-3.4l1.4-6.6
						c3.9,2.1,8.3,3.3,12.8,3.4c6.3,0,9.4-3.1,9.4-9.3v-7c-1.1,1.9-2.7,3.5-4.7,4.6c-2.1,1.2-4.5,1.8-6.9,1.8
						c-2.9,0-5.7-0.7-8.2-2.2c-2.4-1.5-4.3-3.6-5.6-6.2c-2.7-5.8-2.7-12.5,0-18.3c1.2-2.6,3.2-4.7,5.6-6.2c2.5-1.5,5.3-2.2,8.2-2.2
						c2.4,0,4.8,0.5,6.9,1.6c2,1,3.6,2.6,4.6,4.6V107L576.4,106.8z M565.3,131.4c1.7-1.9,2.5-4.5,2.5-7.9s-0.8-6-2.4-7.9
						c-3.7-3.8-9.8-3.8-13.5-0.1l-0.1,0.1c-1.7,1.9-2.5,4.5-2.5,7.9s0.8,6,2.5,7.9c3.7,3.8,9.7,3.8,13.4,0.2
						C565.2,131.5,565.2,131.4,565.3,131.4z"/>
				</defs>
				<clipPath id="SVGID_2_">
					<use xlink:href="#SVGID_1_"  style="overflow:visible;"/>
				</clipPath>
				<g class="st0">
					
						<linearGradient id="SVGID_3_" gradientUnits="userSpaceOnUse" x1="89.9114" y1="-168.3206" x2="645.3885" y2="-19.4794" gradientTransform="matrix(1 0 0 1 0 172)">
						<stop  offset="7.000000e-02" style="stop-color:#EBDB80"/>
						<stop  offset="0.28" style="stop-color:#B78549"/>
						<stop  offset="0.48" style="stop-color:#D9BF64"/>
						<stop  offset="0.68" style="stop-color:#B78549"/>
						<stop  offset="0.7" style="stop-color:#B9894C"/>
						<stop  offset="0.73" style="stop-color:#C19554"/>
						<stop  offset="0.76" style="stop-color:#CDA961"/>
						<stop  offset="0.78" style="stop-color:#DEC573"/>
						<stop  offset="0.8" style="stop-color:#EAD980"/>
						<stop  offset="0.89" style="stop-color:#A5803C"/>
						<stop  offset="0.99" style="stop-color:#815B22"/>
					</linearGradient>
					<rect x="98.4" y="-28" class="st1" width="538.5" height="212.2"/>
				</g>
			</g>
		</g>
		<path class="st2" d="M78,85.3c0,16.7-3.4,29.6-10.2,38.7s-16.3,13.6-28.7,13.6s-22-4.6-28.9-13.7C3.4,114.9,0,102,0,85.3V58.2
			c0-16.7,3.4-29.5,10.2-38.7S26.6,5.9,39,5.9s22,4.6,28.8,13.7S78,41.6,78,58.2V85.3z M73.3,58.2c0-14.9-2.9-26.6-8.8-35
			S50.1,10.6,39,10.7c-11.1,0-19.6,4.2-25.5,12.6s-8.8,20.1-8.8,35v26.9c0,14.8,2.9,26.4,8.8,35c6,8.5,14.5,12.8,25.7,12.8
			c11.1,0,19.5-4.3,25.4-12.8s8.8-20.2,8.8-35L73.3,58.2z"/>
		<path class="st2" d="M99,77.6l6.9-69.8h60.7v4.7h-56.4l-5.4,54.4c3.5-3.5,7.6-6.4,12.1-8.3c4.4-1.9,10.8-2.9,19.3-3.2
			c10.2-0.3,18.6,3.2,25.3,10.5c6.6,7.3,9.9,17,9.9,29.3c0,13.1-3.1,23.5-9.2,31.1c-6.2,7.7-15.7,11.5-28.6,11.5
			c-10.4,0-19-2.9-25.8-8.8s-10.1-14.6-9.8-26.2l0.2-0.5h4.1c0,10.1,2.8,17.7,8.4,22.9s13.3,7.8,23,7.8c11.4,0,19.7-3.1,25-9.4
			s8-15.7,8-28.3c0-10.8-2.7-19.3-8-25.5s-12.8-9.3-22.3-9.3c-9.4,0-16.8,1.6-22.1,4.7c-5.4,3.1-9.5,8.1-11.6,13.9L99,77.6z"/>
	</g>
</g>
</svg>
