<?xml version="1.0" encoding="utf-8"?>
<!-- Generator: Adobe Illustrator 23.0.0, SVG Export Plug-In . SVG Version: 6.00 Build 0)  -->
<svg version="1.1" id="Layer_1" xmlns="http://www.w3.org/2000/svg" xmlns:xlink="http://www.w3.org/1999/xlink" x="0px" y="0px"
	 viewBox="0 0 576.4 153.5" style="enable-background:new 0 0 576.4 153.5;" xml:space="preserve">
<style type="text/css">
	.st0{clip-path:url(#SVGID_2_);}
	.st1{fill:url(#SVGID_3_);}
	.st2{fill:#BE975F;}
</style>
<title>Asset 4</title>
<g>
	<g id="Layer_1-2">
		<g>
			<defs>
				<path id="SVGID_1_" d="M205.9,51.8c-3.6-2.1-6.5-5.2-8.4-8.9c-2-4.2-3-8.8-2.9-13.5c-0.1-4.6,0.9-9.2,2.9-13.4
					c1.9-3.7,4.8-6.8,8.4-8.8c3.9-2.1,8.3-3.2,12.8-3.1c3.2,0,6.4,0.5,9.4,1.6c2.7,0.9,5.2,2.4,7.4,4.3l-2.9,6.5
					c-2-1.7-4.2-3-6.7-3.9c-2.3-0.8-4.7-1.2-7.1-1.2c-4.8,0-8.5,1.6-11.1,4.7c-2.6,3.1-3.9,7.6-3.9,13.4s1.3,10.4,3.9,13.5
					s6.3,4.7,11.1,4.7c2.4,0,4.8-0.4,7.1-1.2c2.4-0.9,4.7-2.3,6.7-3.9l2.9,6.6c-2.1,2-4.6,3.4-7.4,4.3c-3,1-6.2,1.6-9.4,1.5
					C214.3,55,209.8,53.9,205.9,51.8z M276,32.7v21.6h-8.7V33.1c0-2.8-0.5-4.8-1.6-6.1c-1.3-1.4-3.1-2.1-5-1.9
					c-2.4-0.1-4.7,0.8-6.4,2.5c-1.7,1.8-2.5,4.3-2.4,6.7v19.9h-8.6V3h8.6v21.2c1.2-1.9,2.8-3.4,4.8-4.4c2.1-1.1,4.4-1.6,6.7-1.6
					C271.9,18.2,276.1,23,276,32.7z M284.8,3.1h9.7v8.6h-9.7V3.1z M285.3,54.3V19.1h8.7v35.2H285.3z M337.2,19.1v35.2h-8.6v-5.6
					c-1.1,1.9-2.7,3.5-4.6,4.6c-2.1,1.1-4.4,1.7-6.8,1.7c-2.9,0-5.7-0.7-8.2-2.3c-2.4-1.5-4.3-3.7-5.5-6.3c-1.4-3-2-6.3-2-9.5
					c-0.1-3.3,0.6-6.6,2-9.6c1.2-2.7,3.1-4.9,5.5-6.5c2.4-1.6,5.2-2.4,8.1-2.3c2.4,0,4.7,0.5,6.8,1.7c1.9,1,3.5,2.6,4.6,4.6v-5.3
					L337.2,19.1z M326.2,45c1.6-2,2.4-4.8,2.4-8.4s-0.8-6.6-2.4-8.6c-1.6-2-4.2-3.1-6.8-3c-2.6-0.1-5.1,1-6.7,3.1
					c-1.6,2.1-2.4,4.9-2.4,8.6c0,3.7,0.8,6.5,2.4,8.4c1.7,2,4.2,3.1,6.8,2.9C322.1,48.1,324.6,47,326.2,45z M363.4,50.4l2.4-6.1
					c3.7,2.8,8.3,4.2,12.9,4.2c1.7,0.1,3.3-0.2,4.8-1c1.1-0.6,1.7-1.7,1.7-2.9c0-1-0.4-1.9-1.2-2.5c-1.2-0.8-2.6-1.4-4-1.6l-5.9-1.3
					c-6.4-1.4-9.6-4.7-9.6-9.8c0-2,0.6-4,1.8-5.7c1.3-1.7,3.1-3.1,5.1-3.9c2.4-1,5-1.5,7.6-1.4c2.5,0,4.9,0.4,7.2,1.2
					c2.2,0.7,4.3,1.8,6.1,3.3l-2.6,5.9c-3.1-2.5-6.9-3.8-10.9-3.9c-1.6-0.1-3.3,0.3-4.7,1.1c-1.1,0.7-1.7,1.8-1.6,3.1
					c0,0.9,0.3,1.8,1,2.4c1,0.8,2.2,1.3,3.5,1.6l6,1.3c3.5,0.8,6,2,7.6,3.7c1.6,1.7,2.5,4.1,2.4,6.4c0.1,3.1-1.4,6-3.9,7.7
					c-2.6,1.9-6.2,2.8-10.7,2.8C372.3,54.9,367.2,53.4,363.4,50.4z M431.4,37.1h-24.3c0.2,3.8,1.1,6.5,2.8,8.3s4.2,2.7,7.6,2.7
					c3.9,0,7.7-1.3,10.7-3.8l2.5,6c-1.8,1.4-3.9,2.5-6.2,3.2c-2.4,0.8-4.9,1.2-7.4,1.2c-5.8,0-10.3-1.6-13.6-4.9
					c-3.3-3.3-4.9-7.7-5-13.4c-0.1-3.3,0.7-6.6,2.2-9.5c1.4-2.7,3.5-5,6.1-6.5c2.7-1.6,5.7-2.4,8.8-2.3c4.8,0,8.6,1.6,11.5,4.7
					s4.2,7.4,4.2,12.9L431.4,37.1z M410.3,26.5c-1.6,1.6-2.6,3.7-2.8,6h16.4c-0.1-2.2-0.9-4.3-2.4-6c-1.5-1.4-3.4-2.1-5.5-2
					C413.9,24.4,411.8,25.1,410.3,26.5z M418.2,14.6h-4.7v-1.9c0-0.8,0.2-1.7,0.7-2.4c0.6-0.8,1.2-1.5,2-2.1
					c0.5-0.4,0.9-0.8,1.3-1.2c0.3-0.3,0.4-0.7,0.4-1.1c0-1.1-0.9-1.7-2.6-1.7c-1.3,0-2.6,0.2-3.8,0.7l-1.3-3.6C412,0.5,414,0,416,0
					c2-0.1,4,0.4,5.7,1.5c1.3,0.8,2,2.1,2.1,3.6c0,0.9-0.2,1.8-0.8,2.6c-0.7,0.8-1.5,1.6-2.4,2.3c-0.6,0.5-1.3,1-1.8,1.6
					c-0.4,0.4-0.6,1-0.6,1.6L418.2,14.6z M230.5,137.9h-10.9l-15.4-16.2v16.2h-8.6V86.6h8.6v31.6l14.5-15.5h10.5l-15.8,16.8
					L230.5,137.9z M266.7,116.3v21.6H258v-21.2c0-2.8-0.5-4.8-1.6-6.1c-1.3-1.4-3.1-2.1-5-1.9c-2.4-0.1-4.7,0.8-6.4,2.5
					c-1.7,1.8-2.6,4.3-2.4,6.7v19.9H234V86.6h8.6v21.2c1.2-1.9,2.8-3.4,4.8-4.4c2.1-1.1,4.4-1.6,6.7-1.6
					C262.5,101.8,266.7,106.6,266.7,116.3L266.7,116.3z M309.6,102.7v35.2h-8.6v-5.6c-1.1,1.9-2.7,3.5-4.6,4.6
					c-2.1,1.1-4.5,1.7-6.8,1.6c-2.9,0.1-5.7-0.7-8.1-2.2c-2.4-1.5-4.3-3.7-5.5-6.3c-1.4-3-2.1-6.3-2-9.6c-0.1-3.3,0.6-6.6,2-9.6
					c1.2-2.7,3.1-4.9,5.5-6.5c2.4-1.6,5.2-2.4,8.1-2.3c2.4,0,4.7,0.5,6.8,1.6c1.9,1,3.5,2.6,4.6,4.6v-5.3L309.6,102.7z M298.7,128.6
					c1.6-2,2.4-4.8,2.4-8.4c0-3.7-0.8-6.6-2.4-8.6c-1.6-2-4.2-3.1-6.8-3c-2.6-0.1-5.1,1-6.7,3.1c-1.6,2.1-2.4,4.9-2.4,8.6
					c0,3.6,0.8,6.4,2.4,8.4c1.7,2,4.2,3.1,6.8,2.9C294.6,131.8,297.1,130.6,298.7,128.6z M295.6,98.2h-5.6l7-14.3h8.9L295.6,98.2z
					 M325.6,136.2c-2.6-1.4-4.8-3.6-6.2-6.3c-2.9-6.1-2.9-13.2,0.1-19.3c1.5-2.7,3.7-5,6.4-6.5c2.9-1.6,6.2-2.4,9.6-2.3
					c2.5,0,4.9,0.4,7.3,1.2c2.1,0.6,4,1.8,5.6,3.3l-2.4,6.1c-1.4-1.2-3-2.1-4.7-2.8c-1.6-0.6-3.3-0.9-5-0.9c-2.8-0.1-5.5,1-7.4,3
					c-1.8,2-2.6,4.8-2.6,8.5s0.9,6.6,2.6,8.5c1.7,1.9,4.2,2.9,7.4,2.9c1.7,0,3.4-0.4,5-1c1.7-0.7,3.3-1.6,4.7-2.8l2.4,6.1
					c-1.7,1.5-3.6,2.6-5.8,3.3c-2.4,0.8-4.9,1.2-7.5,1.2C331.8,138.5,328.5,137.8,325.6,136.2L325.6,136.2z M386.9,116.3v21.6h-8.7
					v-21.2c0-2.8-0.5-4.8-1.6-6.1c-1.3-1.4-3.1-2.1-5-1.9c-2.4-0.1-4.7,0.8-6.4,2.5c-1.7,1.8-2.6,4.3-2.4,6.7v19.9h-8.6V86.6h8.6
					v21.2c1.2-1.9,2.8-3.4,4.8-4.4c2.1-1.1,4.4-1.6,6.7-1.6C382.7,101.8,386.9,106.6,386.9,116.3L386.9,116.3z M448,116.3v21.6h-8.7
					v-21.2c0-2.8-0.5-4.8-1.6-6.1c-1.3-1.4-3.1-2.1-4.9-1.9c-2.4-0.1-4.7,0.8-6.4,2.5c-1.7,1.8-2.6,4.3-2.4,6.7v19.9h-8.6V86.6h8.6
					v21.2c1.2-1.9,2.8-3.4,4.8-4.4c2.1-1.1,4.4-1.6,6.7-1.6C443.8,101.8,448,106.6,448,116.3L448,116.3z M491,102.7v35.2h-8.6v-5.6
					c-1.1,1.9-2.7,3.5-4.6,4.6c-2.1,1.1-4.4,1.7-6.8,1.6c-2.9,0.1-5.7-0.7-8.1-2.2c-2.4-1.5-4.3-3.7-5.5-6.3c-1.4-3-2-6.3-2-9.6
					c-0.1-3.3,0.6-6.6,2-9.6c1.2-2.7,3.1-4.9,5.5-6.5c2.4-1.6,5.2-2.4,8.1-2.3c2.4,0,4.7,0.5,6.8,1.6c1.9,1,3.5,2.6,4.6,4.6v-5.3
					L491,102.7z M471.3,98.1L461,83.9h8.9l7,14.4L471.3,98.1z M480,128.6c1.6-2,2.4-4.8,2.4-8.4c0-3.7-0.8-6.6-2.4-8.6
					c-3.3-3.7-9-4-12.7-0.7c-0.3,0.2-0.5,0.5-0.8,0.8c-1.6,2.1-2.4,4.9-2.4,8.6c0,3.6,0.8,6.4,2.4,8.4c1.7,2,4.2,3.1,6.8,2.9
					C475.9,131.8,478.4,130.7,480,128.6z M533.2,116.3v21.6h-8.7v-21.2c0-2.8-0.5-4.8-1.6-6.1c-1.3-1.4-3.1-2.1-4.9-1.9
					c-2.4-0.1-4.7,0.8-6.4,2.5c-1.7,1.8-2.6,4.2-2.5,6.7v19.9h-8.6v-25.2c0-3.3-0.2-6.7-0.6-10h8.2l0.6,5.8c1.1-2.1,2.8-3.8,4.9-5
					c2.1-1.2,4.6-1.8,7-1.7C528.9,101.8,533.1,106.6,533.2,116.3L533.2,116.3z M576.4,102.7v34.1c0,5.5-1.5,9.6-4.5,12.5
					s-7.5,4.3-13.3,4.3c-5,0.1-9.9-1.1-14.4-3.4l1.4-6.6c3.9,2.1,8.3,3.3,12.8,3.3c6.3,0,9.4-3.1,9.4-9.3v-7
					c-1.1,1.9-2.7,3.5-4.7,4.6c-2.1,1.2-4.5,1.8-6.9,1.8c-2.9,0-5.7-0.7-8.2-2.2c-2.4-1.5-4.3-3.6-5.6-6.2c-2.7-5.8-2.7-12.5,0-18.3
					c1.2-2.6,3.2-4.7,5.6-6.2c2.5-1.5,5.3-2.3,8.2-2.2c2.4,0,4.8,0.5,6.9,1.6c2,1,3.6,2.6,4.6,4.6v-5.3L576.4,102.7z M565.3,127.2
					c1.7-1.9,2.5-4.5,2.5-7.9s-0.8-6-2.4-7.9c-3.7-3.8-9.7-3.8-13.5-0.1c0,0-0.1,0.1-0.1,0.1c-1.7,1.9-2.5,4.5-2.5,7.9
					c0,3.3,0.8,6,2.5,7.9c3.7,3.8,9.7,3.8,13.4,0.2C565.2,127.3,565.2,127.3,565.3,127.2z"/>
			</defs>
			<clipPath id="SVGID_2_">
				<use xlink:href="#SVGID_1_"  style="overflow:visible;"/>
			</clipPath>
			<g class="st0">
				
					<linearGradient id="SVGID_3_" gradientUnits="userSpaceOnUse" x1="89.9256" y1="148.2114" x2="645.4443" y2="-0.6409" gradientTransform="matrix(1 0 0 -1 0 147.7505)">
					<stop  offset="7.000000e-02" style="stop-color:#EBDB80"/>
					<stop  offset="0.28" style="stop-color:#B78549"/>
					<stop  offset="0.48" style="stop-color:#D9BF64"/>
					<stop  offset="0.68" style="stop-color:#B78549"/>
					<stop  offset="0.7" style="stop-color:#B9894C"/>
					<stop  offset="0.73" style="stop-color:#C19554"/>
					<stop  offset="0.76" style="stop-color:#CDA961"/>
					<stop  offset="0.78" style="stop-color:#DEC573"/>
					<stop  offset="0.8" style="stop-color:#EAD980"/>
					<stop  offset="0.89" style="stop-color:#A5803C"/>
					<stop  offset="0.99" style="stop-color:#815B22"/>
				</linearGradient>
				<rect x="98.4" y="-32.1" class="st1" width="538.5" height="212.2"/>
			</g>
		</g>
		<path class="st2" d="M78,81.2c0,16.7-3.4,29.6-10.2,38.7s-16.3,13.6-28.7,13.6c-12.4,0-22-4.6-28.9-13.7S0,97.9,0,81.2V54.1
			c0-16.7,3.4-29.5,10.2-38.7S26.6,1.8,39,1.8c12.4,0,22,4.6,28.8,13.7S78,37.5,78,54.1V81.2z M73.3,54.1c0-14.9-2.9-26.6-8.8-35
			S50.1,6.5,39,6.5c-11.1,0-19.6,4.2-25.5,12.6s-8.8,20.1-8.8,35v26.9c0,14.8,2.9,26.4,8.8,35c5.9,8.6,14.4,12.8,25.5,12.7
			c11.1,0,19.5-4.3,25.4-12.8c5.8-8.5,8.8-20.2,8.8-35V54.1z"/>
		<path class="st2" d="M136.1,1.8c4.4,0,8.8,0.5,13.1,1.5c4.2,1,8.3,2.5,12,4.7l-1.9,4.5c-3.4-2-7-3.6-10.8-4.6
			c-4.1-0.9-8.3-1.4-12.4-1.3c-9.8,0-18.1,3.7-24.9,11.2S101,35,101,47.2v22.4c6-13.6,19.5-22.3,34.3-22.1c11.6,0,20.6,4,27.2,12
			s9.8,18.6,9.9,31.8c0,12.1-3.6,22.2-10.7,30.3s-16.2,12.1-27.2,12.1c-10.6,0.2-20.8-4.5-27.4-12.8c-7.1-8.6-10.7-19.9-10.7-34.1
			V47.2c0-13.3,3.9-24.2,11.6-32.7S125,1.8,136.1,1.8z M101,82.8v3.8c0,12.7,3.1,22.9,9.3,30.6c5.7,7.5,14.7,11.9,24.1,11.7
			c9.8,0,17.8-3.7,23.9-11.1c6.2-7.4,9.2-16.2,9.2-26.6c0-11.8-2.8-21.3-8.4-28.4c-5.6-7.1-13.8-10.6-24.4-10.6
			c-8.7-0.1-17.1,3.1-23.5,9C104.5,67.3,101.1,74.4,101,82.8L101,82.8z"/>
	</g>
</g>
</svg>
